<?xml version="1.0" encoding="UTF-8"?><svg viewBox="0 0 24 24" xmlns="http://www.w3.org/2000/svg" role="icon" width="24" height="24"><title>Icons/24px/Money</title><path d="M11 17h-1a2 2 0 01-2-2 1 1 0 012 0h4a1 1 0 000-2h-4a3 3 0 010-6h1V6a1 1 0 012 0v1h1a2 2 0 012 2 1 1 0 01-2 0h-4a1 1 0 100 2h4a3 3 0 010 6h-1v1a1 1 0 01-2 0v-1zm10.542.477a1 1 0 01-1.734-.997A8.953 8.953 0 0021 12a9 9 0 10-9 9 8.953 8.953 0 004.484-1.195 1 1 0 01.998 1.733A10.953 10.953 0 0112 23C5.925 23 1 18.075 1 12S5.925 1 12 1s11 4.925 11 11c0 1.948-.508 3.824-1.458 5.477z"/></svg>