<?xml version="1.0" encoding="UTF-8"?><svg viewBox="0 0 24 24" xmlns="http://www.w3.org/2000/svg" class="bg-icon" role="icon" width="24" height="24"><title>Icons/24px/Phone</title><path d="M14.62 13.974a3.013 3.013 0 013.173-.677c.842.313 1.716.53 2.607.648a1 1 0 01-.26 1.983 13.938 13.938 0 01-3.047-.758 1.012 1.012 0 00-1.064.223l-1.277 1.275a1 1 0 01-1.2.162 17.074 17.074 0 01-6.41-6.396 1 1 0 01.163-1.203l1.273-1.27c.277-.28.366-.695.227-1.064-.367-.982-.622-2.001-.758-3.03-.07-.5-.503-.872-1.02-.867H4.01a1.013 1.013 0 00-1.007 1.082 18.846 18.846 0 002.936 8.27 18.6 18.6 0 005.733 5.72 18.91 18.91 0 008.225 2.924 1.008 1.008 0 001.102-1.011v-2.011a1 1 0 112 0v2.006a3.005 3.005 0 01-.976 2.23 3.023 3.023 0 01-2.324.776 20.916 20.916 0 01-9.106-3.23 20.58 20.58 0 01-6.336-6.322 20.85 20.85 0 01-3.245-9.156 3.005 3.005 0 01.776-2.299A3.014 3.014 0 014.009 1h3.007a3.012 3.012 0 013.013 2.596c.117.889.335 1.761.648 2.599.414 1.1.15 2.339-.682 3.178l-.723.72a15.074 15.074 0 004.619 4.61l.729-.728z"/></svg>