<?xml version="1.0" encoding="UTF-8"?><svg viewBox="0 0 24 24" xmlns="http://www.w3.org/2000/svg" xmlns:xlink="http://www.w3.org/1999/xlink" class="bq-icon" role="icon" width="24" height="24"><title>Icons/24px/Social-Youtube</title><defs><path d="M22.547 7.19c.471 1.565.453 4.826.453 4.826s0 3.245-.453 4.81c-.254.856-.997 1.532-1.94 1.762C18.888 19 12 19 12 19s-6.868 0-8.608-.428c-.942-.23-1.685-.906-1.939-1.763C1 15.261 1 12 1 12s0-3.245.453-4.81c.254-.856 1.015-1.548 1.94-1.778C5.112 5 12 5 12 5s6.886 0 8.608.428c.942.23 1.685.906 1.939 1.763zM15 12l-5-3v6l5-3z" id="bqa"/></defs><use xlink:href="#bqa"/></svg>