<?xml version="1.0" encoding="UTF-8"?><svg viewBox="0 0 24 24" xmlns="http://www.w3.org/2000/svg" class="bx-icon" role="icon" width="24" height="24"><title>Icons/24px/X-Circle</title><path d="M10.586 12L7.757 9.172a1 1 0 011.415-1.415L12 10.586l2.828-2.829a1 1 0 011.415 1.415L13.414 12l2.829 2.828a1 1 0 01-1.415 1.415L12 13.414l-2.828 2.829a1 1 0 11-1.415-1.415L10.586 12zm10.956 5.477a1 1 0 01-1.734-.997A8.953 8.953 0 0021 12a9 9 0 10-9 9 8.953 8.953 0 004.484-1.195 1 1 0 01.998 1.733A10.953 10.953 0 0112 23C5.925 23 1 18.075 1 12S5.925 1 12 1s11 4.925 11 11c0 1.948-.508 3.824-1.458 5.477z"/></svg>