<svg width="24" height="24">
    <title>
        Icons/24px/Eye-Off
    </title>
    <path d="M16.371 17.786l-2.321-2.322A4 4 0 0 1 8.536 9.95L5.987 7.401a17.45 17.45 0 0 0-3.844 4.602 18.513 18.513 0 0 0 2.462 3.313C6.776 17.632 9.255 19 11.984 19a9.07 9.07 0 0 0 4.387-1.214zm2.264-.565a1 1 0 0 1 .022.022l5.05 5.05a1 1 0 0 1-1.414 1.414l-4.467-4.467A11.089 11.089 0 0 1 12 21c-3.38 0-6.339-1.632-8.855-4.316a20.492 20.492 0 0 1-2.25-2.891 15.188 15.188 0 0 1-.79-1.346 1 1 0 0 1 .014-.92 19.45 19.45 0 0 1 4.45-5.544L.292 1.707A1 1 0 1 1 1.707.293L6.755 5.34a1 1 0 0 1 .022.022l3.806 3.806.007.007 4.234 4.234.007.007 3.804 3.804zm-8.607-5.779a1.999 1.999 0 0 0 2.53 2.53l-2.53-2.53zm11.398-.15a18.513 18.513 0 0 0-2.03-2.608C17.223 6.368 14.745 5 11.997 5a8.12 8.12 0 0 0-1.87.214 1 1 0 0 1-.456-1.948A10.116 10.116 0 0 1 12 3c3.38 0 6.339 1.632 8.855 4.316a20.492 20.492 0 0 1 2.25 2.891c.385.596.649 1.065.79 1.346a1 1 0 0 1-.013.918 19.5 19.5 0 0 1-2.277 3.363 1 1 0 0 1-1.53-1.288 17.5 17.5 0 0 0 1.783-2.548c-.126-.217-.27-.454-.432-.705z" fill="#ADB5BD" fill-rule="evenodd"/>
</svg>
