<svg width="24" height="24" viewBox="0 0 24 24">
    <title>
        Icons/24px/Fill
    </title>
    <path d="M16 8.414l-7 7V18h2.586l7-7L16 8.414zM17.414 7L20 9.586 21.586 8 19 5.414 17.414 7zm-4.707 12.707A1 1 0 0 1 12 20H8a1 1 0 0 1-1-1v-4a1 1 0 0 1 .293-.707l11-11a1 1 0 0 1 1.414 0l4 4a1 1 0 0 1 0 1.414l-11 11zM16 0a1 1 0 0 1 0 2H6a1 1 0 0 0-1 1v18a1 1 0 0 0 1 1h12a1 1 0 0 0 1-1v-4a1 1 0 0 1 2 0v4a3 3 0 0 1-3 3H6a3 3 0 0 1-3-3V3a3 3 0 0 1 3-3h10z" fill="#ADB5BD" fill-rule="evenodd"/>
</svg>
