<?xml version="1.0" encoding="UTF-8"?>
<svg width="24px" height="24px" viewBox="0 0 24 24" version="1.1" xmlns="http://www.w3.org/2000/svg" xmlns:xlink="http://www.w3.org/1999/xlink">
    <!-- Generator: Sketch 55.2 (78181) - https://sketchapp.com -->
    <title>Icons/24px/Social-Linkedin</title>
    <desc>Created with Sketch.</desc>
    <g id="Icons/24px/Social-Linkedin" stroke="none" stroke-width="1" fill="none" fill-rule="evenodd">
        <path d="M4,2 L20,2 C21.1045695,2 22,2.8954305 22,4 L22,20 C22,21.1045695 21.1045695,22 20,22 L4,22 C2.8954305,22 2,21.1045695 2,20 L2,4 C2,2.8954305 2.8954305,2 4,2 Z M19.2222222,13.3333333 C19.2222222,11.3328352 17.6004981,9.71111111 15.6,9.71111111 C14.6555556,9.71111111 13.5555556,10.2888889 13.0222222,11.1555556 L13.0222222,9.92222222 L9.92222222,9.92222222 L9.92222222,19.2222222 L13.0222222,19.2222222 L13.0222222,13.7444444 C13.0222222,12.8888889 13.7111111,12.1888889 14.5666667,12.1888889 C15.4257763,12.1888889 16.1222222,12.8853348 16.1222222,13.7444444 L16.1222222,19.2222222 L19.2222222,19.2222222 L19.2222222,13.3333333 Z M8.17777778,6.31111111 C8.17777778,5.27777778 7.34444444,4.43333333 6.31111111,4.43333333 C5.27404308,4.43333333 4.43333333,5.27404308 4.43333333,6.31111111 C4.43333333,7.34444444 5.27777778,8.17777778 6.31111111,8.17777778 C7.34204264,8.17777778 8.17777778,7.34204264 8.17777778,6.31111111 Z M7.85555556,19.2222222 L7.85555556,9.92222222 L4.77777778,9.92222222 L4.77777778,19.2222222 L7.85555556,19.2222222 Z" id="Icon" fill="#ADB5BD"></path>
    </g>
</svg>