<svg width="24" height="24" viewBox="0 0 24 24" xmlns="http://www.w3.org/2000/svg" xmlns:xlink="http://www.w3.org/1999/xlink">
    <title>
        Icons/24px/Social-Twitter
    </title>
    <defs>
        <path d="M19.965 8.508c0-.175-.004-.35-.012-.522A8.277 8.277 0 0 0 22 5.894a8.292 8.292 0 0 1-2.356.636 4.064 4.064 0 0 0 1.804-2.234c-.793.462-1.671.799-2.606.98A4.13 4.13 0 0 0 15.847 4c-2.266 0-4.104 1.809-4.104 4.039 0 .317.036.625.107.92a11.712 11.712 0 0 1-8.458-4.22 3.977 3.977 0 0 0-.556 2.03 4.02 4.02 0 0 0 1.826 3.363 4.122 4.122 0 0 1-1.858-.505l-.001.051c0 1.957 1.415 3.59 3.292 3.96a4.176 4.176 0 0 1-1.853.07c.522 1.604 2.037 2.772 3.833 2.805a8.317 8.317 0 0 1-5.096 1.729c-.331 0-.658-.019-.979-.056A11.751 11.751 0 0 0 8.29 20c7.547 0 11.675-6.155 11.675-11.492z" id="a"/>
    </defs>
    <use fill="#ADB5BD" xlink:href="#a" fill-rule="evenodd"/>
</svg>
