<svg width="24" height="24" viewBox="0 0 24 24" xmlns="http://www.w3.org/2000/svg">
    <title>
        Icons/24px/Social-Facebook
    </title>
    <path d="M15.808 18.133v-3.866h2.609l.389-3.028h-2.998V9.31c0-.875.245-1.472 1.498-1.472h1.588v-.006h.006V5.144h-.006v-.005a21.54 21.54 0 0 0-2.327-.12c-2.306 0-3.89 1.409-3.89 3.992v2.222h-2.59V14.261h2.596V22H3.111A1.111 1.111 0 0 1 2 20.889V3.11C2 2.497 2.497 2 3.111 2H20.89C21.503 2 22 2.497 22 3.111V20.89c0 .614-.497 1.111-1.111 1.111h-5.08v-3.867z" fill="#ADB5BD" fill-rule="evenodd"/>
</svg>
