<svg width="24" height="24" viewBox="0 0 24 24" xmlns="http://www.w3.org/2000/svg">
    <title>
        Icons/24px/Website
    </title>
    <path d="M3.055 11H7.05a16.3 16.3 0 0 1 2.676-7.71A9.008 9.008 0 0 0 3.055 11zm0 2a9.008 9.008 0 0 0 6.671 7.71A16.331 16.331 0 0 1 7.053 13H3.055zm11.22 7.71a8.932 8.932 0 0 0 2.21-.905 1 1 0 0 1 .997 1.733A10.953 10.953 0 0 1 12 23C5.925 23 1 18.075 1 12S5.925 1 12 1s11 4.925 11 11c0 1.948-.508 3.824-1.458 5.477a1 1 0 0 1-1.734-.997A8.931 8.931 0 0 0 20.945 13H16.95a16.3 16.3 0 0 1-2.676 7.71zm6.67-9.71a9.008 9.008 0 0 0-6.671-7.71A16.331 16.331 0 0 1 16.947 11h3.998zm-11.89 0h5.887A14.3 14.3 0 0 0 12 3.55 14.288 14.288 0 0 0 9.055 11zm5.89 2H9.058A14.3 14.3 0 0 0 12 20.45 14.288 14.288 0 0 0 14.945 13z"/>
</svg>
