<svg width="24" height="24" viewBox="0 0 24 24" xmlns="http://www.w3.org/2000/svg">
    <title>
        Icons/24px/Wheelchair
    </title>
    <path d="M10.401 11.013c.614.04 1.217.176 1.79.4.03-.042.064-.082.102-.12l2.275-2.275a1 1 0 0 0-.153-1.54l-.288-.191-3.726 3.726zm-4.057 1.229l6.086-6.087-1.303-.868-2.42 2.42a1 1 0 0 1-1.414-1.414l3-3a1 1 0 0 1 1.262-.125l2.983 1.988a.995.995 0 0 1 .032.022l.955.637a3 3 0 0 1 .457 4.617L14.414 12H19a1 1 0 0 1 .986 1.164l-1 6a1 1 0 1 1-1.972-.328L17.82 14h-2.622A6 6 0 1 1 4.05 16.216a1 1 0 0 1 1.983.26 4 4 0 1 0 1.487-2.616 1 1 0 1 1-1.241-1.568c.02-.017.042-.033.064-.05zM18.5 3a.5.5 0 1 0 0 1 .5.5 0 0 0 0-1zm0-2a2.5 2.5 0 1 1 0 5 2.5 2.5 0 0 1 0-5z" fill="#ADB5BD" fill-rule="evenodd"/>
</svg>
