<svg viewBox="0 0 24 24" xmlns="http://www.w3.org/2000/svg" role="icon">
    <title>
        Icon/key
    </title>
    <path d="M15 10.414l-3.07 3.07a6.017 6.017 0 01.936 5.067 1 1 0 01-1.933-.513 4.012 4.012 0 00-1.054-3.885 4.018 4.018 0 00-5.634.05 4.017 4.017 0 00-.056 5.626A4.018 4.018 0 008.08 20.89a1 1 0 01.513 1.933 6.022 6.022 0 01-5.836-1.597 6.02 6.02 0 017.741-9.14l9.794-9.793a1 1 0 011.414 1.414L20.414 5l2.293 2.293a1 1 0 010 1.414l-4 4a1 1 0 01-1.414 0L15 10.414zM16.414 9L18 10.586 20.586 8 19 6.414 16.414 9z"/>
</svg>
