<svg viewBox="0 0 24 24" xmlns="http://www.w3.org/2000/svg" class="icon-svg" role="icon">
    <title>
        Icon/loction
    </title>
    <path d="M14.988 18.09a1 1 0 111.356 1.47c-.797.736-2.03 1.803-3.701 3.206a1 1 0 01-1.227.046C5.846 18.808 3 14.539 3 10c0-4.785 4.117-9 9-9s9 4.215 9 9c0 2.099-.613 4.151-1.826 6.143a1 1 0 01-1.708-1.04C18.493 13.415 19 11.72 19 10c0-3.69-3.232-7-7-7s-7 3.31-7 7c0 3.636 2.283 7.213 6.958 10.728a99.323 99.323 0 003.03-2.638zM12 14a4 4 0 110-8 4 4 0 010 8zm0-2a2 2 0 100-4 2 2 0 000 4z"/>
</svg>
