<svg viewBox="0 0 24 24" xmlns="http://www.w3.org/2000/svg" class="icon-svg" role="icon">
    <title>
        Icon/package
    </title>
    <path d="M11.927 22.997a2.987 2.987 0 01-1.423-.399L3.5 18.596A3 3 0 012 16V7.999a3.002 3.002 0 011.504-2.597L10.5 1.404a2.998 2.998 0 012.996-.002L20.5 5.404A3 3 0 0122 8v6a1 1 0 01-2 0V8.18l-7 4.374v8.024l6.504-3.716a1 1 0 11.992 1.736L13.5 22.596a3 3 0 01-1.573.401zM11 20.578v-8.024L4 8.18V16c0 .357.19.687.496.863L11 20.578zM14.513 9.25l-6.55-4.093-2.625 1.5L12 10.821l2.513-1.571zM16.4 8.07l2.262-1.413L12.5 3.136a1.002 1.002 0 00-1.004.002l-1.56.892L16.4 8.07z"/>
</svg>
