<svg viewBox="0 0 24 24" xmlns="http://www.w3.org/2000/svg" role="icon">
    <title>
        Icon/share
    </title>
    <path d="M9.85 10.912a4.003 4.003 0 010 2.175l5.311 3.095A4 4 0 0122 19a1 1 0 01-2 0 2 2 0 00-3.662-1.112 1.01 1.01 0 01-.123.208A2 2 0 0018 21a1 1 0 010 2 4 4 0 01-3.85-5.092l-5.308-3.094a4 4 0 110-5.63L14.15 6.09A4.003 4.003 0 0118 1a4 4 0 11-2.842 6.815L9.85 10.912zm-2.094.13a1.016 1.016 0 01-.056-.097A1.999 1.999 0 004 12a2 2 0 103.756-.959zM16.3 6.054A1.999 1.999 0 0020 5a2 2 0 10-3.7 1.055z"/>
</svg>
