<svg viewBox="0 0 24 24" xmlns="http://www.w3.org/2000/svg" class="icon-svg" role="icon">
    <title>
        Icon/social-linkedin
    </title>
    <path d="M4 2h16a2 2 0 012 2v16a2 2 0 01-2 2H4a2 2 0 01-2-2V4a2 2 0 012-2zm15.222 11.333c0-2-1.622-3.622-3.622-3.622-.944 0-2.044.578-2.578 1.445V9.922h-3.1v9.3h3.1v-5.478a1.55 1.55 0 011.545-1.555c.859 0 1.555.696 1.555 1.555v5.478h3.1v-5.889zM8.178 6.311A1.873 1.873 0 006.31 4.433c-1.037 0-1.878.841-1.878 1.878a1.873 1.873 0 003.745 0zm-.322 12.911v-9.3H4.778v9.3h3.078z"/>
</svg>
