<svg viewBox="0 0 24 24" xmlns="http://www.w3.org/2000/svg" role="icon">
    <title>
        Icon/user-circle
    </title>
    <path d="M6 18.708V18a3 3 0 013-3h6a3 3 0 013 3v2.631c0 .145-.03.282-.086.406a.996.996 0 01-.432.501A10.953 10.953 0 0112 23C5.925 23 1 18.075 1 12S5.925 1 12 1s11 4.925 11 11c0 1.948-.508 3.824-1.458 5.477a1 1 0 01-1.734-.997A8.953 8.953 0 0021 12a9 9 0 10-15 6.708zm1.998 1.355c1.205.6 2.564.937 4.002.937 1.41 0 2.77-.324 4-.935V18a1 1 0 00-1-1H9a1 1 0 00-1 1v2c0 .021 0 .042-.002.063zM12 14a4 4 0 110-8 4 4 0 010 8zm0-2a2 2 0 100-4 2 2 0 000 4z"/>
</svg>
