<svg viewBox="0 0 24 24" xmlns="http://www.w3.org/2000/svg" class="icon" role="icon">
    <title>
        Icons/24px/Website
    </title>
    <path d="M3.055 11H7.05a16.3 16.3 0 012.676-7.71A9.008 9.008 0 003.055 11zm0 2a9.008 9.008 0 006.671 7.71A16.331 16.331 0 017.053 13H3.055zm11.22 7.71a8.932 8.932 0 002.21-.905 1 1 0 01.997 1.733A10.953 10.953 0 0112 23C5.925 23 1 18.075 1 12S5.925 1 12 1s11 4.925 11 11c0 1.948-.508 3.824-1.458 5.477a1 1 0 01-1.734-.997A8.931 8.931 0 0020.945 13H16.95a16.3 16.3 0 01-2.676 7.71zm6.67-9.71a9.008 9.008 0 00-6.671-7.71A16.331 16.331 0 0116.947 11h3.998zm-11.89 0h5.887A14.3 14.3 0 0012 3.55 14.288 14.288 0 009.055 11zm5.89 2H9.058A14.3 14.3 0 0012 20.45 14.288 14.288 0 0014.945 13z"/>
</svg>
