<svg xmlns="http://www.w3.org/2000/svg" width="24" height="24" viewBox="0 0 24 24">
  <path fill-rule="evenodd" d="M12,1 C14.209139,1 16,2.790861 16,5 C16,6.86356525 14.7256022,8.42947895 13.0007613,8.87378648 L13.0005275,20.9450129 C17.1718958,20.4836432 20.4839418,17.1714408 20.9450712,13 L20.9450712,13 L19,13 C18.4477153,13 18,12.5522847 18,12 C18,11.4477153 18.4477153,11 19,11 L19,11 L22,11 C22.5522847,11 23,11.4477153 23,12 C23,18.0751322 18.0751322,23 12,23 L12,23 C11.4477153,23 11,22.5522847 11,22 L11.0002435,8.87404517 C9.27489272,8.43008706 8,6.86392711 8,5 C8,2.790861 9.790861,1 12,1 Z M5,11 C5.55228475,11 6,11.4477153 6,12 C6,12.5522847 5.55228475,13 5,13 L5,13 L3.05527424,13 C3.4115777,16.2070729 5.46351621,18.9795916 8.42654516,20.2629458 C8.93333614,20.4824483 9.16622945,21.0712255 8.94672694,21.5780164 C8.72722443,22.0848074 8.13844723,22.3177007 7.63165625,22.0981982 C3.63927595,20.369009 1,16.4266754 1,12 C1,11.4477153 1.44771525,11 2,11 L2,11 Z M12,3 C10.8954305,3 10,3.8954305 10,5 C10,6.1045695 10.8954305,7 12,7 C13.1045695,7 14,6.1045695 14,5 C14,3.8954305 13.1045695,3 12,3 Z"/>
</svg>
