<svg width="24" height="24" viewBox="0 0 24 24" fill="none" xmlns="http://www.w3.org/2000/svg">
<path fill-rule="evenodd" clip-rule="evenodd" d="M12 1C14.2091 1 16 2.79086 16 5C16 6.86357 14.7256 8.42948 13.0008 8.87379L13.0005 20.945C17.1719 20.4836 20.4839 17.1714 20.9451 13H19C18.4477 13 18 12.5523 18 12C18 11.4477 18.4477 11 19 11H22C22.5523 11 23 11.4477 23 12C23 18.0751 18.0751 23 12 23C11.4477 23 11 22.5523 11 22L11.0002 8.87405C9.27489 8.43009 8 6.86393 8 5C8 2.79086 9.79086 1 12 1ZM5 11C5.55228 11 6 11.4477 6 12C6 12.5523 5.55228 13 5 13H3.05527C3.41158 16.2071 5.46352 18.9796 8.42655 20.2629C8.93334 20.4824 9.16623 21.0712 8.94673 21.578C8.72722 22.0848 8.13845 22.3177 7.63166 22.0982C3.63928 20.369 1 16.4267 1 12C1 11.4477 1.44772 11 2 11H5ZM12 3C10.8954 3 10 3.89543 10 5C10 6.10457 10.8954 7 12 7C13.1046 7 14 6.10457 14 5C14 3.89543 13.1046 3 12 3Z" fill="#ADB5BD"/>
</svg>
