<svg xmlns="http://www.w3.org/2000/svg" width="24" height="24" viewBox="0 0 24 24">
  <path fill-rule="evenodd" d="M2,9 L1,9 C0.44771525,9 0,8.55228475 0,8 L0,3 C0,2.44771525 0.44771525,2 1,2 L23,2 C23.5522847,2 24,2.44771525 24,3 L24,8 C24,8.55228475 23.5522847,9 23,9 L4,9 L4,20 L20,20 L20,12 C20,11.4477153 20.4477153,11 21,11 C21.5522847,11 22,11.4477153 22,12 L22,21 C22,21.5522847 21.5522847,22 21,22 L3,22 C2.44771525,22 2,21.5522847 2,21 L2,9 Z M2,4 L2,7 L22,7 L22,4 L2,4 Z M10,13 C9.44771525,13 9,12.5522847 9,12 C9,11.4477153 9.44771525,11 10,11 L14,11 C14.5522847,11 15,11.4477153 15,12 C15,12.5522847 14.5522847,13 14,13 L10,13 Z"/>
</svg>
