<svg width="24" height="24" viewBox="0 0 24 24" fill="none" xmlns="http://www.w3.org/2000/svg">
<path fill-rule="evenodd" clip-rule="evenodd" d="M17.2929 13.2929C17.6834 12.9024 18.3166 12.9024 18.7071 13.2929C19.0976 13.6834 19.0976 14.3166 18.7071 14.7071L15.6719 17.7423C15.2814 18.1328 14.6482 18.1328 14.2577 17.7423C13.8672 17.3518 13.8672 16.7186 14.2577 16.3281L17.2929 13.2929ZM11 4C11 3.44772 11.4477 3 12 3C12.5523 3 13 3.44772 13 4V20C13 20.5523 12.5523 21 12 21C11.7327 21 11.49 20.8952 11.3106 20.7244C11.3047 20.7188 11.2988 20.713 11.2929 20.7071L5.29286 14.7071C4.90234 14.3166 4.90234 13.6834 5.29286 13.2929C5.68339 12.9024 6.31655 12.9024 6.70708 13.2929L11 17.5858L11 4Z" fill="#ADB2BD"/>
</svg>
