<svg width="24" height="24" viewBox="0 0 24 24" fill="none" xmlns="http://www.w3.org/2000/svg">
<path fill-rule="evenodd" clip-rule="evenodd" d="M6.70708 10.7071C6.31656 11.0976 5.68339 11.0976 5.29287 10.7071C4.90235 10.3166 4.90235 9.68339 5.29287 9.29286L8.32805 6.25768C8.71857 5.86716 9.35174 5.86716 9.74226 6.25768C10.1328 6.64821 10.1328 7.28137 9.74226 7.6719L6.70708 10.7071ZM13 20C13 20.5523 12.5523 21 12 21C11.4477 21 11 20.5523 11 20V3.99997C11 3.44769 11.4477 2.99997 12 2.99997C12.2672 2.99997 12.5099 3.10479 12.6893 3.27555C12.6953 3.28118 12.7012 3.28695 12.7071 3.29286L18.7071 9.29286C19.0976 9.68339 19.0976 10.3166 18.7071 10.7071C18.3166 11.0976 17.6834 11.0976 17.2929 10.7071L13 6.41418L13 20Z" fill="#ADB2BD"/>
</svg>
