<svg xmlns="http://www.w3.org/2000/svg" width="24" height="24" viewBox="0 0 24 24">
  <path fill-rule="evenodd" d="M12,1 C12.5128358,1 12.9355072,1.38604019 12.9932723,1.88337887 L13,2 L13.0000082,3.07089004 C16.3922984,3.55612324 19,6.47353094 19,10 L19,14.1715729 C19,15.7173679 19.6140647,17.1998511 20.7071068,18.2928932 C21.3370716,18.9228581 20.8909049,20 20,20 L14.9994661,20 L14.9949073,20.1762728 C14.9036609,21.75108 13.5976809,23 12,23 C10.3434801,23 9.00054204,21.6573962 9.00000016,20.0010029 L4,20 C3.10909515,20 2.66292836,18.9228581 3.29289322,18.2928932 C4.38593533,17.1998511 5,15.7173679 5,14.1715729 L5,10 C5,6.47353094 7.60770164,3.55612324 10.9999918,3.07089004 L11,2 C11,1.44771525 11.4477153,1 12,1 Z M13,20 L11,20 C11,20.5522847 11.4477153,21 12,21 C12.5522847,21 13,20.5522847 13,20 Z M12,5 C9.23857625,5 7,7.23857625 7,10 L7,14.1715729 C7,15.5241783 6.64995053,16.8406926 6.00001947,18 L17.9999805,18 C17.3500495,16.8406926 17,15.5241783 17,14.1715729 L17,10 C17,7.23857625 14.7614237,5 12,5 Z M5.60050506,1.79289322 C5.99102936,2.18341751 5.99102936,2.81658249 5.60050506,3.20710678 C3.88907047,4.91854138 2.96446609,7.19860675 2.96446609,9.57106781 C2.96446609,10.1233526 2.51675084,10.5710678 1.96446609,10.5710678 C1.41218134,10.5710678 0.964466094,10.1233526 0.964466094,9.57106781 C0.964466094,6.67343209 2.09592891,3.88325581 4.1862915,1.79289322 C4.57681579,1.40236893 5.20998077,1.40236893 5.60050506,1.79289322 Z M19.7426407,1.79289322 C21.8330033,3.88325581 22.9644661,6.67343209 22.9644661,9.57106781 C22.9644661,10.1233526 22.5167508,10.5710678 21.9644661,10.5710678 C21.4121813,10.5710678 20.9644661,10.1233526 20.9644661,9.57106781 C20.9644661,7.19860675 20.0398617,4.91854138 18.3284271,3.20710678 C17.9379028,2.81658249 17.9379028,2.18341751 18.3284271,1.79289322 C18.7189514,1.40236893 19.3521164,1.40236893 19.7426407,1.79289322 Z"/>
</svg>
