<svg xmlns="http://www.w3.org/2000/svg" width="24" height="24" viewBox="0 0 24 24">
  <path fill-rule="evenodd" d="M12,1 C12.5522847,1 13,1.44771525 13,2 L13,2 L13.0010101,3.07103341 C16.3928118,3.55669765 19,6.4738781 19,10 L19,14.1715729 C19,15.7173679 19.6140647,17.1998511 20.7071068,18.2928932 C21.3370716,18.9228581 20.8909049,20 20,20 L15,20 C15,21.6568542 13.6568542,23 12,23 C10.3431458,23 9,21.6568542 9,20 L4,20 C3.10909515,20 2.66292836,18.9228581 3.29289322,18.2928932 C4.38593533,17.1998511 5,15.7173679 5,14.1715729 L5,10 C5,6.47353094 7.60770164,3.55612324 10.9999918,3.07089004 L11,2 C11,1.44771525 11.4477153,1 12,1 Z M13,20 L11,20 C11,20.5522847 11.4477153,21 12,21 C12.5522847,21 13,20.5522847 13,20 Z M12,5 C9.23857625,5 7,7.23857625 7,10 L7,14.1715729 C7,15.5241783 6.64995053,16.8406926 6.00001947,18 L17.9999805,18 C17.3500495,16.8406926 17,15.5241783 17,14.1715729 L17,10 C17,7.23857625 14.7614237,5 12,5 Z"/>
</svg>
