<svg xmlns="http://www.w3.org/2000/svg" width="24" height="24" viewBox="0 0 24 24">
  <path fill-rule="evenodd" d="M1.61289944,0.209704612 L1.70710678,0.292893219 L23.7071068,22.2928932 C24.0976311,22.6834175 24.0976311,23.3165825 23.7071068,23.7071068 C23.3466228,24.0675907 22.7793918,24.0953203 22.3871006,23.7902954 L22.2928932,23.7071068 L18.584,19.999 L14.9999992,19.99898 C14.9999997,19.9993199 15,19.9996599 15,20 C15,21.6568542 13.6568542,23 12,23 C10.3431458,23 9,21.6568542 9,20 L9,19.999 L4,20 C3.14783014,20 2.70256618,19.0144864 3.21677482,18.3774732 L3.29289322,18.2928932 C4.38593533,17.1998511 5,15.7173679 5,14.1715729 C5,14.1432506 5.00117742,14.1152033 5.00348599,14.0874773 L5,14 L5,10 C5,8.99580257 5.24796209,8.12498436 5.75094548,7.16822745 L0.292893219,1.70710678 C-0.0976310729,1.31658249 -0.0976310729,0.683417511 0.292893219,0.292893219 C0.65337718,-0.0675907428 1.22060824,-0.0953202783 1.61289944,0.209704612 Z M11.0000005,19.9989886 L11,20 C11,20.5522847 11.4477153,21 12,21 C12.5522847,21 13,20.5522847 13,20 L13,19.999 L11.0000005,19.9989886 Z M7.25669216,8.67414334 C7.10714678,9.05865013 7.02618359,9.42101143 7.00541692,9.79984088 L7,10 L7,14 L6.995,14.083 L7,14.1715729 C7,15.4114612 6.70586121,16.621023 6.15622567,17.7069681 L6.00001947,18 L16.584,17.999 L7.25669216,8.67414334 Z M12,1 C12.5128358,1 12.9355072,1.38604019 12.9932723,1.88337887 L13,2 L13.0010101,3.07103341 C16.3928118,3.55669765 19,6.4738781 19,10 L19,10 L19,13 C19,13.5522847 18.5522847,14 18,14 C17.4477153,14 17,13.5522847 17,13 L17,13 L17,10 C17,7.23857625 14.7614237,5 12,5 C11.2363029,5 10.4989195,5.17066343 9.82782457,5.49495568 C9.33055517,5.73525048 8.73264126,5.5269314 8.49234646,5.029662 C8.25205167,4.5323926 8.46037074,3.93447869 8.95764014,3.69418389 C9.6011963,3.38319915 10.2885614,3.17289356 11.0000232,3.07101352 L11,2 C11,1.44771525 11.4477153,1 12,1 Z"/>
</svg>
