<svg xmlns="http://www.w3.org/2000/svg" width="24" height="24" viewBox="0 0 24 24">
  <path fill-rule="evenodd" d="M11,15 L11,22 C11,22.989408 12.2832255,23.3779374 12.8320503,22.5547002 L20.8320503,10.5547002 C21.2750868,9.89014547 20.7986954,9 20,9 L13,9 L13,2 C13,1.01059204 11.7167745,0.62206262 11.1679497,1.4452998 L3.16794971,13.4452998 C2.72491322,14.1098545 3.20130462,15 4,15 L11,15 Z M11,5.30277564 L11,10 C11,10.5522847 11.4477153,11 12,11 L18.1314829,11 L13,18.6972244 L13,14 C13,13.4477153 12.5522847,13 12,13 L5.86851709,13 L11,5.30277564 Z"/>
</svg>
