<svg xmlns="http://www.w3.org/2000/svg" width="24" height="24" viewBox="0 0 24 24">
  <path fill-rule="evenodd" d="M11,7.5 L10.6,7.2 C8.9638842,5.97291315 7.02370323,5.23025414 5,5.04553728 L5,16.0385071 C7.13445385,16.2031563 9.19583874,16.8926274 11,18.0455356 L11,7.5 Z M13,7.5 L13,18.0455356 C14.8041613,16.8926274 16.8655462,16.2031563 19,16.0385071 L19,5.04553728 C16.9762968,5.23025414 15.0361158,5.97291315 13.4,7.2 L13,7.5 Z M3,7 L3,4 C3,3.44771525 3.44771525,3 4,3 C6.81281278,3 9.54974978,3.91231233 11.8,5.6 L12,5.75 L12.2,5.6 C14.4502502,3.91231233 17.1871872,3 20,3 C20.5522847,3 21,3.44771525 21,4 L21,7 L23,7 C23.5522847,7 24,7.44771525 24,8 L24,10 C24,10.5522847 23.5522847,11 23,11 C22.4477153,11 22,10.5522847 22,10 L22,9 L21,9 L21,17 C21,17.5522847 20.5522847,18 20,18 C18.4091875,18 16.847057,18.3448662 15.4174039,19 L22,19 L22,14 C22,13.4477153 22.4477153,13 23,13 C23.5522847,13 24,13.4477153 24,14 L24,20 C24,20.5522847 23.5522847,21 23,21 L1,21 C0.44771525,21 0,20.5522847 0,20 L0,8 C0,7.44771525 0.44771525,7 1,7 L3,7 Z M3,9 L2,9 L2,19 L8.5825961,19 C7.15294302,18.3448662 5.59081253,18 4,18 C3.44771525,18 3,17.5522847 3,17 L3,9 Z"/>
</svg>
