<svg width="24" height="24" viewBox="0 0 24 24" fill="none" xmlns="http://www.w3.org/2000/svg">
<path fill-rule="evenodd" clip-rule="evenodd" d="M14 2H10C8.34317 2 7.00002 3.34315 7.00002 5V6H4.00002C2.34317 6 1.00002 7.34315 1.00002 9V11.9767C0.999666 11.9921 0.999668 12.0074 1.00002 12.0227V19C1.00002 20.6569 2.34317 22 4.00002 22H20C21.6569 22 23 20.6569 23 19V16C23 15.4477 22.5523 15 22 15C21.4477 15 21 15.4477 21 16V19C21 19.5523 20.5523 20 20 20H4.00002C3.44774 20 3.00002 19.5523 3.00002 19V13.477L11.6286 16.9285C11.867 17.0238 12.133 17.0238 12.3714 16.9285L22.3498 12.9371C22.5458 12.864 22.7126 12.7311 22.8282 12.5606C22.9081 12.4428 22.9635 12.3071 22.9872 12.1607C22.9971 12.1003 23.0015 12.0387 23 11.9766V9C23 7.34315 21.6569 6 20 6H17V5C17 3.34315 15.6569 2 14 2ZM21 11.323V9C21 8.44772 20.5523 8 20 8H16H8.00002H4.00002C3.44774 8 3.00002 8.44772 3.00002 9V11.323L12 14.923L21 11.323ZM15 6H9.00002V5C9.00002 4.44772 9.44774 4 10 4H14C14.5523 4 15 4.44772 15 5V6Z" fill="#ADB5BD"/>
</svg>
