<svg xmlns="http://www.w3.org/2000/svg" width="24" height="24" viewBox="0 0 24 24">
  <path fill-rule="evenodd" d="M19.2928932,6.29289322 C19.6834175,5.90236893 20.3165825,5.90236893 20.7071068,6.29289322 C21.0976311,6.68341751 21.0976311,7.31658249 20.7071068,7.70710678 L12.7595073,15.6547063 C12.368983,16.0452306 11.735818,16.0452306 11.3452937,15.6547063 C10.9547694,15.264182 10.9547694,14.631017 11.3452937,14.2404927 L19.2928932,6.29289322 Z M9.70710678,17.2928932 C10.0976311,17.6834175 10.0976311,18.3165825 9.70710678,18.7071068 C9.31658249,19.0976311 8.68341751,19.0976311 8.29289322,18.7071068 L3.29289322,13.7071068 C2.90236893,13.3165825 2.90236893,12.6834175 3.29289322,12.2928932 C3.68341751,11.9023689 4.31658249,11.9023689 4.70710678,12.2928932 L9.70710678,17.2928932 Z"/>
</svg>
