<svg width="24" height="24" viewBox="0 0 24 24" fill="none" xmlns="http://www.w3.org/2000/svg">
<path fill-rule="evenodd" clip-rule="evenodd" d="M15 1H9C7.89543 1 7 1.89543 7 3H6C4.34315 3 3 4.34315 3 6V20C3 21.6569 4.34315 23 6 23H18C19.6569 23 21 21.6569 21 20C21 19.4477 20.5523 19 20 19C19.4477 19 19 19.4477 19 20C19 20.5523 18.5523 21 18 21H6C5.44772 21 5 20.5523 5 20V6C5 5.44772 5.44772 5 6 5H7C7 6.10457 7.89543 7 9 7H15C16.1046 7 17 6.10457 17 5H18C18.5523 5 19 5.44772 19 6V10C19 10.5523 19.4477 11 20 11C20.5523 11 21 10.5523 21 10V6C21 4.34315 19.6569 3 18 3H17C17 1.89543 16.1046 1 15 1ZM9 5V4V3H15V4V5H9ZM22.7071 12.2929C22.3166 11.9024 21.6834 11.9024 21.2929 12.2929L17 16.5858L15.7071 15.2929C15.3166 14.9024 14.6834 14.9024 14.2929 15.2929C13.9024 15.6834 13.9024 16.3166 14.2929 16.7071L16.2929 18.7071C16.6834 19.0976 17.3166 19.0976 17.7071 18.7071L22.7071 13.7071C23.0976 13.3166 23.0976 12.6834 22.7071 12.2929ZM7 11C7 10.4477 7.44772 10 8 10H16C16.5523 10 17 10.4477 17 11C17 11.5523 16.5523 12 16 12H8C7.44772 12 7 11.5523 7 11ZM8 15C7.44772 15 7 15.4477 7 16C7 16.5523 7.44772 17 8 17H12C12.5523 17 13 16.5523 13 16C13 15.4477 12.5523 15 12 15H8Z" fill="#ADB2BD"/>
</svg>
