<svg width="24" height="24" viewBox="0 0 24 24" fill="none" xmlns="http://www.w3.org/2000/svg">
<path fill-rule="evenodd" clip-rule="evenodd" d="M9 1H15C16.1046 1 17 1.89543 17 3H18C19.6569 3 21 4.34315 21 6V16C21 16.5523 20.5523 17 20 17C19.4477 17 19 16.5523 19 16V6C19 5.44772 18.5523 5 18 5H17C17 6.10457 16.1046 7 15 7H9C7.89543 7 7 6.10457 7 5H6C5.44772 5 5 5.44772 5 6V20C5 20.5523 5.44772 21 6 21H18C18.5523 21 19 20.5523 19 20C19 19.4477 19.4477 19 20 19C20.5523 19 21 19.4477 21 20C21 21.6569 19.6569 23 18 23H6C4.34315 23 3 21.6569 3 20V6C3 4.34315 4.34315 3 6 3H7C7 1.89543 7.89543 1 9 1ZM9 4V5H15V4V3H9V4Z" fill="#ADB5BD"/>
</svg>
