<svg xmlns="http://www.w3.org/2000/svg" width="24" height="24" viewBox="0 0 24 24">
  <path fill-rule="evenodd" d="M4,18.5857864 L4,5 C4,4.44771525 4.44771525,4 5,4 L19,4 C19.5522847,4 20,3.55228475 20,3 C20,2.44771525 19.5522847,2 19,2 L5,2 C3.34314575,2 2,3.34314575 2,5 L2,21 C2,21.8909049 3.07714192,22.3370716 3.70710678,21.7071068 L7.41421356,18 L19,18 C20.6568542,18 22,16.6568542 22,15 L22,6 C22,5.44771525 21.5522847,5 21,5 C20.4477153,5 20,5.44771525 20,6 L20,15 C20,15.5522847 19.5522847,16 19,16 L7,16 C6.73478351,16 6.4804296,16.1053568 6.29289322,16.2928932 L4,18.5857864 Z"/>
</svg>
