<svg width="24" height="24" viewBox="0 0 24 24" fill="none" xmlns="http://www.w3.org/2000/svg">
<path fill-rule="evenodd" clip-rule="evenodd" d="M3 12.5C3 7.52944 7.02944 3.5 12 3.5C16.9706 3.5 21 7.52944 21 12.5C21 17.4706 16.9706 21.5 12 21.5C7.02944 21.5 3 17.4706 3 12.5ZM12 1.5C5.92487 1.5 1 6.42487 1 12.5C1 18.5751 5.92487 23.5 12 23.5C18.0751 23.5 23 18.5751 23 12.5C23 6.42487 18.0751 1.5 12 1.5ZM17.1887 8.57626C17.3085 8.21693 17.2149 7.82076 16.9471 7.55293C16.6793 7.2851 16.2831 7.19158 15.9238 7.31135L9.56377 9.43135C9.26517 9.53089 9.03085 9.7652 8.93132 10.0638L6.81132 16.4238C6.69154 16.7831 6.78506 17.1793 7.05289 17.4471C7.32072 17.715 7.71689 17.8085 8.07623 17.6887L14.4362 15.5687C14.7348 15.4692 14.9691 15.2349 15.0687 14.9363L17.1887 8.57626ZM9.34114 15.1589L10.6706 11.1706L14.6589 9.84118L13.3294 13.8295L9.34114 15.1589Z" fill="#111315"/>
</svg>
