<svg width="24" height="24" viewBox="0 0 24 24" fill="none" xmlns="http://www.w3.org/2000/svg">
<path fill-rule="evenodd" clip-rule="evenodd" d="M9.81982 2C9.34314 2 8.93273 2.33646 8.83924 2.80388L8.20002 6H15.8L15.1608 2.80388C15.0673 2.33646 14.6569 2 14.1802 2H9.81982ZM16.6 10H7.40002L6.60002 14H17.4L16.6 10ZM17.7802 22H6.21982H5C4.44772 22 4 21.5523 4 21V19C4 18.4477 4.44772 18 5 18H5.80002H18.2H19C19.5523 18 20 18.4477 20 19V21C20 21.5523 19.5523 22 19 22H17.7802Z" fill="#ADB5BD"/>
</svg>
