<svg width="24" height="24" viewBox="0 0 24 24" fill="none" xmlns="http://www.w3.org/2000/svg">
<path fill-rule="evenodd" clip-rule="evenodd" d="M10 2H12C12.5523 2 13 2.44772 13 3C13 3.51284 12.614 3.93551 12.1166 3.99327L12 4H10.8198L10.219 7H13.78L13.4222 5.21012C13.3139 4.66856 13.6651 4.14174 14.2067 4.03342C14.7096 3.93285 15.1997 4.2285 15.3539 4.70485L15.3834 4.81789L17.819 17H19C19.5523 17 20 17.4477 20 18V21C20 21.5523 19.5523 22 19 22H5C4.44772 22 4 21.5523 4 21V18C4 17.4477 4.44772 17 5 17H6.18L9.01942 2.80388C9.10511 2.37541 9.45712 2.05699 9.88236 2.00689L10 2H12H10ZM18 19H6V20H18V19ZM15.18 14H8.819L8.2198 17H15.7802L15.18 14ZM14.18 9H9.819L9.219 12H14.78L14.18 9Z" fill="#ADB5BD"/>
</svg>
