<svg xmlns="http://www.w3.org/2000/svg" width="24" height="24" viewBox="0 0 24 24">
  <path fill-rule="evenodd" d="M10,2 L12,2 C12.5522847,2 13,2.44771525 13,3 C13,3.51283584 12.6139598,3.93550716 12.1166211,3.99327227 L12,4 L10.8198039,4 L10.219,7 L13.78,7 L13.4222201,5.2101201 C13.3139082,4.66856035 13.6651249,4.14173524 14.2066847,4.03342329 C14.7095616,3.93284791 15.1997336,4.22849879 15.3539131,4.70485083 L15.3833815,4.81788783 L17.819,17 L19,17 C19.5522847,17 20,17.4477153 20,18 L20,21 C20,21.5522847 19.5522847,22 19,22 L5,22 C4.44771525,22 4,21.5522847 4,21 L4,18 C4,17.4477153 4.44771525,17 5,17 L6.18,17 L9.01941932,2.80388386 C9.10511376,2.37541168 9.45711741,2.05698609 9.88235535,2.00689066 L10,2 L12,2 Z M18,19 L6,19 L6,20 L18,20 L18,19 Z M15.18,14 L8.819,14 L8.2198039,17 L15.7801961,17 L15.18,14 Z M14.18,9 L9.819,9 L9.219,12 L14.78,12 L14.18,9 Z"/>
</svg>
