<?xml version="1.0" encoding="UTF-8"?>
<svg width="24px" height="24px" viewBox="0 0 24 24" version="1.1" xmlns="http://www.w3.org/2000/svg" xmlns:xlink="http://www.w3.org/1999/xlink">
    <!-- Generator: Sketch 56.3 (81716) - https://sketch.com -->
    <title>Icon/cut</title>
    <desc>Created with Sketch.</desc>
    <g id="Icon/cut" stroke="none" stroke-width="1" fill="none" fill-rule="evenodd">
        <path d="M11.5857864,12 L9.03196735,9.44618091 C8.43645409,9.79807061 7.74180862,10 7,10 C4.790861,10 3,8.209139 3,6 C3,3.790861 4.790861,2 7,2 C9.209139,2 11,3.790861 11,6 C11,6.74180862 10.7980706,7.43645409 10.4461809,8.03196735 L13,10.5857864 L20.2928932,3.29289322 C20.6834175,2.90236893 21.3165825,2.90236893 21.7071068,3.29289322 C22.0976311,3.68341751 22.0976311,4.31658249 21.7071068,4.70710678 L10.4461809,15.9680327 C10.7980706,16.5635459 11,17.2581914 11,18 C11,20.209139 9.209139,22 7,22 C4.790861,22 3,20.209139 3,18 C3,15.790861 4.790861,14 7,14 C7.74180862,14 8.43645409,14.2019294 9.03196735,14.5538191 L11.5857864,12 Z M8.44929484,7.37824533 C8.79055229,7.01950801 9,6.53421357 9,6 C9,4.8954305 8.1045695,4 7,4 C5.8954305,4 5,4.8954305 5,6 C5,7.1045695 5.8954305,8 7,8 C7.53421357,8 8.01950801,7.79055229 8.37824533,7.44929484 C8.38943124,7.43694437 8.40098053,7.4248059 8.41289322,7.41289322 C8.4248059,7.40098053 8.43694437,7.38943124 8.44929484,7.37824533 Z M8.37824533,16.5507052 C8.01950801,16.2094477 7.53421357,16 7,16 C5.8954305,16 5,16.8954305 5,18 C5,19.1045695 5.8954305,20 7,20 C8.1045695,20 9,19.1045695 9,18 C9,17.4657864 8.79055229,16.980492 8.44929484,16.6217547 C8.43694437,16.6105688 8.4248059,16.5990195 8.41289322,16.5871068 C8.40098053,16.5751941 8.38943124,16.5630556 8.37824533,16.5507052 Z M14.7635334,15.1877464 C14.3726559,14.7975757 14.3720829,14.164411 14.7622536,13.7735334 C15.1524243,13.3826559 15.785589,13.3820829 16.1764666,13.7722536 L21.7064666,19.2922536 C22.0973441,19.6824243 22.0979171,20.315589 21.7077464,20.7064666 C21.3175757,21.0973441 20.684411,21.0979171 20.2935334,20.7077464 L14.7635334,15.1877464 Z" id="Icon" fill="#ADB5BD"></path>
    </g>
</svg>