<svg width="24" height="24" viewBox="0 0 24 24" fill="none" xmlns="http://www.w3.org/2000/svg">
<path fill-rule="evenodd" clip-rule="evenodd" d="M15 4H2V9C2 9.55228 1.55228 10 1 10C0.447715 10 0 9.55228 0 9V3C0 2.44772 0.447715 2 1 2H16C16.5523 2 17 2.44772 17 3V7H20C20.2652 7 20.5196 7.10536 20.7071 7.29289L23.7071 10.2929C23.8946 10.4804 24 10.7348 24 11V16C24 16.5523 23.5523 17 23 17H21.6632C21.8792 17.4546 22 17.9632 22 18.5C22 20.433 20.433 22 18.5 22C16.567 22 15 20.433 15 18.5C15 17.9632 15.1208 17.4546 15.3368 17H8.66318C8.87915 17.4546 9 17.9632 9 18.5C9 20.433 7.433 22 5.5 22C3.567 22 2 20.433 2 18.5C2 17.9632 2.12085 17.4546 2.33682 17H1C0.447715 17 0 16.5523 0 16V13C0 12.4477 0.447715 12 1 12C1.55228 12 2 12.4477 2 13V15H5.5H15V8V4ZM18.5 17C17.6716 17 17 17.6716 17 18.5C17 19.3284 17.6716 20 18.5 20C19.3284 20 20 19.3284 20 18.5C20 17.6716 19.3284 17 18.5 17ZM18.5 15H22V11.4142L19.5858 9H17V15H18.5ZM4 18.5C4 17.6716 4.67157 17 5.5 17C6.32843 17 7 17.6716 7 18.5C7 19.3284 6.32843 20 5.5 20C4.67157 20 4 19.3284 4 18.5Z" fill="#ADB5BD"/>
</svg>
