<svg xmlns="http://www.w3.org/2000/svg" width="24" height="24" viewBox="0 0 24 24">
  <path fill-rule="evenodd" d="M12.376301,15.9267767 C12.015165,16.0732233 11.5857864,16 11.2928932,15.7071068 L6.29289322,10.7071068 C5.90236893,10.3165825 5.90236893,9.68341751 6.29289322,9.29289322 C6.68341751,8.90236893 7.31658249,8.90236893 7.70710678,9.29289322 L11,12.5857864 L11,3 C11,2.44771525 11.4477153,2 12,2 C12.5522847,2 13,2.44771525 13,3 L13,15 C13,15.4142136 12.7481602,15.7696068 12.3892451,15.921415 Z M20,15 C20,14.4477153 20.4477153,14 21,14 C21.5522847,14 22,14.4477153 22,15 L22,19 C22,20.6568542 20.6568542,22 19,22 L5,22 C3.34314575,22 2,20.6568542 2,19 L2,15 C2,14.4477153 2.44771525,14 3,14 C3.55228475,14 4,14.4477153 4,15 L4,19 C4,19.5522847 4.44771525,20 5,20 L19,20 C19.5522847,20 20,19.5522847 20,19 L20,15 Z M16.2928932,9.29289322 C16.6834175,8.90236893 17.3165825,8.90236893 17.7071068,9.29289322 C18.0976311,9.68341751 18.0976311,10.3165825 17.7071068,10.7071068 L15.7071068,12.7071068 C15.3165825,13.0976311 14.6834175,13.0976311 14.2928932,12.7071068 C13.9023689,12.3165825 13.9023689,11.6834175 14.2928932,11.2928932 L16.2928932,9.29289322 Z"/>
</svg>
