<svg width="24" height="24" viewBox="0 0 24 24" fill="none" xmlns="http://www.w3.org/2000/svg">
<path fill-rule="evenodd" clip-rule="evenodd" d="M11.0711 12.6067L11.0711 3.70715C11.0711 3.15487 11.5188 2.70715 12.0711 2.70715C12.6234 2.70715 13.0711 3.15487 13.0711 3.70715L13.0711 12.6066L15.6066 10.0711C15.9971 9.68061 16.6302 9.68061 17.0208 10.0711C17.4113 10.4617 17.4113 11.0948 17.0208 11.4853L12.7781 15.728C12.3876 16.1185 11.7544 16.1185 11.3639 15.728L7.12127 11.4853C6.73075 11.0948 6.73075 10.4617 7.12127 10.0711C7.5118 9.68061 8.14496 9.68061 8.53549 10.0711L11.0711 12.6067ZM20 15V19C20 19.5523 19.5523 20 19 20H5C4.44772 20 4 19.5523 4 19V15C4 14.4477 3.55228 14 3 14C2.44772 14 2 14.4477 2 15V19C2 20.6568 3.34315 22 5 22H19C20.6569 22 22 20.6568 22 19V15C22 14.4477 21.5523 14 21 14C20.4477 14 20 14.4477 20 15Z" fill="#ADB2BD"/>
</svg>
