<svg width="24" height="24" viewBox="0 0 24 24" fill="none" xmlns="http://www.w3.org/2000/svg">
<path fill-rule="evenodd" clip-rule="evenodd" d="M11.2929 1.29289C11.6834 0.902369 12.3166 0.902369 12.7071 1.29289L14.7071 3.29289C15.0976 3.68342 15.0976 4.31658 14.7071 4.70711C14.3166 5.09763 13.6834 5.09763 13.2929 4.70711L12 3.41421L8.70711 6.70711C6.32076 9.09345 5 11.3804 5 13C5 16.866 8.13401 20 12 20C15.866 20 19 16.866 19 13C19 11.5346 18.0848 9.70521 16.2559 7.66804C15.8869 7.25708 15.921 6.62483 16.332 6.25588C16.7429 5.88693 17.3752 5.92099 17.7441 6.33196C19.8719 8.70202 21 10.9569 21 13C21 17.9706 16.9706 22 12 22C7.02944 22 3 17.9706 3 13C3 10.7323 4.56731 8.01847 7.29289 5.29289L11.2929 1.29289ZM14.1213 9.46447C14.5118 9.07394 15.145 9.07394 15.5355 9.46447C17.4882 11.4171 17.4882 14.5829 15.5355 16.5355C15.145 16.9261 14.5118 16.9261 14.1213 16.5355C13.7308 16.145 13.7308 15.5118 14.1213 15.1213C15.2929 13.9497 15.2929 12.0503 14.1213 10.8787C13.7308 10.4882 13.7308 9.85499 14.1213 9.46447Z" fill="#ADB5BD"/>
</svg>
