<svg width="24" height="24" viewBox="0 0 24 24" fill="none" xmlns="http://www.w3.org/2000/svg">
<g id="Icone utilitaire/droplet">
<path id="Icon" fill-rule="evenodd" clip-rule="evenodd" d="M12.7071 1.29289C12.3166 0.902369 11.6834 0.902369 11.2929 1.29289L7.29289 5.29289C4.56731 8.01847 3 10.7323 3 13C3 17.9706 7.02944 22 12 22C16.9706 22 21 17.9706 21 13C21 10.9697 19.8859 8.73015 17.7838 6.3763L17.7872 6.37296L17.7115 6.29733C17.7082 6.29393 17.7048 6.29057 17.7014 6.28723L14.7071 3.29289L14.4142 3L12.7071 1.29289ZM13 4.41421L12 3.41421L8.70711 6.70711C6.32076 9.09345 5 11.3804 5 13C5 16.866 8.13401 20 12 20C15.866 20 19 16.866 19 13C19 11.5393 18.0907 9.71706 16.2736 7.68783L13.2939 4.70812C13.2936 4.70778 13.2932 4.70745 13.2929 4.70711L13 4.41421ZM15.5355 9.46447C15.145 9.07394 14.5118 9.07394 14.1213 9.46447C13.7308 9.85499 13.7308 10.4882 14.1213 10.8787C15.2929 12.0503 15.2929 13.9497 14.1213 15.1213C13.7308 15.5118 13.7308 16.145 14.1213 16.5355C14.5118 16.9261 15.145 16.9261 15.5355 16.5355C17.4882 14.5829 17.4882 11.4171 15.5355 9.46447Z" fill="#ADB2BD"/>
</g>
</svg>
