<svg xmlns="http://www.w3.org/2000/svg" width="24" height="24" viewBox="0 0 24 24">
  <path fill-rule="evenodd" d="M11.2928932,1.29289322 C11.6834175,0.902368927 12.3165825,0.902368927 12.7071068,1.29289322 L12.7071068,1.29289322 L14.7071068,3.29289322 C15.0976311,3.68341751 15.0976311,4.31658249 14.7071068,4.70710678 C14.3165825,5.09763107 13.6834175,5.09763107 13.2928932,4.70710678 L13.2928932,4.70710678 L12,3.41421356 L8.70710678,6.70710678 C6.32076038,9.09345318 5,11.3804023 5,13 C5,16.8659932 8.13400675,20 12,20 C15.8659932,20 19,16.8659932 19,13 C19,11.5345941 18.0847749,9.70521459 16.2558788,7.66804461 C15.8869279,7.25707781 15.9209886,6.62482963 16.3319554,6.25587878 C16.7429222,5.88692793 17.3751704,5.92098858 17.7441212,6.33195539 C19.8718768,8.70201878 21,10.9569454 21,13 C21,17.9705627 16.9705627,22 12,22 C7.02943725,22 3,17.9705627 3,13 C3,10.7323387 4.56731362,8.01847281 7.29289322,5.29289322 L7.29289322,5.29289322 Z M14.1213203,9.46446609 C14.5118446,9.0739418 15.1450096,9.0739418 15.5355339,9.46446609 C17.4881554,11.4170876 17.4881554,14.5829124 15.5355339,16.5355339 C15.1450096,16.9260582 14.5118446,16.9260582 14.1213203,16.5355339 C13.7307961,16.1450096 13.7307961,15.5118446 14.1213203,15.1213203 C15.2928932,13.9497475 15.2928932,12.0502525 14.1213203,10.8786797 C13.7307961,10.4881554 13.7307961,9.85499039 14.1213203,9.46446609 Z"/>
</svg>
