<svg xmlns="http://www.w3.org/2000/svg" width="24" height="24" viewBox="0 0 24 24">
  <path fill-rule="evenodd" d="M16,4 C20.418278,4 24,7.581722 24,12 C24,16.418278 20.418278,20 16,20 C14.5427854,20 13.1765696,19.6103875 11.99984,18.9296499 C10.8242042,19.6101668 9.4576273,20 8,20 C3.581722,20 0,16.418278 0,12 C0,7.581722 3.581722,4 8,4 C9.4576273,4 10.8242042,4.38983317 12.0011597,5.07092854 C13.1765696,4.38961245 14.5427854,4 16,4 Z M8,6 C4.6862915,6 2,8.6862915 2,12 C2,15.3137085 4.6862915,18 8,18 C8.79609641,18 9.55598027,17.8449557 10.251103,17.5634156 C8.85725785,16.1228523 8,14.1615378 8,12 C8,9.83846219 8.85725785,7.87714767 10.250335,6.43749505 C9.55598027,6.15504432 8.79609641,6 8,6 Z M16,6 C15.2039036,6 14.4440197,6.15504432 13.748897,6.43658442 C15.1427421,7.87714767 16,9.83846219 16,12 C16,14.1615378 15.1427421,16.1228523 13.749665,17.562505 C14.4440197,17.8449557 15.2039036,18 16,18 C19.3137085,18 22,15.3137085 22,12 C22,8.6862915 19.3137085,6 16,6 Z"/>
</svg>
