<svg width="24" height="24" viewBox="0 0 24 24" fill="none" xmlns="http://www.w3.org/2000/svg">
<path fill-rule="evenodd" clip-rule="evenodd" d="M16 4C20.4183 4 24 7.58172 24 12C24 16.4183 20.4183 20 16 20C14.5428 20 13.1766 19.6104 11.9998 18.9296C10.8242 19.6102 9.45763 20 8 20C3.58172 20 0 16.4183 0 12C0 7.58172 3.58172 4 8 4C9.45763 4 10.8242 4.38983 12.0012 5.07093C13.1766 4.38961 14.5428 4 16 4ZM8 6C4.68629 6 2 8.68629 2 12C2 15.3137 4.68629 18 8 18C8.7961 18 9.55598 17.845 10.2511 17.5634C8.85726 16.1229 8 14.1615 8 12C8 9.83846 8.85726 7.87715 10.2503 6.4375C9.55598 6.15504 8.7961 6 8 6ZM16 6C15.2039 6 14.444 6.15504 13.7489 6.43658C15.1427 7.87715 16 9.83846 16 12C16 14.1615 15.1427 16.1229 13.7497 17.5625C14.444 17.845 15.2039 18 16 18C19.3137 18 22 15.3137 22 12C22 8.68629 19.3137 6 16 6Z" fill="#ADB5BD"/>
</svg>
