<svg xmlns="http://www.w3.org/2000/svg" width="24" height="24" viewBox="0 0 24 24">
  <path fill-rule="evenodd" d="M15.7071,4.70711 C16.0976,4.31658 16.0976,3.68342 15.7071,3.29289 C15.3166,2.90237 14.6834,2.90237 14.2929,3.29289 L12.293,5.29281 C12.2929,5.29284 12.2929,5.29286 12.2929,5.29289 C12.2929,5.29292 12.2928,5.29295 12.2928,5.29298 L2.29289,15.2929 C2.10536,15.4804 2,15.7348 2,16 L2,21 C2,21.5523 2.44772,22 3,22 L8,22 C8.26522,22 8.51957,21.8946 8.70711,21.7071 L18.7071,11.7071 L21.7071,8.70711 C22.0976,8.31658 22.0976,7.68342 21.7071,7.29289 L18.7071,4.29289 C18.3166,3.90237 17.6834,3.90237 17.2929,4.29289 C16.9024,4.68342 16.9024,5.31658 17.2929,5.70711 L19.5858,8 L18,9.58579 L14.4142,6 L15.7071,4.70711 Z M13,7.41421 L4,16.41421 L4,20 L7.58579,20 L16.5858,11 L13,7.41421 Z"/>
</svg>
