<svg width="24" height="24" viewBox="0 0 24 24" fill="none" xmlns="http://www.w3.org/2000/svg">
<path d="M11.0668 7.8709C11.0668 7.34226 11.4954 6.91371 12.024 6.91371C12.5527 6.91371 12.9812 7.34226 12.9812 7.8709V12.6557C12.9812 13.1844 12.5527 13.6129 12.024 13.6129C11.4954 13.6129 11.0668 13.1844 11.0668 12.6557V7.8709Z" fill="#ADB2BD"/>
<path d="M12.024 15.527C11.4954 15.527 11.0668 15.9563 11.0668 16.4849C11.0668 17.0135 11.4954 17.4427 12.024 17.4427C12.5527 17.4427 12.9812 17.0135 12.9812 16.4849C12.9812 15.9563 12.5527 15.527 12.024 15.527Z" fill="#ADB2BD"/>
<path fill-rule="evenodd" clip-rule="evenodd" d="M9.87793 1.87885C11.0494 0.707185 12.9489 0.70703 14.1206 1.8785L22.1213 9.87789C23.293 11.0494 23.2931 12.9489 22.1217 14.1205L14.1222 22.1212C12.9508 23.2929 11.0513 23.293 9.87959 22.1216L1.87886 14.1222C0.707184 12.9507 0.707028 11.0512 1.87851 9.87954L9.87793 1.87885ZM12.7065 3.29283C12.3159 2.90234 11.6828 2.90239 11.2923 3.29295L3.29284 11.2936C2.90235 11.6842 2.9024 12.3174 3.29296 12.7078L11.2937 20.7072C11.6842 21.0977 12.3174 21.0977 12.7079 20.7071L20.7073 12.7064C21.0978 12.3159 21.0978 11.6827 20.7072 11.2922L12.7065 3.29283Z" fill="#ADB2BD"/>
</svg>
