<svg width="24" height="24" viewBox="0 0 24 24" fill="none" xmlns="http://www.w3.org/2000/svg">
<path fill-rule="evenodd" clip-rule="evenodd" d="M21.5416 17.4768C21.2662 17.9556 20.6549 18.1205 20.1762 17.8451C19.6974 17.5698 19.5325 16.9585 19.8079 16.4797C20.5852 15.1281 21 13.5955 21 12C21 7.02944 16.9706 3 12 3C7.02944 3 3 7.02944 3 12C3 16.9706 7.02944 21 12 21C13.5973 21 15.1316 20.5842 16.4842 19.8053C16.9628 19.5296 17.5742 19.6942 17.8499 20.1728C18.1255 20.6514 17.9609 21.2628 17.4823 21.5384C15.8281 22.4911 13.95 23 12 23C5.92487 23 1 18.0751 1 12C1 5.92487 5.92487 1 12 1C18.0751 1 23 5.92487 23 12C23 13.9478 22.4922 15.8239 21.5416 17.4768ZM11 7C11 6.44772 11.4477 6 12 6C12.5523 6 13 6.44772 13 7V13C13 13.5523 12.5523 14 12 14C11.4477 14 11 13.5523 11 13V7ZM12 16C11.4477 16 11 16.4477 11 17C11 17.5523 11.4477 18 12 18C12.5523 18 13 17.5523 13 17C13 16.4477 12.5523 16 12 16Z" fill="black"/>
</svg>
