<svg width="24" height="24" viewBox="0 0 24 24" fill="none" xmlns="http://www.w3.org/2000/svg">
<path fill-rule="evenodd" clip-rule="evenodd" d="M10.074 1C9.49363 1 9.03517 1.49238 9.07652 2.07125L9.93366 14.0712C9.97104 14.5946 10.4065 15 10.9311 15H13.0689C13.5935 15 14.029 14.5946 14.0663 14.0712L14.9235 2.07125C14.9648 1.49238 14.5064 1 13.926 1H10.074ZM12 17C10.3431 17 9 18.3431 9 20C9 21.6569 10.3431 23 12 23C13.6569 23 15 21.6569 15 20C15 18.3431 13.6569 17 12 17Z" fill="#ADB5BD"/>
</svg>
