<svg width="24" height="24" viewBox="0 0 24 24" fill="none" xmlns="http://www.w3.org/2000/svg">
<path fill-rule="evenodd" clip-rule="evenodd" d="M6.24639 3.42848C6.15093 3.46666 6.06907 3.5029 6 3.53596V13.3964C6.81911 13.1433 7.81445 13 9 13C10.4166 13 11.3826 13.276 13.3714 14.0715C15.1326 14.776 15.9166 15 17 15C17.7294 15 18.3611 14.9367 18.902 14.8226C19.4424 14.7085 19.9729 15.0542 20.0869 15.5945C20.2009 16.1349 19.8553 16.6654 19.3149 16.7795C18.6355 16.9228 17.8655 17 17 17C15.5834 17 14.6174 16.724 12.6286 15.9285C10.8674 15.224 10.0834 15 9 15C7.81139 15 6.90608 15.1646 6.24639 15.4285C6.15093 15.4667 6.06907 15.5029 6 15.536V22C6 22.5523 5.55228 23 5 23C4.44772 23 4 22.5523 4 22V15V3C4 2.73478 4.10536 2.48043 4.29289 2.29289C4.51247 2.07332 4.90749 1.80997 5.50361 1.57152C6.40642 1.2104 7.56361 1 9 1C10.4166 1 11.3826 1.27602 13.3714 2.07152C15.1326 2.77602 15.9166 3 17 3C18.1886 3 19.0939 2.8354 19.7536 2.57152C20.095 2.43497 20.2625 2.32332 20.2929 2.29289C20.9229 1.66293 22 2.1091 22 3V12C22 12.5523 21.5523 13 21 13C20.4477 13 20 12.5523 20 12V4.60356C19.1809 4.85667 18.1855 5 17 5C15.5834 5 14.6174 4.72398 12.6286 3.92848C10.8674 3.22398 10.0834 3 9 3C7.81139 3 6.90608 3.1646 6.24639 3.42848Z" fill="#ADB5BD"/>
</svg>
