<svg width="24" height="24" viewBox="0 0 24 24" fill="none" xmlns="http://www.w3.org/2000/svg">
<path d="M3 3C3 2.73478 3.10536 2.48043 3.29289 2.29289C3.51247 2.07332 3.90749 1.80997 4.50361 1.57152C5.40642 1.2104 6.56361 1 8 1C9.24991 1 10.1491 1.21489 11.7095 1.81193L12.6723 2.19091C14.2259 2.80159 14.9803 3 16 3C17.1886 3 18.0939 2.8354 18.7536 2.57152C19.095 2.43497 19.2625 2.32332 19.2929 2.29289L19.3775 2.21677C20.0145 1.70257 21 2.14783 21 3V15C21 15.2652 20.8946 15.5196 20.7071 15.7071C20.4875 15.9267 20.0925 16.19 19.4964 16.4285C18.5936 16.7896 17.4364 17 16 17C14.7501 17 13.8509 16.7851 12.2905 16.1881L11.3277 15.8091C9.77411 15.1984 9.0197 15 8 15C6.81139 15 5.90608 15.1646 5.24639 15.4285C5.1505 15.4668 5.06833 15.5032 4.99906 15.5364L5 22C5 22.5523 4.55228 23 4 23C3.44772 23 3 22.5523 3 22V3Z" fill="#030303"/>
</svg>
