<svg xmlns="http://www.w3.org/2000/svg" width="24" height="24" viewBox="0 0 24 24">
  <path fill-rule="evenodd" d="M6,15.5359559 L6,22 C6,22.5522847 5.55228475,23 5,23 C4.44771525,23 4,22.5522847 4,22 L4,15 L4,3 C4,2.73478351 4.10535684,2.4804296 4.29289322,2.29289322 C4.51247012,2.07331631 4.90748509,1.809973 5.50360932,1.57152331 C6.40642491,1.21039707 7.56360882,1 9,1 C10.4165634,1 11.3826299,1.27601899 13.3713907,2.07152331 C15.1326299,2.77601899 15.9165634,3 17,3 C18.1886088,3 19.0939249,2.83539707 19.7536093,2.57152331 C20.0949851,2.434973 20.2624701,2.32331631 20.2928932,2.29289322 C20.9228581,1.66292836 22,2.10909515 22,3 L22,12 C22,12.5522847 21.5522847,13 21,13 C20.4477153,13 20,12.5522847 20,12 L20,4.603563 C19.1808935,4.85667129 18.1855489,5 17,5 C15.5834366,5 14.6173701,4.72398101 12.6286093,3.92847669 C10.8673701,3.22398101 10.0834366,3 9,3 C7.81139118,3 6.90607509,3.16460293 6.24639068,3.42847669 C6.15093187,3.46666021 6.06907007,3.50289723 6,3.53595588 L6,13.396437 C6.81910645,13.1433287 7.8144511,13 9,13 C10.4165634,13 11.3826299,13.276019 13.3713907,14.0715233 C15.1326299,14.776019 15.9165634,15 17,15 C17.7293972,15 18.3611404,14.936686 18.9019841,14.8225591 C19.4423687,14.7085291 19.9728767,15.0541578 20.0869067,15.5945425 C20.2009367,16.1349272 19.855308,16.6654351 19.3149233,16.7794651 C18.6355138,16.9228317 17.8655331,17 17,17 C15.5834366,17 14.6173701,16.723981 12.6286093,15.9284767 C10.8673701,15.223981 10.0834366,15 9,15 C7.81139118,15 6.90607509,15.1646029 6.24639068,15.4284767 C6.15093187,15.4666602 6.06907007,15.5028972 6,15.5359559 Z"/>
</svg>
