<svg width="24" height="24" viewBox="0 0 24 24" fill="none" xmlns="http://www.w3.org/2000/svg">
<path fill-rule="evenodd" clip-rule="evenodd" d="M5.01111 11.5747C5.2322 7.35413 8.7244 4 13 4C17.4183 4 21 7.58172 21 12C21 16.4183 17.4183 20 13 20C10.9504 20 9.08293 19.2306 7.66691 17.9632C7.34602 17.676 7.04844 17.3633 6.77737 17.0283C6.42996 16.599 5.80028 16.5326 5.37095 16.88C4.94163 17.2274 4.87522 17.8571 5.22263 18.2864C5.56107 18.7046 5.93253 19.095 6.33309 19.4535C8.10161 21.0363 10.4395 22 13 22C18.5228 22 23 17.5228 23 12C23 6.47715 18.5228 2 13 2C7.61318 2 3.22117 6.25933 3.0081 11.5939L1.70711 10.2929C1.31658 9.90237 0.683418 9.90237 0.292893 10.2929C-0.0976311 10.6834 -0.0976311 11.3166 0.292893 11.7071L3.29289 14.7071C3.68342 15.0976 4.31658 15.0976 4.70711 14.7071L7.70711 11.7071C8.09763 11.3166 8.09763 10.6834 7.70711 10.2929C7.31658 9.90237 6.68342 9.90237 6.29289 10.2929L5.01111 11.5747ZM13 7C13.5523 7 14 7.44772 14 8V12.4648L16.5547 14.1679C17.0142 14.4743 17.1384 15.0952 16.8321 15.5547C16.5257 16.0142 15.9048 16.1384 15.4453 15.8321L12.4453 13.8321C12.1671 13.6466 12 13.3344 12 13V8C12 7.44772 12.4477 7 13 7Z" fill="black"/>
</svg>
