<?xml version="1.0" encoding="UTF-8"?>
<svg width="24px" height="24px" viewBox="0 0 24 24" version="1.1" xmlns="http://www.w3.org/2000/svg" xmlns:xlink="http://www.w3.org/1999/xlink">
    <!-- Generator: Sketch 56.3 (81716) - https://sketch.com -->
    <title>Icon/home</title>
    <desc>Created with Sketch.</desc>
    <g id="Icon/home" stroke="none" stroke-width="1" fill="none" fill-rule="evenodd">
        <path d="M5,11 L5,21 L9,21 L9,15 C9,14.4477153 9.44771525,14 10,14 L14,14 C14.5522847,14 15,14.4477153 15,15 L15,21 L19,21 L19,14 C19,13.4477153 19.4477153,13 20,13 C20.5522847,13 21,13.4477153 21,14 L21,22 C21,22.5522847 20.5522847,23 20,23 L14,23 C13.4477153,23 13,22.5522847 13,22 L13,16 L11,16 L11,22 C11,22.5522847 10.5522847,23 10,23 L4,23 C3.44771525,23 3,22.5522847 3,22 L3,11 L2,11 C1.05472237,11 0.637167132,9.80964145 1.37530495,9.21913119 L11.375305,1.21913119 C11.7405236,0.92695627 12.2594764,0.92695627 12.624695,1.21913119 L22.624695,9.21913119 C23.3628329,9.80964145 22.9452776,11 22,11 L5,11 Z M19.1492189,9 L12,3.28062485 L4.85078106,9 L19.1492189,9 Z" id="Icon" fill="#ADB5BD"></path>
    </g>
</svg>