<svg width="24" height="24" viewBox="0 0 24 24" fill="none" xmlns="http://www.w3.org/2000/svg">
<g id="Icone utilitaire/home">
<path id="Icon" fill-rule="evenodd" clip-rule="evenodd" d="M3.34151 10.2474L11.331 3.25666C11.404 3.19075 11.4848 3.13736 11.5704 3.09669C11.7065 3.03192 11.8534 2.99994 12 3C12.1466 2.99994 12.2936 3.03192 12.4296 3.0967C12.5152 3.13736 12.596 3.19075 12.6691 3.25666L20.6585 10.2474C21.0742 10.6111 21.1163 11.2429 20.7526 11.6585C20.3889 12.0742 19.7571 12.1163 19.3415 11.7526L19 11.4538V20C19 20.5523 18.5523 21 18 21H14C13.4477 21 13 20.5523 13 20V15H11V20C11 20.5523 10.5523 21 10 21H6.00001C5.44773 21 5.00001 20.5523 5.00001 20V11.4538L4.65852 11.7526C4.24288 12.1163 3.61112 12.0742 3.24744 11.6585C2.88376 11.2429 2.92587 10.6111 3.34151 10.2474ZM7.00001 9.70378V19H9.00001V14C9.00001 13.4477 9.44773 13 10 13H14C14.5523 13 15 13.4477 15 14V19H17V9.70378L12 5.32878L7.00001 9.70378Z" fill="#ADB2BD"/>
</g>
</svg>
