<?xml version="1.0" encoding="UTF-8"?>
<svg width="24px" height="24px" viewBox="0 0 24 24" version="1.1" xmlns="http://www.w3.org/2000/svg" xmlns:xlink="http://www.w3.org/1999/xlink">
    <!-- Generator: Sketch 56.3 (81716) - https://sketch.com -->
    <title>Icon/image</title>
    <desc>Created with Sketch.</desc>
    <g id="Icon/image" stroke="none" stroke-width="1" fill="none" fill-rule="evenodd">
        <path d="M20,12.5857864 L20,5 C20,4.44771525 19.5522847,4 19,4 L5,4 C4.44771525,4 4,4.44771525 4,5 L4,19 C4,19.5522847 4.44771525,20 5,20 L19,20 C19.5522847,20 20,19.5522847 20,19 L20,15.4142136 L15.9544292,11.3686427 L8.65850461,17.7525767 C8.24286798,18.1162587 7.61110536,18.0741412 7.24742331,17.6585046 C6.88374125,17.242868 6.92585876,16.6111054 7.34149539,16.2474233 L15.3414954,9.24742331 C15.7376998,8.90074442 16.3348406,8.92062704 16.7071068,9.29289322 L20,12.5857864 Z M5,2 L19,2 C20.6568542,2 22,3.34314575 22,5 L22,19 C22,20.6568542 20.6568542,22 19,22 L5,22 C3.34314575,22 2,20.6568542 2,19 L2,5 C2,3.34314575 3.34314575,2 5,2 Z M8.5,11 C7.11928813,11 6,9.88071187 6,8.5 C6,7.11928813 7.11928813,6 8.5,6 C9.88071187,6 11,7.11928813 11,8.5 C11,9.88071187 9.88071187,11 8.5,11 Z M8.5,9 C8.77614237,9 9,8.77614237 9,8.5 C9,8.22385763 8.77614237,8 8.5,8 C8.22385763,8 8,8.22385763 8,8.5 C8,8.77614237 8.22385763,9 8.5,9 Z" id="Icon" fill="#ADB5BD"></path>
    </g>
</svg>