<svg xmlns="http://www.w3.org/2000/svg" width="24" height="24" viewBox="0 0 24 24">
  <path fill-rule="evenodd" d="M15,10.4142136 L11.9296846,13.4845289 C12.9756113,14.9326624 13.3338197,16.790325 12.8663553,18.5508034 C12.7246174,19.0845906 12.176996,19.4024093 11.6432088,19.2606714 C11.1094216,19.1189335 10.7916028,18.5713122 10.9333407,18.0375249 C11.3035308,16.6433833 10.8982511,15.1582468 9.87852069,14.1533701 C8.30169232,12.6302793 5.79528046,12.6520613 4.2451552,14.2023281 C2.69498022,15.7526445 2.67319882,18.2594406 4.18874244,19.828824 C5.20163419,20.8554744 6.68691029,21.2606093 8.08071837,20.8904402 C8.61449918,20.7486782 9.16213491,21.0664721 9.303897,21.6002529 C9.44565909,22.1340337 9.12786512,22.6816695 8.59408431,22.8234316 C6.50654349,23.3778429 4.28201309,22.7710636 2.75756186,21.2258237 C0.476700225,18.8640578 0.509319444,15.1099486 2.83087711,12.788179 C4.91248065,10.7063855 8.14556576,10.4649462 10.4992156,12.0865708 L20.2928932,2.29289322 C20.6834175,1.90236893 21.3165825,1.90236893 21.7071068,2.29289322 C22.0976311,2.68341751 22.0976311,3.31658249 21.7071068,3.70710678 L20.4142136,5 L22.7071068,7.29289322 C23.0976311,7.68341751 23.0976311,8.31658249 22.7071068,8.70710678 L18.7071068,12.7071068 C18.3165825,13.0976311 17.6834175,13.0976311 17.2928932,12.7071068 L15,10.4142136 Z M16.4142136,9 L18,10.5857864 L20.5857864,8 L19,6.41421356 L16.4142136,9 Z"/>
</svg>
