<svg xmlns="http://www.w3.org/2000/svg" width="24" height="24" viewBox="0 0 24 24">
  <path fill-rule="evenodd" d="M19.763932,7 L15.5527864,4.89442719 C15.0588079,4.64743794 14.8585836,4.0467649 15.1055728,3.5527864 C15.3525621,3.05880791 15.9532351,2.85858356 16.4472136,3.10557281 L22.4472136,6.10557281 C23.1842621,6.47409708 23.1842621,7.52590292 22.4472136,7.89442719 L12.4472136,12.8944272 C12.1656861,13.0351909 11.8343139,13.0351909 11.5527864,12.8944272 L1.5527864,7.89442719 C0.815737865,7.52590292 0.815737865,6.47409708 1.5527864,6.10557281 L11.5527864,1.10557281 C12.0467649,0.85858356 12.6474379,1.05880791 12.8944272,1.5527864 C13.1414164,2.0467649 12.9411921,2.64743794 12.4472136,2.89442719 L4.23606798,7 L12,10.881966 L19.763932,7 Z M12,20.881966 L21.5527864,16.1055728 C22.0467649,15.8585836 22.6474379,16.0588079 22.8944272,16.5527864 C23.1414164,17.0467649 22.9411921,17.6474379 22.4472136,17.8944272 L12.4472136,22.8944272 C12.1656861,23.0351909 11.8343139,23.0351909 11.5527864,22.8944272 L1.5527864,17.8944272 C1.05880791,17.6474379 0.85858356,17.0467649 1.10557281,16.5527864 C1.35256206,16.0588079 1.9532351,15.8585836 2.4472136,16.1055728 L12,20.881966 Z M2.4472136,11.1055728 L12,15.881966 L21.5527864,11.1055728 C22.0467649,10.8585836 22.6474379,11.0588079 22.8944272,11.5527864 C23.1414164,12.0467649 22.9411921,12.6474379 22.4472136,12.8944272 L12.4472136,17.8944272 C12.1656861,18.0351909 11.8343139,18.0351909 11.5527864,17.8944272 L1.5527864,12.8944272 C1.05880791,12.6474379 0.85858356,12.0467649 1.10557281,11.5527864 C1.35256206,11.0588079 1.9532351,10.8585836 2.4472136,11.1055728 Z"/>
</svg>
