<svg width="24" height="24" viewBox="0 0 24 24" fill="none" xmlns="http://www.w3.org/2000/svg">
<path fill-rule="evenodd" clip-rule="evenodd" d="M19.7639 7.00001L12 10.882L4.23607 7.00001L12.4472 2.89443C12.9412 2.64744 13.1414 2.04677 12.8944 1.55279C12.6474 1.05881 12.0468 0.858589 11.5528 1.10558L1.55279 6.10558C0.815743 6.4741 0.815743 7.52591 1.55279 7.89443L11.5528 12.8944C11.8343 13.0352 12.1657 13.0352 12.4472 12.8944L22.4472 7.89443C23.1843 7.52591 23.1843 6.4741 22.4472 6.10558L16.4472 3.10558C15.9532 2.85859 15.3526 3.05881 15.1056 3.55279C14.8586 4.04677 15.0588 4.64744 15.5528 4.89443L19.7639 7.00001ZM12 20.882L2.44722 16.1056C1.95324 15.8586 1.35257 16.0588 1.10558 16.5528C0.858589 17.0468 1.05881 17.6474 1.55279 17.8944L11.5528 22.8944C11.8343 23.0352 12.1657 23.0352 12.4472 22.8944L22.4472 17.8944C22.9412 17.6474 23.1414 17.0468 22.8944 16.5528C22.6474 16.0588 22.0468 15.8586 21.5528 16.1056L12 20.882ZM1.10558 11.5528C1.35257 11.0588 1.95324 10.8586 2.44722 11.1056L12 15.882L21.5528 11.1056C22.0468 10.8586 22.6474 11.0588 22.8944 11.5528C23.1414 12.0468 22.9412 12.6474 22.4472 12.8944L12.4472 17.8944C12.1657 18.0352 11.8343 18.0352 11.5528 17.8944L1.55279 12.8944C1.05881 12.6474 0.858589 12.0468 1.10558 11.5528Z" fill="#ADB5BD"/>
</svg>
