<svg width="24" height="24" viewBox="0 0 24 24" fill="none" xmlns="http://www.w3.org/2000/svg">
<path fill-rule="evenodd" clip-rule="evenodd" d="M0.292893 0.292893C-0.0976311 0.683418 -0.0976311 1.31658 0.292893 1.70711L4.16114 5.57536C3.42194 6.88248 3 8.39307 3 10C3 13.8787 5.20641 17.1159 7.2718 19.3104C8.317 20.4209 9.35915 21.2999 10.1395 21.9014C10.5305 22.2028 10.8578 22.4361 11.0897 22.5955C11.2057 22.6753 11.2981 22.7367 11.3627 22.779C11.3951 22.8001 11.4205 22.8165 11.4385 22.8281L11.46 22.8417L11.4664 22.8458L11.4686 22.8471L11.4694 22.8476C11.4697 22.8478 11.47 22.848 12 22L11.47 22.848C11.7943 23.0507 12.2057 23.0507 12.53 22.848L12 22C12.53 22.848 12.5302 22.8479 12.5303 22.8478L12.5308 22.8475L12.5318 22.8469L12.5346 22.8451L12.5433 22.8396L12.5729 22.8207C12.598 22.8046 12.6334 22.7817 12.6785 22.7519C12.7686 22.6924 12.8972 22.6058 13.0575 22.4932C13.378 22.2683 13.8264 21.939 14.3483 21.5154C15.2013 20.8231 16.2621 19.8695 17.2834 18.6976L22.2929 23.7071C22.6834 24.0976 23.3166 24.0976 23.7071 23.7071C24.0976 23.3166 24.0976 22.6834 23.7071 22.2929L1.70711 0.292893C1.31658 -0.0976311 0.683418 -0.0976311 0.292893 0.292893ZM15.8655 17.2797L12.5484 13.9626C12.3688 13.9873 12.1857 14 12 14C9.79086 14 8 12.2091 8 10C8 9.81427 8.01272 9.63118 8.0374 9.45162L5.64538 7.0596C5.23116 7.95308 5 8.94876 5 10C5 13.1213 6.79359 15.8841 8.7282 17.9396C9.683 18.9541 10.6409 19.7626 11.3605 20.3174C11.6055 20.5062 11.8219 20.6649 12 20.7916C12.2806 20.592 12.6559 20.3132 13.088 19.9625C13.9055 19.299 14.9137 18.3881 15.8655 17.2797ZM8.53977 3.91344C9.55945 3.33233 10.7394 3 12 3C15.866 3 19 6.13401 19 10C19 11.3007 18.6898 12.5392 18.1824 13.6968C17.9607 14.2027 18.191 14.7924 18.6968 15.0142C19.2027 15.2359 19.7924 15.0055 20.0142 14.4997C20.6118 13.1362 21 11.6243 21 10C21 5.02944 16.9706 1 12 1C10.3831 1 8.86292 1.42729 7.54949 2.17582C7.06966 2.44928 6.90236 3.05994 7.17582 3.53977C7.44928 4.0196 8.05994 4.1869 8.53977 3.91344ZM11 7C11 6.44772 11.4477 6 12 6C14.2091 6 16 7.79086 16 10C16 10.5523 15.5523 11 15 11C14.4477 11 14 10.5523 14 10C14 8.89543 13.1046 8 12 8C11.4477 8 11 7.55228 11 7Z" fill="black"/>
</svg>
