<svg xmlns="http://www.w3.org/2000/svg" width="24" height="24" viewBox="0 0 24 24">
  <path fill-rule="evenodd" d="M16.9267767,11.623699 C17.0732233,11.984835 17,12.4142136 16.7071068,12.7071068 L11.7071068,17.7071068 C11.3165825,18.0976311 10.6834175,18.0976311 10.2928932,17.7071068 C9.90236893,17.3165825 9.90236893,16.6834175 10.2928932,16.2928932 L13.5857864,13 L3,13 C2.44771525,13 2,12.5522847 2,12 C2,11.4477153 2.44771525,11 3,11 L16,11 C16.4142136,11 16.7696068,11.2518398 16.921415,11.6107549 L16.9267767,11.623699 Z M10.2928932,7.70710678 C9.90236893,7.31658249 9.90236893,6.68341751 10.2928932,6.29289322 C10.6834175,5.90236893 11.3165825,5.90236893 11.7071068,6.29289322 L13.7422869,8.32807331 C14.1328112,8.7185976 14.1328112,9.35176258 13.7422869,9.74228687 C13.3517626,10.1328112 12.7185976,10.1328112 12.3280733,9.74228687 L10.2928932,7.70710678 Z M13,3 C12.4477153,3 12,2.55228475 12,2 C12,1.44771525 12.4477153,1 13,1 L19,1 C20.6568542,1 22,2.34314575 22,4 L22,20 C22,21.6568542 20.6568542,23 19,23 L13,23 C12.4477153,23 12,22.5522847 12,22 C12,21.4477153 12.4477153,21 13,21 L19,21 C19.5522847,21 20,20.5522847 20,20 L20,4 C20,3.44771525 19.5522847,3 19,3 L13,3 Z"/>
</svg>
