<svg width="24" height="24" viewBox="0 0 24 24" fill="none" xmlns="http://www.w3.org/2000/svg">
<path fill-rule="evenodd" clip-rule="evenodd" d="M11 21C11.5523 21 12 21.4477 12 22C12 22.5523 11.5523 23 11 23H5C3.34315 23 2 21.6569 2 20V4C2 2.34315 3.34315 1 5 1H11C11.5523 1 12 1.44772 12 2C12 2.55228 11.5523 3 11 3H5C4.44772 3 4 3.44772 4 4V20C4 20.5523 4.44772 21 5 21H11ZM18.3137 11.364L15.7782 8.82847C15.3876 8.43795 15.3876 7.80478 15.7782 7.41426C16.1687 7.02374 16.8019 7.02374 17.1924 7.41426L21.435 11.6569C21.8255 12.0474 21.8255 12.6806 21.435 13.0711L17.1924 17.3138C16.8019 17.7043 16.1687 17.7043 15.7782 17.3138C15.3876 16.9232 15.3876 16.2901 15.7782 15.8995L18.3137 13.364H9.41422C8.86194 13.364 8.41422 12.9162 8.41422 12.364C8.41422 11.8117 8.86194 11.364 9.41422 11.364H18.3137Z" fill="#ADB2BD"/>
</svg>
