<svg width="24" height="24" viewBox="0 0 24 24" fill="none" xmlns="http://www.w3.org/2000/svg">
<path fill-rule="evenodd" clip-rule="evenodd" d="M13 3C12.4477 3 12 2.55228 12 2C12 1.44772 12.4477 1 13 1H19C20.6569 1 22 2.34315 22 4V20C22 21.6569 20.6569 23 19 23H13C12.4477 23 12 22.5523 12 22C12 21.4477 12.4477 21 13 21H19C19.5523 21 20 20.5523 20 20V4C20 3.44772 19.5523 3 19 3H13ZM12.3136 11.364L9.77816 8.82847C9.38764 8.43795 9.38764 7.80478 9.77816 7.41426C10.1687 7.02374 10.8019 7.02374 11.1924 7.41426L15.435 11.6569C15.8255 12.0474 15.8255 12.6806 15.435 13.0711L11.1924 17.3138C10.8019 17.7043 10.1687 17.7043 9.77816 17.3138C9.38764 16.9232 9.38764 16.2901 9.77816 15.8995L12.3137 13.364H3.41422C2.86193 13.364 2.41422 12.9162 2.41422 12.364C2.41422 11.8117 2.86193 11.364 3.41422 11.364H12.3136Z" fill="#ADB2BD"/>
</svg>
