<svg width="24" height="24" viewBox="0 0 24 24" fill="none" xmlns="http://www.w3.org/2000/svg">
<path fill-rule="evenodd" clip-rule="evenodd" d="M8.00742 1.00004C8.17262 1.00124 8.3283 1.0425 8.46522 1.11459L15.9685 4.86624L22.5039 1.13177C23.1705 0.750823 24 1.23219 24 2.00001V6.00001C24 6.5523 23.5523 7.00001 23 7.00001C22.4477 7.00001 22 6.5523 22 6.00001V3.72319L17 6.58034V20.2768L22 17.4197V10C22 9.44773 22.4477 9.00001 23 9.00001C23.5523 9.00001 24 9.44773 24 10V18C24 18.3589 23.8077 18.6902 23.4961 18.8683L16.5114 22.8595C16.3618 22.9488 16.1869 23 16 23L15.9973 23C15.9845 23 15.9716 22.9997 15.9588 22.9992C15.8061 22.993 15.6623 22.9526 15.5348 22.8854L8.03147 19.1338L1.49614 22.8683C0.829482 23.2492 0 22.7678 0 22V6.00001C0 5.64116 0.192286 5.30981 0.503861 5.13177L7.48862 1.14048C7.63825 1.05127 7.81314 1.00001 8 1.00001C8.00248 1.00001 8.00495 1.00002 8.00742 1.00004ZM7 3.72319L2 6.58034V20.2768L7 17.4197V3.72319ZM9 17.382L15 20.382V6.61805L9 3.61805V17.382Z" fill="#ADB5BD"/>
</svg>
