<svg width="24" height="24" viewBox="0 0 24 24" fill="none" xmlns="http://www.w3.org/2000/svg">
<path fill-rule="evenodd" clip-rule="evenodd" d="M2.87868 3.37868C3.44129 2.81607 4.20435 2.5 5 2.5H8C8.55228 2.5 9 2.94772 9 3.5C9 4.05228 8.55228 4.5 8 4.5H5C4.73478 4.5 4.48043 4.60536 4.29289 4.79289C4.10536 4.98043 4 5.23478 4 5.5V8.5C4 9.05228 3.55228 9.5 3 9.5C2.44772 9.5 2 9.05228 2 8.5V5.5C2 4.70435 2.31607 3.94129 2.87868 3.37868ZM15 3.5C15 2.94772 15.4477 2.5 16 2.5H19C19.7957 2.5 20.5587 2.81607 21.1213 3.37868C21.6839 3.94129 22 4.70435 22 5.5V8.5C22 9.05228 21.5523 9.5 21 9.5C20.4477 9.5 20 9.05228 20 8.5V5.5C20 5.23478 19.8946 4.98043 19.7071 4.79289C19.5196 4.60536 19.2652 4.5 19 4.5H16C15.4477 4.5 15 4.05228 15 3.5ZM3 15.5C3.55228 15.5 4 15.9477 4 16.5V19.5C4 19.7652 4.10536 20.0196 4.29289 20.2071C4.48043 20.3946 4.73478 20.5 5 20.5H8C8.55228 20.5 9 20.9477 9 21.5C9 22.0523 8.55228 22.5 8 22.5H5C4.20435 22.5 3.44129 22.1839 2.87868 21.6213C2.31607 21.0587 2 20.2957 2 19.5V16.5C2 15.9477 2.44772 15.5 3 15.5ZM21 15.5C21.5523 15.5 22 15.9477 22 16.5V19.5C22 20.2957 21.6839 21.0587 21.1213 21.6213C20.5587 22.1839 19.7957 22.5 19 22.5H16C15.4477 22.5 15 22.0523 15 21.5C15 20.9477 15.4477 20.5 16 20.5H19C19.2652 20.5 19.5196 20.3946 19.7071 20.2071C19.8946 20.0196 20 19.7652 20 19.5V16.5C20 15.9477 20.4477 15.5 21 15.5Z" fill="#111315"/>
</svg>
