<svg width="24" height="24" viewBox="0 0 24 24" fill="none" xmlns="http://www.w3.org/2000/svg">
<g id="Icone utilitaire/menu">
<path id="Icon" fill-rule="evenodd" clip-rule="evenodd" d="M2 6C2 6.55228 2.52672 7 3.17647 7H20.8235C21.4733 7 22 6.55228 22 6C22 5.44772 21.4733 5 20.8235 5H3.17647C2.52672 5 2 5.44772 2 6ZM3 13C2.44772 13 2 12.5523 2 12C2 11.4477 2.44772 11 3 11H21C21.5523 11 22 11.4477 22 12C22 12.5523 21.5523 13 21 13H3ZM3.17647 19C2.52672 19 2 18.5523 2 18C2 17.4477 2.52672 17 3.17647 17H20.8235C21.4733 17 22 17.4477 22 18C22 18.5523 21.4733 19 20.8235 19H3.17647Z" fill="#ADB2BD"/>
</g>
</svg>
