<svg width="24" height="24" viewBox="0 0 24 24" fill="none" xmlns="http://www.w3.org/2000/svg">
<path fill-rule="evenodd" clip-rule="evenodd" d="M8 2.5C8.55228 2.5 9 2.94772 9 3.5V6.5C9 7.29565 8.68393 8.05871 8.12132 8.62132C7.55871 9.18393 6.79565 9.5 6 9.5H3C2.44772 9.5 2 9.05228 2 8.5C2 7.94772 2.44772 7.5 3 7.5H6C6.26522 7.5 6.51957 7.39464 6.70711 7.20711C6.89464 7.01957 7 6.76522 7 6.5V3.5C7 2.94772 7.44772 2.5 8 2.5ZM16 2.5C16.5523 2.5 17 2.94772 17 3.5V6.5C17 6.76522 17.1054 7.01957 17.2929 7.20711C17.4804 7.39464 17.7348 7.5 18 7.5H21C21.5523 7.5 22 7.94772 22 8.5C22 9.05228 21.5523 9.5 21 9.5H18C17.2044 9.5 16.4413 9.18393 15.8787 8.62132C15.3161 8.05871 15 7.29565 15 6.5V3.5C15 2.94772 15.4477 2.5 16 2.5ZM2 16.5C2 15.9477 2.44772 15.5 3 15.5H6C6.79565 15.5 7.55871 15.8161 8.12132 16.3787C8.68393 16.9413 9 17.7044 9 18.5V21.5C9 22.0523 8.55228 22.5 8 22.5C7.44772 22.5 7 22.0523 7 21.5V18.5C7 18.2348 6.89464 17.9804 6.70711 17.7929C6.51957 17.6054 6.26522 17.5 6 17.5H3C2.44772 17.5 2 17.0523 2 16.5ZM18 17.5C17.7348 17.5 17.4804 17.6054 17.2929 17.7929C17.1054 17.9804 17 18.2348 17 18.5V21.5C17 22.0523 16.5523 22.5 16 22.5C15.4477 22.5 15 22.0523 15 21.5V18.5C15 17.7043 15.3161 16.9413 15.8787 16.3787C16.4413 15.8161 17.2043 15.5 18 15.5H21C21.5523 15.5 22 15.9477 22 16.5C22 17.0523 21.5523 17.5 21 17.5H18Z" fill="#111315"/>
</svg>
