<?xml version="1.0" encoding="UTF-8"?>
<svg width="24px" height="24px" viewBox="0 0 24 24" version="1.1" xmlns="http://www.w3.org/2000/svg" xmlns:xlink="http://www.w3.org/1999/xlink">
    <!-- Generator: Sketch 56.3 (81716) - https://sketch.com -->
    <title>Icon/music</title>
    <desc>Created with Sketch.</desc>
    <g id="Icon/music" stroke="none" stroke-width="1" fill="none" fill-rule="evenodd">
        <path d="M10,18 C10,20.209139 8.209139,22 6,22 C3.790861,22 2,20.209139 2,18 C2,15.790861 3.790861,14 6,14 C6.72857429,14 7.41165327,14.1947886 8,14.5351288 L8,5 C8,4.51116085 8.35341304,4.09397074 8.83560101,4.01360608 L20.835601,2.01360608 C21.3803713,1.92281102 21.8955989,2.29083069 21.9863939,2.83560101 C22.077189,3.38037133 21.7091693,3.89559887 21.164399,3.98639392 L10,5.84712709 L10,18 Z M22,16 C22,18.209139 20.209139,20 18,20 C15.790861,20 14,18.209139 14,16 C14,13.790861 15.790861,12 18,12 C18.7285743,12 19.4116533,12.1947886 20,12.5351288 L20,7 C20,6.44771525 20.4477153,6 21,6 C21.5522847,6 22,6.44771525 22,7 L22,16 Z M18,18 C19.1045695,18 20,17.1045695 20,16 C20,14.8954305 19.1045695,14 18,14 C16.8954305,14 16,14.8954305 16,16 C16,17.1045695 16.8954305,18 18,18 Z M6,20 C7.1045695,20 8,19.1045695 8,18 C8,16.8954305 7.1045695,16 6,16 C4.8954305,16 4,16.8954305 4,18 C4,19.1045695 4.8954305,20 6,20 Z" id="Icon" fill="#ADB5BD"></path>
    </g>
</svg>