<svg width="24" height="24" viewBox="0 0 24 24" fill="none" xmlns="http://www.w3.org/2000/svg">
<path fill-rule="evenodd" clip-rule="evenodd" d="M10 18V5.84713L21.1644 3.9864C21.7092 3.8956 22.0772 3.38037 21.9864 2.8356C21.8956 2.29083 21.3804 1.92281 20.8356 2.01361L8.8356 4.01361C8.35341 4.09397 8 4.51116 8 5V14.5351C7.41165 14.1948 6.72857 14 6 14C3.79086 14 2 15.7909 2 18C2 20.2091 3.79086 22 6 22C8.20914 22 10 20.2091 10 18ZM8 18C8 16.8954 7.10457 16 6 16C4.89543 16 4 16.8954 4 18C4 19.1046 4.89543 20 6 20C7.10457 20 8 19.1046 8 18ZM21 6C20.4477 6 20 6.44772 20 7V12.5351C19.4117 12.1948 18.7286 12 18 12C15.7909 12 14 13.7909 14 16C14 18.2091 15.7909 20 18 20C20.2091 20 22 18.2091 22 16V7C22 6.44772 21.5523 6 21 6ZM18 14C19.1046 14 20 14.8954 20 16C20 17.1046 19.1046 18 18 18C16.8954 18 16 17.1046 16 16C16 14.8954 16.8954 14 18 14Z" fill="#ADB5BD"/>
</svg>
