<svg xmlns="http://www.w3.org/2000/svg" width="24" height="24" viewBox="0 0 24 24">
  <path fill-rule="evenodd" d="M11.9268086,22.9973623 C11.4340633,22.9855378 10.9440957,22.8524182 10.5038611,22.5982431 L3.5,18.5960257 C2.57274841,18.0606772 2.00109875,17.0717233 2,16 L2,7.99897429 C2.00109875,6.92827671 2.57274841,5.9393228 3.50386106,5.40175686 L10.5,1.4039746 C11.4282032,0.868076211 12.5717968,0.868076211 13.4961389,1.40175686 L20.5,5.40397429 C21.4272516,5.9393228 21.9989013,6.92827671 22,8 L22,14 C22,14.5522847 21.5522847,15 21,15 C20.4477153,15 20,14.5522847 20,14 L20,8.17924764 L13,12.5542476 L13,20.5782489 L19.5038611,16.8617569 C19.9833785,16.5877469 20.5942332,16.7543436 20.8682431,17.2338611 C21.1422531,17.7133785 20.9756564,18.3242332 20.4961389,18.5982431 L13.5,22.5960254 C13.0579775,22.8512272 12.567109,22.9848986 12.0743337,22.997279 C12.0497913,22.9990824 12.0250028,23 12,23 C11.975385,23 11.9509778,22.9991106 11.9268086,22.9973623 Z M11,20.5782595 L11,12.5542476 L4,8.17924764 L4,15.9989743 C4.00036555,16.3558735 4.19091543,16.6855248 4.49613894,16.8617569 L11,20.5782595 Z M14.5132038,9.25 L7.9638788,5.15667189 L5.33814003,6.65708988 L12,10.8207524 L14.5132038,9.25 Z M16.4,8.07075236 L18.6618529,6.65709427 L12.5,3.1360254 C12.1905989,2.95739261 11.8094011,2.95739261 11.4961389,3.13824314 L9.93516106,4.03022802 L16.4,8.07075236 Z"/>
</svg>
