<svg width="24" height="24" viewBox="0 0 24 24" fill="none" xmlns="http://www.w3.org/2000/svg">
<path fill-rule="evenodd" clip-rule="evenodd" d="M20.5 5.40397C21.4273 5.93932 21.9989 6.92827 22 8V14C22 14.5523 21.5523 15 21 15C20.4477 15 20 14.5523 20 14V8.17924L13 12.5542V20.5782L19.5039 16.8618C19.9834 16.5877 20.5942 16.7543 20.8682 17.2339C21.1423 17.7134 20.9757 18.3242 20.4961 18.5982L13.5 22.596C13.058 22.8512 12.5671 22.9849 12.0743 22.9973C12.0498 22.9991 12.025 23 12 23C11.9754 23 11.951 22.9991 11.9268 22.9974C11.4341 22.9855 10.9441 22.8524 10.5039 22.5982L3.5 18.596C2.57275 18.0607 2.0011 17.0717 2 16V7.99897C2.0011 6.92827 2.57275 5.93932 3.50386 5.40175L10.5 1.40397C11.4282 0.868073 12.5718 0.868073 13.4961 1.40175L20.5 5.40397ZM11 20.5783L4.49614 16.8618C4.19092 16.6855 4.00037 16.3559 4 15.999L4 8.17924L11 12.5542V20.5783ZM12.5 3.13602L18.6619 6.65709L16.4 8.07075L9.93516 4.03022L11.4961 3.13824C11.8094 2.95739 12.1906 2.95739 12.5 3.13602ZM7.96388 5.15667L14.5132 9.25L12 10.8207L5.33814 6.65709L7.96388 5.15667Z" fill="#ADB5BD"/>
</svg>
