<?xml version="1.0" encoding="UTF-8"?>
<svg width="24px" height="24px" viewBox="0 0 24 24" version="1.1" xmlns="http://www.w3.org/2000/svg" xmlns:xlink="http://www.w3.org/1999/xlink">
    <!-- Generator: Sketch 56.3 (81716) - https://sketch.com -->
    <title>Icon/paperclip</title>
    <desc>Created with Sketch.</desc>
    <g id="Icon/paperclip" stroke="none" stroke-width="1" fill="none" fill-rule="evenodd">
        <path d="M20.7328932,10.3428932 L11.5428932,19.5328932 C9.58896875,21.4868177 6.42103125,21.4868177 4.46710678,19.5328932 C2.51318231,17.5789687 2.51318231,14.4110313 4.46710678,12.4571068 L13.6571068,3.26710678 C14.8295483,2.09466527 16.7304516,2.09466529 17.9028932,3.26710682 C19.0753347,4.43954836 19.0753347,6.34045167 17.9028932,7.51289323 L8.70327783,16.7025088 C8.31193459,17.0938518 7.67806541,17.0938518 7.28710678,16.7028932 C6.89614815,16.3119346 6.89614815,15.6780654 7.28710678,15.2871068 L15.77669,6.80752334 C16.1674443,6.41722924 16.1678174,5.78406437 15.7775233,5.39331002 C15.3872292,5.00255567 14.7540644,5.00218256 14.36331,5.39247666 L5.87331002,13.8724767 C4.70088601,15.0449004 4.70088601,16.9450996 5.87289322,18.1171068 C7.04490043,19.289114 8.94509957,19.289114 10.1171068,18.1171068 L19.3167222,8.92749118 C21.2705969,6.97361663 21.2705969,3.80638337 19.3171067,1.85289326 C17.3636166,-0.100596852 14.1963834,-0.100596876 12.2428932,1.85289321 L3.05289322,11.0428932 C0.317920164,13.7778663 0.317920164,18.2121337 3.05289322,20.9471068 C5.78786627,23.6820798 10.2221337,23.6820798 12.9571068,20.9471068 L22.1471068,11.7571068 C22.5376311,11.3665825 22.5376311,10.7334175 22.1471068,10.3428932 C21.7565825,9.95236893 21.1234175,9.95236893 20.7328932,10.3428932 Z" id="Icon" fill="#ADB5BD"></path>
    </g>
</svg>