<svg width="24" height="24" viewBox="0 0 24 24" fill="none" xmlns="http://www.w3.org/2000/svg">
<path fill-rule="evenodd" clip-rule="evenodd" d="M14.782 4C13.4451 4 12.2018 5.1886 12.1289 6.873C12.5488 6.99161 12.8565 7.37759 12.8565 7.83545C12.8565 8.38773 12.4088 8.83545 11.8565 8.83545C10.7933 8.83545 9.93133 9.69737 9.93133 10.7606V11.0591C9.93133 12.2872 10.9269 13.2828 12.155 13.2828H17.4083C18.6364 13.2828 19.632 12.2872 19.632 11.0591V10.7606C19.632 9.69737 18.77 8.83545 17.7068 8.83545C17.1545 8.83545 16.7068 8.38773 16.7068 7.83545C16.7068 7.37737 17.0148 6.99123 17.435 6.87283C17.362 5.18852 16.1187 4 14.782 4ZM10.1255 7.02961C10.1255 7.09832 10.1268 7.16676 10.1293 7.23488C8.8275 7.87382 7.93133 9.21256 7.93133 10.7606V11.0591C7.93133 13.3918 9.82234 15.2828 12.155 15.2828H14V20H6L6 17C6.55228 17 7 16.5523 7 16V13C7 12.4477 6.55228 12 6 12H5H4H3C2.44772 12 2 12.4477 2 13V16C2 16.5523 2.44771 17 3 17L3 21C3 21.5523 3.44772 22 4 22H4.05556H5H14H16H20.9444C21.5274 22 22 21.5523 22 21C22 20.4477 21.5274 20 20.9444 20H16V15.2828H17.4083C19.7409 15.2828 21.632 13.3918 21.632 11.0591V10.7606C21.632 9.2128 20.7361 7.87425 19.4346 7.23519C19.4371 7.16696 19.4384 7.09843 19.4384 7.02961C19.4384 4.34549 17.4429 2 14.782 2C12.1211 2 10.1255 4.34549 10.1255 7.02961ZM4.5 11C5.32843 11 6 10.3284 6 9.5C6 8.67157 5.32843 8 4.5 8C3.67157 8 3 8.67157 3 9.5C3 10.3284 3.67157 11 4.5 11Z" fill="#ADB2BD"/>
</svg>
