<svg width="24" height="24" viewBox="0 0 24 24" fill="none" xmlns="http://www.w3.org/2000/svg">
<path d="M12.9885 16.2864C11.8375 17.1639 10.4014 17.6855 8.84273 17.6855C5.06319 17.6855 2 14.6218 2 10.8432C2 7.06367 5.06319 4 8.84273 4C12.6218 4 15.6855 7.06367 15.6855 10.8432C15.6855 12.4053 15.162 13.8444 14.2801 14.9963C14.6253 15.2532 16.1782 16.4061 16.3437 16.6092C16.2812 16.0413 16.0883 14.2262 16.0883 14.2262L21.8177 18.5136L21.8318 18.6391L17.5972 16.7757L17.9454 20L12.9875 16.2874L12.9885 16.2864ZM11.3644 15.0017C10.5753 14.4118 7.49059 12.1695 7.49059 12.1695H10.5035C10.6773 12.3038 12.0255 13.3082 12.6823 13.7999L12.6808 13.8014C13.3025 12.9806 13.6711 11.9541 13.6711 10.8413C13.6711 8.14677 11.5094 5.96401 8.84271 5.96401C6.17554 5.96401 4.01378 8.14677 4.01378 10.8413C4.01378 13.5348 6.17554 15.7181 8.84271 15.7181C9.76659 15.7181 10.6294 15.4558 11.3634 15.0022L11.3644 15.0017Z" fill="#ADB5BD"/>
</svg>
