<svg width="24" height="24" viewBox="0 0 24 24" fill="none" xmlns="http://www.w3.org/2000/svg">
<path fill-rule="evenodd" clip-rule="evenodd" d="M16.8921 13.0728C16.7798 12.5301 16.5651 12.0813 16.2553 11.6728C15.6204 10.8349 14.5919 10.3052 13.1999 10.3052C11.0359 10.3052 9.70536 11.7748 9.31133 13.3238C8.95746 12.2316 8.0104 11.4947 7.01003 11.1833C7.763 10.6344 8.15719 9.84924 8.15719 8.95288C8.15719 8.12088 7.81085 7.36353 7.23108 6.87065C6.38051 6.14758 5.22112 6 3.79253 6H1V18.0584C1.26287 18.0584 1.52818 18.058 1.79436 18.0576C2.32936 18.0568 2.8679 18.056 3.39731 18.0584C4.10269 18.0616 4.79155 18.0574 5.43393 18.0317C7.46721 17.9502 8.85891 16.9268 9.30435 15.3899C9.45732 16.0732 9.75153 16.6303 10.1357 17.053C10.9187 17.9148 12.0539 18.2517 13.1971 18.2517C14.6046 18.2517 15.6223 17.8435 16.3175 17.218L15.3225 16.0484C14.8217 16.4259 14.1782 16.6485 13.4554 16.6485C12.0379 16.6441 11.4128 15.7471 11.3568 14.8848H16.8921V18.0584H18.9655V6.06022H16.8921V13.0728ZM3.7066 7.62878L3.13048 7.6291V10.8044H3.81038C4.18616 10.8044 4.45212 10.7835 4.63675 10.7458C5.74051 10.5204 5.94126 9.69586 5.94054 9.17116C5.94054 8.55061 5.64355 8.05383 5.0188 7.81143C4.70237 7.68861 4.26296 7.62878 3.7066 7.62878ZM4.63969 16.3506C4.89748 16.3506 5.21486 16.3402 5.47439 16.2935C6.65639 16.0806 7.15761 15.296 7.15761 14.3645C7.15761 13.4649 6.6133 12.7855 5.66585 12.537C5.38949 12.4646 4.90716 12.4167 4.48092 12.4167H3.1304L3.13032 16.3506H4.63969ZM13.1839 11.875C12.227 11.875 11.5777 12.5072 11.395 13.3855H14.9442C14.779 12.4414 14.1418 11.875 13.1839 11.875ZM20.3496 6.06023H22.3876V18.0583H20.3496V6.06023Z" fill="#ADB5BD"/>
</svg>
