<svg width="24" height="24" viewBox="0 0 24 24" fill="none" xmlns="http://www.w3.org/2000/svg">
<path fill-rule="evenodd" clip-rule="evenodd" d="M11 21C11 21.5523 11.4477 22 12 22C12.5523 22 13 21.5523 13 21V19.9381C16.6187 19.4869 19.4869 16.6187 19.9381 13H21C21.5523 13 22 12.5523 22 12C22 11.4477 21.5523 11 21 11H19.9381C19.4869 7.38128 16.6187 4.51314 13 4.06189V3C13 2.44772 12.5523 2 12 2C11.4477 2 11 2.44772 11 3V4.06189C7.38128 4.51314 4.51314 7.38128 4.06189 11H3C2.44772 11 2 11.4477 2 12C2 12.5523 2.44772 13 3 13H4.06189C4.51314 16.6187 7.38128 19.4869 11 19.9381V21ZM11 16V17.917C8.4875 17.4955 6.50448 15.5125 6.08296 13H8C8.55229 13 9 12.5523 9 12C9 11.4477 8.55228 11 8 11H6.08296C6.50448 8.48749 8.4875 6.50448 11 6.08296V8C11 8.55229 11.4477 9 12 9C12.5523 9 13 8.55228 13 8V6.08296C15.5125 6.50448 17.4955 8.48749 17.917 11H16C15.4477 11 15 11.4477 15 12C15 12.5523 15.4477 13 16 13H17.917C17.4955 15.5125 15.5125 17.4955 13 17.917V16C13 15.4477 12.5523 15 12 15C11.4477 15 11 15.4477 11 16ZM12 13C12.5523 13 13 12.5523 13 12C13 11.4477 12.5523 11 12 11C11.4477 11 11 11.4477 11 12C11 12.5523 11.4477 13 12 13Z" fill="black"/>
</svg>
