<svg xmlns="http://www.w3.org/2000/svg" width="24" height="24" viewBox="0 0 24 24">
  <path fill-rule="evenodd" d="M19,19 L19,20 C19,20.5522847 18.5522847,21 18,21 C17.4477153,21 17,20.5522847 17,20 L17,15 L7,15 L7,21 L15,21 C15.5522847,21 16,21.4477153 16,22 C16,22.5522847 15.5522847,23 15,23 L6,23 C5.44771525,23 5,22.5522847 5,22 L5,19 L4,19 C2.34314575,19 1,17.6568542 1,16 L1,11 C1,9.34314575 2.34314575,8 4,8 L5,8 L5,2 C5,1.44771525 5.44771525,1 6,1 L18,1 C18.5522847,1 19,1.44771525 19,2 L19,8 L20,8 C21.6568542,8 23,9.34314575 23,11 L23,16 C23,17.6568542 21.6568542,19 20,19 L19,19 Z M19,17 L20,17 C20.5522847,17 21,16.5522847 21,16 L21,11 C21,10.4477153 20.5522847,10 20,10 L4,10 C3.44771525,10 3,10.4477153 3,11 L3,16 C3,16.5522847 3.44771525,17 4,17 L5,17 L5,14 C5,13.4477153 5.44771525,13 6,13 L18,13 C18.5522847,13 19,13.4477153 19,14 L19,17 Z M7,8 L17,8 L17,3 L7,3 L7,8 Z"/>
</svg>
