<svg width="24" height="24" viewBox="0 0 24 24" fill="none" xmlns="http://www.w3.org/2000/svg">
<g id="reorder">
<path id="icon/action/reorder_24px" fill-rule="evenodd" clip-rule="evenodd" d="M13.2929 6.70711L12 5.41421L10.7071 6.70711C10.3166 7.09763 9.68342 7.09763 9.29289 6.70711C8.90237 6.31658 8.90237 5.68342 9.29289 5.29289L11.2929 3.29289C11.6834 2.90237 12.3166 2.90237 12.7071 3.29289L14.7071 5.29289C15.0976 5.68342 15.0976 6.31658 14.7071 6.70711C14.3166 7.09763 13.6834 7.09763 13.2929 6.70711ZM4 11C3.44772 11 3 10.5523 3 10C3 9.44772 3.44772 9 4 9H20C20.5523 9 21 9.44772 21 10C21 10.5523 20.5523 11 20 11H4ZM4 15C3.44772 15 3 14.5523 3 14C3 13.4477 3.44772 13 4 13H20C20.5523 13 21 13.4477 21 14C21 14.5523 20.5523 15 20 15H4ZM12 18.5858L13.2929 17.2929C13.6834 16.9024 14.3166 16.9024 14.7071 17.2929C15.0976 17.6834 15.0976 18.3166 14.7071 18.7071L12.7071 20.7071C12.3166 21.0976 11.6834 21.0976 11.2929 20.7071L9.29289 18.7071C8.90237 18.3166 8.90237 17.6834 9.29289 17.2929C9.68342 16.9024 10.3166 16.9024 10.7071 17.2929L12 18.5858Z" fill="#ADB5BD"/>
</g>
</svg>
