<svg xmlns="http://www.w3.org/2000/svg" width="24" height="24" viewBox="0 0 24 24">
  <path fill-rule="evenodd" d="M11,4 L10.7497764,8 L13.2497764,8 L13,4 L16.2192236,4 C16.6780912,4 17.0780743,4.31229737 17.1893661,4.75746437 L20.6893661,18.7574644 C20.8233148,19.2932593 20.4975541,19.8361938 19.9617592,19.9701425 C19.8824386,19.9899727 19.8009854,20 19.7192236,20 L14,20 L13.7497764,16 L10.2497764,16 L10,20 L4.28077641,20 C3.72849166,20 3.28077641,19.5522847 3.28077641,19 C3.28077641,18.9182382 3.29080376,18.836785 3.31063391,18.7574644 L6.81063391,4.75746437 C6.92192566,4.31229737 7.32190876,4 7.78077641,4 L11,4 Z M13.3747764,10 L10.6247764,10 L10.3747764,14 L13.6247764,14 L13.3747764,10 Z"/>
</svg>
