<svg width="24" height="24" viewBox="0 0 24 24" fill="none" xmlns="http://www.w3.org/2000/svg">
<path fill-rule="evenodd" clip-rule="evenodd" d="M11 4L10.7498 8H13.2498L13 4H16.2192C16.6781 4 17.0781 4.3123 17.1894 4.75746L20.6894 18.7575C20.8233 19.2933 20.4975 19.8362 19.9617 19.9701C19.8824 19.99 19.801 20 19.7192 20H14L13.7498 16H10.2498L9.99999 20H4.28076C3.72848 20 3.28076 19.5523 3.28076 19C3.28076 18.9182 3.29079 18.8368 3.31062 18.7575L6.81062 4.75746C6.92191 4.3123 7.32189 4 7.78076 4H11ZM13.3748 10H10.6248L10.3748 14H13.6248L13.3748 10Z" fill="#ADB5BD"/>
</svg>
