<svg width="24" height="24" viewBox="0 0 24 24" fill="none" xmlns="http://www.w3.org/2000/svg">
<path fill-rule="evenodd" clip-rule="evenodd" d="M15.7306 8.26933C12.3327 4.87137 7.81149 3 3 3V6.54018C6.86587 6.54018 10.498 8.04327 13.2274 10.7726C15.9567 13.502 17.4598 17.1341 17.4598 21H21C20.9999 16.1885 19.1286 11.6673 15.7306 8.26933ZM3 9V12.5374C7.66623 12.5374 11.4625 16.3337 11.4625 21H15C15 14.3832 9.61686 9 3 9ZM8.05471 18.477C8.05471 19.8696 6.92317 20.9986 5.52735 20.9986C4.13154 20.9986 3 19.8696 3 18.477C3 17.0843 4.13154 15.9554 5.52735 15.9554C6.92317 15.9554 8.05471 17.0843 8.05471 18.477Z" fill="black"/>
</svg>
