<svg width="24" height="24" viewBox="0 0 24 24" fill="none" xmlns="http://www.w3.org/2000/svg">
<path fill-rule="evenodd" clip-rule="evenodd" d="M2 3C2 2.44772 2.44772 2 3 2H5.25C5.80228 2 6.25 2.44772 6.25 3C6.25 3.55228 5.80228 4 5.25 4H4V5.25C4 5.80228 3.55228 6.25 3 6.25C2.44772 6.25 2 5.80228 2 5.25V3ZM8.75 3C8.75 2.44772 9.19772 2 9.75 2H14.25C14.8023 2 15.25 2.44772 15.25 3C15.25 3.55228 14.8023 4 14.25 4H9.75C9.19772 4 8.75 3.55228 8.75 3ZM17.75 3C17.75 2.44772 18.1977 2 18.75 2H21C21.5523 2 22 2.44772 22 3V5.25C22 5.80228 21.5523 6.25 21 6.25C20.4477 6.25 20 5.80228 20 5.25V4H18.75C18.1977 4 17.75 3.55228 17.75 3ZM3 8.75C3.55228 8.75 4 9.19772 4 9.75V14.25C4 14.8023 3.55228 15.25 3 15.25C2.44772 15.25 2 14.8023 2 14.25V9.75C2 9.19772 2.44772 8.75 3 8.75ZM21 8.75C21.5523 8.75 22 9.19772 22 9.75V14.25C22 14.8023 21.5523 15.25 21 15.25C20.4477 15.25 20 14.8023 20 14.25V9.75C20 9.19772 20.4477 8.75 21 8.75ZM3 17.75C3.55228 17.75 4 18.1977 4 18.75V20H5.25C5.80228 20 6.25 20.4477 6.25 21C6.25 21.5523 5.80228 22 5.25 22H3C2.44772 22 2 21.5523 2 21V18.75C2 18.1977 2.44772 17.75 3 17.75ZM21 17.75C21.5523 17.75 22 18.1977 22 18.75V21C22 21.5523 21.5523 22 21 22H18.75C18.1977 22 17.75 21.5523 17.75 21C17.75 20.4477 18.1977 20 18.75 20H20V18.75C20 18.1977 20.4477 17.75 21 17.75ZM8.75 21C8.75 20.4477 9.19772 20 9.75 20H14.25C14.8023 20 15.25 20.4477 15.25 21C15.25 21.5523 14.8023 22 14.25 22H9.75C9.19772 22 8.75 21.5523 8.75 21Z" fill="black"/>
</svg>
