<svg xmlns="http://www.w3.org/2000/svg" width="24" height="24" viewBox="0 0 24 24">
  <path fill-rule="evenodd" d="M21.6487742,1.06344803 C21.6777402,1.05260514 21.7071081,1.043152 21.7367748,1.03508859 C22.4803803,0.828657585 23.1713424,1.51961974 22.9649114,2.26322518 C22.956848,2.29289193 22.9473949,2.32225981 22.936552,2.35122581 L15.9438584,22.3303504 C15.7614109,22.851629 15.1909282,23.1263059 14.6696496,22.9438584 C14.148371,22.7614109 13.8736941,22.1909282 14.0561416,21.6696496 L19.6085296,5.80568395 L12.1927471,13.2214665 L13.9138115,17.0938615 C14.1381156,17.5985457 13.9108226,18.1895075 13.4061385,18.4138115 C12.9014543,18.6381156 12.3104925,18.4108226 12.0861885,17.9061385 L10.2423956,13.7576044 L1.59386153,9.91381155 C0.76623551,9.54597776 0.814810588,8.35533529 1.66964958,8.05614164 L21.6487742,1.06344803 Z M10.7785335,11.8072529 L18.1943161,4.39147039 L4.71107508,9.11060473 L10.7785335,11.8072529 Z"/>
</svg>
