<svg xmlns="http://www.w3.org/2000/svg" width="24" height="24" viewBox="0 0 24 24">
  <path fill-rule="evenodd" d="M9.85034248,10.912319 C9.94783994,11.2581483 10,11.6229828 10,12 C10,12.3768154 9.94789576,12.7414612 9.85049898,13.0871257 L15.1613188,16.181864 C15.8859718,15.4519611 16.8902053,15 18,15 C20.209139,15 22,16.790861 22,19 C22,19.5522847 21.5522847,20 21,20 C20.4477153,20 20,19.5522847 20,19 C20,17.8954305 19.1045695,17 18,17 C17.3071539,17 16.6965931,17.3523055 16.337689,17.8875451 C16.3220822,17.9234486 16.3042044,17.9588194 16.2840082,17.9934777 C16.262942,18.0296291 16.2399576,18.0639681 16.2152593,18.0964409 C16.077588,18.3678359 16,18.6748571 16,19 C16,20.1045695 16.8954305,21 18,21 C18.5522847,21 19,21.4477153 19,22 C19,22.5522847 18.5522847,23 18,23 C15.790861,23 14,21.209139 14,19 C14,18.6213659 14.0526084,18.2550192 14.1509144,17.9078707 L8.84234321,14.8144427 C8.11741331,15.546514 7.11166532,16 6,16 C3.790861,16 2,14.209139 2,12 C2,9.790861 3.790861,8 6,8 C7.11145808,8 8.11703831,8.45331696 8.84193774,9.18514793 L14.1496575,6.08768096 C14.0521601,5.7418517 14,5.37701717 14,5 C14,2.790861 15.790861,1 18,1 C20.209139,1 22,2.790861 22,5 C22,7.209139 20.209139,9 18,9 C16.8885419,9 15.8829617,8.54668304 15.1580623,7.81485207 L9.85034248,10.912319 Z M7.75575764,11.0414477 C7.74557109,11.0260077 7.73575011,11.0101997 7.72631298,10.9940285 C7.7169447,10.9779753 7.70807409,10.9617689 7.69969644,10.945427 C7.34679704,10.3778496 6.71752428,10 6,10 C4.8954305,10 4,10.8954305 4,12 C4,13.1045695 4.8954305,14 6,14 C6.7175267,14 7.34680129,13.6221478 7.69970001,13.0545673 C7.70798078,13.0384144 7.71674319,13.0223936 7.72599178,13.0065223 C7.73552808,12.9901572 7.74545744,12.9741636 7.75576093,12.9585463 C7.91147596,12.6739288 8,12.3473023 8,12 C8,11.6526952 7.91147472,11.3260666 7.75575764,11.0414477 Z M16.3003036,6.05457301 C16.653203,6.62215038 17.2824757,7 18,7 C19.1045695,7 20,6.1045695 20,5 C20,3.8954305 19.1045695,3 18,3 C16.8954305,3 16,3.8954305 16,5 C16,5.34730478 16.0885253,5.67393338 16.2442424,5.9585523 C16.2544289,5.97399233 16.2642499,5.98980034 16.273687,6.0059715 C16.2830553,6.02202467 16.2919259,6.03823114 16.3003036,6.05457301 Z"/>
</svg>
