<svg width="24" height="24" viewBox="0 0 24 24" fill="none" xmlns="http://www.w3.org/2000/svg">
<path fill-rule="evenodd" clip-rule="evenodd" d="M19 5H5L6.5 3H17.5L19 5ZM21.6 6.8C21.417 6.93726 21.2022 7.0023 20.9899 7H4V20C4 20.5523 4.44772 21 5 21H19C19.5523 21 20 20.5523 20 20V11C20 10.4477 20.4477 10 21 10C21.5523 10 22 10.4477 22 11V20C22 21.6569 20.6569 23 19 23H5C3.34315 23 2 21.6569 2 20V6C2 5.78363 2.07018 5.5731 2.2 5.4L5.2 1.4C5.38885 1.14819 5.68524 1 6 1H18C18.3148 1 18.6111 1.14819 18.8 1.4L21.8 5.4C22.1314 5.84183 22.0418 6.46863 21.6 6.8ZM12 13C13.6569 13 15 11.6569 15 10C15 9.44771 15.4477 9 16 9C16.5523 9 17 9.44771 17 10C17 12.7614 14.7614 15 12 15C9.23858 15 7 12.7614 7 10C7 9.44771 7.44772 9 8 9C8.55228 9 9 9.44771 9 10C9 11.6569 10.3431 13 12 13Z" fill="#ADB5BD"/>
</svg>
