<svg width="24" height="24" viewBox="0 0 24 24" fill="none" xmlns="http://www.w3.org/2000/svg">
<path fill-rule="evenodd" clip-rule="evenodd" d="M13 3C13 2.44772 12.5523 2 12 2C11.4477 2 11 2.44772 11 3V6L8.6 4.2C8.15817 3.86863 7.53137 3.95817 7.2 4.4C6.86863 4.84183 6.95817 5.46863 7.4 5.8L11 8.5V11H8.5L5.8 7.4C5.46863 6.95817 4.84183 6.86863 4.4 7.2C3.95817 7.53137 3.86863 8.15817 4.2 8.6L6 11H3C2.44772 11 2 11.4477 2 12C2 12.5523 2.44772 13 3 13L6 13L4.2 15.4C3.86863 15.8418 3.95817 16.4686 4.4 16.8C4.84183 17.1314 5.46863 17.0418 5.8 16.6L8.5 13H11V14.5L7.4 17.2C6.95817 17.5314 6.86863 18.1582 7.2 18.6C7.53137 19.0418 8.15817 19.1314 8.6 18.8L11 17V21C11 21.5523 11.4477 22 12 22C12.5523 22 13 21.5523 13 21V17L15.4 18.8C15.8418 19.1314 16.4686 19.0418 16.8 18.6C17.1314 18.1582 17.0418 17.5314 16.6 17.2L13 14.5V13H15.5L18.2 16.6C18.5314 17.0418 19.1582 17.1314 19.6 16.8C20.0418 16.4686 20.1314 15.8418 19.8 15.4L18 13H21C21.5523 13 22 12.5523 22 12C22 11.4477 21.5523 11 21 11L18 11L19.8 8.6C20.1314 8.15817 20.0418 7.53137 19.6 7.2C19.1582 6.86863 18.5314 6.95817 18.2 7.4L15.5 11H13V8.5L16.6 5.8C17.0418 5.46863 17.1314 4.84183 16.8 4.4C16.4686 3.95817 15.8418 3.86863 15.4 4.2L13 6V3Z" fill="#ADB2BD"/>
</svg>
