<svg width="24" height="24" viewBox="0 0 24 24" fill="none" xmlns="http://www.w3.org/2000/svg">
<path d="M21.9906 7.19443C21.8969 9.23818 20.4719 12.0366 17.7062 15.5897C14.8516 19.3022 12.4375 21.1585 10.4594 21.1585C9.23594 21.1585 8.2 20.0288 7.35156 17.7694C5.70156 11.7132 4.99844 8.16474 3.63438 8.16474C3.475 8.16474 2.92656 8.49755 1.98438 9.1538L1 7.8788C3.41875 5.75536 5.72969 3.39286 7.17813 3.26161C8.81406 3.10224 9.81719 4.22255 10.1969 6.61318C11.5422 15.121 12.1375 16.4054 14.5844 12.5522C15.4609 11.1647 15.9344 10.1101 16 9.38349C16.225 7.23193 14.3219 7.37724 13.0328 7.93036C14.0641 4.55068 16.0375 2.91005 18.9484 3.0038C21.0953 3.06005 22.1125 4.46161 21.9906 7.19443Z" fill="#ADB2BD"/>
</svg>
