<svg width="24" height="24" viewBox="0 0 24 24" fill="none" xmlns="http://www.w3.org/2000/svg">
<path d="M4 1.5C2.34531 1.5 2 2.34531 2 4V20C2 21.6547 2.34531 22.5 4 22.5H21C22.6547 22.5 23 21.6547 23 20V4C23 2.34531 22.6547 1.5 21 1.5H4ZM15.7906 11.4516C16.7047 11.8875 17.3703 12.5531 17.7219 13.3688C18.2094 14.5078 18.2563 16.3641 16.775 17.8406C15.6406 18.9703 14.2672 19.4812 12.3172 19.4953H12.3078C10.1141 19.4812 8.42656 18.7406 7.29688 17.3016C6.28906 16.0219 5.76875 14.2359 5.75 12V11.9953V11.9906C5.76875 9.75469 6.28906 7.97344 7.29688 6.68906C8.43125 5.25 10.1187 4.50938 12.3078 4.49531H12.3172C14.5156 4.50938 16.2219 5.24531 17.3891 6.67969C17.9656 7.3875 18.3875 8.24062 18.6547 9.22969L17.3937 9.56719C17.1734 8.76094 16.8359 8.07187 16.3906 7.52344C15.4813 6.40313 14.1078 5.83125 12.3125 5.81719C10.5312 5.83125 9.18125 6.40313 8.30469 7.51406C7.48438 8.55938 7.05781 10.0641 7.04375 11.9906C7.05781 13.9172 7.48438 15.4266 8.30469 16.4672C9.18125 17.5828 10.5266 18.1547 12.3125 18.1641C13.9203 18.15 14.9797 17.7703 15.8656 16.8844C16.8734 15.8766 16.8547 14.6391 16.5312 13.8844C16.3438 13.4438 15.9969 13.0734 15.5328 12.7922C15.4203 13.6359 15.1625 14.3016 14.7594 14.8172C14.225 15.4969 13.4609 15.8672 12.4906 15.9188C11.7547 15.9609 11.0469 15.7828 10.4937 15.4172C9.84219 14.9859 9.4625 14.3297 9.42031 13.5656C9.34063 12.0562 10.5359 10.9734 12.3969 10.8656C13.0578 10.8281 13.6766 10.8562 14.2484 10.9547C14.1734 10.4906 14.0188 10.125 13.7891 9.85781C13.475 9.49219 12.9875 9.30469 12.3453 9.3H12.3266C11.8109 9.3 11.1078 9.44531 10.6578 10.125L9.57969 9.38437C10.1797 8.475 11.1547 7.97344 12.3219 7.97344H12.35C14.3094 7.9875 15.4719 9.20625 15.5891 11.3391C15.6547 11.3672 15.7203 11.3953 15.7859 11.4281L15.7906 11.4516ZM12.425 14.6156C13.2219 14.5734 14.1313 14.2594 14.2859 12.3281C13.8734 12.2391 13.4141 12.1922 12.9266 12.1922C12.7766 12.1922 12.6266 12.1969 12.4766 12.2062C11.1359 12.2812 10.6906 12.9328 10.7234 13.5141C10.7656 14.2969 11.6141 14.6625 12.4297 14.6203L12.425 14.6156Z" fill="#ADB2BD"/>
</svg>
