<svg width="24" height="24" viewBox="0 0 24 24" fill="none" xmlns="http://www.w3.org/2000/svg">
<path fill-rule="evenodd" clip-rule="evenodd" d="M4 2C2.89543 2 2 2.89543 2 4V20C2 21.1046 2.89543 22 4 22H20C21.1046 22 22 21.1046 22 20V4C22 2.89543 21.1046 2 20 2H4ZM12.8752 11.9376C12.8752 14.3884 10.8884 16.3752 8.4376 16.3752C5.98678 16.3752 4 14.3884 4 11.9376C4 9.48678 5.98678 7.5 8.4376 7.5C10.8884 7.5 12.8752 9.48678 12.8752 11.9376ZM17.7689 11.9375C17.7689 14.2794 16.7976 16.1779 15.5994 16.1779C14.4012 16.1779 13.4299 14.2794 13.4299 11.9375C13.4299 9.59562 14.4012 7.69714 15.5994 7.69714C16.7976 7.69714 17.7689 9.59562 17.7689 11.9375ZM19.9999 11.9376C19.9999 13.9527 19.6467 15.5863 19.211 15.5863C18.7753 15.5863 18.4221 13.9527 18.4221 11.9376C18.4221 9.92251 18.7753 8.28894 19.211 8.28894C19.6467 8.28894 19.9999 9.92251 19.9999 11.9376Z" fill="#ADB5BD"/>
</svg>
