<?xml version="1.0" encoding="UTF-8"?>
<svg width="24px" height="24px" viewBox="0 0 24 24" version="1.1" xmlns="http://www.w3.org/2000/svg" xmlns:xlink="http://www.w3.org/1999/xlink">
    <!-- Generator: Sketch 59.1 (86144) - https://sketch.com -->
    <title>Icon/social-facebook</title>
    <desc>Created with Sketch.</desc>
    <g id="Icon/social-facebook" stroke="none" stroke-width="1" fill="none" fill-rule="evenodd">
        <path d="M23,12.0672247 C23,5.9549608 18.0751367,1 12,1 C5.92486328,1 1,5.9549608 1,12.0672247 C1,17.5911965 5.02254102,22.169742 10.28125,23 L10.28125,15.2663444 L7.48828125,15.2663444 L7.48828125,12.0672247 L10.28125,12.0672247 L10.28125,9.62897679 C10.28125,6.85525359 11.9234727,5.32313467 14.4361133,5.32313467 C15.6396035,5.32313467 16.8984375,5.5392914 16.8984375,5.5392914 L16.8984375,8.26286624 L15.5113633,8.26286624 C14.1448926,8.26286624 13.71875,9.11597202 13.71875,9.99119063 L13.71875,12.0672247 L16.7695312,12.0672247 L16.2818359,15.2663444 L13.71875,15.2663444 L13.71875,23 C18.977459,22.169742 23,17.5911965 23,12.0672247" id="Icon" fill="#ADB5BD"></path>
    </g>
</svg>