<svg xmlns="http://www.w3.org/2000/svg" xmlns:xlink="http://www.w3.org/1999/xlink" width="24" height="24" viewBox="0 0 24 24">
  <defs>
    <path id="social-youtube-a" d="M22.5468617,7.19058824 C23.0180294,8.75529412 23,12.0164706 23,12.0164706 C23,12.0164706 23,15.2611765 22.5468617,16.8258824 C22.293156,17.6823529 21.5501608,18.3576471 20.6078253,18.5882353 C18.886251,19 11.9999538,19 11.9999538,19 C11.9999538,19 5.13177835,19 3.3920822,18.5717647 C2.44974679,18.3411765 1.70675156,17.6658824 1.45304587,16.8094118 C1,15.2611765 1,12 1,12 C1,12 1,8.75529412 1.45304587,7.19058824 C1.70675156,6.33411765 2.46786863,5.64235294 3.3920822,5.41176471 C5.11365652,5 11.9999538,5 11.9999538,5 C11.9999538,5 18.886251,5 20.6078253,5.42823529 C21.5501608,5.65882353 22.293156,6.33411765 22.5468617,7.19058824 Z M15,12 L10,9 L10,15 L15,12 Z"/>
  </defs>
  <use fill-rule="evenodd" xlink:href="#social-youtube-a"/>
</svg>
