<svg width="24" height="24" viewBox="0 0 24 24" fill="none" xmlns="http://www.w3.org/2000/svg">
<path fill-rule="evenodd" clip-rule="evenodd" d="M22.1446 8.28051L15.7543 7.34647L12.8967 1.55738C12.5299 0.814208 11.4701 0.814208 11.1033 1.55738L8.24573 7.34647L1.85536 8.28051C1.03545 8.40036 0.708663 9.4082 1.30226 9.98636L5.92547 14.4894L4.83438 20.851C4.69426 21.6679 5.55181 22.2909 6.28544 21.9051L12 18.8998L17.7145 21.9051C18.4482 22.2909 19.3057 21.6679 19.1656 20.851L18.0745 14.4894L22.6977 9.98636C23.2913 9.4082 22.9645 8.40036 22.1446 8.28051ZM14.9454 9.24949C14.62 9.20193 14.3388 8.99747 14.1933 8.70262L12 4.25925L12 16.77L16.8518 19.1917L16.0144 14.309C15.9587 13.9845 16.0664 13.6534 16.3023 13.4236L19.8516 9.9666L14.9454 9.24949Z" fill="black"/>
</svg>
