<svg width="24" height="24" viewBox="0 0 24 24" fill="none" xmlns="http://www.w3.org/2000/svg">
<path fill-rule="evenodd" clip-rule="evenodd" d="M15 7C14.4477 7 14 7.44772 14 8V16C14 16.5523 14.4477 17 15 17H23C23.5523 17 24 16.5523 24 16V8C24 7.44772 23.5523 7 23 7H15ZM16 9H22V15H16V9ZM7 10C6.44772 10 6 10.4477 6 11V16C6 16.5523 6.44772 17 7 17H12C12.5523 17 13 16.5523 13 16V11C13 10.4477 12.5523 10 12 10H7ZM8 15V12H11V15H8ZM0 13C0 12.4477 0.447715 12 1 12H4C4.55228 12 5 12.4477 5 13V16C5 16.5523 4.55228 17 4 17H1C0.447715 17 0 16.5523 0 16V13ZM2 14V15H3V14H2Z" fill="#ADB5BD"/>
</svg>
