<svg xmlns="http://www.w3.org/2000/svg" width="24" height="24" viewBox="0 0 24 24">
  <path fill-rule="evenodd" d="M12,10 C12.5522847,10 13,10.4477153 13,11 L13,16 C13,16.5522847 12.5522847,17 12,17 L7,17 C6.44771525,17 6,16.5522847 6,16 L6,11 C6,10.4477153 6.44771525,10 7,10 L12,10 Z M23,7 C23.5522847,7 24,7.44771525 24,8 L24,16 C24,16.5522847 23.5522847,17 23,17 L15,17 C14.4477153,17 14,16.5522847 14,16 L14,8 C14,7.44771525 14.4477153,7 15,7 L23,7 Z M4,12 C4.55228475,12 5,12.4477153 5,13 L5,16 C5,16.5522847 4.55228475,17 4,17 L1,17 C0.44771525,17 0,16.5522847 0,16 L0,13 C0,12.4477153 0.44771525,12 1,12 L4,12 Z M11,12 L8,12 L8,15 L11,15 L11,12 Z M22,9 L16,9 L16,15 L22,15 L22,9 Z M3,14 L2,14 L2,15 L3,15 L3,14 Z"/>
</svg>
