<svg width="24" height="24" viewBox="0 0 24 24" fill="none" xmlns="http://www.w3.org/2000/svg">
<path fill-rule="evenodd" clip-rule="evenodd" d="M4 22C2.94564 22 2.08183 21.1841 2.00549 20.1493L2 20V4C2 2.94564 2.81588 2.08183 3.85074 2.00549L4 2H20C21.0544 2 21.9182 2.81588 21.9945 3.85074L22 4V14C22 14.5523 21.5523 15 21 15C20.4872 15 20.0645 14.614 20.0067 14.1166L20 14V9H9V20H20V18C20 17.4477 20.4477 17 21 17C21.5128 17 21.9355 17.386 21.9933 17.8834L22 18V20C22 21.0544 21.1841 21.9182 20.1493 21.9945L20 22H9H7H4ZM7 9H4V20H7V9ZM7 4H4V7H7V4ZM20 4H9V7H20V4Z" fill="#ADB5BD"/>
</svg>
