<svg xmlns="http://www.w3.org/2000/svg" width="24" height="24" viewBox="0 0 24 24">
  <path fill="#ADB5BD" fill-rule="evenodd" d="M4,22 C2.9456382,22 2.08183488,21.1841222 2.00548574,20.1492623 L2,20 L2,4 C2,2.9456382 2.81587779,2.08183488 3.85073766,2.00548574 L4,2 L20,2 C21.0543618,2 21.9181651,2.81587779 21.9945143,3.85073766 L22,4 L22,14 C22,14.5522847 21.5522847,15 21,15 C20.4871642,15 20.0644928,14.6139598 20.0067277,14.1166211 L20,14 L20,9 L9,9 L9,20 L20,20 L20,18 C20,17.4477153 20.4477153,17 21,17 C21.5128358,17 21.9355072,17.3860402 21.9932723,17.8833789 L22,18 L22,20 C22,21.0543618 21.1841222,21.9181651 20.1492623,21.9945143 L20,22 L9,22 L7,22 L4,22 Z M7,9 L4,9 L4,20 L7,20 L7,9 Z M7,4 L4,4 L4,7 L7,7 L7,4 Z M20,4 L9,4 L9,7 L20,7 L20,4 Z"/>
</svg>
