<?xml version="1.0" encoding="UTF-8"?>
<svg width="24px" height="24px" viewBox="0 0 24 24" version="1.1" xmlns="http://www.w3.org/2000/svg" xmlns:xlink="http://www.w3.org/1999/xlink">
    <!-- Generator: Sketch 56.3 (81716) - https://sketch.com -->
    <title>Icon/thumb-down-full</title>
    <desc>Created with Sketch.</desc>
    <g id="Icon/thumb-down-full" stroke="none" stroke-width="1" fill="none" fill-rule="evenodd">
        <path d="M13.9138115,22.4061385 C13.7533102,22.7672665 13.3951887,23 13,23 C10.790861,23 9,21.209139 9,19 L9,15.9999886 L4.35132373,15.9999359 C3.47119618,16.0099029 2.63109397,15.6328561 2.05353597,14.9686644 C1.47597797,14.3044727 1.2192397,13.4201529 1.35155225,12.548438 L2.73130431,3.5500639 C2.95561258,2.07094973 4.23537419,0.983152355 5.71996478,1 L12.9999648,0.999630993 L17.0000641,1 L19.6523175,1.00015635 C21.3309455,0.970469428 22.7659324,2.20221784 22.9909755,3.86595721 L23,4 L23,11 L22.9909755,11.1340428 C22.7659324,12.7977822 21.3309455,14.0295306 19.67,14 L17.6498731,14 L13.9138115,22.4061385 Z M18,12.0000582 L19.6876825,12.0001563 C20.3326214,12.0115622 20.8866873,11.5524785 21,10.9232314 L21,4.07677109 C20.8866736,3.44752281 20.3321056,2.98844231 19.67,3 L18,3 L18,12.0000582 Z" id="Icon" fill="#ADB5BD"></path>
    </g>
</svg>