<svg width="24" height="24" viewBox="0 0 24 24" fill="none" xmlns="http://www.w3.org/2000/svg">
<path fill-rule="evenodd" clip-rule="evenodd" d="M13.2929 1.29289C13.6834 0.902369 14.3166 0.902369 14.7071 1.29289L17.2024 3.7882L17.2071 3.79288C17.4185 4.00427 17.5155 4.28675 17.498 4.56337C17.4872 4.7339 17.433 4.9022 17.3352 5.05023C17.2986 5.10568 17.2559 5.15828 17.2071 5.20709C16.8691 5.54511 16.8477 6.26192 17.2929 6.70711C17.7381 7.15228 18.4549 7.13091 18.7929 6.79288C18.9638 6.62204 19.1811 6.52593 19.4041 6.50458C19.691 6.47711 19.9874 6.5732 20.2071 6.79288L20.2118 6.79759L22.7071 9.29289C23.0976 9.68342 23.0976 10.3166 22.7071 10.7071L17.7071 15.7071L10.7071 22.7071C10.3166 23.0976 9.68342 23.0976 9.29289 22.7071L6.79289 20.2071C6.40237 19.8166 6.40237 19.1834 6.79289 18.7929C6.80268 18.7831 6.81262 18.7736 6.8227 18.7643C7.23396 18.3235 7.22476 17.6346 6.79507 17.2049C6.36544 16.7753 5.67667 16.766 5.23586 17.1772C5.22652 17.1873 5.21694 17.1973 5.20711 17.2071C4.81658 17.5976 4.18342 17.5976 3.79289 17.2071L1.29289 14.7071C0.902369 14.3166 0.902369 13.6834 1.29289 13.2929L8.29289 6.29289L13.2929 1.29289ZM17 13.5858L15.2071 11.7929C14.8166 11.4024 14.1834 11.4024 13.7929 11.7929C13.4024 12.1834 13.4024 12.8166 13.7929 13.2071L15.5858 15L10 20.5858L8.80016 19.3859C9.37946 18.2181 9.1825 16.7639 8.20928 15.7907C7.23606 14.8175 5.78192 14.6205 4.61405 15.1998L3.41421 14L9 8.41421L10.7929 10.2071C11.1834 10.5976 11.8166 10.5976 12.2071 10.2071C12.5976 9.81658 12.5976 9.18342 12.2071 8.79289L10.4142 7L14 3.41421L15.2142 4.62845C14.6869 5.79572 14.9909 7.23353 15.8787 8.12132C16.7665 9.00912 18.2043 9.31313 19.3716 8.78577L20.5858 10L17 13.5858Z" fill="black"/>
</svg>
