<svg width="24" height="24" viewBox="0 0 24 24" fill="none" xmlns="http://www.w3.org/2000/svg">
<path d="M19.04 4.55L17.62 5.97C16.07 4.74 14.12 4 12 4C10.17 4 8.47 4.55 7.05 5.48L8.51 6.94C9.53 6.35 10.73 6 12 6C15.87 6 19 9.13 19 13C19 14.27 18.65 15.47 18.06 16.49L19.51 17.94C20.45 16.53 21 14.83 21 13C21 10.88 20.26 8.93 19.03 7.39L20.45 5.97L19.04 4.55ZM15 1H9V3H15V1ZM11 9.44L13 11.44V8H11V9.44ZM3.02 4L1.75 5.27L4.5 8.03C3.55 9.45 3 11.16 3 13C3 17.97 7.02 22 12 22C13.84 22 15.55 21.45 16.98 20.5L19.48 23L20.75 21.73L13.04 14.02L3.02 4ZM12 20C8.13 20 5 16.87 5 13C5 11.72 5.35 10.52 5.95 9.48L15.51 19.04C14.48 19.65 13.28 20 12 20Z" fill="#ADB2BD"/>
</svg>
