<svg width="24" height="24" viewBox="0 0 24 24" fill="none" xmlns="http://www.w3.org/2000/svg">
<path fill-rule="evenodd" clip-rule="evenodd" d="M11 4V2C11 1.44772 11.4477 1 12 1C12.5523 1 13 1.44772 13 2V4H17C17.2271 4 17.4474 4.07728 17.6247 4.21913L20.1247 6.21913C20.3619 6.4089 20.5 6.69622 20.5 7C20.5 7.30378 20.3619 7.5911 20.1247 7.78087L17.6247 9.78087C17.4474 9.92272 17.2271 10 17 10H13V12H18.5C19.0523 12 19.5 12.4477 19.5 13V17C19.5 17.5523 19.0523 18 18.5 18H13V21C13 21.5523 12.5523 22 12 22C11.4477 22 11 21.5523 11 21V18H6.5C6.27293 18 6.05262 17.9227 5.87531 17.7809L3.37531 15.7809C3.13809 15.5911 3 15.3038 3 15C3 14.6962 3.13809 14.4089 3.37531 14.2191L5.87531 12.2191C6.05262 12.0773 6.27293 12 6.5 12L11 12V10H5C4.44772 10 4 9.55228 4 9V5C4 4.44772 4.44772 4 5 4H11ZM12 16H17.5V14L6.85078 14L5.60078 15L6.85078 16L12 16ZM6 6V8H16.6492L17.8992 7L16.6492 6H6Z" fill="#ADB2BD"/>
</svg>
