<svg xmlns="http://www.w3.org/2000/svg" width="24" height="24" viewBox="0 0 24 24">
  <path fill-rule="evenodd" d="M5.99994466,9 L5.99994466,7.00098442 C5.99691313,3.91846753 8.33010523,1.33513975 11.3970052,1.02535187 C12.9832618,0.865123934 14.4217283,1.26934842 15.6196627,2.21513179 C16.0531335,2.55736206 16.1270985,3.18619198 15.7848682,3.61966272 C15.4426379,4.05313347 14.813808,4.12709848 14.3803373,3.78486821 C13.5954931,3.16522445 12.6746927,2.90646968 11.5980027,3.01522625 C9.55339696,3.22175207 7.99792363,4.94398379 7.99994466,7 L7.99994466,9 L19,9 C19.5522847,9 20,9.44771525 20,10 L20,22 C20,22.5522847 19.5522847,23 19,23 L5,23 C4.44771525,23 4,22.5522847 4,22 L4,10 C4,9.44771525 4.44771525,9 5,9 L5.99994466,9 Z M12,17 C11.4477153,17 11,16.5522847 11,16 C11,15.4477153 11.4477153,15 12,15 C12.5522847,15 13,15.4477153 13,16 C13,16.5522847 12.5522847,17 12,17 Z M6,11 L6,21 L18,21 L18,11 L6,11 Z"/>
</svg>
