<svg width="24" height="24" viewBox="0 0 24 24" fill="none" xmlns="http://www.w3.org/2000/svg">
<path fill-rule="evenodd" clip-rule="evenodd" d="M11.0711 6.1216L8.53557 8.65708C8.14505 9.04761 7.51188 9.04761 7.12136 8.65708C6.73084 8.26656 6.73084 7.63339 7.12136 7.24287L11.364 3.00023C11.7545 2.60971 12.3877 2.60971 12.7782 3.00023L17.0209 7.24287C17.4114 7.6334 17.4114 8.26656 17.0209 8.65708C16.6303 9.04761 15.9972 9.04761 15.6066 8.65708L13.0711 6.1215L13.0711 15.0211C13.0711 15.5733 12.6233 16.0211 12.0711 16.0211C11.5188 16.0211 11.0711 15.5733 11.0711 15.0211L11.0711 6.1216ZM20 15V19C20 19.5523 19.5523 20 19 20H5C4.44772 20 4 19.5523 4 19V15C4 14.4477 3.55228 14 3 14C2.44772 14 2 14.4477 2 15V19C2 20.6568 3.34315 22 5 22H19C20.6569 22 22 20.6568 22 19V15C22 14.4477 21.5523 14 21 14C20.4477 14 20 14.4477 20 15Z" fill="#ADB2BD"/>
</svg>
