<svg xmlns="http://www.w3.org/2000/svg" width="24" height="24" viewBox="0 0 24 24">
  <path fill-rule="evenodd" d="M12.3892451,2.07858496 C12.7481602,2.23039322 13,2.58578644 13,3 L13,15 C13,15.5522847 12.5522847,16 12,16 C11.4477153,16 11,15.5522847 11,15 L11,5.41421356 L7.70710678,8.70710678 C7.31658249,9.09763107 6.68341751,9.09763107 6.29289322,8.70710678 C5.90236893,8.31658249 5.90236893,7.68341751 6.29289322,7.29289322 L11.2928932,2.29289322 C11.5857864,2 12.015165,1.9267767 12.376301,2.0732233 Z M20,15 C20,14.4477153 20.4477153,14 21,14 C21.5522847,14 22,14.4477153 22,15 L22,19 C22,20.6568542 20.6568542,22 19,22 L5,22 C3.34314575,22 2,20.6568542 2,19 L2,15 C2,14.4477153 2.44771525,14 3,14 C3.55228475,14 4,14.4477153 4,15 L4,19 C4,19.5522847 4.44771525,20 5,20 L19,20 C19.5522847,20 20,19.5522847 20,19 L20,15 Z M17.7071068,7.29289322 C18.0976311,7.68341751 18.0976311,8.31658249 17.7071068,8.70710678 C17.3165825,9.09763107 16.6834175,9.09763107 16.2928932,8.70710678 L14.2928932,6.70710678 C13.9023689,6.31658249 13.9023689,5.68341751 14.2928932,5.29289322 C14.6834175,4.90236893 15.3165825,4.90236893 15.7071068,5.29289322 L17.7071068,7.29289322 Z"/>
</svg>
