<svg width="24" height="24" viewBox="0 0 24 24" fill="none" xmlns="http://www.w3.org/2000/svg">
<path fill-rule="evenodd" clip-rule="evenodd" d="M11.0088 2.67421C10.2528 2.23496 9.39234 2 8.5 2C5.73858 2 3.5 4.23858 3.5 7C3.5 9.76142 5.73858 12 8.5 12C11.2614 12 13.5 9.76142 13.5 7C13.5 6.44772 13.0523 6 12.5 6C11.9477 6 11.5 6.44772 11.5 7C11.5 8.65685 10.1569 10 8.5 10C6.84315 10 5.5 8.65685 5.5 7C5.5 5.34315 6.84315 4 8.5 4C9.03703 4 9.55119 4.14041 10.0041 4.40355C10.4817 4.68098 11.0937 4.51877 11.3711 4.04123C11.6486 3.56368 11.4864 2.95165 11.0088 2.67421ZM1.46447 15.4645C2.40215 14.5268 3.67392 14 5 14H12C13.3261 14 14.5979 14.5268 15.5355 15.4645C16.4732 16.4021 17 17.6739 17 19V21C17 21.5523 16.5523 22 16 22C15.4477 22 15 21.5523 15 21V19C15 18.2043 14.6839 17.4413 14.1213 16.8787C13.5587 16.3161 12.7956 16 12 16H5C4.20435 16 3.44129 16.3161 2.87868 16.8787C2.31607 17.4413 2 18.2043 2 19V21C2 21.5523 1.55228 22 1 22C0.447715 22 0 21.5523 0 21V19C0 17.6739 0.526784 16.4021 1.46447 15.4645ZM17 10C16.4477 10 16 10.4477 16 11C16 11.5523 16.4477 12 17 12H23C23.5523 12 24 11.5523 24 11C24 10.4477 23.5523 10 23 10H17Z" fill="black"/>
</svg>
