<svg width="24" height="24" viewBox="0 0 24 24" fill="none" xmlns="http://www.w3.org/2000/svg">
<path fill-rule="evenodd" clip-rule="evenodd" d="M8.5 2C9.39234 2 10.2528 2.23496 11.0088 2.67421C11.4864 2.95165 11.6486 3.56368 11.3711 4.04123C11.0937 4.51877 10.4817 4.68098 10.0041 4.40355C9.55119 4.14041 9.03703 4 8.5 4C6.84315 4 5.5 5.34315 5.5 7C5.5 8.65685 6.84315 10 8.5 10C10.1569 10 11.5 8.65685 11.5 7C11.5 6.44772 11.9477 6 12.5 6C13.0523 6 13.5 6.44772 13.5 7C13.5 9.76142 11.2614 12 8.5 12C5.73858 12 3.5 9.76142 3.5 7C3.5 4.23858 5.73858 2 8.5 2ZM5 14C3.67392 14 2.40215 14.5268 1.46447 15.4645C0.526784 16.4021 0 17.6739 0 19V21C0 21.5523 0.447715 22 1 22C1.55228 22 2 21.5523 2 21V19C2 18.2043 2.31607 17.4413 2.87868 16.8787C3.44129 16.3161 4.20435 16 5 16H12C12.7956 16 13.5587 16.3161 14.1213 16.8787C14.6839 17.4413 15 18.2043 15 19V21C15 21.5523 15.4477 22 16 22C16.5523 22 17 21.5523 17 21V19C17 17.6739 16.4732 16.4021 15.5355 15.4645C14.5979 14.5268 13.3261 14 12 14H5ZM20 7C20.5523 7 21 7.44772 21 8V10H23C23.5523 10 24 10.4477 24 11C24 11.5523 23.5523 12 23 12H21V14C21 14.5523 20.5523 15 20 15C19.4477 15 19 14.5523 19 14V12H17C16.4477 12 16 11.5523 16 11C16 10.4477 16.4477 10 17 10H19V8C19 7.44772 19.4477 7 20 7Z" fill="black"/>
</svg>
