<svg xmlns="http://www.w3.org/2000/svg" width="24" height="24" viewBox="0 0 24 24">
  <path fill-rule="evenodd" d="M21,21 C21,21.5522847 20.5522847,22 20,22 C19.4477153,22 19,21.5522847 19,21 L19,19 C19,17.3431458 17.6568542,16 16,16 L8,16 C6.34314575,16 5,17.3431458 5,19 L5,21 C5,21.5522847 4.55228475,22 4,22 C3.44771525,22 3,21.5522847 3,21 L3,19 C3,16.2385763 5.23857625,14 8,14 L16,14 C18.7614237,14 21,16.2385763 21,19 L21,21 Z M14.5088166,2.67421322 C14.986359,2.95165091 15.148576,3.56368323 14.8711383,4.04122566 C14.5937006,4.51876808 13.9816683,4.68098502 13.5041258,4.40354732 C13.0511944,4.14040787 12.5370303,4 12,4 C10.3431458,4 9,5.34314575 9,7 C9,8.65685425 10.3431458,10 12,10 C13.6568542,10 15,8.65685425 15,7 C15,6.44771525 15.4477153,6 16,6 C16.5522847,6 17,6.44771525 17,7 C17,9.76142375 14.7614237,12 12,12 C9.23857625,12 7,9.76142375 7,7 C7,4.23857625 9.23857625,2 12,2 C12.8923355,2 13.7527516,2.23496232 14.5088166,2.67421322 Z"/>
</svg>
