<svg width="24" height="24" viewBox="0 0 24 24" fill="none" xmlns="http://www.w3.org/2000/svg">
<path fill-rule="evenodd" clip-rule="evenodd" d="M12.8575 4.3728C12.4691 3.72546 11.5309 3.72546 11.1425 4.3728L2.67491 18.4855C2.275 19.152 2.75511 20 3.5324 20H20.4676C21.2449 20 21.725 19.152 21.3251 18.4855L20.1425 16.5145C19.8584 16.0409 20.0119 15.4267 20.4855 15.1425C20.9591 14.8584 21.5734 15.0119 21.8575 15.4855L23.0401 17.4565C24.2399 19.4561 22.7995 22 20.4676 22H3.5324C1.20052 22 -0.239817 19.4561 0.959926 17.4565L9.42754 3.34381C10.5928 1.40179 13.4073 1.40179 14.5725 3.34381L19.4575 11.4855C19.7417 11.9591 19.5881 12.5733 19.1145 12.8575C18.6409 13.1416 18.0267 12.9881 17.7425 12.5145L12.8575 4.3728ZM11 9C11 8.44771 11.4477 8 12 8C12.5523 8 13 8.44771 13 9V14C13 14.5523 12.5523 15 12 15C11.4477 15 11 14.5523 11 14V9ZM12 16C11.4477 16 11 16.4477 11 17C11 17.5523 11.4477 18 12 18C12.5523 18 13 17.5523 13 17C13 16.4477 12.5523 16 12 16Z" fill="black"/>
</svg>
