<svg width="24" height="24" viewBox="0 0 24 24" fill="none" xmlns="http://www.w3.org/2000/svg">
<path fill-rule="evenodd" clip-rule="evenodd" d="M20.1762 17.8451C20.6549 18.1205 21.2662 17.9556 21.5416 17.4768C22.4922 15.8239 23 13.9478 23 12C23 5.92487 18.0751 1 12 1C5.92487 1 1 5.92487 1 12C1 18.0751 5.92487 23 12 23C13.95 23 15.8281 22.4911 17.4823 21.5384C17.9609 21.2628 18.1255 20.6514 17.8499 20.1728C17.5742 19.6942 16.9628 19.5296 16.4842 19.8053C15.79 20.2051 15.0479 20.5092 14.2741 20.7105C15.8008 18.4158 16.7257 15.7633 16.9499 13H20.9451C20.8089 14.2339 20.4212 15.4132 19.8079 16.4797C19.5325 16.9585 19.6974 17.5698 20.1762 17.8451ZM20.9451 11H16.9473C16.7186 8.22362 15.7949 5.57694 14.274 3.28974C17.831 4.21579 20.532 7.26312 20.9451 11ZM9.72571 3.28983C6.16881 4.21597 3.46801 7.26324 3.05493 11H7.05009C7.2743 8.23681 8.19911 5.58442 9.72571 3.28983ZM3.05493 13C3.46802 16.7369 6.16897 19.7842 9.72603 20.7103C8.2051 18.4231 7.28143 15.7764 7.05271 13H3.05493ZM12 20.4492C10.3303 18.2981 9.30879 15.7132 9.05759 13H14.9452C14.6989 15.6974 13.676 18.2904 12 20.4492ZM9.05477 11H14.9424C14.6912 8.28682 13.6697 5.70191 12 3.55077C10.324 5.70964 9.30106 8.30264 9.05477 11Z" fill="#ADB5BD"/>
</svg>
