<svg width="24" height="24" viewBox="0 0 24 24" fill="none" xmlns="http://www.w3.org/2000/svg">
<path fill-rule="evenodd" clip-rule="evenodd" d="M21 3.5C21 2.11929 19.8807 1 18.5 1C17.1193 1 16 2.11929 16 3.5C16 4.88071 17.1193 6 18.5 6C19.8807 6 21 4.88071 21 3.5ZM18 3.5C18 3.22386 18.2239 3 18.5 3C18.7762 3 19 3.22386 19 3.5C19 3.77614 18.7762 4 18.5 4C18.2239 4 18 3.77614 18 3.5ZM8.70712 7.70711L11.1274 5.2868L12.4304 6.15543L6.34381 12.242C6.32229 12.2586 6.30086 12.2753 6.27954 12.2922C5.84658 12.6351 5.77356 13.264 6.11644 13.697C6.45932 14.1299 7.08826 14.2029 7.52122 13.8601C7.53821 13.8466 7.55529 13.8333 7.57247 13.8201C7.59113 13.8071 7.60944 13.7933 7.62737 13.7788C8.09753 13.4314 8.63402 13.1947 9.20269 13.0797C10.5097 12.8155 11.8683 13.2115 12.8284 14.1716C14.3905 15.7337 14.3905 18.2664 12.8284 19.8285C11.2663 21.3906 8.73366 21.3906 7.17157 19.8285C6.28061 18.9375 5.87334 17.7026 6.03418 16.4762C6.106 15.9286 5.72031 15.4265 5.17272 15.3547C4.62512 15.2829 4.12299 15.6686 4.05117 16.2162C3.81035 18.0523 4.42222 19.9075 5.75735 21.2427C8.1005 23.5858 11.8995 23.5858 14.2426 21.2427C16.2057 19.2796 16.5241 16.2946 15.1978 14H17.8195L17.0136 18.8356C16.9228 19.3804 17.2908 19.8956 17.8356 19.9864C18.3804 20.0772 18.8956 19.7092 18.9864 19.1644L19.9864 13.1644C20.088 12.5549 19.6179 12 19 12H14.4142L15.9821 10.4322C16.1217 10.2925 16.2473 10.1393 16.3569 9.97495C17.2759 8.59636 16.9034 6.73376 15.5248 5.8147L14.5701 5.17821C14.5594 5.17074 14.5485 5.16351 14.5375 5.15651L11.5547 3.16795C11.1581 2.90353 10.63 2.95583 10.2929 3.29289L7.2929 6.29289C6.90238 6.68342 6.90238 7.31658 7.2929 7.70711C7.68343 8.09763 8.31659 8.09763 8.70712 7.70711ZM14.1274 7.2868L10.4013 11.0129C11.0148 11.0538 11.6183 11.1886 12.1903 11.4129C12.2209 11.3709 12.255 11.3308 12.2929 11.2929L14.5678 9.01796C14.6144 8.97139 14.6563 8.92034 14.6928 8.86555C14.9991 8.40602 14.875 7.78515 14.4154 7.4788L14.1274 7.2868Z" fill="#ADB5BD"/>
</svg>
