<svg width="24" height="24" viewBox="0 0 24 24" fill="none" xmlns="http://www.w3.org/2000/svg">
<path fill-rule="evenodd" clip-rule="evenodd" d="M1.84926 9.63156C4.61145 7.36182 8.14536 6 12 6C15.8546 6 19.3885 7.36182 22.1507 9.63156C22.5774 9.98219 23.2076 9.92052 23.5582 9.49381C23.9089 9.06711 23.8472 8.43695 23.4205 8.08632C20.3136 5.53339 16.3346 4 12 4C7.66544 4 3.68636 5.53339 0.579513 8.08632C0.152808 8.43695 0.0911368 9.06711 0.441767 9.49381C0.792397 9.92052 1.42255 9.98219 1.84926 9.63156ZM5.2291 13.3302C7.09611 11.8698 9.4451 11 12.0001 11C14.555 11 16.904 11.8698 18.771 13.3302C19.206 13.6704 19.8345 13.5936 20.1748 13.1586C20.515 12.7236 20.4382 12.0951 20.0032 11.7548C17.7969 10.0291 15.0173 9 12.0001 9C8.98284 9 6.20318 10.0291 3.9969 11.7548C3.56188 12.0951 3.48507 12.7236 3.82533 13.1586C4.1656 13.5936 4.79409 13.6704 5.2291 13.3302ZM8.59917 17.0561C9.56543 16.39 10.7357 16 12.0001 16C13.2644 16 14.4347 16.39 15.401 17.0561C15.8556 17.3696 16.4784 17.2552 16.7919 16.8005C17.1053 16.3458 16.9909 15.723 16.5362 15.4095C15.2468 14.5206 13.6827 14 12.0001 14C10.3174 14 8.75334 14.5206 7.46395 15.4095C7.00925 15.723 6.89478 16.3458 7.20826 16.8005C7.52174 17.2552 8.14447 17.3696 8.59917 17.0561ZM13.738 19.5544C13.2476 19.2053 12.6478 19 12.0001 19C11.3523 19 10.7525 19.2053 10.2622 19.5544C10.0372 19.7145 10.0388 20.0352 10.2339 20.2306L11.6462 21.6455C11.8415 21.8412 12.1586 21.8412 12.3539 21.6455L13.7662 20.2306C13.9613 20.0352 13.9629 19.7145 13.738 19.5544Z" fill="black"/>
</svg>
