<svg width="24" height="24" viewBox="0 0 24 24" fill="none" xmlns="http://www.w3.org/2000/svg">
<g clip-path="url(#clip0)">
<path fill-rule="evenodd" clip-rule="evenodd" d="M1.70711 0.292893C1.31658 -0.0976311 0.683418 -0.0976311 0.292893 0.292893C-0.0976311 0.683418 -0.0976311 1.31658 0.292893 1.70711L4.30778 5.722C2.96519 6.3575 1.71415 7.154 0.579537 8.08632C0.152832 8.43695 0.0911609 9.06711 0.441791 9.49381C0.792421 9.92052 1.42258 9.98219 1.84928 9.63156C3.042 8.65148 4.37848 7.84089 5.8219 7.23611L8.16194 9.57616C6.63376 10.0478 5.22621 10.7933 3.99692 11.7548C3.56191 12.0951 3.4851 12.7236 3.82536 13.1586C4.16562 13.5936 4.79411 13.6704 5.22913 13.3302C6.54719 12.2992 8.10507 11.563 9.80469 11.2189L12.6086 14.0228C12.4077 14.0077 12.2048 14 12.0001 14C10.3174 14 8.75337 14.5206 7.46397 15.4095C7.00928 15.723 6.8948 16.3458 7.20828 16.8005C7.52176 17.2552 8.1445 17.3696 8.59919 17.0561C9.56546 16.39 10.7357 16 12.0001 16C13.2644 16 14.4347 16.39 15.401 17.0561C15.5264 17.1426 15.6645 17.1965 15.8055 17.2197L22.2929 23.7071C22.6834 24.0976 23.3166 24.0976 23.7071 23.7071C24.0976 23.3166 24.0976 22.6834 23.7071 22.2929L1.70711 0.292893ZM12 6C11.5896 6 11.183 6.01543 10.7807 6.04572C10.23 6.08718 9.74989 5.67435 9.70843 5.12362C9.66697 4.57289 10.0798 4.09283 10.6305 4.05137C11.0827 4.01732 11.5395 4 12 4C16.3346 4 20.3137 5.53339 23.4205 8.08632C23.8472 8.43695 23.9089 9.06711 23.5582 9.49381C23.2076 9.92052 22.5775 9.98219 22.1508 9.63156C19.3886 7.36182 15.8547 6 12 6ZM15.8575 10.5892C16.0775 10.0826 16.6664 9.85026 17.173 10.0702C18.191 10.5122 19.141 11.0804 20.0032 11.7548C20.4383 12.0951 20.5151 12.7236 20.1748 13.1586C19.8345 13.5936 19.2061 13.6704 18.771 13.3302C18.0408 12.759 17.237 12.2784 16.3765 11.9048C15.8699 11.6848 15.6376 11.0958 15.8575 10.5892ZM12.0001 19C12.6478 19 13.2476 19.2053 13.738 19.5544C13.9629 19.7145 13.9613 20.0352 13.7662 20.2306L12.354 21.6455C12.1586 21.8412 11.8415 21.8412 11.6462 21.6455L10.2339 20.2306C10.0389 20.0352 10.0372 19.7145 10.2622 19.5544C10.7525 19.2053 11.3523 19 12.0001 19Z" fill="black"/>
</g>
<defs>
<clipPath id="clip0">
<rect width="24" height="24" fill="white"/>
</clipPath>
</defs>
</svg>
