<?xml version="1.0" encoding="UTF-8"?>
<svg width="24px" height="24px" viewBox="0 0 24 24" version="1.1" xmlns="http://www.w3.org/2000/svg" xmlns:xlink="http://www.w3.org/1999/xlink">
    <!-- Generator: Sketch 56.3 (81716) - https://sketch.com -->
    <title>Icon/x-circle-full</title>
    <desc>Created with Sketch.</desc>
    <g id="Icon/x-circle-full" stroke="none" stroke-width="1" fill="none" fill-rule="evenodd">
        <path d="M10.5857864,12 L7.75735931,14.8284271 C7.36683502,15.2189514 7.36683502,15.8521164 7.75735931,16.2426407 C8.1478836,16.633165 8.78104858,16.633165 9.17157288,16.2426407 L12,13.4142136 L14.8284271,16.2426407 C15.2189514,16.633165 15.8521164,16.633165 16.2426407,16.2426407 C16.633165,15.8521164 16.633165,15.2189514 16.2426407,14.8284271 L13.4142136,12 L16.2426407,9.17157288 C16.633165,8.78104858 16.633165,8.1478836 16.2426407,7.75735931 C15.8521164,7.36683502 15.2189514,7.36683502 14.8284271,7.75735931 L12,10.5857864 L9.17157288,7.75735931 C8.78104858,7.36683502 8.1478836,7.36683502 7.75735931,7.75735931 C7.36683502,8.1478836 7.36683502,8.78104858 7.75735931,9.17157288 L10.5857864,12 Z M12,23 C5.92486775,23 1,18.0751322 1,12 C1,5.92486775 5.92486775,1 12,1 C18.0751322,1 23,5.92486775 23,12 C23,18.0751322 18.0751322,23 12,23 Z" id="Icon" fill="#ADB5BD"></path>
    </g>
</svg>