<svg xmlns="http://www.w3.org/2000/svg" width="24" height="24" viewBox="0 0 24 24">
  <path fill-rule="evenodd" d="M10.5857864,12 L7.75735931,9.17157288 C7.36683502,8.78104858 7.36683502,8.1478836 7.75735931,7.75735931 C8.1478836,7.36683502 8.78104858,7.36683502 9.17157288,7.75735931 L12,10.5857864 L14.8284271,7.75735931 C15.2189514,7.36683502 15.8521164,7.36683502 16.2426407,7.75735931 C16.633165,8.1478836 16.633165,8.78104858 16.2426407,9.17157288 L13.4142136,12 L16.2426407,14.8284271 C16.633165,15.2189514 16.633165,15.8521164 16.2426407,16.2426407 C15.8521164,16.633165 15.2189514,16.633165 14.8284271,16.2426407 L12,13.4142136 L9.17157288,16.2426407 C8.78104858,16.633165 8.1478836,16.633165 7.75735931,16.2426407 C7.36683502,15.8521164 7.36683502,15.2189514 7.75735931,14.8284271 L10.5857864,12 Z M21.5415799,17.4768075 C21.2662387,17.9555617 20.6549235,18.1204606 20.1761693,17.8451194 C19.697415,17.5697782 19.5325161,16.958463 19.8078573,16.4797087 C20.5851767,15.1281312 21,13.5954728 21,12 C21,7.02943725 16.9705627,3 12,3 C7.02943725,3 3,7.02943725 3,12 C3,16.9705627 7.02943725,21 12,21 C13.5972719,21 15.131579,20.5842381 16.4842343,19.8052528 C16.9628285,19.5296336 17.5742394,19.6941773 17.8498587,20.1727716 C18.1254779,20.6513658 17.9609342,21.2627767 17.48234,21.538396 C15.8280851,22.4910704 13.9499566,23 12,23 C5.92486775,23 1,18.0751322 1,12 C1,5.92486775 5.92486775,1 12,1 C18.0751322,1 23,5.92486775 23,12 C23,13.9477573 22.4922199,15.8238659 21.5415799,17.4768075 Z"/>
</svg>
