<svg width="80" height="80" viewBox="0 0 80 80">
    <title>
        Illustrative Icons/Aerosol
    </title>
    <path d="M42.373 15c-.92 0-1.666-.746-1.666-1.667V10H39.04v3.333a1.667 1.667 0 0 1-3.333 0v-5c0-.92.746-1.666 1.666-1.666h5c.92 0 1.667.746 1.667 1.666v5c0 .92-.746 1.667-1.667 1.667zm7.5 58.333h-20.18a1.682 1.682 0 0 1-1.666-1.7v-.248-.82c0-.667-.01-1.565-.014-2.458 0-1.79-.013-3.582-.013-3.594V35.667a1.667 1.667 0 0 1 3.333 0v28.846c0 .614.01 3.595.022 5.487h16.852V30a3.333 3.333 0 0 0-3.334-3.333H33.207a1.667 1.667 0 0 1 0-3.334h11.666A6.667 6.667 0 0 1 51.54 30v41.667c0 .92-.746 1.666-1.667 1.666zM29.652 31.445a1.445 1.445 0 1 0 0-2.89 1.445 1.445 0 0 0 0 2.89zM58.207 8.333a1.667 1.667 0 1 0 0-3.333 1.667 1.667 0 0 0 0 3.333zm0 5a1.667 1.667 0 1 0 0-3.333 1.667 1.667 0 0 0 0 3.333zm0 5a1.667 1.667 0 1 0 0-3.333 1.667 1.667 0 0 0 0 3.333zm-4.167-2.5a1.667 1.667 0 1 0 0-3.333 1.667 1.667 0 0 0 0 3.333zm-4.167-2.5a1.667 1.667 0 1 0 0-3.333 1.667 1.667 0 0 0 0 3.333zm4.167-2.5a1.667 1.667 0 1 0 0-3.333 1.667 1.667 0 0 0 0 3.333zm-9.167 15.834H33.207a1.667 1.667 0 0 1-1.617-2.072l1.035-4.142a5 5 0 0 1 4.852-3.786h4.795a5 5 0 0 1 4.85 3.786 1.667 1.667 0 1 1-3.234.809A1.667 1.667 0 0 0 42.272 20h-4.795c-.765 0-1.431.52-1.617 1.262l-.518 2.071h9.531a1.667 1.667 0 1 1 0 3.334z"/>
</svg>
