<svg width="80" height="80">
    <title>
        Illustrative Icons/Ampoule
    </title>
    <path d="M48.478 32.568l-2.87 1.374-4.928-2.517a1.667 1.667 0 0 0-1.5 0l-5.048 2.523-6.375-3.096a1.667 1.667 0 0 0-1.457 3l7.113 3.456a1.667 1.667 0 0 0 1.474 0l5.03-2.513 4.911 2.5a1.667 1.667 0 0 0 1.477.02l3.618-1.733a1.667 1.667 0 0 0-1.438-3l-.007-.014zm5.584-23.735C47.272 5.167 40.562 5 40.277 5h-.597c-.282 0-7 .167-13.785 3.833C19.562 12.26 12 19.47 12 34.355c0 7.088 3.125 13.632 9.037 18.922a36.783 36.783 0 0 0 7.926 5.39v6.415c0 .92.747 1.666 1.667 1.666h18.697c.92 0 1.666-.746 1.666-1.666v-6.417a36.788 36.788 0 0 0 7.927-5.39c5.912-5.29 9.037-11.833 9.037-18.922 0-14.885-7.557-22.093-13.895-25.52zm2.71 41.892a32.617 32.617 0 0 1-8.09 5.343c-.62.26-1.023.865-1.024 1.537v5.81H32.297v-5.81c0-.67-.402-1.276-1.02-1.537a32.617 32.617 0 0 1-8.092-5.345c-5.207-4.691-7.852-10.2-7.852-16.368 0-10.585 4.052-18.167 12.044-22.533C33.345 8.56 39.445 8.338 39.73 8.33h.5c.305.008 6.395.235 12.353 3.492 7.992 4.366 12.044 11.948 12.044 22.533-.004 6.168-2.649 11.677-7.855 16.37zm-8.305 19.333H31.165a1.667 1.667 0 0 0 0 3.334h7.147v.023a1.667 1.667 0 0 0 3.333 0v-.023h6.823a1.667 1.667 0 0 0 0-3.334h-.001zm4.81-36.418a1.667 1.667 0 1 0 0-3.333 1.667 1.667 0 0 0 0 3.333z" fill="#ADB5BD" fill-rule="evenodd"/>
</svg>
