<svg width="80" height="80">
    <title>
        Illustrative Icons/Autobus
    </title>
    <path d="M15.333 38.333a1.667 1.667 0 0 0 0 3.334h55v16.666c0 .92-.746 1.667-1.666 1.667H12c-.92 0-1.667-.746-1.667-1.667V40.11l3.314-24.85c.353-1.927 1.255-1.927 1.686-1.927h50c.432 0 1.334 0 1.685 1.92l1.667 13.287a1.667 1.667 0 1 0 3.308-.413l-1.666-13.334-.014-.088c-.545-2.99-2.358-4.705-4.98-4.705h-50c-2.621 0-4.435 1.715-4.973 4.705L7 39.89v18.443a5 5 0 0 0 5 5h1.667v5a5 5 0 1 0 10 0v-5H57v5a5 5 0 1 0 10 0v-5h1.667a5 5 0 0 0 5-5v-20H15.333zm5 30a1.667 1.667 0 1 1-3.333 0v-5h3.333v5zm43.334 0a1.667 1.667 0 1 1-3.334 0v-5h3.334v5zm-30-51.666a1.667 1.667 0 1 0 0 3.333H47a1.667 1.667 0 0 0 0-3.333H33.667zM62 50a5 5 0 1 0-10 0 5 5 0 0 0 10 0zm-6.667 0a1.667 1.667 0 1 1 3.334 0 1.667 1.667 0 0 1-3.334 0zm-26.666 0a5 5 0 1 0-10 0 5 5 0 0 0 10 0zM22 50a1.667 1.667 0 1 1 3.333 0A1.667 1.667 0 0 1 22 50zm49.098-15a1.667 1.667 0 1 0 0-3.333 1.667 1.667 0 0 0 0 3.333z" fill="#ADB5BD" fill-rule="evenodd"/>
</svg>
