<svg width="80" height="80">
    <title>
        Illustrative Icons/Billet
    </title>
    <path d="M46.667 73.667C45.747 73.667 45 72.92 45 72a5 5 0 1 0-10 0c0 .92-.746 1.667-1.667 1.667H21.667C20.747 73.667 20 72.92 20 72V15.333a1.667 1.667 0 0 1 3.333 0v55h8.5a8.333 8.333 0 0 1 16.334 0h8.5v-60h-8.5a8.333 8.333 0 0 1-16.5-1.666 1.667 1.667 0 0 1 3.333 0 5 5 0 0 0 10 0C45 7.747 45.746 7 46.667 7H58.33c.92 0 1.667.746 1.667 1.667V72c0 .92-.747 1.667-1.667 1.667H46.667zM33.227 51.18A1.667 1.667 0 0 1 31.642 49l2.213-6.812-5.793-4.21a1.667 1.667 0 0 1 .98-3.015h7.166l2.214-6.811a1.667 1.667 0 0 1 3.166 0l2.214 6.811h7.166a1.667 1.667 0 0 1 .98 3.015l-5.793 4.21L48.358 49a1.667 1.667 0 0 1-2.565 1.863L40 46.653l-5.793 4.21a1.667 1.667 0 0 1-.98.317zm.94-12.883l2.623 1.906c.584.425.828 1.177.605 1.864l-1 3.085 2.623-1.907a1.667 1.667 0 0 1 1.96 0l2.624 1.907-1-3.085a1.667 1.667 0 0 1 .605-1.864l2.626-1.906h-3.246a1.667 1.667 0 0 1-1.585-1.152l-1-3.085-1 3.085a1.667 1.667 0 0 1-1.585 1.152h-3.25zm-12.5-27.964a1.667 1.667 0 1 0 0-3.333 1.667 1.667 0 0 0 0 3.333z" fill="#ADB5BD" fill-rule="evenodd"/>
</svg>
