<svg width="80" height="80">
    <title>
        Illustrative Icons/Calendrier
    </title>
    <path d="M28.333 69.667a1.667 1.667 0 1 0 0-3.334 1.667 1.667 0 0 0 0 3.334zm35-56.667H60V9.667a1.667 1.667 0 1 0-3.333 0V13H23.333V9.667a1.667 1.667 0 0 0-3.333 0V13h-3.333A6.667 6.667 0 0 0 10 19.667V63a6.667 6.667 0 0 0 6.667 6.667H20a1.667 1.667 0 1 0 0-3.334h-3.333A3.333 3.333 0 0 1 13.333 63V33h53.334v30a3.333 3.333 0 0 1-3.334 3.333H36.667a1.667 1.667 0 1 0 0 3.334h26.666A6.667 6.667 0 0 0 70 63V19.667A6.667 6.667 0 0 0 63.333 13zm-50 16.667v-10a3.333 3.333 0 0 1 3.334-3.334H20v3.334a1.667 1.667 0 0 0 3.333 0v-3.334h33.334v3.334a1.667 1.667 0 1 0 3.333 0v-3.334h3.333a3.333 3.333 0 0 1 3.334 3.334v10H13.333z" fill="#ADB5BD" fill-rule="evenodd"/>
</svg>
