<svg width="80" height="80">
    <title>
        Illustrative Icons/Carte de credit
    </title>
    <path d="M17 50.333a1.667 1.667 0 1 0 0 3.334h23.333a1.667 1.667 0 1 0 0-3.334H17zm36.667 0a1.667 1.667 0 1 0 0 3.334h10a1.667 1.667 0 0 0 0-3.334h-10zm15-33.333H11.93A4.937 4.937 0 0 0 7 21.93v3.403a1.667 1.667 0 1 0 3.333 0V21.93c.001-.881.716-1.596 1.597-1.597h56.737c.92 0 1.666.747 1.666 1.667v36.667c0 .92-.746 1.666-1.666 1.666H12c-.92 0-1.667-.746-1.667-1.666v-25h48.334a1.667 1.667 0 0 0 0-3.334h-50C7.747 30.333 7 31.08 7 32v26.667a5 5 0 0 0 5 5h56.667a5 5 0 0 0 5-5V22a5 5 0 0 0-5-5zm-3.334 16.667a1.667 1.667 0 1 0 0-3.334 1.667 1.667 0 0 0 0 3.334z" fill="#ADB5BD" fill-rule="evenodd"/>
</svg>
