<svg width="80" height="80">
    <title>
        Illustrative Icons/Cloche
    </title>
    <path d="M67.695 60.667c-4.63-3.467-7.077-8.12-7.077-13.459v-19.27a20.76 20.76 0 0 0-4.191-12.571A21.107 21.107 0 0 0 45.803 7.91a1.667 1.667 0 1 0-.973 3.188 17.75 17.75 0 0 1 8.932 6.272 17.452 17.452 0 0 1 3.523 10.567v19.271c0 4.98 1.745 9.449 5.09 13.125H47.39c-.92 0-1.667.747-1.667 1.667a6.042 6.042 0 0 1-12.083 0c0-.92-.746-1.667-1.667-1.667H16.987c3.345-3.676 5.09-8.145 5.09-13.125v-19.27a17.543 17.543 0 0 1 12.25-16.771 1.667 1.667 0 0 0-1.014-3.175 20.945 20.945 0 0 0-14.57 19.951v19.265c0 5.334-2.446 9.99-7.076 13.459a1.667 1.667 0 0 0 1 3h17.791a9.373 9.373 0 0 0 18.447 0h17.792a1.667 1.667 0 0 0 1-3h-.002zM39.682 10.333a1.667 1.667 0 1 0 0-3.333 1.667 1.667 0 0 0 0 3.333z" fill="#ADB5BD" fill-rule="evenodd"/>
</svg>
