<svg width="80" height="80" viewBox="0 0 80 80">
    <title>
        Illustrative Icons/Coyote
    </title>
    <path d="M33.846 64.91a1.742 1.742 0 0 1-.826 1.492c-.812.5-1.872.24-2.367-.58-1.104-1.827-2.679-3.276-6.183-5.953a598.856 598.856 0 0 0-.94-.717c-2.099-1.609-3.317-2.63-4.433-3.806-1.5-1.577-2.495-3.169-2.958-4.93a1.754 1.754 0 0 1-.053-.319c-.353-4.83.407-9.087 1.897-12.7a20.924 20.924 0 0 1 1.389-2.79c.141-.235.276-.447.402-.634.075-.748.023-1.657-.158-2.908-.129-.89-.816-4.697-.9-5.196a87.673 87.673 0 0 1-.497-3.317c-.843-6.361 1.743-13.056 6.31-17.116 1.029-.914 2.65-.31 2.844 1.059-.006-.046-.002-.03.016.018.037.1.095.233.171.394.163.345.4.79.7 1.317a79.37 79.37 0 0 0 2.241 3.642c1.59 2.458 3.435 5.115 4.032 5.835.488.58 1.074 1.522 1.78 2.805.142.256.287.524.435.802a94.547 94.547 0 0 1 1.41 2.77h2.674l.096-.194c.438-.878.888-1.757 1.329-2.58.138-.258.273-.507.405-.746.722-1.306 1.315-2.264 1.8-2.848.597-.721 2.432-3.373 4.031-5.85a82.13 82.13 0 0 0 2.241-3.644c.302-.529.54-.975.705-1.32.078-.162.136-.296.175-.397.019-.05.024-.069.017-.025.21-1.357 1.82-1.946 2.84-1.038 4.559 4.051 7.138 10.742 6.312 17.114a89.84 89.84 0 0 1-.479 3.182c-.132.788-.21 1.227-.474 2.681a1.724 1.724 0 0 1-2.004 1.398 1.738 1.738 0 0 1-1.385-2.023c.26-1.439.337-1.869.466-2.637.177-1.055.328-2.047.46-3.055.568-4.383-.859-9.01-3.537-12.33-.607 1.08-1.43 2.411-2.45 3.993-1.671 2.589-3.565 5.324-4.277 6.183-.302.365-.813 1.19-1.432 2.31-.124.225-.252.46-.383.705a96.438 96.438 0 0 0-1.836 3.617c-.287.6-.89.982-1.55.982h-4.82a1.721 1.721 0 0 1-1.554-.99 30.421 30.421 0 0 0-.147-.306 101.467 101.467 0 0 0-1.669-3.307c-.14-.263-.276-.516-.409-.756-.6-1.09-1.1-1.892-1.404-2.255-.718-.865-2.621-3.607-4.282-6.175-1.024-1.582-1.847-2.912-2.452-3.993-2.683 3.324-4.11 7.948-3.53 12.322.136 1.055.292 2.086.478 3.19.075.446.773 4.315.912 5.277.26 1.793.307 3.117.096 4.365a1.747 1.747 0 0 1-.344.78c.003-.002-.002.003-.012.018a10.597 10.597 0 0 0-.447.685 17.45 17.45 0 0 0-1.154 2.322c-1.274 3.087-1.936 6.745-1.655 10.939.592 2.039 2.247 3.754 6.104 6.71a304.388 304.388 0 0 0 .936.714c1.467 1.12 2.4 1.861 3.249 2.605.05-.554.144-1.099.28-1.636.32-1.261.782-2.286 1.616-3.801l.476-.86c.167-.307.296-.553.41-.783.275-.561.448-1.019.54-1.444.077-.351.114-.743.117-1.154a4.539 4.539 0 0 1-2.192.561c-2.537 0-4.594-2.076-4.594-4.637 0-2.561 2.057-4.637 4.594-4.637 1.49 0 2.816.717 3.655 1.828.096.092.183.196.258.313 1.277 1.977 2.126 5.725 1.528 8.472-.16.736-.43 1.447-.82 2.243-.138.282-.29.57-.48.917-.101.186-.448.812-.48.871-.703 1.274-1.061 2.07-1.29 2.973-.285 1.124-.298 2.282.015 3.609.11.449.147.706.198 1.192l.011.107c.02.176.043.28.11.476.069.199.1.401.096.6zm11.479.76a1.749 1.749 0 0 1-.091-1.359c.067-.196.09-.3.11-.476a9.87 9.87 0 0 0 .012-.107c.05-.486.088-.743.195-1.18.315-1.339.302-2.497.017-3.621-.229-.903-.587-1.699-1.289-2.973l-.482-.87c-.19-.348-.34-.636-.479-.918-.39-.796-.66-1.507-.819-2.242-.599-2.748.25-6.496 1.527-8.473.13-.201.295-.367.48-.493a4.565 4.565 0 0 1 3.468-1.596c2.537 0 4.594 2.076 4.594 4.638 0 2.56-2.057 4.637-4.594 4.637a4.54 4.54 0 0 1-2.226-.58c.005.4.041.78.116 1.12.092.425.265.883.54 1.444.114.23.243.476.41.783.095.174.438.792.476.86.834 1.515 1.296 2.54 1.616 3.8.137.543.232 1.092.282 1.65.852-.748 1.789-1.49 3.265-2.618a601.196 601.196 0 0 1 .935-.715c3.857-2.955 5.512-4.67 6.104-6.708.281-4.269-.398-7.978-1.688-11.037a1.745 1.745 0 0 1 .91-2.281 1.717 1.717 0 0 1 2.26.919c1.515 3.593 2.294 7.91 1.942 12.82a1.754 1.754 0 0 1-.053.322c-.463 1.761-1.459 3.353-2.958 4.93-1.117 1.175-2.334 2.197-4.434 3.806a307.538 307.538 0 0 1-.94.717c-3.503 2.677-5.078 4.126-6.182 5.954a1.713 1.713 0 0 1-3.024-.153zM41.55 71.33c-.481-1.08-1.145-1.618-2.207-1.618-1.091 0-1.834.575-2.4 1.694l-.056.115h4.744a5.157 5.157 0 0 0-.08-.19zM43.781 75h-9.187a1.733 1.733 0 0 1-1.712-1.934 10.306 10.306 0 0 1 .196-1.045c.18-.742.44-1.485.797-2.194 1.104-2.185 2.922-3.592 5.47-3.592 2.576 0 4.356 1.444 5.348 3.669.32.717.536 1.467.673 2.214a10.051 10.051 0 0 1 .135 1.05A1.732 1.732 0 0 1 43.781 75zM31.045 47.106c.634 0 1.148-.519 1.148-1.16 0-.64-.514-1.158-1.148-1.158-.635 0-1.149.519-1.149 1.159s.514 1.16 1.149 1.16zm16.93.053c.634 0 1.148-.52 1.148-1.16 0-.64-.514-1.159-1.149-1.159-.634 0-1.148.52-1.148 1.16 0 .64.514 1.159 1.148 1.159zM57.91 34.88a1.73 1.73 0 0 1-1.723-1.74c0-.96.771-1.738 1.723-1.738a1.73 1.73 0 0 1 1.722 1.739 1.73 1.73 0 0 1-1.722 1.739z"/>
</svg>
