<?xml version="1.0" encoding="UTF-8"?>
<svg width="80px" height="80px" viewBox="0 0 80 80" version="1.1" xmlns="http://www.w3.org/2000/svg" xmlns:xlink="http://www.w3.org/1999/xlink">
    <!-- Generator: Sketch 55.2 (78181) - https://sketchapp.com -->
    <title>Illustrative Icons/Crayon</title>
    <desc>Created with Sketch.</desc>
    <g id="Illustrative-Icons/Crayon" stroke="none" stroke-width="1" fill="none" fill-rule="evenodd">
        <path d="M62.8450001,26.5646441 L53.7683334,17.4879774 C53.1175003,16.8373409 52.0624998,16.8373409 51.4116667,17.4879774 L22.9483333,45.9513108 C22.7310594,46.1688633 22.5782004,46.442279 22.5066667,46.7413108 L19.65,58.6746441 C19.5151796,59.2367324 19.6812255,59.8285413 20.0887647,60.2384579 C20.4963039,60.6483744 21.0871371,60.8178597 21.65,60.6863108 L33.45,57.9629775 C33.754167,57.892801 34.0325124,57.7386138 34.2533334,57.5179775 L62.8450001,28.9213108 C63.4956366,28.2704777 63.4956366,27.2154772 62.8450001,26.5646441 Z M32.2283334,54.8229775 L23.5166667,56.8329775 L25.6383333,47.9729775 L52.59,21.0229774 L59.3100001,27.7429774 L32.2283334,54.8229775 Z M16.6666667,65.3329775 C17.5871413,65.3329775 18.3333333,64.5867854 18.3333333,63.6663108 C18.3333333,62.7458362 17.5871413,61.9996441 16.6666667,61.9996441 C15.7461921,61.9996441 15,62.7458362 15,63.6663108 C15,64.5867854 15.7461921,65.3329775 16.6666667,65.3329775 Z" id="Shape-color" fill="#ADB5BD"></path>
    </g>
</svg>