<svg width="80" height="80">
    <title>
        Illustrative Icons/Curseur
    </title>
    <path d="M70.174 35.31a1.667 1.667 0 0 0-1.083-1.352L17.238 15.1a1.667 1.667 0 0 0-2.137 2.137L33.958 69.09a1.667 1.667 0 0 0 2.936.378l9.47-13.678 12.73 12.73a1.667 1.667 0 0 0 2.357-2.357L47.309 52.023a1.667 1.667 0 0 0-2.548.23l-8.772 12.666-16.535-45.465 45.469 16.534-12.667 8.771a1.667 1.667 0 0 0-.23 2.549l9.107 9.106a1.667 1.667 0 0 0 2.356-2.356l-7.695-7.695 13.679-9.47c.51-.356.78-.965.701-1.582zm-3.27 26.594a1.667 1.667 0 1 0 0-3.333 1.667 1.667 0 0 0 0 3.333z" fill="#ADB5BD" fill-rule="evenodd"/>
</svg>
