<svg width="80" height="80" viewBox="0 0 80 80">
    <title>
        Illustrative Icons/Dossier-Nouveau
    </title>
    <path d="M47 60.333H12.103a1.773 1.773 0 0 1-1.77-1.77V22c0-.92.747-1.667 1.667-1.667h21.667a1.667 1.667 0 1 0 0-3.333H12a5 5 0 0 0-5 5v36.563a5.11 5.11 0 0 0 5.103 5.104H47a1.667 1.667 0 0 0 0-3.334zm21.667-36.666H22a5 5 0 0 0-5 5v26.666a1.667 1.667 0 0 0 3.333 0V28.667c0-.92.747-1.667 1.667-1.667h46.667c.92 0 1.666.746 1.666 1.667V37a1.667 1.667 0 1 0 3.334 0v-8.333a5 5 0 0 0-5-5zM60.333 37C52.97 37 47 42.97 47 50.333c0 7.364 5.97 13.334 13.333 13.334 7.364 0 13.334-5.97 13.334-13.334-.009-7.36-5.973-13.325-13.334-13.333zm0 23.333c-5.523 0-10-4.477-10-10s4.477-10 10-10 10 4.477 10 10c-.006 5.52-4.48 9.994-10 10zm5-11.666H62v-3.334a1.667 1.667 0 0 0-3.333 0v3.334h-3.334a1.667 1.667 0 0 0 0 3.333h3.334v3.333a1.667 1.667 0 0 0 3.333 0V52h3.333a1.667 1.667 0 1 0 0-3.333zM38.667 20.333a1.667 1.667 0 1 0 0-3.333 1.667 1.667 0 0 0 0 3.333z"/>
</svg>
