<svg width="80" height="80" viewBox="0 0 80 80">
    <title>
        Illustrative Icons/Glissant
    </title>
    <path d="M68.353 70.009H16.686c-.917 0-1.667-.75-1.667-1.667 0-.916.75-1.666 1.667-1.666h51.667c.916 0 1.666.75 1.666 1.666 0 .917-.75 1.667-1.666 1.667zm-28.62-30.192l12.403 3.572a1.686 1.686 0 0 1 1.1 2.244l-6.634 16.65a1.686 1.686 0 1 1-3.132-1.248l5.944-14.92-11.061-3.186a1.686 1.686 0 0 1-.764-.467L25.955 30.045H11.686a1.686 1.686 0 1 1 0-3.372h15c.466 0 .912.193 1.23.533l11.816 12.611zm15.052-6.45c.338-.048.682.008.988.16l13.333 6.634a1.692 1.692 0 0 1-1.507 3.03l-12.864-6.4-11.148 1.56a1.692 1.692 0 0 1-1.43-.479L32.072 27.79a1.692 1.692 0 0 1-.278-2.026l8.383-14.9a1.692 1.692 0 0 1 2.95 1.659l-7.755 13.781 8.58 8.58 10.832-1.516zM13.336 68.326c0 .933-.767 1.7-1.717 1.666a1.675 1.675 0 0 1-1.616-1.616 1.662 1.662 0 0 1 1.666-1.717c.917 0 1.667.75 1.667 1.667zm16.683-49.984c0 2.75-2.25 5-5 5s-5-2.25-5-5 2.25-5 5-5 5 2.25 5 5zm-6.666 0c0 .917.75 1.667 1.666 1.667.917 0 1.667-.75 1.667-1.667 0-.916-.75-1.666-1.667-1.666-.916 0-1.666.75-1.666 1.666z"/>
</svg>
