<svg width="80" height="80" viewBox="0 0 80 80">
    <title>
        Illustrative Icons/Livre
    </title>
    <path d="M58.667 10h-8.334v15.482L47 22.895l-3.333 2.563V10H25.333a1.667 1.667 0 0 0 0 3.333h15v18.884L47 27.107l6.667 5.19V13.333h5c.92 0 1.666.747 1.666 1.667v41.667H23.77a6.772 6.772 0 0 0-3.437.938V18.333a1.667 1.667 0 1 0-3.333 0v45.04A6.667 6.667 0 0 0 23.667 70h35a5 5 0 0 0 5-5V15a5 5 0 0 0-5-5zm1.666 55c0 .92-.746 1.667-1.666 1.667h-35a3.333 3.333 0 0 1-3.334-3.429C20.382 61.453 21.923 60 23.77 60h36.563v5zM18.667 13.333a1.667 1.667 0 1 0 0-3.333 1.667 1.667 0 0 0 0 3.333z"/>
</svg>
