<svg width="80" height="80">
    <title>
        Illustrative Icons/Mire
    </title>
    <path d="M67 38.667h-5.063C61.1 28.02 52.645 19.566 42 18.73v-5.063a1.667 1.667 0 1 0-3.333 0v5.063c-10.646.836-19.101 9.291-19.937 19.937h-5.063a1.667 1.667 0 0 0 0 3.333h5.063c.836 10.645 9.291 19.101 19.937 19.937V67A1.667 1.667 0 1 0 42 67v-5.063C52.645 61.1 61.101 52.645 61.937 42H67a1.667 1.667 0 1 0 0-3.333zm-26.667 20C30.208 58.667 22 50.459 22 40.333 22 30.208 30.208 22 40.333 22c10.126 0 18.334 8.208 18.334 18.333-.011 10.121-8.213 18.323-18.334 18.334zm0-16.667a1.667 1.667 0 1 0 0-3.333 1.667 1.667 0 0 0 0 3.333z" fill="#ADB5BD" fill-rule="evenodd"/>
</svg>
