<svg width="80" height="80">
    <title>
        Illustrative Icons/Nid-de-poule
    </title>
    <path d="M59.572 70.333c4.5 0 7.618-2.285 9.066-6.323h3.5a1.547 1.547 0 0 0 1.524-1.6c0-.833-.685-1.6-1.524-1.6H67.5c-.685 0-1.448.533-1.523 1.218-.915 3.429-3.049 5.104-6.4 5.104-3.657 0-6.167-1.834-7.01-5.104-.229-.685-.834-1.218-1.524-1.218H27.418c-.869.034-1.566.73-1.6 1.6a1.61 1.61 0 0 0 1.6 1.6h22.477c1.448 3.885 5.105 6.323 9.677 6.323zm10.056-44.488c0-.833-.685-1.6-1.523-1.6-.915 0-1.677.762-1.677 1.6a1.627 1.627 0 0 0 1.677 1.6 1.547 1.547 0 0 0 1.523-1.6zm-41.98 15.922a4.699 4.699 0 0 1-4.723 4.723c-2.59 0-4.8-2.21-4.8-4.8a4.699 4.699 0 0 1 4.723-4.723 4.78 4.78 0 0 1 4.8 4.8zm-6.4 0c0 .833.762 1.523 1.677 1.523a1.547 1.547 0 0 0 1.523-1.6 1.528 1.528 0 0 0-1.523-1.523 1.627 1.627 0 0 0-1.677 1.6zm38.095 0a4.747 4.747 0 0 1-4.723 4.723c-2.667 0-4.8-2.057-4.8-4.723a4.78 4.78 0 0 1 4.8-4.8c2.665 0 4.723 2.133 4.723 4.8zm-6.323 0a1.547 1.547 0 0 0 1.6 1.523 1.61 1.61 0 0 0 1.6-1.6c0-.833-.762-1.523-1.6-1.523a1.562 1.562 0 0 0-1.602 1.6h.002zm-7.925-25.444c.87.034 1.566.731 1.6 1.6a1.61 1.61 0 0 1-1.6 1.6H32.372a1.61 1.61 0 0 1-1.6-1.6c.034-.869.73-1.566 1.6-1.6h12.723zm25.372 14.322v19.043a4.747 4.747 0 0 1-4.724 4.724h-1.6v4.8a4.698 4.698 0 0 1-4.723 4.723c-2.59 0-4.8-2.21-4.8-4.723v-4.8H22.848v4.8a4.747 4.747 0 0 1-4.723 4.723c-2.667 0-4.8-2.057-4.8-4.723v-4.8h-1.6C9.21 54.412 7 52.203 7 49.688V32.092L10.2 14.5c.533-2.972 2.21-4.5 4.723-4.5h47.62c2.515 0 4.19 1.523 4.724 4.5l1.6 6.398a1.61 1.61 0 0 1-1.367 1.747 1.5 1.5 0 0 1-1.752-1.372l-1.6-6.246c-.229-1.223-.762-1.834-1.6-1.834H14.923c-.837 0-1.37.611-1.6 1.834l-3.2 17.293v17.368c.034.87.731 1.566 1.6 1.6h54.02c.834 0 1.524-.761 1.524-1.6v-15.92H14.923a1.562 1.562 0 0 1-1.6-1.6 1.547 1.547 0 0 1 1.6-1.523h55.544zM19.648 54.412h-3.125v4.8a1.61 1.61 0 0 0 1.6 1.6c.834 0 1.524-.762 1.524-1.6l.001-4.8zm41.295 0h-3.2v4.8c0 .833.762 1.6 1.677 1.6.833 0 1.523-.762 1.523-1.6v-4.8z" fill="#ADB5BD" fill-rule="evenodd"/>
</svg>
