<svg width="80" height="80">
    <title>
        Illustrative Icons/Oeil
    </title>
    <path d="M74.66 39.344a42.833 42.833 0 0 0-14.894-12.612 43.705 43.705 0 0 0-39.56 0 42.823 42.823 0 0 0-14.88 12.612 1.667 1.667 0 0 0 0 1.98 42.833 42.833 0 0 0 14.893 12.612 43.707 43.707 0 0 0 39.56 0 42.833 42.833 0 0 0 14.88-12.612 1.667 1.667 0 0 0 0-1.98zm-65.904.99A39.31 39.31 0 0 1 26.9 27.514c-6.989 7.118-6.989 18.522 0 25.64a39.31 39.31 0 0 1-18.145-12.82zm49.5 10.633a40.303 40.303 0 0 1-18.263 4.367h-.422c-8.118-.227-14.582-6.873-14.582-14.994 0-8.122 6.464-14.768 14.582-14.994h.843c8.11.237 14.566 6.874 14.579 14.988a1.667 1.667 0 0 0 3.333 0c.003-4.796-1.88-9.4-5.242-12.82a39.31 39.31 0 0 1 18.145 12.82 39.53 39.53 0 0 1-12.973 10.633zm-3.263-2.3a1.667 1.667 0 1 0 0-3.333 1.667 1.667 0 0 0 0 3.333z" fill="#ADB5BD" fill-rule="evenodd"/>
</svg>
