<svg width="80" height="80" viewBox="0 0 80 80">
    <title>
        Illustrative Icons/Permis-animal-generique
    </title>
    <path d="M53.588 33.646a1.664 1.664 0 0 1 0-3.33h9.983a1.664 1.664 0 0 1 0 3.33h-9.983zm0 8.323a1.664 1.664 0 0 1 0-3.33h6.656a1.664 1.664 0 0 1 0 3.33h-6.656zm0 8.323a1.664 1.664 0 0 1 0-3.33h8.32a1.664 1.664 0 0 1 0 3.33h-8.32zm-43.26-31.627a1.664 1.664 0 1 1-3.329 0 1.664 1.664 0 0 1 3.329 0zM68.05 17c2.73.008 4.942 2.258 4.95 5.036v36.928c-.008 2.778-2.22 5.028-4.95 5.036h-56.1c-2.73-.008-4.942-2.258-4.95-5.036V28.75c0-.927.739-1.679 1.65-1.679.911 0 1.65.752 1.65 1.679v30.214c0 .927.739 1.679 1.65 1.679h56.1c.911 0 1.65-.752 1.65-1.679V22.036c0-.927-.739-1.679-1.65-1.679H15.267c-.912 0-1.65-.751-1.65-1.678 0-.927.738-1.679 1.65-1.679H68.05zM35.471 52.249c-.754 0-1.574-.186-2.395-.388-.955-.219-2.027-.471-3.116-.471-1.09 0-2.178.252-3.15.471-1.692.388-3.284.741-4.557-.286-1.223-.994-1.223-2.66-1.223-3.217a8.884 8.884 0 0 1 4.415-7.686 8.789 8.789 0 0 1 8.828 0 8.884 8.884 0 0 1 4.415 7.686c0 .556 0 2.257-1.223 3.234a3.087 3.087 0 0 1-1.994.657zm-5.629-9.398c-3.022.008-5.47 2.469-5.478 5.507-.001.175.01.35.034.522a13.253 13.253 0 0 0 1.675-.303c1.089-.236 2.43-.539 3.887-.539 1.457 0 2.797.303 3.87.556.479.127.966.222 1.457.286.023-.167.034-.336.034-.505-.006-3.042-2.453-5.51-5.479-5.524zm-11.727-.05a3.37 3.37 0 0 1-3.35-3.369 3.36 3.36 0 0 1 3.35-3.368 3.36 3.36 0 0 1 3.35 3.368 3.36 3.36 0 0 1-3.35 3.369zm23.387 0a3.37 3.37 0 0 1-3.35-3.369 3.36 3.36 0 0 1 3.35-3.368 3.36 3.36 0 0 1 3.35 3.368 3.36 3.36 0 0 1-3.35 3.369zm-16.585-5.356a3.37 3.37 0 0 1-3.35-3.368 3.36 3.36 0 0 1 3.35-3.369 3.36 3.36 0 0 1 3.35 3.369 3.36 3.36 0 0 1-3.35 3.368zm9.834 0a3.37 3.37 0 0 1-3.35-3.368 3.36 3.36 0 0 1 3.35-3.369 3.36 3.36 0 0 1 3.35 3.369 3.36 3.36 0 0 1-3.35 3.368z"/>
</svg>
