<svg width="80" height="80" viewBox="0 0 80 80" xmlns="http://www.w3.org/2000/svg">
    <title>
        Illustrative Icons/Permis-Stationnement
    </title>
    <path d="M8.667 17C7.75 17 7 17.75 7 18.667c0 .916.75 1.666 1.667 1.666.916 0 1.666-.75 1.666-1.666 0-.917-.75-1.667-1.666-1.667zm6.683 0c-.917 0-1.667.75-1.667 1.667 0 .916.75 1.666 1.667 1.666h53.317c.916 0 1.666.75 1.666 1.667v15H45.367c-2.75 0-5 2.25-5 5v18.333H12c-.917 0-1.667-.75-1.667-1.666v-30c0-.917-.75-1.667-1.666-1.667C7.75 27 7 27.75 7 28.667v30c0 2.75 2.25 5 5 5h56.667c2.75 0 5-2.25 5-5V22c0-2.75-2.25-5-5-5H15.35zm26.533 10c-.916 0-1.666.75-1.666 1.667 0 .916.75 1.666 1.666 1.666h23.55c.917 0 1.667-.75 1.667-1.666 0-.917-.75-1.667-1.667-1.667h-23.55zm-26.55 6.667c-.916 0-1.666.75-1.666 1.666 0 .917.75 1.667 1.666 1.667h10C26.25 37 27 36.25 27 35.333c0-.916-.75-1.666-1.667-1.666h-10zm30.034 6.666h24.966v18.334c0 .916-.75 1.666-1.666 1.666H43.7V42c0-.917.75-1.667 1.667-1.667zM15.333 42c-.916 0-1.666.75-1.666 1.667 0 .916.75 1.666 1.666 1.666H22c.917 0 1.667-.75 1.667-1.666 0-.917-.75-1.667-1.667-1.667h-6.667zm37.017 1.633c-1.117 0-2.067.284-2.883.834-.817.55-1.434 1.35-1.867 2.383-.433 1.033-.65 2.283-.65 3.717 0 2.1.45 3.716 1.35 4.85.9 1.133 2.183 1.7 3.833 1.7.834 0 1.584-.184 2.25-.567a3.937 3.937 0 0 0 1.55-1.583c.367-.684.567-1.45.567-2.3 0-.817-.167-1.55-.5-2.2-.333-.65-.783-1.15-1.383-1.517-.55-.367-1.217-.533-1.967-.533-.633 0-1.2.133-1.7.416-.5.284-.9.65-1.183 1.134.05-1.317.3-2.317.766-3.017.467-.683 1.1-1.033 1.934-1.033.983 0 2.033.416 3.15 1.266l.9-2.066c-.517-.467-1.15-.834-1.884-1.1a7.06 7.06 0 0 0-2.283-.384zm10.217.05c-1.534 0-2.717.584-3.534 1.734-.816 1.15-1.233 2.816-1.233 4.966 0 2.184.4 3.867 1.217 5.017.85 1.15 2.016 1.733 3.566 1.733 1.55 0 2.734-.583 3.534-1.733.816-1.15 1.216-2.833 1.216-5.017 0-2.166-.416-3.816-1.233-4.966-.817-1.15-2-1.734-3.533-1.734zm.016 2.2c.7 0 1.217.35 1.534 1.067.316.717.483 1.85.483 3.417 0 1.583-.167 2.733-.483 3.45-.317.733-.834 1.083-1.534 1.083-.7 0-1.216-.367-1.533-1.083-.317-.717-.483-1.867-.483-3.45 0-1.567.166-2.7.483-3.417.317-.717.833-1.067 1.533-1.067zm-47.133 4.45c-.917 0-1.667.75-1.667 1.667s.75 1.667 1.667 1.667h8.333c.917 0 1.667-.75 1.667-1.667s-.75-1.667-1.667-1.667H15.45zm36.55.334c.567 0 1.017.2 1.367.583.35.383.516.883.516 1.517 0 .633-.166 1.15-.516 1.533s-.8.567-1.367.567-1.033-.2-1.383-.584c-.35-.4-.534-.9-.534-1.516 0-.617.167-1.134.534-1.517.35-.383.816-.583 1.383-.583z"/>
</svg>
