<svg width="80" height="80">
    <title>
        Illustrative Icons/Permis-Chat
    </title>
    <path d="M53.667 33.667C52.75 33.667 52 32.917 52 32s.75-1.667 1.667-1.667h10c.916 0 1.666.75 1.666 1.667s-.75 1.667-1.666 1.667h-10zm0 8.333h6.666C61.25 42 62 41.25 62 40.333c0-.916-.75-1.666-1.667-1.666h-6.666c-.917 0-1.667.75-1.667 1.666 0 .917.75 1.667 1.667 1.667zm0 8.333H62c.917 0 1.667-.75 1.667-1.666 0-.917-.75-1.667-1.667-1.667h-8.333C52.75 47 52 47.75 52 48.667c0 .916.75 1.666 1.667 1.666zM10.333 18.667c0-.917-.75-1.667-1.666-1.667C7.75 17 7 17.75 7 18.667c0 .916.75 1.666 1.667 1.666.916 0 1.666-.75 1.666-1.666zm15 18.333c-.916 0-1.666.75-1.666 1.667v1.666c0 .917.75 1.667 1.666 1.667.917 0 1.667-.75 1.667-1.667v-1.666C27 37.75 26.25 37 25.333 37zm10 0c-.916 0-1.666.75-1.666 1.667v1.666c0 .917.75 1.667 1.666 1.667.917 0 1.667-.75 1.667-1.667v-1.666C37 37.75 36.25 37 35.333 37zm-6.666 8.367c0 .916.75 1.666 1.666 1.666.917 0 1.667-.75 1.667-1.666 0-.917-.75-1.667-1.667-1.667a1.65 1.65 0 0 0-1.666 1.667zM47 25.817v14.516C47 49.517 39.517 57 30.333 57c-9.183 0-16.666-7.483-16.666-16.667v-14.5c-.017-.8.133-1.5.733-1.933.75-.533 1.683-.267 2.233.467L21.4 29.6a16.568 16.568 0 0 1 8.95-2.617c3.267 0 6.317.95 8.883 2.567l4.8-5.2c.534-.75 1.617-.9 2.367-.367.567.434.617 1.067.6 1.834zm-3.333 4.966L40.1 34.6a13.323 13.323 0 0 0-9.767-4.267c-3.85 0-7.333 1.65-9.766 4.267L17 30.9v9.433c0 7.35 5.983 13.334 13.333 13.334 7.35 0 13.334-5.984 13.334-13.334v-9.55zm25-13.783H15.35c-.917 0-1.667.75-1.667 1.667 0 .916.75 1.666 1.667 1.666h53.317c.916 0 1.666.75 1.666 1.667v36.667c0 .916-.75 1.666-1.666 1.666H12c-.917 0-1.667-.75-1.667-1.666v-30c0-.917-.75-1.667-1.666-1.667C7.75 27 7 27.75 7 28.667v30c0 2.75 2.25 5 5 5h56.667c2.75 0 5-2.25 5-5V22c0-2.75-2.25-5-5-5zm0 0H15.35c-.917 0-1.667.75-1.667 1.667 0 .916.75 1.666 1.667 1.666h53.317c.916 0 1.666.75 1.666 1.667v36.667c0 .916-.75 1.666-1.666 1.666H12c-.917 0-1.667-.75-1.667-1.666v-30c0-.917-.75-1.667-1.666-1.667C7.75 27 7 27.75 7 28.667v30c0 2.75 2.25 5 5 5h56.667c2.75 0 5-2.25 5-5V22c0-2.75-2.25-5-5-5z" fill="#ADB5BD" fill-rule="evenodd"/>
</svg>
