<svg width="80" height="80">
    <title>
        Illustrative Icons/Petition
    </title>
    <path d="M73.98 26.621a1.735 1.735 0 0 1 .855 2.316L64.411 51.14v17.63c0 2.888-2.37 5.23-5.294 5.23H22.06c-.975 0-1.765-.78-1.765-1.744 0-.963.79-1.743 1.765-1.743h37.058c.975 0 1.765-.78 1.765-1.744V57.005l-4.89 2.874a1.783 1.783 0 0 1-1.651.083 1.746 1.746 0 0 1-.996-1.304l-.992-6.19a1.725 1.725 0 0 1 .143-1.006l8.386-17.861V19.949c0-.963-.79-1.744-1.765-1.744h-5.294v1.744c0 .963-.79 1.743-1.765 1.743H27.353c-.975 0-1.765-.78-1.765-1.743v-1.744h-5.294c-.975 0-1.765.78-1.765 1.744V66.85c0 .963-.79 1.744-1.764 1.744-.975 0-1.765-.78-1.765-1.744V19.95c0-2.89 2.37-5.231 5.294-5.231h5.294v-1.744c0-.963.79-1.743 1.765-1.743h4.15C32.47 9.37 34.903 6 39.706 6c4.801 0 7.235 3.37 8.202 5.23h4.15c.975 0 1.765.781 1.765 1.744v1.744h5.294c2.924 0 5.294 2.342 5.294 5.23v6.136l.747-1.59c.197-.42.555-.745.995-.904.44-.159.925-.138 1.35.057l6.476 2.974zm-23.686-8.416v-3.482H46.56a1.471 1.471 0 0 1-.122-.019l-.051-.01a1.114 1.114 0 0 1-.11-.028l-.047-.013c-.046-.014-.092-.03-.138-.048l-.056-.027-.085-.04-.057-.031a1.396 1.396 0 0 1-.086-.05l-.044-.03a1.628 1.628 0 0 1-.242-.197l-.018-.018a1.21 1.21 0 0 1-.113-.127c-.026-.031-.05-.064-.075-.098a1.605 1.605 0 0 1-.088-.141l-.018-.03a1.629 1.629 0 0 1-.067-.135l-.025-.063c-.007-.023-.025-.044-.025-.067-.065-.188-1.475-4.046-5.387-4.046-3.973 0-5.372 3.998-5.384 4.038l-.016.038a3.499 3.499 0 0 1-.044.113l-.03.061a1.39 1.39 0 0 1-.046.09l-.046.073a2.057 2.057 0 0 1-.044.068c-.018.026-.04.052-.059.076l-.044.056-.067.073-.05.05-.07.064-.06.049a.705.705 0 0 1-.069.05l-.07.05-.065.039-.085.047-.062.03-.093.04-.066.024-.095.03c-.025.009-.051.02-.076.02l-.086.02-.1.014h-3.761v3.487h21.176zM59.21 53.93l11.68-24.88-3.275-1.504-11.693 24.903.501 3.121 2.787-1.64zM17 74c-1.105 0-2-.672-2-1.5s.895-1.5 2-1.5 2 .672 2 1.5-.895 1.5-2 1.5z" fill="#ADB5BD" fill-rule="evenodd"/>
</svg>
