<svg width="80" height="80" viewBox="0 0 80 80" xmlns="http://www.w3.org/2000/svg">
    <title>
        Illustrative Icons/Play
    </title>
    <path d="M73.098 34.23C69.732 16.165 52.297 4.203 34.228 7.566a33.192 33.192 0 0 0-17.016 8.754 1.667 1.667 0 0 0 2.313 2.4 29.868 29.868 0 0 1 15.308-7.875c16.26-3.029 31.954 7.736 34.984 24 3.029 16.286-7.715 31.944-24 34.978-16.255 3.025-31.949-7.74-34.984-23.992a1.667 1.667 0 0 0-3.276.61c2.99 16.005 17.026 27.224 32.76 27.224A33.333 33.333 0 0 0 73.098 34.23v-.001zM8.667 41.998a1.667 1.667 0 1 0 0-3.333 1.667 1.667 0 0 0 0 3.333zM32 57.831c-.92 0-1.667-.746-1.667-1.666V24.498a1.667 1.667 0 0 1 2.58-1.395L57.08 38.936a1.667 1.667 0 0 1 0 2.789L32.913 57.558a1.665 1.665 0 0 1-.913.273zm1.667-30.243v25.5l19.46-12.757-19.46-12.743z"/>
</svg>
