<svg width="80" height="80">
    <title>
        Illustrative Icons/Plume
    </title>
    <path d="M25.542 13.333h29.625a1.667 1.667 0 1 0 0-3.333H25.542a1.667 1.667 0 0 0 0 3.333zm32.98 29.32l-7.855-17.57-.08-6.77a1.667 1.667 0 0 0-1.666-1.646h-17c-.92 0-1.667.746-1.667 1.666V25l-8.102 17.638c-.23.5-.198 1.082.085 1.554l15 25c.302.502.845.808 1.43.808h3.334c.586 0 1.129-.307 1.43-.81l15-25c.28-.467.313-1.04.091-1.537zm-16.521 22.44v-21.76a1.667 1.667 0 0 0-3.334 0v21.76L25.55 43.23l7.883-17.167c.1-.218.152-.455.152-.695V20h13.687l.063 5.468c.002.23.051.457.145.667l7.645 17.092-13.123 21.866zm-1.667-28.426a1.667 1.667 0 1 0 0-3.334 1.667 1.667 0 0 0 0 3.334z" fill="#ADB5BD" fill-rule="evenodd"/>
</svg>
