<svg width="80" height="80" viewBox="0 0 80 80">
    <title>
        Illustrative Icons/Porte-documents
    </title>
    <path d="M48.667 23.333H32A1.667 1.667 0 1 1 32 20h16.667a1.667 1.667 0 0 1 0 3.333zm20 43.334H12a5 5 0 0 1-5-5V25a5 5 0 0 1 5-5h11.667v-5a5 5 0 0 1 5-5H52a5 5 0 0 1 5 5v5h11.667a5 5 0 0 1 5 5v15c0 2.482-1.942 4.525-4.722 4.977l-28.315 5a1.667 1.667 0 0 1-.617 0l-25-5a1.671 1.671 0 0 1 .654-3.279l24.7 4.939 28.016-4.945h.027c.923-.154 1.923-.745 1.923-1.692V25c0-.92-.746-1.667-1.666-1.667H55.333c-.92 0-1.666-.746-1.666-1.666V15c0-.92-.747-1.667-1.667-1.667H28.667c-.92 0-1.667.747-1.667 1.667v6.667c0 .92-.746 1.666-1.667 1.666H12c-.92 0-1.667.747-1.667 1.667v36.667c0 .92.747 1.666 1.667 1.666h56.667c.92 0 1.666-.746 1.666-1.666v-5a1.667 1.667 0 1 1 3.334 0v5a5 5 0 0 1-5 5zm3.333-15a1.667 1.667 0 1 0 0-3.334 1.667 1.667 0 0 0 0 3.334z"/>
</svg>
