<svg width="80" height="80" viewBox="0 0 80 80">
    <title>
        Illustrative Icons/Profil
    </title>
    <path d="M61.121 64.766a1.667 1.667 0 1 1-2.477 2.225 25.04 25.04 0 0 0-18.621-8.32h-.235a24.99 24.99 0 0 0-21.654 12.498 1.667 1.667 0 1 1-2.885-1.667 28.488 28.488 0 0 1 10.167-10.256 28.155 28.155 0 0 1 5.943-2.63 18.333 18.333 0 1 1 16.929-.04 28.378 28.378 0 0 1 12.833 8.19zM24.788 40.337c.009 8.28 6.72 14.991 15 15 8.284 0 15-6.715 15-15 0-8.284-6.716-15-15-15-8.285 0-15 6.716-15 15zM45.68 46.23l.003.002a1.667 1.667 0 0 1 2.357 2.356 11.658 11.658 0 0 1-16.5 0 1.667 1.667 0 1 1 2.357-2.358 8.333 8.333 0 0 0 11.783 0zm17.44 25.775a1.667 1.667 0 1 1 0-3.333 1.667 1.667 0 0 1 0 3.333z"/>
</svg>
