<svg width="80" height="80" viewBox="0 0 80 80">
    <title>
        Illustrative Icons/Recyclage
    </title>
    <path d="M45.782 26.008a1.667 1.667 0 1 0-1.708 2.861l8.255 4.932.018.01c.119.071.246.127.379.167l.05.013a1.7 1.7 0 0 0 .153.03h.053c.066.008.132.013.199.013h.166l.095-.013.065-.01c.037 0 .072-.017.109-.027l.05-.013c.035-.01.07-.023.105-.037l.048-.018a.99.99 0 0 0 .095-.045l.053-.025c.03-.015.057-.033.085-.05l.055-.033c.029-.019.055-.04.082-.06l.05-.039c.033-.028.067-.058.098-.088l.024-.02.01-.01a1.94 1.94 0 0 0 .091-.102l.03-.038c.022-.027.042-.053.062-.082l.032-.05c.016-.025.031-.051.046-.078l.03-.057c.014-.025.025-.05.037-.076l.027-.064c.01-.026.02-.051.028-.078.008-.027.015-.042.022-.063a2.3 2.3 0 0 0 .035-.139v-.046c0-.015.011-.072.016-.107.005-.035 0-.037 0-.055v-.105V22.968a1.667 1.667 0 0 0-3.333 0V26.3L41.151 8.816a1.667 1.667 0 0 0-2.874.012L25.716 30.384a1.667 1.667 0 0 0 2.88 1.679L39.73 12.954l8.666 14.617-2.615-1.563zM26.496 59.666l-13-.023 8.281-14.844-.036 3.049a1.667 1.667 0 0 0 1.646 1.686h.02c.913 0 1.656-.734 1.667-1.646l.115-9.615v-.034-.073-.078c0-.027 0-.049-.008-.072-.009-.023-.01-.055-.015-.083-.005-.029 0-.044-.014-.065-.013-.022-.021-.084-.035-.125l-.013-.039a1.63 1.63 0 0 0-.048-.121l-.022-.045a1.06 1.06 0 0 0-.05-.097l-.012-.023-.015-.024a2.742 2.742 0 0 0-.058-.09l-.03-.043a1.287 1.287 0 0 0-.075-.092l-.042-.046a1.926 1.926 0 0 0-.081-.084l-.05-.043-.065-.053-.055-.04-.072-.049-.055-.033-.082-.045-.051-.027-.099-.041-.04-.017a2.045 2.045 0 0 0-.143-.045h-.017a1.267 1.267 0 0 0-.133-.028h-.04l-.11-.014H23.299l-.1.019-.05.01a2.018 2.018 0 0 0-.143.04l-.025.01-.12.046-.042.02-.103.054-.022.011-8.137 4.722a1.667 1.667 0 1 0 1.667 2.882l2.875-1.667-9.892 17.748a1.667 1.667 0 0 0 1.455 2.472l15.834.028a1.667 1.667 0 0 0 0-3.333zm44.518.852L58.759 38.636a1.667 1.667 0 1 0-2.908 1.628l10.865 19.402H49.652l2.739-1.5a1.667 1.667 0 1 0-1.607-2.922l-8.427 4.634-.028.016-.065.039-.063.043-.06.043-.064.052-.051.045c-.033.03-.064.062-.094.095l-.028.032a1.473 1.473 0 0 0-.08.098l-.028.042-.06.09-.015.023-.014.025a1.64 1.64 0 0 0-.048.093l-.023.049a1.336 1.336 0 0 0-.045.113c-.014.038-.015.045-.022.067a1.865 1.865 0 0 0-.042.168c-.003.022-.01.053-.015.082-.005.028 0 .046-.008.068-.008.022 0 .055 0 .083v.215c0 .02 0 .072.012.107.011.035 0 .028 0 .042 0 .048.018.096.03.143 0 .012 0 .023.011.037.012.013.022.073.034.108l.02.05c.011.03.023.06.036.088l.027.055c.013.027.027.052.042.079l.033.056.047.07.04.055.055.067.043.05c.032.034.066.068.102.1l.041.035.079.063.046.034.087.056.027.017 8.113 4.752a1.667 1.667 0 1 0 1.685-2.877l-2.807-1.647H69.56a1.667 1.667 0 0 0 1.453-2.481h.002zm-36.185 2.481a1.667 1.667 0 1 0 0-3.333 1.667 1.667 0 0 0 0 3.333z"/>
</svg>
