<svg width="80" height="80">
    <title>
        Illustrative Icons/Rosace
    </title>
    <path d="M68.605 40.35a10.82 10.82 0 0 0-8.667-19.593 10.823 10.823 0 0 0-19.588-8.662 10.82 10.82 0 0 0-19.593 8.667 10.823 10.823 0 0 0-8.662 19.588 10.82 10.82 0 0 0 8.667 19.593 10.823 10.823 0 0 0 19.593 8.667 10.82 10.82 0 0 0 19.593-8.667 10.823 10.823 0 0 0 8.667-19.593h-.01zM42.017 25.657V17.85a7.5 7.5 0 1 1 11.756 6.167 4.968 4.968 0 0 0-6.726 4.371c0 .1-.03.194-.03.294a5 5 0 0 0 5 5c.1 0 .195-.024.293-.03a4.945 4.945 0 0 0 4.373-6.725 7.5 7.5 0 1 1 6.167 11.756h-17.5a3.333 3.333 0 0 1-3.333-3.333v-9.693zM10.35 31.183a7.5 7.5 0 0 1 13.667-4.256 4.968 4.968 0 0 0 4.371 6.726c.099 0 .194.03.294.03a5 5 0 0 0 5-5c0-.1-.024-.195-.03-.293a4.945 4.945 0 0 0-6.725-4.373 7.5 7.5 0 1 1 11.756-6.167v17.5a3.333 3.333 0 0 1-3.333 3.333h-17.5a7.5 7.5 0 0 1-7.5-7.5zm28.333 23.86v7.807a7.5 7.5 0 1 1-11.756-6.167 4.968 4.968 0 0 0 6.726-4.371c0-.1.03-.194.03-.294a5 5 0 0 0-5-5c-.1 0-.195.024-.293.03a4.945 4.945 0 0 0-4.373 6.725 7.5 7.5 0 1 1-6.167-11.756h17.5a3.333 3.333 0 0 1 3.333 3.333v9.693zm24.167 1.974a7.485 7.485 0 0 1-6.167-3.244 4.968 4.968 0 0 0-4.371-6.726c-.099 0-.194-.03-.294-.03a5 5 0 0 0-5 5c0 .1.024.195.03.293a4.945 4.945 0 0 0 6.725 4.373 7.5 7.5 0 1 1-11.756 6.167v-17.5a3.333 3.333 0 0 1 3.333-3.333h17.5a7.5 7.5 0 0 1 0 15z" fill="#ADB5BD" fill-rule="evenodd"/>
</svg>
