<svg width="80" height="80" viewBox="0 0 80 80" xmlns="http://www.w3.org/2000/svg">
    <title>
        Illustrative Icons/Sapin
    </title>
    <path d="M59.833 61.984c.55 1.148-.323 2.458-1.638 2.458H48.96c-.996 0-1.803-.776-1.803-1.733 0-.957.807-1.734 1.803-1.734h6.419l-9.696-20.25c-.55-1.149.323-2.458 1.638-2.458h4.565L40 11.227l-11.887 27.04h4.565c1.315 0 2.188 1.31 1.638 2.458l-9.696 20.25h11.592c.996 0 1.803.777 1.803 1.734v8.824h3.77v-3.87c0-.956.807-1.733 1.803-1.733.996 0 1.803.777 1.803 1.734v5.603c0 .957-.807 1.733-1.803 1.733h-7.376c-.996 0-1.803-.776-1.803-1.733v-8.825H21.805c-1.315 0-2.188-1.31-1.638-2.458l9.696-20.25h-4.47c-1.29 0-2.163-1.266-1.66-2.409l14.481-32.94C38.38 5.62 39.078 5 39.982 5h.036c.904 0 1.602.62 1.768 1.384l14.482 32.941c.502 1.143-.37 2.408-1.661 2.408h-4.47l9.696 20.251zM45 63.5c0 .825-.675 1.5-1.5 1.5s-1.5-.675-1.5-1.5.675-1.5 1.5-1.5c.84 0 1.5.675 1.5 1.5z"/>
</svg>
