<svg width="80" height="80" viewBox="0 0 80 80">
    <title>
        Illustrative Icons/Soleil
    </title>
    <path d="M40 75c-.92 0-1.667-.746-1.667-1.667v-10a1.667 1.667 0 1 1 3.334 0v10c0 .92-.747 1.667-1.667 1.667zM16.667 41.667h-10a1.667 1.667 0 0 1 0-3.334h10a1.667 1.667 0 1 1 0 3.334zm56.666 0h-10a1.667 1.667 0 0 1 0-3.334h10a1.667 1.667 0 1 1 0 3.334zM63.333 65c-.442 0-.866-.176-1.178-.488l-6.667-6.667a1.667 1.667 0 0 1 2.357-2.357l6.667 6.667A1.667 1.667 0 0 1 63.333 65zm-40-40c-.442 0-.866-.176-1.178-.488l-6.667-6.667a1.667 1.667 0 0 1 2.357-2.357l6.667 6.667A1.667 1.667 0 0 1 23.333 25zm33.334 0a1.667 1.667 0 0 1-1.179-2.845l6.667-6.667a1.667 1.667 0 0 1 2.357 2.357l-6.667 6.667a1.666 1.666 0 0 1-1.178.488zm-40 40a1.667 1.667 0 0 1-1.179-2.845l6.667-6.667a1.667 1.667 0 0 1 2.357 2.357l-6.667 6.667a1.666 1.666 0 0 1-1.178.488zM40 58.325a18.334 18.334 0 0 1-17.037-25.108 1.667 1.667 0 0 1 3.097 1.231c-3.044 7.652.65 16.327 8.276 19.435 7.625 3.109 16.331-.512 19.504-8.111 3.172-7.6-.375-16.335-7.947-19.572a14.102 14.102 0 0 0-5.876-1.2 1.667 1.667 0 0 1-1.684-1.667V6.667a1.667 1.667 0 1 1 3.334 0v15.061c1.908.169 3.776.644 5.533 1.407a18.333 18.333 0 0 1-7.2 35.19zM28.333 30a1.667 1.667 0 1 0 0-3.333 1.667 1.667 0 0 0 0 3.333z"/>
</svg>
