<svg width="80" height="80">
    <title>
        Illustrative Icons/Sports
    </title>
    <path d="M57.813 73.512a8.377 8.377 0 0 1-7.74-5.158 8.34 8.34 0 0 1 1.817-9.106 8.392 8.392 0 0 1 9.128-1.811 8.356 8.356 0 0 1 5.171 7.72c-.004 4.612-3.752 8.35-8.376 8.355zm0-13.385a5.043 5.043 0 0 0-4.66 3.106 5.022 5.022 0 0 0 1.094 5.483 5.053 5.053 0 0 0 5.497 1.09 5.03 5.03 0 0 0 3.112-4.65 5.04 5.04 0 0 0-5.043-5.03v.001zM46.27 51.198L20.821 36.652a20.726 20.726 0 0 0 6.235 9.98c.621.55.743 1.471.285 2.162L16.92 64.64a3.573 3.573 0 0 0-.207 3.575 3.593 3.593 0 0 0 6.208.359l.034-.05 2.767-3.884a1.668 1.668 0 0 1 2.874.272 1.66 1.66 0 0 1-.157 1.655l-2.75 3.86a6.884 6.884 0 0 1-4.364 2.941 6.926 6.926 0 0 1-7.499-3.492 6.891 6.891 0 0 1 .311-7.062l9.655-14.683a24.104 24.104 0 0 1-7.06-17.026C16.731 17.815 27.564 7 40.898 7 54.23 7 65.064 17.815 65.064 31.106c0 13.292-10.833 24.107-24.166 24.107-1.623 0-3.243-.161-4.834-.482l-1.701 3.037a1.669 1.669 0 0 1-2.256.62 1.66 1.66 0 0 1-.654-2.24l2.076-3.708c.019-.035.04-.068.062-.102.058-.09.113-.183.167-.289a1.668 1.668 0 0 1 1.89-.831c3.597.937 7.241.878 10.622-.02zm4.03-1.529a20.775 20.775 0 0 0 10.036-10.991c3.855-9.816-.26-20.957-9.58-25.93-9.319-4.974-20.895-2.207-26.942 6.439a20.707 20.707 0 0 0-3.709 13.228c.042.02.083.042.123.066L50.299 49.67zM31.787 61.28c0 .918-.746 1.663-1.667 1.663-.92 0-1.667-.745-1.667-1.663s.747-1.662 1.667-1.662 1.667.744 1.667 1.662z" fill="#ADB5BD" fill-rule="evenodd"/>
</svg>
