<svg width="80" height="80">
    <title>
        Illustrative Icons/Telephone
    </title>
    <path d="M57.668 66.031a7.78 7.78 0 0 1-1.637-.167 55.947 55.947 0 0 1-42.863-42.863 8.233 8.233 0 0 1 .942-5.782 34.985 34.985 0 0 1 4.41-6.135 3.242 3.242 0 0 1 2.348-1.083 3.37 3.37 0 0 1 2.467.987l14.021 14.021c.65.651.65 1.706 0 2.357L30.9 33.823a1.685 1.685 0 0 0-.207 2.123 44.63 44.63 0 0 0 12.393 12.388 1.685 1.685 0 0 0 2.124-.206l6.458-6.452c.65-.65 1.706-.65 2.357 0l8.333 8.333A1.667 1.667 0 1 1 60 52.366l-7.155-7.155-5.278 5.278a5.028 5.028 0 0 1-6.333.622A47.948 47.948 0 0 1 27.92 37.796a5.028 5.028 0 0 1 .621-6.333l5.279-5.279-12.844-12.84a31.647 31.647 0 0 0-3.956 5.525 4.907 4.907 0 0 0-.584 3.439 52.608 52.608 0 0 0 40.292 40.291 4.907 4.907 0 0 0 3.438-.583 31.355 31.355 0 0 0 6.737-5.103 1.667 1.667 0 0 1 2.357 2.356 34.692 34.692 0 0 1-7.452 5.647 8.428 8.428 0 0 1-4.14 1.115zm7-9.863a1.667 1.667 0 1 0 0-3.334 1.667 1.667 0 0 0 0 3.334z" fill="#ADB5BD" fill-rule="evenodd"/>
</svg>
