<svg width="80" height="80" viewBox="0 0 80 80" xmlns="http://www.w3.org/2000/svg">
    <title>
        Illustrative Icons/Terrain-sport
    </title>
    <path d="M41.565 32.837c3.8.738 6.672 4.113 6.672 8.166 0 4.052-2.87 7.427-6.668 8.166.011.081.018.164.018.248v13.25h27.781c.204 0 .332-.121.332-.2v-8.15h-9.56c-1.95 0-3.623-1.47-3.623-3.398V31.08c0-1.928 1.673-3.398 3.623-3.398h9.56v-8.15c0-.079-.128-.2-.332-.2H41.587v13.234c0 .092-.008.182-.022.27zm-3.253.024a1.693 1.693 0 0 1-.025-.294V19.333H10.632c-.204 0-.332.121-.332.2v8.15h9.56c1.95 0 3.623 1.471 3.623 3.4v19.835c0 1.928-1.673 3.399-3.623 3.399H10.3v5.35c0 .92-.739 1.666-1.65 1.666-.911 0-1.65-.746-1.65-1.666V19.533C7 17.56 8.655 16 10.632 16h58.736C71.345 16 73 17.56 73 19.533v42.934C73 64.44 71.345 66 69.368 66H13.6c-.911 0-1.65-.746-1.65-1.667 0-.92.739-1.666 1.65-1.666h24.687v-13.25c0-.093.007-.184.021-.273-3.737-.787-6.544-4.133-6.544-8.14 0-4.01 2.809-7.356 6.548-8.143zM10.3 51.017h9.56c.14 0 .26-.045.333-.109a.23.23 0 0 0 .023-.023v-19.77a.23.23 0 0 0-.023-.023.512.512 0 0 0-.333-.109H10.3v20.034zm59.4 0V30.983h-9.56a.513.513 0 0 0-.334.109.232.232 0 0 0-.023.023v19.77a.232.232 0 0 0 .023.023.513.513 0 0 0 .334.109h9.56zM35.03 41.003c0 2.77 2.225 5.017 4.97 5.017 2.745 0 4.97-2.246 4.97-5.017 0-2.77-2.225-5.016-4.97-5.016-2.745 0-4.97 2.246-4.97 5.016zM8.65 66C7.742 66 7 65.25 7 64.333c0-.916.742-1.666 1.65-1.666.907 0 1.65.75 1.65 1.666C10.3 65.25 9.574 66 8.65 66z"/>
</svg>
