<svg width="80" height="80" viewBox="0 0 80 80" xmlns="http://www.w3.org/2000/svg">
    <title>
        Illustrative Icons/Usine
    </title>
    <path d="M69.118 28.783a1.667 1.667 0 0 0-1.713.1l-4.148 2.799L60.1 8.45A1.667 1.667 0 0 0 58.453 7h-9.935a1.653 1.653 0 0 0-1.646 1.417l-3.649 24.5-11.556 7.416.063-9.85a1.638 1.638 0 0 0-.882-1.466 1.667 1.667 0 0 0-1.713.1L10.732 41.5c-.455.306-.73.818-.732 1.367V62a1.667 1.667 0 0 0 3.333 0V45.333 43.75l15-10.133V42.7c0 .6.402 1.15.919 1.45a1.68 1.68 0 0 0 1.68-.033l17.401-10.45v9.016c0 .684.535 1.184 1.085 1.467a1.667 1.667 0 0 0 1.714-.1l15.556-10.617v36.9H49.967V60.125c0-.802-.749-1.458-1.667-1.458H31.613c-.915 0-1.613.656-1.613 1.458v10.208H11.667a1.667 1.667 0 0 0 0 3.334h56.666c.442.001.867-.172 1.18-.484.309-.317.483-.74.487-1.183V30.25a1.642 1.642 0 0 0-.882-1.467zm-18.103.184a1.68 1.68 0 0 0-1.682.033l-2.388 1.532 3.005-20.199H57l3.167 23.43-8.5 5.737v-9.167c0-.6-.137-1.066-.652-1.366zM33.333 70.333V62h13.334l-.029 8.333H33.333zm-6.678-15c.92 0 1.667-.746 1.667-1.666v-6.65c0-.92-.747-1.667-1.667-1.667h-10c-.92 0-1.667.746-1.667 1.667v6.65c0 .92.747 1.666 1.667 1.666h10zm-8.333-6.65h6.666V52h-6.666v-3.317zm45.011 6.634A1.667 1.667 0 0 0 65 53.65V47c0-.92-.746-1.667-1.667-1.667H53.35c-.92 0-1.667.747-1.667 1.667v6.65a1.667 1.667 0 0 0 1.667 1.667h9.983zm-8.316-6.65h6.65v3.316h-6.65v-3.316zM45 55.333c.92 0 1.667-.746 1.667-1.666v-6.65c0-.92-.747-1.667-1.667-1.667H35c-.92 0-1.667.746-1.667 1.667v6.65c0 .92.747 1.666 1.667 1.666h10zm-8.317-6.65h6.667V52h-6.667v-3.317zM11.667 68.667a1.667 1.667 0 1 0 0-3.334 1.667 1.667 0 0 0 0 3.334z"/>
</svg>
