<svg width="80" height="80">
    <title>
        Illustrative Icons/Voiture
    </title>
    <path d="M25 58.69v3.724C25 65.49 22.473 68 19.375 68s-5.625-2.51-5.625-5.586V58.69c-2.071 0-3.75-1.668-3.75-3.724v-16.76c0-1.475.864-2.75 2.117-3.353l3.538-19.324A1.872 1.872 0 0 1 17.5 14h45c.894 0 1.664.627 1.839 1.498l1.894 9.425a1.863 1.863 0 0 1-1.472 2.19 1.875 1.875 0 0 1-2.205-1.461l-1.594-7.928H19.065l-3.068 16.758H66.25l.075.001c2.036.04 3.675 1.692 3.675 3.724v16.759c0 2.056-1.679 3.724-3.75 3.724v3.724c0 3.076-2.527 5.586-5.625 5.586S55 65.49 55 62.414V58.69H25zm-7.5 0v3.724a1.88 1.88 0 0 0 1.875 1.862 1.88 1.88 0 0 0 1.875-1.862V58.69H17.5zm41.25 0v3.724a1.88 1.88 0 0 0 1.875 1.862 1.88 1.88 0 0 0 1.875-1.862V58.69h-3.75zM33.437 25.172a1.869 1.869 0 0 1-1.874-1.862c0-1.028.839-1.862 1.875-1.862h13.124c1.036 0 1.876.834 1.876 1.862 0 1.029-.84 1.862-1.876 1.862H33.438zM51.25 46.586c0-3.085 2.518-5.586 5.625-5.586s5.625 2.501 5.625 5.586c0 3.085-2.518 5.586-5.625 5.586s-5.625-2.5-5.625-5.586zm3.75 0c0 1.029.84 1.862 1.875 1.862a1.868 1.868 0 0 0 1.875-1.862c0-1.028-.84-1.862-1.875-1.862A1.868 1.868 0 0 0 55 46.586zm-37.5 0c0-3.085 2.518-5.586 5.625-5.586s5.625 2.501 5.625 5.586c0 3.085-2.518 5.586-5.625 5.586s-5.625-2.5-5.625-5.586zm3.75 0c0 1.029.84 1.862 1.875 1.862A1.868 1.868 0 0 0 25 46.586c0-1.028-.84-1.862-1.875-1.862a1.868 1.868 0 0 0-1.875 1.862zm44.063-13.965a1.869 1.869 0 0 1-1.876-1.862c0-1.029.84-1.862 1.876-1.862 1.035 0 1.874.833 1.874 1.862 0 1.028-.839 1.862-1.874 1.862zM13.75 38.207v16.759h52.5v-16.76h-52.5z" fill="#ADB5BD" fill-rule="evenodd"/>
</svg>
