<svg width="40" height="40" viewBox="0 0 40 40" fill="none" xmlns="http://www.w3.org/2000/svg">
<path fill-rule="evenodd" clip-rule="evenodd" d="M12 31V5H30C30.5523 5 31 4.55228 31 4C31 3.44772 30.5523 3 30 3H11C10.4477 3 10 3.44772 10 4V31H3C2.44772 31 2 31.4477 2 32C2 34.7614 4.23858 37 7 37H11H29C31.7614 37 34 34.7614 34 32V8C34 7.44772 33.5523 7 33 7C32.4477 7 32 7.44772 32 8V32C32 33.6569 30.6569 35 29 35C27.3431 35 26 33.6569 26 32C26 31.4477 25.5523 31 25 31H12ZM29 25H15C14.4477 25 14 25.4477 14 26C14 26.5523 14.4477 27 15 27H29C29.5523 27 30 26.5523 30 26C30 25.4477 29.5523 25 29 25ZM15 21H27C27.5523 21 28 21.4477 28 22C28 22.5523 27.5523 23 27 23H15C14.4477 23 14 22.5523 14 22C14 21.4477 14.4477 21 15 21ZM29 17H15C14.4477 17 14 17.4477 14 18C14 18.5523 14.4477 19 15 19H29C29.5523 19 30 18.5523 30 18C30 17.4477 29.5523 17 29 17ZM15 13H27C27.5523 13 28 13.4477 28 14C28 14.5523 27.5523 15 27 15H15C14.4477 15 14 14.5523 14 14C14 13.4477 14.4477 13 15 13ZM19 9H15C14.4477 9 14 9.44772 14 10C14 10.5523 14.4477 11 15 11H19C19.5523 11 20 10.5523 20 10C20 9.44772 19.5523 9 19 9ZM7 35H24.9996C24.5629 34.4186 24.25 33.7389 24.1 33H4.17071C4.58254 34.1652 5.69378 35 7 35ZM34 4C34 4.55228 33.5523 5 33 5C32.4477 5 32 4.55228 32 4C32 3.44772 32.4477 3 33 3C33.5523 3 34 3.44772 34 4Z" fill="#ADB5BD"/>
</svg>
