<svg width="40" height="40" viewBox="0 0 40 40" fill="none" xmlns="http://www.w3.org/2000/svg">
<path fill-rule="evenodd" clip-rule="evenodd" d="M29.9545 2.70172C29.8549 2.38309 29.6029 2.13515 29.2827 2.04079C28.9625 1.94642 28.6163 2.01806 28.3598 2.23178L16.3673 12.2256C16.3519 12.2382 16.3369 12.2512 16.3223 12.2647C16.2285 12.351 16.1547 12.4516 16.1016 12.5603C16.0365 12.693 16 12.8422 16 13V13.0005V22H12V16H14C14.5523 16 15 15.5523 15 15C15 14.4477 14.5523 14 14 14H11C10.4477 14 10 14.4477 10 15V22H7C6.44772 22 6 22.4477 6 23V28C6 28.5523 6.44772 29 7 29C7.55228 29 8 28.5523 8 28V24H11H17C17.5523 24 18 23.5523 18 23V14.083C20.8377 14.559 23 17.027 23 20V28C23 28.5523 23.4477 29 24 29C24.5523 29 25 28.5523 25 28V20C25 16.3972 22.6184 13.3506 19.3436 12.3488L25.3842 7.31487L27.0513 12.3162C27.226 12.8402 27.7923 13.1233 28.3163 12.9487C28.8402 12.774 29.1234 12.2077 28.9487 11.6838L27.0341 5.93997L28.4915 4.72545L32.6398 18H28C27.4477 18 27 18.4477 27 19V21C27 23.7614 29.2386 26 32 26C34.7614 26 37 23.7614 37 21V19C37 18.4477 36.5523 18 36 18H34.7352L29.9545 2.70172ZM29 20H33.9767C33.992 20.0004 34.0074 20.0004 34.0227 20H35V21C35 22.6569 33.6569 24 32 24C30.3431 24 29 22.6569 29 21V20ZM5 34C5 32.8954 5.89543 32 7 32H24C25.1046 32 26 32.8954 26 34C26 35.1046 25.1046 36 24 36H7C5.89543 36 5 35.1046 5 34ZM7 30C4.79086 30 3 31.7909 3 34C3 36.2091 4.79086 38 7 38H24C26.2091 38 28 36.2091 28 34C28 31.7909 26.2091 30 24 30H7ZM8 34C8 33.4477 7.55228 33 7 33C6.44772 33 6 33.4477 6 34C6 34.5523 6.44772 35 7 35C7.55228 35 8 34.5523 8 34ZM24 33C24.5523 33 25 33.4477 25 34C25 34.5523 24.5523 35 24 35C23.4477 35 23 34.5523 23 34C23 33.4477 23.4477 33 24 33Z" fill="#ADB5BD"/>
</svg>
