<?xml version="1.0" encoding="UTF-8"?>
<svg width="80px" height="80px" viewBox="0 0 80 80" version="1.1" xmlns="http://www.w3.org/2000/svg" xmlns:xlink="http://www.w3.org/1999/xlink">
    <!-- Generator: Sketch 55.2 (78181) - https://sketchapp.com -->
    <title>Illustrative Icons/Ordinateur</title>
    <desc>Created with Sketch.</desc>
    <g id="Illustrative-Icons/Ordinateur" stroke="none" stroke-width="1" fill="none" fill-rule="evenodd">
        <path d="M64.2266667,17 L16.5833333,17 C13.1766667,17 10.405,19.99 10.405,23.6666667 L10.405,57 L70.405,57 L70.405,23.6666667 C70.405,19.99 67.6333334,17 64.2266667,17 Z M67.0716667,53.6666667 L13.7383333,53.6666667 L13.7383333,23.6666667 C13.7383333,21.86 15.0416667,20.3333333 16.5833333,20.3333333 L64.2266667,20.3333333 C65.7683334,20.3333333 67.0716667,21.86 67.0716667,23.6666667 L67.0716667,53.6666667 Z M67.0716667,60.3333334 L6.66666667,60.3333334 C5.74619208,60.3333334 5,61.0795255 5,62.0000001 C5,62.9204746 5.74619208,63.6666667 6.66666667,63.6666667 L67.0716667,63.6666667 C67.9921413,63.6666667 68.7383334,62.9204746 68.7383334,62.0000001 C68.7383334,61.0795255 67.9921413,60.3333334 67.0716667,60.3333334 Z M73.7383334,63.6666667 C74.658808,63.6666667 75.4050001,62.9204746 75.4050001,62.0000001 C75.4050001,61.0795255 74.658808,60.3333334 73.7383334,60.3333334 C72.8178588,60.3333334 72.0716668,61.0795255 72.0716668,62.0000001 C72.0716668,62.9204746 72.8178588,63.6666667 73.7383334,63.6666667 Z" id="Shape-color" fill="#ADB5BD"></path>
    </g>
</svg>