<?xml version="1.0" encoding="UTF-8"?>
<svg width="24px" height="24px" viewBox="0 0 24 24" version="1.1" xmlns="http://www.w3.org/2000/svg" xmlns:xlink="http://www.w3.org/1999/xlink">
    <!-- Generator: Sketch 56.2 (81672) - https://sketch.com -->
    <title>Icon/Apps</title>
    <desc>Created with Sketch.</desc>
    <g id="Icon/Apps" stroke="none" stroke-width="1" fill="none" fill-rule="evenodd">
        <path d="M4,1 L8,1 C9.65685425,1 11,2.34314575 11,4 L11,8 C11,9.65685425 9.65685425,11 8,11 L4,11 C2.34314575,11 1,9.65685425 1,8 L1,4 C1,2.34314575 2.34314575,1 4,1 Z M4,3 C3.44771525,3 3,3.44771525 3,4 L3,8 C3,8.55228475 3.44771525,9 4,9 L8,9 C8.55228475,9 9,8.55228475 9,8 L9,4 C9,3.44771525 8.55228475,3 8,3 L4,3 Z M4,13 L8,13 C9.65685425,13 11,14.3431458 11,16 L11,20 C11,21.6568542 9.65685425,23 8,23 L4,23 C2.34314575,23 1,21.6568542 1,20 L1,16 C1,14.3431458 2.34314575,13 4,13 Z M4,15 C3.44771525,15 3,15.4477153 3,16 L3,20 C3,20.5522847 3.44771525,21 4,21 L8,21 C8.55228475,21 9,20.5522847 9,20 L9,16 C9,15.4477153 8.55228475,15 8,15 L4,15 Z M16,1 L20,1 C21.6568542,1 23,2.34314575 23,4 L23,8 C23,9.65685425 21.6568542,11 20,11 L16,11 C14.3431458,11 13,9.65685425 13,8 L13,4 C13,2.34314575 14.3431458,1 16,1 Z M16,3 C15.4477153,3 15,3.44771525 15,4 L15,8 C15,8.55228475 15.4477153,9 16,9 L20,9 C20.5522847,9 21,8.55228475 21,8 L21,4 C21,3.44771525 20.5522847,3 20,3 L16,3 Z M20,21 C20.5522847,21 21,21.4477153 21,22 C21,22.5522847 20.5522847,23 20,23 L16,23 C14.3431458,23 13,21.6568542 13,20 L13,16 C13,14.3431458 14.3431458,13 16,13 L20,13 C21.6568542,13 23,14.3431458 23,16 L23,19 C23,19.5522847 22.5522847,20 22,20 C21.4477153,20 21,19.5522847 21,19 L21,16 C21,15.4477153 20.5522847,15 20,15 L16,15 C15.4477153,15 15,15.4477153 15,16 L15,20 C15,20.5522847 15.4477153,21 16,21 L20,21 Z" id="Icon" fill="#ADB5BD"></path>
    </g>
</svg>