<?xml version="1.0" encoding="UTF-8"?>
<svg width="24px" height="24px" viewBox="0 0 24 24" version="1.1" xmlns="http://www.w3.org/2000/svg" xmlns:xlink="http://www.w3.org/1999/xlink">
    <!-- Generator: Sketch 56.2 (81672) - https://sketch.com -->
    <title>Icon/arrow-left</title>
    <desc>Created with Sketch.</desc>
    <g id="Icon/arrow-left" stroke="none" stroke-width="1" fill="none" fill-rule="evenodd">
        <path d="M20.9267767,11.623699 C21.0732233,11.984835 21,12.4142136 20.7071068,12.7071068 L14.7071068,18.7071068 C14.3165825,19.0976311 13.6834175,19.0976311 13.2928932,18.7071068 C12.9023689,18.3165825 12.9023689,17.6834175 13.2928932,17.2928932 L17.5857864,13 L4,13 C3.44771525,13 3,12.5522847 3,12 C3,11.4477153 3.44771525,11 4,11 L20,11 C20.4142136,11 20.7696068,11.2518398 20.921415,11.6107549 Z M13.2928932,6.70710678 C12.9023689,6.31658249 12.9023689,5.68341751 13.2928932,5.29289322 C13.6834175,4.90236893 14.3165825,4.90236893 14.7071068,5.29289322 L17.7422869,8.32807331 C18.1328112,8.7185976 18.1328112,9.35176258 17.7422869,9.74228687 C17.3517626,10.1328112 16.7185976,10.1328112 16.3280733,9.74228687 L13.2928932,6.70710678 Z" id="Icon" fill="#ADB5BD" transform="translate(12.000000, 12.000000) scale(-1, 1) translate(-12.000000, -12.000000) "></path>
    </g>
</svg>