<?xml version="1.0" encoding="UTF-8"?>
<svg width="24px" height="24px" viewBox="0 0 24 24" version="1.1" xmlns="http://www.w3.org/2000/svg" xmlns:xlink="http://www.w3.org/1999/xlink">
    <!-- Generator: Sketch 56.3 (81716) - https://sketch.com -->
    <title>Icon/briefcase</title>
    <desc>Created with Sketch.</desc>
    <g id="Icon/briefcase" stroke="none" stroke-width="1" fill="none" fill-rule="evenodd">
        <path d="M1,11.9767064 L1,9 C1,7.34314575 2.34314575,6 4,6 L7,6 L7,5 C7,3.34314575 8.34314575,2 10,2 L14,2 C15.6568542,2 17,3.34314575 17,5 L17,6 L20,6 C21.6568542,6 23,7.34314575 23,9 L23,11.9767064 C23.0014305,12.0384894 22.9970785,12.0998487 22.987262,12.1600425 C22.9636709,12.3067032 22.9081866,12.4426974 22.8281495,12.5606845 C22.75789,12.6646629 22.667613,12.7561611 22.5601072,12.8286726 C22.5482914,12.8365427 22.5363682,12.8442535 22.524274,12.8517139 C22.521285,12.8535756 22.5182764,12.8554007 22.5152557,12.8572115 C22.4630129,12.8886812 22.4076585,12.9155102 22.3497631,12.9371277 L12.3713907,16.9284767 C12.1329796,17.0238411 11.8670204,17.0238411 11.6286093,16.9284767 L3,13.477033 L3,19 C3,19.5522847 3.44771525,20 4,20 L20,20 C20.5522847,20 21,19.5522847 21,19 L21,16 C21,15.4477153 21.4477153,15 22,15 C22.5522847,15 23,15.4477153 23,16 L23,19 C23,20.6568542 21.6568542,22 20,22 L4,22 C2.34314575,22 1,20.6568542 1,19 L1,12.0226781 C0.999646139,12.0073879 0.999644512,11.9920602 1,11.9767064 Z M3,11.322967 L12,14.922967 L21,11.322967 L21,9 C21,8.44771525 20.5522847,8 20,8 L4,8 C3.44771525,8 3,8.44771525 3,9 L3,11.322967 Z M9,6 L15,6 L15,5 C15,4.44771525 14.5522847,4 14,4 L10,4 C9.44771525,4 9,4.44771525 9,5 L9,6 Z" id="Icon" fill="#ADB5BD"></path>
    </g>
</svg>