<?xml version="1.0" encoding="UTF-8"?>
<svg width="24px" height="24px" viewBox="0 0 24 24" version="1.1" xmlns="http://www.w3.org/2000/svg" xmlns:xlink="http://www.w3.org/1999/xlink">
    <!-- Generator: Sketch 56.3 (81716) - https://sketch.com -->
    <title>Icon/copyright</title>
    <desc>Created with Sketch.</desc>
    <g id="Icon/copyright" stroke="none" stroke-width="1" fill="none" fill-rule="evenodd">
        <path d="M12,23 C18.0751322,23 23,18.0751322 23,12 C23,5.92486775 18.0751322,1 12,1 C5.92486775,1 1,5.92486775 1,12 C1,18.0751322 5.92486775,23 12,23 Z M12,21 C7.02943725,21 3,16.9705627 3,12 C3,7.02943725 7.02943725,3 12,3 C16.9705627,3 21,7.02943725 21,12 C21,16.9705627 16.9705627,21 12,21 Z M15.5355339,8.46446609 C13.5829124,6.51184464 10.4170876,6.51184464 8.46446609,8.46446609 C6.51184464,10.4170876 6.51184464,13.5829124 8.46446609,15.5355339 C10.4170876,17.4881554 13.5829124,17.4881554 15.5355339,15.5355339 C15.9260582,15.1450096 15.9260582,14.5118446 15.5355339,14.1213203 C15.1450096,13.7307961 14.5118446,13.7307961 14.1213203,14.1213203 C12.9497475,15.2928932 11.0502525,15.2928932 9.87867966,14.1213203 C8.70710678,12.9497475 8.70710678,11.0502525 9.87867966,9.87867966 C11.0502525,8.70710678 12.9497475,8.70710678 14.1213203,9.87867966 C14.5118446,10.2692039 15.1450096,10.2692039 15.5355339,9.87867966 C15.9260582,9.48815536 15.9260582,8.85499039 15.5355339,8.46446609 Z" id="Combined-Shape" fill="#ADB5BD"></path>
    </g>
</svg>