<?xml version="1.0" encoding="UTF-8"?>
<svg width="24px" height="24px" viewBox="0 0 24 24" version="1.1" xmlns="http://www.w3.org/2000/svg" xmlns:xlink="http://www.w3.org/1999/xlink">
    <!-- Generator: Sketch 56.2 (81672) - https://sketch.com -->
    <title>Icon/Copy</title>
    <desc>Created with Sketch.</desc>
    <g id="Icon/Copy" stroke="none" stroke-width="1" fill="none" fill-rule="evenodd">
        <path d="M11,8 L20,8 C21.6568542,8 23,9.34314575 23,11 L23,20 C23,21.6568542 21.6568542,23 20,23 L11,23 C9.34314575,23 8,21.6568542 8,20 L8,11 C8,9.34314575 9.34314575,8 11,8 Z M11,10 C10.4477153,10 10,10.4477153 10,11 L10,20 C10,20.5522847 10.4477153,21 11,21 L20,21 C20.5522847,21 21,20.5522847 21,20 L21,11 C21,10.4477153 20.5522847,10 20,10 L11,10 Z M5,14 C5.55228475,14 6,14.4477153 6,15 C6,15.5522847 5.55228475,16 5,16 L4,16 C2.34314575,16 1,14.6568542 1,13 L1,4 C1,2.34314575 2.34314575,1 4,1 L13,1 C14.6568542,1 16,2.34314575 16,4 L16,5 C16,5.55228475 15.5522847,6 15,6 C14.4477153,6 14,5.55228475 14,5 L14,4 C14,3.44771525 13.5522847,3 13,3 L4,3 C3.44771525,3 3,3.44771525 3,4 L3,13 C3,13.5522847 3.44771525,14 4,14 L5,14 Z" id="Icon" fill="#ADB5BD"></path>
    </g>
</svg>