<?xml version="1.0" encoding="UTF-8"?>
<svg width="24px" height="24px" viewBox="0 0 24 24" version="1.1" xmlns="http://www.w3.org/2000/svg" xmlns:xlink="http://www.w3.org/1999/xlink">
    <!-- Generator: Sketch 56.3 (81716) - https://sketch.com -->
    <title>Icon/externallink</title>
    <desc>Created with Sketch.</desc>
    <g id="Icon/externallink" stroke="none" stroke-width="1" fill="none" fill-rule="evenodd">
        <path d="M16.5857864,6 L13,6 C12.4477153,6 12,5.55228475 12,5 C12,4.44771525 12.4477153,4 13,4 L19,4 C19.5522847,4 20,4.44771525 20,5 L20,11 C20,11.5522847 19.5522847,12 19,12 C18.4477153,12 18,11.5522847 18,11 L18,7.41421356 L11.7071068,13.7071068 C11.3165825,14.0976311 10.6834175,14.0976311 10.2928932,13.7071068 C9.90236893,13.3165825 9.90236893,12.6834175 10.2928932,12.2928932 L16.5857864,6 Z M16,15 C16,14.4477153 16.4477153,14 17,14 C17.5522847,14 18,14.4477153 18,15 L18,17 C18,18.6568542 16.6568542,20 15,20 L7,20 C5.34314575,20 4,18.6568542 4,17 L4,9 C4,7.34314575 5.34314575,6 7,6 L9,6 C9.55228475,6 10,6.44771525 10,7 C10,7.55228475 9.55228475,8 9,8 L7,8 C6.44771525,8 6,8.44771525 6,9 L6,17 C6,17.5522847 6.44771525,18 7,18 L15,18 C15.5522847,18 16,17.5522847 16,17 L16,15 Z" id="Icon" fill="#ADB5BD"></path>
    </g>
</svg>