<?xml version="1.0" encoding="UTF-8"?>
<svg width="24px" height="24px" viewBox="0 0 24 24" version="1.1" xmlns="http://www.w3.org/2000/svg" xmlns:xlink="http://www.w3.org/1999/xlink">
    <!-- Generator: Sketch 56.3 (81716) - https://sketch.com -->
    <title>Icon/folder</title>
    <desc>Created with Sketch.</desc>
    <g id="Icon/folder" stroke="none" stroke-width="1" fill="none" fill-rule="evenodd">
        <path d="M8.46481624,4 L10.1679497,6.5547002 C10.3534155,6.83289886 10.6656468,7 11,7 L20,7 C20.5522847,7 21,7.44771525 21,8 L21,18 C21,18.5522847 21.4477153,19 22,19 C22.5522847,19 23,18.5522847 23,18 L23,8 C23,6.34314575 21.6568542,5 20,5 L11.5351838,5 L9.83205029,2.4452998 C9.64658452,2.16710114 9.33435319,2 9,2 L4,2 C2.34314575,2 1,3.34314575 1,5 L1,19 C1,20.6568542 2.34314575,22 4,22 L20,22 C20.5522847,22 21,21.5522847 21,21 C21,20.4477153 20.5522847,20 20,20 L4,20 C3.44771525,20 3,19.5522847 3,19 L3,5 C3,4.44771525 3.44771525,4 4,4 L8.46481624,4 Z" id="Icon" fill="#ADB5BD"></path>
    </g>
</svg>