<?xml version="1.0" encoding="UTF-8"?>
<svg width="24px" height="24px" viewBox="0 0 24 24" version="1.1" xmlns="http://www.w3.org/2000/svg" xmlns:xlink="http://www.w3.org/1999/xlink">
    <!-- Generator: Sketch 56.3 (81716) - https://sketch.com -->
    <title>Icon/heart</title>
    <desc>Created with Sketch.</desc>
    <g id="Icon/heart" stroke="none" stroke-width="1" fill="none" fill-rule="evenodd">
        <path d="M12,4.25578645 L11.6471068,3.90289322 C9.10819479,1.3639813 4.99180522,1.36398133 2.45289328,3.90289328 C-0.0860186651,6.44180522 -0.0860186957,10.5581948 2.45289321,13.0971068 L11.2928932,21.9371068 C11.6834175,22.3276311 12.3165825,22.3276311 12.7071068,21.9371068 L18.4871068,16.1571068 C18.8776311,15.7665825 18.8776311,15.1334175 18.4871068,14.7428932 C18.0965825,14.3523689 17.4634175,14.3523689 17.0728932,14.7428932 L12,19.8157864 L3.86710678,11.6828932 C2.10924345,9.92502984 2.10924347,7.07497021 3.86710684,5.31710684 C5.62497021,3.55924347 8.47502984,3.55924345 10.2328932,5.31710679 L11.2928932,6.37710678 C11.6834175,6.76763107 12.3165825,6.76763107 12.7071068,6.37710678 L13.7671068,5.31710678 C14.6112471,4.47257018 15.7561598,3.99817438 16.95,3.99817438 C18.1438402,3.99817438 19.2887529,4.47257018 20.1327273,5.3169408 C20.9774298,6.16124707 21.4518256,7.3061598 21.4518256,8.5 C21.4518256,9.6938402 20.9774298,10.8387529 20.1330592,11.6827273 C19.7424433,12.0731599 19.7422947,12.7063249 20.1327273,13.0969408 C20.5231599,13.4875567 21.1563249,13.4877053 21.5469408,13.0972727 C22.7665872,11.8781987 23.4518256,10.2244359 23.4518256,8.5 C23.4518256,6.77556415 22.7665872,5.12180133 21.5469408,3.90272727 C20.3281987,2.68341276 18.6744359,1.99817438 16.95,1.99817438 C15.2255641,1.99817438 13.5718013,2.68341276 12.3527273,3.9030592 L12,4.25578645 Z" id="Icon" fill="#ADB5BD"></path>
    </g>
</svg>