<?xml version="1.0" encoding="UTF-8"?>
<svg width="24px" height="24px" viewBox="0 0 24 24" version="1.1" xmlns="http://www.w3.org/2000/svg" xmlns:xlink="http://www.w3.org/1999/xlink">
    <!-- Generator: Sketch 56.2 (81672) - https://sketch.com -->
    <title>Icon/Map</title>
    <desc>Created with Sketch.</desc>
    <g id="Icon/Map" stroke="none" stroke-width="1" fill="none" fill-rule="evenodd">
        <path d="M7.48861308,1.14046999 C7.63824364,1.05125373 7.81313635,1 8,1 C8.16795727,1 8.32624342,1.04140696 8.46520716,1.11456959 L15.9685307,4.86623136 L22.5038611,1.13175686 C23.1705178,0.750810134 24,1.23217733 24,2 L24,6 C24,6.55228475 23.5522847,7 23,7 C22.4477153,7 22,6.55228475 22,6 L22,3.72317968 L17,6.58032254 L17,20.2768203 L22,17.4196775 L22,10 C22,9.44771525 22.4477153,9 23,9 C23.5522847,9 24,9.44771525 24,10 L24,18 C24,18.3588568 23.8077139,18.6902003 23.4961389,18.8682431 L16.5113869,22.85953 C16.3924161,22.9304656 16.2574752,22.977402 16.1132447,22.9936586 C16.0421272,23.0016695 15.9703118,23.0021229 15.899046,22.9948978 C15.7685993,22.9818878 15.645558,22.9437468 15.5347928,22.8854304 L8.03146931,19.1337686 L1.49613894,22.8682431 C0.829482172,23.2491899 0,22.7678227 0,22 L0,6 C0,5.64114315 0.192286064,5.30979971 0.503861062,5.13175686 L7.48861308,1.14046999 Z M9,3.61803399 L9,17.381966 L15,20.381966 L15,6.61803399 L9,3.61803399 Z M7,3.72317968 L2,6.58032254 L2,20.2768203 L7,17.4196775 L7,3.72317968 Z" id="Combined-Shape" fill="#ADB5BD"></path>
    </g>
</svg>