<?xml version="1.0" encoding="UTF-8"?>
<svg width="24px" height="24px" viewBox="0 0 24 24" version="1.1" xmlns="http://www.w3.org/2000/svg" xmlns:xlink="http://www.w3.org/1999/xlink">
    <!-- Generator: Sketch 56.3 (81716) - https://sketch.com -->
    <title>Icon/refresh</title>
    <desc>Created with Sketch.</desc>
    <g id="Icon/refresh" stroke="none" stroke-width="1" fill="none" fill-rule="evenodd">
        <path d="M22,7.6881379 L22,4 C22,3.44771525 22.4477153,3 23,3 C23.5522847,3 24,3.44771525 24,4 L24,10 C24,10.5522847 23.5522847,11 23,11 L17,11 C16.4477153,11 16,10.5522847 16,10 C16,9.44771525 16.4477153,9 17,9 L20.4757326,9 L17.6527161,6.34692957 C15.7108857,4.40412578 12.9080994,3.59341693 10.2289709,4.19960358 C7.54984242,4.80579023 5.36905528,6.74409548 4.45271605,9.33359624 C4.26847594,9.85424393 3.69705146,10.1269562 3.17640376,9.94271605 C2.65575607,9.75847594 2.38304384,9.18705146 2.56728395,8.66640376 C3.71270799,5.42952783 6.43869191,3.00664626 9.78760253,2.24891295 C13.1365131,1.49117964 16.639996,2.50456569 19.0447766,4.91124694 L22,7.6881379 Z M2,16.3118621 L2,20 C2,20.5522847 1.55228475,21 1,21 C0.44771525,21 -4.29323244e-13,20.5522847 -4.29323244e-13,20 L-4.29323244e-13,14 C-4.29323244e-13,13.4477153 0.44771525,13 1,13 L7,13 C7.55228475,13 8,13.4477153 8,14 C8,14.5522847 7.55228475,15 7,15 L3.52426736,15 L6.34728395,17.6530704 C8.28911431,19.5958742 11.0919006,20.4065831 13.7710291,19.8003964 C16.4501576,19.1942098 18.6309447,17.2559045 19.5472839,14.6664038 C19.7315241,14.1457561 20.3029485,13.8730438 20.8235962,14.0572839 C21.3442439,14.2415241 21.6169562,14.8129485 21.4327161,15.3335962 C20.287292,18.5704722 17.5613081,20.9933537 14.2123975,21.7510871 C10.8634869,22.5088204 7.360004,21.4954343 4.95522341,19.0887531 L2,16.3118621 Z" id="Icon" fill="#ADB5BD"></path>
    </g>
</svg>