<?xml version="1.0" encoding="UTF-8"?>
<svg width="24px" height="24px" viewBox="0 0 24 24" version="1.1" xmlns="http://www.w3.org/2000/svg" xmlns:xlink="http://www.w3.org/1999/xlink">
    <!-- Generator: Sketch 56.3 (81716) - https://sketch.com -->
    <title>Icon/star</title>
    <desc>Created with Sketch.</desc>
    <g id="Icon/star" stroke="none" stroke-width="1" fill="none" fill-rule="evenodd">
        <path d="M15.7542614,7.3464661 L22.1446282,8.28051393 C22.9645429,8.40035674 23.2913263,9.40819801 22.6977328,9.98635811 L18.0745218,14.4893656 L19.1656086,20.8509567 C19.3057271,21.6679189 18.4481783,22.2908819 17.7145487,21.9050735 L12,18.8998497 L6.28545128,21.9050735 C5.55182171,22.2908819 4.69427286,21.6679189 4.83439138,20.8509567 L5.92547821,14.4893656 L1.3022672,9.98635811 C0.708673672,9.40819801 1.03545711,8.40035674 1.85537179,8.28051393 L8.24573863,7.3464661 L11.1032927,1.55737608 C11.470128,0.814207972 12.529872,0.814207972 12.8967073,1.55737608 L15.7542614,7.3464661 Z M14.9453718,9.24948607 C14.6200176,9.20193068 14.3388324,8.99747141 14.1932927,8.70262392 L12,4.25925434 L9.80670735,8.70262392 C9.66116761,8.99747141 9.3799824,9.20193068 9.05462821,9.24948607 L4.14841166,9.9666031 L7.6977328,13.4236419 C7.93360653,13.6533829 8.04126916,13.9845141 7.98560862,14.3090433 L7.14818079,19.1916734 L11.5345487,16.8849265 C11.8259316,16.7316912 12.1740684,16.7316912 12.4654513,16.8849265 L16.8518192,19.1916734 L16.0143914,14.3090433 C15.9587308,13.9845141 16.0663935,13.6533829 16.3022672,13.4236419 L19.8515883,9.9666031 L14.9453718,9.24948607 Z" id="Icon" fill="#ADB5BD"></path>
    </g>
</svg>