<?xml version="1.0" encoding="UTF-8"?>
<svg width="24px" height="24px" viewBox="0 0 24 24" version="1.1" xmlns="http://www.w3.org/2000/svg" xmlns:xlink="http://www.w3.org/1999/xlink">
    <!-- Generator: Sketch 56.3 (81716) - https://sketch.com -->
    <title>Icon/tag</title>
    <desc>Created with Sketch.</desc>
    <g id="Icon/tag" stroke="none" stroke-width="1" fill="none" fill-rule="evenodd">
        <path d="M4,12.5857864 L12.2928932,20.8786797 C12.6834175,21.2692039 13.3165825,21.2692039 13.7071068,20.8786797 L20.8786797,13.7071068 C21.2692039,13.3165825 21.2692039,12.6834175 20.8786797,12.2928932 C20.4881554,11.9023689 20.4881554,11.2692039 20.8786797,10.8786797 C21.2692039,10.4881554 21.9023689,10.4881554 22.2928932,10.8786797 C23.4644661,12.0502525 23.4644661,13.9497475 22.2928932,15.1213203 L15.1213203,22.2928932 C13.9497475,23.4644661 12.0502525,23.4644661 10.8786797,22.2928932 L2.29289322,13.7071068 C2.10535684,13.5195704 2,13.2652165 2,13 L2,3 C2,2.44771525 2.44771525,2 3,2 L13,2 C13.2652165,2 13.5195704,2.10535684 13.7071068,2.29289322 L19.7071068,8.29289322 C20.0976311,8.68341751 20.0976311,9.31658249 19.7071068,9.70710678 C19.3165825,10.0976311 18.6834175,10.0976311 18.2928932,9.70710678 L12.5857864,4 L4,4 L4,12.5857864 Z M8.5,11 C7.11928813,11 6,9.88071187 6,8.5 C6,7.11928813 7.11928813,6 8.5,6 C9.88071187,6 11,7.11928813 11,8.5 C11,9.88071187 9.88071187,11 8.5,11 Z M8.5,9 C8.77614237,9 9,8.77614237 9,8.5 C9,8.22385763 8.77614237,8 8.5,8 C8.22385763,8 8,8.22385763 8,8.5 C8,8.77614237 8.22385763,9 8.5,9 Z" id="Icon" fill="#ADB5BD"></path>
    </g>
</svg>