<?xml version="1.0" encoding="UTF-8"?>
<svg width="24px" height="24px" viewBox="0 0 24 24" version="1.1" xmlns="http://www.w3.org/2000/svg" xmlns:xlink="http://www.w3.org/1999/xlink">
    <!-- Generator: Sketch 56.3 (81716) - https://sketch.com -->
    <title>Icon/thumb-up-full</title>
    <desc>Created with Sketch.</desc>
    <g id="Icon/thumb-up-full" stroke="none" stroke-width="1" fill="none" fill-rule="evenodd">
        <path d="M6.35012691,10 L10.0861885,1.59386153 C10.2466898,1.23273352 10.6048113,1 11,1 C13.209139,1 15,2.790861 15,5 L15,8.00001135 L19.6486763,8.00006412 C20.5288038,7.99009715 21.368906,8.36714393 21.946464,9.03133562 C22.524022,9.69552732 22.7807603,10.5798471 22.6484478,11.451562 L21.2686957,20.4499361 C21.044698,21.9270023 19.7681677,23.0138346 18.2749083,23.0001306 L7,23.0001306 L4,23.0001306 C2.34314575,23.0001306 1,21.6568542 1,20 L1,13 C1,11.3431458 2.34314575,10 4,10 L6.35012691,10 Z M4,12 C3.44771525,12 3,12.4477153 3,13 L3,20 C3,20.5522847 3.44771525,21 4,21 L6,21 L6,12 L4,12 Z" id="Icon" fill="#ADB5BD"></path>
    </g>
</svg>