<?xml version="1.0" encoding="UTF-8"?>
<svg width="24px" height="24px" viewBox="0 0 24 24" version="1.1" xmlns="http://www.w3.org/2000/svg" xmlns:xlink="http://www.w3.org/1999/xlink">
    <!-- Generator: Sketch 56.3 (81716) - https://sketch.com -->
    <title>Icon/thumb-up</title>
    <desc>Created with Sketch.</desc>
    <g id="Icon/thumb-up" stroke="none" stroke-width="1" fill="none" fill-rule="evenodd">
        <path d="M7.70710678,22.7071068 C7.52614237,22.8880712 7.27614237,23 7,23 L4,23 C2.34314575,23 1,21.6568542 1,20 L1,13 C1,11.3431458 2.34314575,10 4,10 L6.35012691,10 L10.0861885,1.59386153 C10.2466898,1.23273352 10.6048113,1 11,1 C13.209139,1 15,2.790861 15,5 L15,8.00001135 L19.6486763,8.00006412 C20.5288038,7.99009715 21.368906,8.36714393 21.946464,9.03133562 C22.524022,9.69552732 22.7807603,10.5798471 22.6484478,11.451562 L21.2686957,20.4499361 C21.0443874,21.9290503 19.7646258,23.0168476 18.2800352,23 L11.0000352,23.0002564 C10.4477505,23.0002564 10.0000195,22.5525763 10,22.0002916 C9.99998055,21.4480068 10.44768,21.0002758 10.9999648,21.0002564 L18.2913043,21.0000639 C18.7899477,21.0057011 19.2165349,20.643102 19.2915522,20.148438 L20.6713237,11.1499359 C20.7153517,10.8598635 20.6297723,10.5650903 20.437253,10.3436931 C20.2447337,10.1222958 19.9646996,9.99661356 19.66,10 L14,10 C13.4477153,10 13,9.55228475 13,9 L13,5 C13,4.107435 12.4153102,3.35143161 11.6080478,3.09410694 L8,11.2122145 L8,22 C8,22.2761424 7.88807119,22.5261424 7.70710678,22.7071068 Z M6,12 L4,12 C3.44771525,12 3,12.4477153 3,13 L3,20 C3,20.5522847 3.44771525,21 4,21 L6,21 L6,12 Z" id="Icon" fill="#ADB5BD"></path>
    </g>
</svg>