<?xml version="1.0" encoding="UTF-8"?>
<svg width="24px" height="24px" viewBox="0 0 24 24" version="1.1" xmlns="http://www.w3.org/2000/svg" xmlns:xlink="http://www.w3.org/1999/xlink">
    <!-- Generator: Sketch 56.2 (81672) - https://sketch.com -->
    <title>Icon/user</title>
    <desc>Created with Sketch.</desc>
    <g id="Icon/user" stroke="none" stroke-width="1" fill="none" fill-rule="evenodd">
        <g id="user" transform="translate(3.000000, 2.000000)" fill="#ADB5BD">
            <path d="M18,19 C18,19.5522847 17.5522847,20 17,20 C16.4477153,20 16,19.5522847 16,19 L16,17 C16,15.3431458 14.6568542,14 13,14 L5,14 C3.34314575,14 2,15.3431458 2,17 L2,19 C2,19.5522847 1.55228475,20 1,20 C0.44771525,20 0,19.5522847 0,19 L0,17 C0,14.2385763 2.23857625,12 5,12 L13,12 C15.7614237,12 18,14.2385763 18,17 L18,19 Z M11.5088166,0.674213215 C11.986359,0.951650912 12.148576,1.56368323 11.8711383,2.04122566 C11.5937006,2.51876808 10.9816683,2.68098502 10.5041258,2.40354732 C10.0511944,2.14040787 9.53703032,2 9,2 C7.34314575,2 6,3.34314575 6,5 C6,6.65685425 7.34314575,8 9,8 C10.6568542,8 12,6.65685425 12,5 C12,4.44771525 12.4477153,4 13,4 C13.5522847,4 14,4.44771525 14,5 C14,7.76142375 11.7614237,10 9,10 C6.23857625,10 4,7.76142375 4,5 C4,2.23857625 6.23857625,0 9,0 C9.89233552,0 10.7527516,0.234962322 11.5088166,0.674213215 Z" id="Combined-Shape"></path>
        </g>
    </g>
</svg>