<?xml version="1.0" encoding="UTF-8"?>
<svg width="24px" height="24px" viewBox="0 0 24 24" version="1.1" xmlns="http://www.w3.org/2000/svg" xmlns:xlink="http://www.w3.org/1999/xlink">
    <!-- Generator: Sketch 56.3 (81716) - https://sketch.com -->
    <title>Icon/website</title>
    <desc>Created with Sketch.</desc>
    <g id="Icon/website" stroke="none" stroke-width="1" fill="none" fill-rule="evenodd">
        <path d="M3.05492878,11 L7.05009108,11 C7.27429644,8.23681286 8.19910201,5.58442252 9.72570821,3.28982801 C6.16880856,4.21597105 3.46800699,7.26323681 3.05492878,11 Z M3.05492878,13 C3.46801932,16.7368747 6.16896977,19.7842108 9.72602666,20.7102549 C8.20509608,18.4230534 7.28142738,15.7763788 7.05270625,13 L3.05492878,13 Z M14.2740579,20.7105235 C15.0479349,20.5091772 15.7900087,20.2050527 16.4842343,19.8052528 C16.9628285,19.5296336 17.5742394,19.6941773 17.8498587,20.1727716 C18.1254779,20.6513658 17.9609342,21.2627767 17.48234,21.538396 C15.8280851,22.4910704 13.9499566,23 12,23 C5.92486775,23 1,18.0751322 1,12 C1,5.92486775 5.92486775,1 12,1 C18.0751322,1 23,5.92486775 23,12 C23,13.9477573 22.4922199,15.8238659 21.5415799,17.4768075 C21.2662387,17.9555617 20.6549235,18.1204606 20.1761693,17.8451194 C19.697415,17.5697782 19.5325161,16.958463 19.8078573,16.4797087 C20.4212342,15.4131891 20.8088967,14.2339165 20.9451344,13 L16.9499089,13 C16.7256921,15.7633282 15.8008035,18.4158483 14.2740579,20.7105235 Z M20.9450712,11 C20.5319807,7.26312529 17.8310302,4.21578917 14.2739733,3.28974509 C15.7949039,5.57694661 16.7185726,8.2236212 16.9472937,11 L20.9450712,11 Z M9.05477268,11 L14.9424085,11 C14.6912106,8.28681689 13.6696691,5.70191092 11.9999781,3.5507682 C10.3239942,5.70963618 9.30106448,8.30264362 9.05477268,11 Z M14.9452273,13 L9.05759154,13 C9.30878935,15.7131831 10.3303309,18.2980891 12.0000219,20.4492318 C13.6760058,18.2903638 14.6989355,15.6973564 14.9452273,13 Z" id="Icon" fill="#ADB5BD"></path>
    </g>
</svg>