<?xml version="1.0" encoding="utf-8"?>
<!-- Generator: Adobe Illustrator 16.0.3, SVG Export Plug-In . SVG Version: 6.00 Build 0)  -->
<!DOCTYPE svg PUBLIC "-//W3C//DTD SVG 1.1//EN" "http://www.w3.org/Graphics/SVG/1.1/DTD/svg11.dtd">
<svg version="1.1" id="Layer_1" xmlns="http://www.w3.org/2000/svg" xmlns:xlink="http://www.w3.org/1999/xlink" x="0px" y="0px"
	 width="60px" height="125px" viewBox="0 0 60 125" enable-background="new 0 0 60 125" xml:space="preserve">
<path id="path-1" fill="#FFFFFF" d="M30,125c-16.6,0-30-13.4-30-30s13.4-30,30-30c16.6,0,30,13.4,30,30S46.6,125,30,125z
	 M25.8,111.3h6.7V95H37l0.6-5.6h-5.1V86.6c0-1.5,0.1-2.3,2.2-2.3h2.8v-5.6H33c-5.4,0-7.3,2.7-7.3,7.3v3.4h-3.4V95h3.4v16.3H25.8z"/>
<g id="Symbols">
	<g id="atom_x2F_social_x2F_facebook">
		<g id="atom_x2F_color_x2F_white">
			<g id="Mask">
				<path id="path-1_1_" fill="#FFFFFF" d="M30,125c-16.6,0-30-13.4-30-30s13.4-30,30-30c16.6,0,30,13.4,30,30S46.6,125,30,125z
					 M25.8,111.3h6.7V95H37l0.6-5.6h-5.1V86.6c0-1.5,0.1-2.3,2.2-2.3h2.8v-5.6H33c-5.4,0-7.3,2.7-7.3,7.3v3.4h-3.4V95h3.4v16.3H25.8
					z"/>
			</g>
		</g>
	</g>
</g>
<path id="path-1_3_" d="M30,60C13.4,60,0,46.6,0,30C0,13.4,13.4,0,30,0c16.6,0,30,13.4,30,30C60,46.6,46.6,60,30,60z M25.8,46.3h6.7
	V30H37l0.6-5.6h-5.1v-2.8c0-1.5,0.1-2.3,2.2-2.3h2.8v-5.6H33c-5.4,0-7.3,2.7-7.3,7.3v3.4h-3.4V30h3.4v16.3H25.8z"/>
<g id="Symbols_1_">
	<g id="atom_x2F_social_x2F_facebook_1_">
		<g id="atom_x2F_color_x2F_white_1_">
			<g id="Mask_1_">
				<path id="path-1_2_" d="M30,60C13.4,60,0,46.6,0,30C0,13.4,13.4,0,30,0c16.6,0,30,13.4,30,30C60,46.6,46.6,60,30,60z M25.8,46.3
					h6.7V30H37l0.6-5.6h-5.1v-2.8c0-1.5,0.1-2.3,2.2-2.3h2.8v-5.6H33c-5.4,0-7.3,2.7-7.3,7.3v3.4h-3.4V30h3.4v16.3H25.8z"/>
			</g>
		</g>
	</g>
</g>
</svg>
