<svg id="Layer_1" xmlns="http://www.w3.org/2000/svg" viewBox="0 0 60 60">
  <style>
    .st0{fill:#FFFFFF;}
  </style>
  <path id="path-1" class="st0" d="M30 60C13.4 60 0 46.6 0 30S13.4 0 30 0s30 13.4 30 30-13.4 30-30 30zm-4.2-13.7h6.7V30H37l.6-5.6h-5.1v-2.8c0-1.5.1-2.3 2.2-2.3h2.8v-5.6H33c-5.4 0-7.3 2.7-7.3 7.3v3.4h-3.4V30h3.4v16.3z"/>
  <g id="Symbols">
    <g id="atom_x2F_social_x2F_facebook">
      <g id="atom_x2F_color_x2F_white">
        <g id="Mask">
          <path id="path-1_1_" d="M30 60C13.4 60 0 46.6 0 30S13.4 0 30 0s30 13.4 30 30-13.4 30-30 30zm-4.2-13.7h6.7V30H37l.6-5.6h-5.1v-2.8c0-1.5.1-2.3 2.2-2.3h2.8v-5.6H33c-5.4 0-7.3 2.7-7.3 7.3v3.4h-3.4V30h3.4v16.3z"/>
        </g>
      </g>
    </g>
  </g>
</svg>
