<svg id="Layer_1" xmlns="http://www.w3.org/2000/svg" viewBox="0 0 60 60">
  <style>
    .st0{fill:#FFFFFF;}
  </style>
  <path id="path-1" class="st0" d="M15.6 44.1h6.8V23.7h-6.8v20.4zM30 60C13.4 60 0 46.6 0 30S13.4 0 30 0s30 13.4 30 30-13.4 30-30 30zM19 20.9c2.4 0 3.8-1.6 3.8-3.5 0-2-1.5-3.5-3.8-3.5s-3.8 1.5-3.8 3.5 1.4 3.5 3.8 3.5zm27.8 23.2V32.4c0-6.3-3.4-9.2-7.8-9.2-3.6 0-5.2 2-6.1 3.4v-2.9h-6.8c.1 1.9 0 20.4 0 20.4h6.8V32.7c0-.6 0-1.2.2-1.7.5-1.2 1.6-2.5 3.5-2.5 2.5 0 3.4 1.9 3.4 4.6V44l6.8.1z"/>
  <g id="Symbols">
    <g id="atom_x2F_social_x2F_linkedin">
      <g id="atom_x2F_color_x2F_white">
        <g id="Mask">
          <path id="path-1_1_" d="M15.6 44.1h6.8V23.7h-6.8v20.4zM30 60C13.4 60 0 46.6 0 30S13.4 0 30 0s30 13.4 30 30-13.4 30-30 30zM19 20.9c2.4 0 3.8-1.6 3.8-3.5 0-2-1.5-3.5-3.8-3.5s-3.8 1.5-3.8 3.5 1.4 3.5 3.8 3.5zm27.8 23.2V32.4c0-6.3-3.4-9.2-7.8-9.2-3.6 0-5.2 2-6.1 3.4v-2.9h-6.8c.1 1.9 0 20.4 0 20.4h6.8V32.7c0-.6 0-1.2.2-1.7.5-1.2 1.6-2.5 3.5-2.5 2.5 0 3.4 1.9 3.4 4.6V44l6.8.1z"/>
        </g>
      </g>
    </g>
  </g>
</svg>
