<svg aria-hidden="true" style="position: absolute; width: 0; height: 0; overflow: hidden;" version="1.1" xmlns="http://www.w3.org/2000/svg" xmlns:xlink="http://www.w3.org/1999/xlink">
<defs>
<symbol id="icon-arrow-left" viewBox="0 0 24 24">
<title>arrow-left</title>
<path fill="#adb5bd" style="fill: var(--color1, #adb5bd)" d="M3.073 11.624c-0.146 0.361-0.073 0.791 0.22 1.083l6 6c0.391 0.391 1.024 0.391 1.414 0s0.391-1.024 0-1.414l-4.293-4.293h13.586c0.552 0 1-0.448 1-1s-0.448-1-1-1h-16c-0.414 0-0.77 0.252-0.921 0.611zM10.707 6.707c0.391-0.391 0.391-1.024 0-1.414s-1.024-0.391-1.414 0l-3.035 3.035c-0.391 0.391-0.391 1.024 0 1.414s1.024 0.391 1.414 0l3.035-3.035z"></path>
</symbol>
<symbol id="icon-arrow-right" viewBox="0 0 24 24">
<title>arrow-right</title>
<path fill="#adb5bd" style="fill: var(--color1, #adb5bd)" d="M20.927 11.624c0.146 0.361 0.073 0.791-0.22 1.083l-6 6c-0.391 0.391-1.024 0.391-1.414 0s-0.391-1.024 0-1.414l4.293-4.293h-13.586c-0.552 0-1-0.448-1-1s0.448-1 1-1h16c0.414 0 0.77 0.252 0.921 0.611zM13.293 6.707c-0.391-0.391-0.391-1.024 0-1.414s1.024-0.391 1.414 0l3.035 3.035c0.391 0.391 0.391 1.024 0 1.414s-1.024 0.391-1.414 0l-3.035-3.035z"></path>
</symbol>
<symbol id="icon-calendar" viewBox="0 0 24 24">
<title>calendar</title>
<path fill="#adb5bd" style="fill: var(--color1, #adb5bd)" d="M20 10h-16v9c0 0.552 0.448 1 1 1h14c0.552 0 1-0.448 1-1v-2c0-0.552 0.448-1 1-1s1 0.448 1 1v2c0 1.657-1.343 3-3 3h-14c-1.657 0-3-1.343-3-3v-14c0-1.657 1.343-3 3-3h2v-1c0-0.552 0.448-1 1-1s1 0.448 1 1v1h6v-1c0-0.552 0.448-1 1-1s1 0.448 1 1v1h2c1.657 0 3 1.343 3 3v8c0 0.552-0.448 1-1 1s-1-0.448-1-1v-3zM20 8v-3c0-0.552-0.448-1-1-1h-2v1c0 0.552-0.448 1-1 1s-1-0.448-1-1v-1h-6v1c0 0.552-0.448 1-1 1s-1-0.448-1-1v-1h-2c-0.552 0-1 0.448-1 1v3h16z"></path>
</symbol>
<symbol id="icon-check-circle-full" viewBox="0 0 24 24">
<title>check-circle-full</title>
<path fill="#adb5bd" style="fill: var(--color1, #adb5bd)" d="M12 23c-6.075 0-11-4.925-11-11s4.925-11 11-11c6.075 0 11 4.925 11 11s-4.925 11-11 11zM15.293 9.293l-4.293 4.293-1.293-1.293c-0.391-0.391-1.024-0.391-1.414 0s-0.391 1.024 0 1.414l2 2c0.391 0.391 1.024 0.391 1.414 0l5-5c0.391-0.391 0.391-1.024 0-1.414s-1.024-0.391-1.414 0z"></path>
</symbol>
<symbol id="icon-check-circle" viewBox="0 0 24 24">
<title>check-circle</title>
<path fill="#adb5bd" style="fill: var(--color1, #adb5bd)" d="M21.542 17.477c-0.275 0.479-0.887 0.644-1.365 0.368s-0.644-0.887-0.368-1.365c0.777-1.352 1.192-2.884 1.192-4.48 0-4.971-4.029-9-9-9s-9 4.029-9 9c0 4.971 4.029 9 9 9 1.597 0 3.132-0.416 4.484-1.195 0.479-0.276 1.090-0.111 1.366 0.368s0.111 1.090-0.368 1.366c-1.654 0.953-3.532 1.462-5.482 1.462-6.075 0-11-4.925-11-11s4.925-11 11-11c6.075 0 11 4.925 11 11 0 1.948-0.508 3.824-1.458 5.477zM15.293 9.293c0.391-0.391 1.024-0.391 1.414 0s0.391 1.024 0 1.414l-5 5c-0.391 0.391-1.024 0.391-1.414 0l-2-2c-0.391-0.391-0.391-1.024 0-1.414s1.024-0.391 1.414 0l1.293 1.293 4.293-4.293z"></path>
</symbol>
<symbol id="icon-check" viewBox="0 0 24 24">
<title>check</title>
<path fill="#adb5bd" style="fill: var(--color1, #adb5bd)" d="M19.293 6.293c0.391-0.391 1.024-0.391 1.414 0s0.391 1.024 0 1.414l-7.948 7.948c-0.391 0.391-1.024 0.391-1.414 0s-0.391-1.024 0-1.414l7.948-7.948zM9.707 17.293c0.391 0.391 0.391 1.024 0 1.414s-1.024 0.391-1.414 0l-5-5c-0.391-0.391-0.391-1.024 0-1.414s1.024-0.391 1.414 0l5 5z"></path>
</symbol>
<symbol id="icon-chevron-down" viewBox="0 0 24 24">
<title>chevron-down</title>
<path fill="#adb5bd" style="fill: var(--color1, #adb5bd)" d="M12 12.586l3.293-3.293c0.391-0.391 1.024-0.391 1.414 0s0.391 1.024 0 1.414l-4 4c-0.391 0.391-1.024 0.391-1.414 0l-4-4c-0.391-0.391-0.391-1.024 0-1.414s1.024-0.391 1.414 0l3.293 3.293z"></path>
</symbol>
<symbol id="icon-chevron-left" viewBox="0 0 24 24">
<title>chevron-left</title>
<path fill="#adb5bd" style="fill: var(--color1, #adb5bd)" d="M11.414 12l3.293-3.293c0.391-0.391 0.391-1.024 0-1.414s-1.024-0.391-1.414 0l-4 4c-0.391 0.391-0.391 1.024 0 1.414l4 4c0.391 0.391 1.024 0.391 1.414 0s0.391-1.024 0-1.414l-3.293-3.293z"></path>
</symbol>
<symbol id="icon-chevron-right" viewBox="0 0 24 24">
<title>chevron-right</title>
<path fill="#adb5bd" style="fill: var(--color1, #adb5bd)" d="M12.586 12l-3.293-3.293c-0.391-0.391-0.391-1.024 0-1.414s1.024-0.391 1.414 0l4 4c0.391 0.391 0.391 1.024 0 1.414l-4 4c-0.391 0.391-1.024 0.391-1.414 0s-0.391-1.024 0-1.414l3.293-3.293z"></path>
</symbol>
<symbol id="icon-chevron-up" viewBox="0 0 24 24">
<title>chevron-up</title>
<path fill="#adb5bd" style="fill: var(--color1, #adb5bd)" d="M12 11.414l3.293 3.293c0.391 0.391 1.024 0.391 1.414 0s0.391-1.024 0-1.414l-4-4c-0.391-0.391-1.024-0.391-1.414 0l-4 4c-0.391 0.391-0.391 1.024 0 1.414s1.024 0.391 1.414 0l3.293-3.293z"></path>
</symbol>
<symbol id="icon-clock" viewBox="0 0 24 24">
<title>clock</title>
<path fill="#adb5bd" style="fill: var(--color1, #adb5bd)" d="M21.542 17.477c-0.275 0.479-0.887 0.644-1.365 0.368s-0.644-0.887-0.368-1.365c0.777-1.352 1.192-2.884 1.192-4.48 0-4.971-4.029-9-9-9s-9 4.029-9 9c0 4.971 4.029 9 9 9 1.597 0 3.132-0.416 4.484-1.195 0.479-0.276 1.090-0.111 1.366 0.368s0.111 1.090-0.368 1.366c-1.654 0.953-3.532 1.462-5.482 1.462-6.075 0-11-4.925-11-11s4.925-11 11-11c6.075 0 11 4.925 11 11 0 1.948-0.508 3.824-1.458 5.477zM13 6v5.586l2.707 2.707c0.391 0.391 0.391 1.024 0 1.414s-1.024 0.391-1.414 0l-3-3c-0.188-0.188-0.293-0.442-0.293-0.707v-6c0-0.552 0.448-1 1-1s1 0.448 1 1z"></path>
</symbol>
<symbol id="icon-copyright" viewBox="0 0 24 24">
<title>copyright</title>
<path fill="#adb5bd" style="fill: var(--color1, #adb5bd)" d="M12 23c6.075 0 11-4.925 11-11s-4.925-11-11-11c-6.075 0-11 4.925-11 11s4.925 11 11 11zM12 21c-4.971 0-9-4.029-9-9s4.029-9 9-9c4.971 0 9 4.029 9 9s-4.029 9-9 9zM15.536 8.464c-1.953-1.953-5.118-1.953-7.071 0s-1.953 5.118 0 7.071c1.953 1.953 5.118 1.953 7.071 0 0.391-0.391 0.391-1.024 0-1.414s-1.024-0.391-1.414 0c-1.172 1.172-3.071 1.172-4.243 0s-1.172-3.071 0-4.243c1.172-1.172 3.071-1.172 4.243 0 0.391 0.391 1.024 0.391 1.414 0s0.391-1.024 0-1.414z"></path>
</symbol>
<symbol id="icon-dot" viewBox="0 0 24 24">
<title>dot</title>
<path fill="#adb5bd" style="fill: var(--color1, #adb5bd)" d="M16 12c0 2.209-1.791 4-4 4s-4-1.791-4-4c0-2.209 1.791-4 4-4s4 1.791 4 4z"></path>
</symbol>
<symbol id="icon-email" viewBox="0 0 24 24">
<title>email</title>
<path fill="#adb5bd" style="fill: var(--color1, #adb5bd)" d="M1 6.012c0-0.010 0-0.020 0-0.030 0.010-1.644 1.354-2.983 3-2.983h16c1.647 0 2.991 1.338 3 2.983 0 0.010 0 0.020 0 0.030v11.988c0 1.652-1.348 3-3 3h-2c-0.552 0-1-0.448-1-1s0.448-1 1-1h2c0.548 0 1-0.452 1-1v-10.079l-8.427 5.899c-0.344 0.241-0.803 0.241-1.147 0l-8.427-5.899v10.079c0 0.548 0.452 1 1 1h10c0.552 0 1 0.448 1 1s-0.448 1-1 1h-10c-1.652 0-3-1.348-3-3v-11.988zM20 5h-16c-0.388 0-0.728 0.227-0.893 0.554l8.893 6.225 8.893-6.225c-0.165-0.327-0.505-0.554-0.893-0.554z"></path>
</symbol>
<symbol id="icon-external-link" viewBox="0 0 24 24">
<title>external-link</title>
<path fill="#adb5bd" style="fill: var(--color1, #adb5bd)" d="M20.586 2h-5.586c-0.552 0-1-0.448-1-1s0.448-1 1-1h8c0.552 0 1 0.448 1 1v8c0 0.552-0.448 1-1 1s-1-0.448-1-1v-5.586l-9.293 9.293c-0.391 0.391-1.024 0.391-1.414 0s-0.391-1.024 0-1.414l9.293-9.293zM19 12c0-0.552 0.448-1 1-1s1 0.448 1 1v6c0 1.657-1.343 3-3 3h-12c-1.657 0-3-1.343-3-3v-12c0-1.657 1.343-3 3-3h6c0.552 0 1 0.448 1 1s-0.448 1-1 1h-6c-0.552 0-1 0.448-1 1v12c0 0.552 0.448 1 1 1h12c0.552 0 1-0.448 1-1v-6z"></path>
</symbol>
<symbol id="icon-eye-off" viewBox="0 0 24 24">
<title>eye-off</title>
<path fill="#adb5bd" style="fill: var(--color1, #adb5bd)" d="M16.371 17.786l-2.322-2.322c-0.915 0.574-2.039 0.761-3.114 0.486-1.417-0.362-2.524-1.469-2.886-2.886-0.275-1.075-0.087-2.199 0.486-3.114l-2.549-2.549c-1.537 1.3-2.838 2.857-3.845 4.602 0.125 0.217 0.27 0.453 0.432 0.704 0.575 0.89 1.254 1.781 2.030 2.609 2.172 2.316 4.65 3.684 7.379 3.684 1.548-0.025 3.058-0.446 4.388-1.215zM18.635 17.221c0.007 0.007 0.015 0.014 0.022 0.022l5.050 5.050c0.391 0.391 0.391 1.024 0 1.414s-1.024 0.391-1.414 0l-4.467-4.467c-1.73 1.113-3.743 1.726-5.826 1.76-3.38 0-6.339-1.632-8.855-4.316-0.864-0.922-1.615-1.906-2.251-2.891-0.384-0.595-0.648-1.064-0.789-1.345-0.145-0.291-0.14-0.634 0.013-0.92 1.132-2.109 2.641-3.988 4.45-5.544l-4.276-4.276c-0.391-0.391-0.391-1.024 0-1.414s1.024-0.391 1.414 0l5.048 5.048c0.007 0.007 0.014 0.014 0.022 0.022l3.806 3.806c0.002 0.002 0.005 0.005 0.007 0.007l4.234 4.234c0.002 0.002 0.005 0.005 0.007 0.007l3.804 3.804zM10.028 11.442c-0.119 0.358-0.137 0.749-0.041 1.128 0.181 0.709 0.734 1.262 1.443 1.443 0.379 0.097 0.77 0.079 1.128-0.041l-2.53-2.53zM21.426 11.293c-0.575-0.89-1.254-1.781-2.030-2.609-2.172-2.316-4.65-3.684-7.398-3.684-0.629-0.001-1.257 0.070-1.87 0.214-0.538 0.126-1.076-0.208-1.202-0.746s0.208-1.076 0.746-1.202c0.764-0.179 1.546-0.268 2.328-0.266 3.38 0 6.339 1.633 8.855 4.316 0.864 0.922 1.615 1.906 2.251 2.891 0.384 0.595 0.648 1.064 0.789 1.345 0.145 0.29 0.14 0.633-0.013 0.919-0.64 1.197-1.403 2.324-2.277 3.362-0.356 0.423-0.986 0.477-1.409 0.121s-0.477-0.986-0.121-1.409c0.669-0.795 1.266-1.648 1.783-2.548-0.126-0.217-0.27-0.453-0.432-0.705z"></path>
</symbol>
<symbol id="icon-eye" viewBox="0 0 24 24">
<title>eye</title>
<path fill="#adb5bd" style="fill: var(--color1, #adb5bd)" d="M2.574 12.707c0.575 0.89 1.254 1.781 2.030 2.609 2.172 2.316 4.65 3.684 7.395 3.684s5.224-1.368 7.395-3.684c0.776-0.828 1.455-1.719 2.030-2.609 0.163-0.253 0.308-0.49 0.434-0.707-0.126-0.218-0.271-0.455-0.434-0.707-0.575-0.89-1.254-1.781-2.030-2.609-2.172-2.316-4.65-3.684-7.395-3.684s-5.224 1.368-7.395 3.684c-0.776 0.828-1.455 1.719-2.030 2.609-0.163 0.253-0.308 0.49-0.434 0.707 0.126 0.218 0.271 0.455 0.434 0.707zM0.106 11.553c0.141-0.281 0.404-0.75 0.789-1.345 0.636-0.985 1.387-1.969 2.251-2.891 2.516-2.684 5.475-4.316 8.855-4.316s6.339 1.632 8.855 4.316c0.864 0.922 1.615 1.906 2.251 2.891 0.384 0.595 0.648 1.064 0.789 1.345s0.141 0.613 0 0.894c-0.141 0.281-0.404 0.75-0.789 1.345-0.636 0.985-1.387 1.969-2.251 2.891-2.516 2.684-5.475 4.316-8.855 4.316s-6.339-1.632-8.855-4.316c-0.864-0.922-1.615-1.906-2.251-2.891-0.384-0.595-0.648-1.064-0.789-1.345s-0.141-0.613 0-0.894zM12 16c-2.209 0-4-1.791-4-4s1.791-4 4-4c2.209 0 4 1.791 4 4s-1.791 4-4 4zM12 14c1.105 0 2-0.895 2-2s-0.895-2-2-2c-1.105 0-2 0.895-2 2s0.895 2 2 2z"></path>
</symbol>
<symbol id="icon-file-pdf" viewBox="0 0 24 24">
<title>file-pdf</title>
<path fill="#adb5bd" style="fill: var(--color1, #adb5bd)" d="M21 13h1c0.552 0 1 0.448 1 1s-0.448 1-1 1h-1v2c0 0.552-0.448 1-1 1s-1-0.448-1-1v-6c0-0.552 0.448-1 1-1h3c0.552 0 1 0.448 1 1s-0.448 1-1 1h-2v1zM15 4.414v2.586h2.586l-2.586-2.586zM20.707 7.293c0.63 0.63 0.184 1.707-0.707 1.707h-6c-0.552 0-1-0.448-1-1v-5h-7c-0.552 0-1 0.448-1 1v16c0 0.552 0.448 1 1 1h12c0.552 0 1-0.448 1-1s0.448-1 1-1c0.552 0 1 0.448 1 1 0 1.657-1.343 3-3 3h-12c-1.657 0-3-1.343-3-3v-16c0-1.657 1.343-3 3-3h8c0.133 0 0.263 0.026 0.383 0.076 0.126 0.053 0.234 0.126 0.324 0.217l6 6zM10 13c0-0.552-0.448-1-1-1v2c0.552 0 1-0.448 1-1zM9 17c0 1.333-2 1.333-2 0v-6c0-0.552 0.448-1 1-1h1c1.657 0 3 1.343 3 3s-1.343 3-3 3v1zM15 16c0.552 0 1-0.448 1-1v-2c0-0.552-0.448-1-1-1v4zM14 10h1c1.657 0 3 1.343 3 3v2c0 1.657-1.343 3-3 3h-1c-0.552 0-1-0.448-1-1v-6c0-0.552 0.448-1 1-1z"></path>
</symbol>
<symbol id="icon-file" viewBox="0 0 24 24">
<title>file</title>
<path fill="#adb5bd" style="fill: var(--color1, #adb5bd)" d="M15 4.414v2.586h2.586l-2.586-2.586zM20.707 7.293c0.63 0.63 0.184 1.707-0.707 1.707h-6c-0.552 0-1-0.448-1-1v-5h-7c-0.552 0-1 0.448-1 1v16c0 0.552 0.448 1 1 1h12c0.552 0 1-0.448 1-1v-8c0-0.552 0.448-1 1-1s1 0.448 1 1v8c0 1.657-1.343 3-3 3h-12c-1.657 0-3-1.343-3-3v-16c0-1.657 1.343-3 3-3h8c0.133 0 0.263 0.026 0.383 0.076 0.126 0.053 0.234 0.126 0.324 0.217l6 6z"></path>
</symbol>
<symbol id="icon-fill" viewBox="0 0 24 24">
<title>fill</title>
<path fill="#adb5bd" style="fill: var(--color1, #adb5bd)" d="M16 8.414l-7 7v2.586h2.586l7-7-2.586-2.586zM17.414 7l2.586 2.586 1.586-1.586-2.586-2.586-1.586 1.586zM12.707 19.707c-0.188 0.188-0.442 0.293-0.707 0.293h-4c-0.552 0-1-0.448-1-1v-4c0-0.265 0.105-0.52 0.293-0.707l11-11c0.391-0.391 1.024-0.391 1.414 0l4 4c0.391 0.391 0.391 1.024 0 1.414l-11 11zM16 0c0.552 0 1 0.448 1 1s-0.448 1-1 1h-10c-0.552 0-1 0.448-1 1v18c0 0.552 0.448 1 1 1h12c0.552 0 1-0.448 1-1v-4c0-0.552 0.448-1 1-1s1 0.448 1 1v4c0 1.657-1.343 3-3 3h-12c-1.657 0-3-1.343-3-3v-18c0-1.657 1.343-3 3-3h10z"></path>
</symbol>
<symbol id="icon-generic" viewBox="0 0 24 24">
<title>generic</title>
<path fill="#adb5bd" style="fill: var(--color1, #adb5bd)" d="M20.124 4.501l-1.562 1.249c-0.367-0.458-0.93-0.751-1.562-0.751-1.105 0-2 0.895-2 2s0.895 2 2 2c0.632 0 1.195-0.293 1.562-0.751l1.562 1.249c-0.733 0.915-1.86 1.501-3.124 1.501-2.209 0-4-1.791-4-4s1.791-4 4-4c1.264 0 2.391 0.586 3.124 1.501zM8 9h3v2h-8v-2h3v-4h-3v-2h8v2h-3v4zM7 13c2.209 0 4 1.791 4 4s-1.791 4-4 4c-2.209 0-4-1.791-4-4s1.791-4 4-4zM7 15c-1.105 0-2 0.895-2 2s0.895 2 2 2c1.105 0 2-0.895 2-2s-0.895-2-2-2zM19 21v-4c0-1.105-0.895-2-2-2s-2 0.895-2 2v4h-2v-8h2v1l0.293-0.293c0.453-0.453 1.067-0.707 1.707-0.707 2.209 0 4 1.791 4 4v4h-2z"></path>
</symbol>
<symbol id="icon-help" viewBox="0 0 24 24">
<title>help</title>
<path fill="#adb5bd" style="fill: var(--color1, #adb5bd)" d="M21.542 17.477c-0.275 0.479-0.887 0.644-1.365 0.368s-0.644-0.887-0.368-1.365c0.777-1.352 1.192-2.884 1.192-4.48 0-4.971-4.029-9-9-9s-9 4.029-9 9c0 4.971 4.029 9 9 9 1.597 0 3.132-0.416 4.484-1.195 0.479-0.276 1.090-0.111 1.366 0.368s0.111 1.090-0.368 1.366c-1.654 0.953-3.532 1.462-5.482 1.462-6.075 0-11-4.925-11-11s4.925-11 11-11c6.075 0 11 4.925 11 11 0 1.948-0.508 3.824-1.458 5.477zM10.044 9.337c-0.183 0.521-0.754 0.795-1.275 0.611s-0.795-0.754-0.611-1.275c0.647-1.84 2.527-2.945 4.45-2.615s3.327 1.998 3.324 3.947c0 1.28-0.758 2.291-1.945 3.082-0.649 0.433-1.286 0.716-1.738 0.867-0.524 0.175-1.090-0.109-1.265-0.632s0.109-1.090 0.632-1.265c0.065-0.022 0.199-0.073 0.379-0.153 0.303-0.135 0.606-0.296 0.883-0.481 0.688-0.459 1.055-0.948 1.055-1.419 0.001-0.975-0.701-1.809-1.662-1.974s-1.901 0.388-2.225 1.308zM11.303 17.712c-0.391-0.391-0.391-1.024 0-1.414s1.024-0.391 1.414 0c0.391 0.391 0.391 1.024 0 1.414s-1.024 0.391-1.414 0z"></path>
</symbol>
<symbol id="icon-info" viewBox="0 0 24 24">
<title>info</title>
<path fill="#adb5bd" style="fill: var(--color1, #adb5bd)" d="M21.542 17.477c-0.275 0.479-0.887 0.644-1.365 0.368s-0.644-0.887-0.368-1.365c0.777-1.352 1.192-2.884 1.192-4.48 0-4.971-4.029-9-9-9s-9 4.029-9 9c0 4.971 4.029 9 9 9 1.597 0 3.132-0.416 4.484-1.195 0.479-0.276 1.090-0.111 1.366 0.368s0.111 1.090-0.368 1.366c-1.654 0.953-3.532 1.462-5.482 1.462-6.075 0-11-4.925-11-11s4.925-11 11-11c6.075 0 11 4.925 11 11 0 1.948-0.508 3.824-1.458 5.477zM12 6c0.552 0 1 0.448 1 1s-0.448 1-1 1c-0.552 0-1-0.448-1-1s0.448-1 1-1zM11 12h-1c-0.552 0-1-0.448-1-1s0.448-1 1-1h2c0.552 0 1 0.448 1 1v6c0 0.552-0.448 1-1 1s-1-0.448-1-1v-5z"></path>
</symbol>
<symbol id="icon-location" viewBox="0 0 24 24">
<title>location</title>
<path fill="#adb5bd" style="fill: var(--color1, #adb5bd)" d="M14.988 18.090c0.406-0.375 1.039-0.349 1.413 0.057s0.349 1.039-0.057 1.413c-0.797 0.736-2.030 1.803-3.701 3.206-0.35 0.294-0.855 0.313-1.227 0.046-5.57-4.004-8.416-8.273-8.416-12.812 0-4.785 4.117-9 9-9s9 4.215 9 9c0 2.099-0.613 4.151-1.826 6.143-0.287 0.472-0.902 0.621-1.374 0.334s-0.621-0.902-0.334-1.374c1.027-1.687 1.534-3.383 1.534-5.103 0-3.69-3.232-7-7-7s-7 3.31-7 7c0 3.636 2.283 7.213 6.958 10.728 1.346-1.137 2.357-2.017 3.030-2.638zM12 14c-2.209 0-4-1.791-4-4s1.791-4 4-4c2.209 0 4 1.791 4 4s-1.791 4-4 4zM12 12c1.105 0 2-0.895 2-2s-0.895-2-2-2c-1.105 0-2 0.895-2 2s0.895 2 2 2z"></path>
</symbol>
<symbol id="icon-log-out" viewBox="0 0 24 24">
<title>log-out</title>
<path fill="#adb5bd" style="fill: var(--color1, #adb5bd)" d="M21.927 11.624c0.146 0.361 0.073 0.791-0.22 1.083l-5 5c-0.391 0.391-1.024 0.391-1.414 0s-0.391-1.024 0-1.414l3.293-3.293h-10.586c-0.552 0-1-0.448-1-1s0.448-1 1-1h13c0.414 0 0.77 0.252 0.921 0.611l0.005 0.013zM15.293 7.707c-0.391-0.391-0.391-1.024 0-1.414s1.024-0.391 1.414 0l2.035 2.035c0.391 0.391 0.391 1.024 0 1.414s-1.024 0.391-1.414 0l-2.035-2.035zM11 21c0.552 0 1 0.448 1 1s-0.448 1-1 1h-6c-1.657 0-3-1.343-3-3v-16c0-1.657 1.343-3 3-3h6c0.552 0 1 0.448 1 1s-0.448 1-1 1h-6c-0.552 0-1 0.448-1 1v16c0 0.552 0.448 1 1 1h6z"></path>
</symbol>
<symbol id="icon-menu" viewBox="0 0 24 24">
<title>menu</title>
<path fill="#adb5bd" style="fill: var(--color1, #adb5bd)" d="M3 13c-0.552 0-1-0.448-1-1s0.448-1 1-1h18c0.552 0 1 0.448 1 1s-0.448 1-1 1h-18zM3.176 7c-0.65 0-1.176-0.448-1.176-1s0.527-1 1.176-1h17.647c0.65 0 1.176 0.448 1.176 1s-0.527 1-1.176 1h-17.647zM3 19c-0.552 0-1-0.448-1-1s0.448-1 1-1h10c0.552 0 1 0.448 1 1s-0.448 1-1 1h-10zM17 17h4c0.552 0 1 0.448 1 1s-0.448 1-1 1h-4c-0.552 0-1-0.448-1-1s0.448-1 1-1z"></path>
</symbol>
<symbol id="icon-minus-circle-full" viewBox="0 0 24 24">
<title>minus-circle-full</title>
<path fill="#adb5bd" style="fill: var(--color1, #adb5bd)" d="M12 23c-6.075 0-11-4.925-11-11s4.925-11 11-11c6.075 0 11 4.925 11 11s-4.925 11-11 11zM8 11c-0.552 0-1 0.448-1 1s0.448 1 1 1h8c0.552 0 1-0.448 1-1s-0.448-1-1-1h-8z"></path>
</symbol>
<symbol id="icon-minus-circle" viewBox="0 0 24 24">
<title>minus-circle</title>
<path fill="#adb5bd" style="fill: var(--color1, #adb5bd)" d="M8 11h8c0.552 0 1 0.448 1 1s-0.448 1-1 1h-8c-0.552 0-1-0.448-1-1s0.448-1 1-1zM21.542 17.477c-0.275 0.479-0.887 0.644-1.365 0.368s-0.644-0.887-0.368-1.365c0.777-1.352 1.192-2.884 1.192-4.48 0-4.971-4.029-9-9-9s-9 4.029-9 9c0 4.971 4.029 9 9 9 1.597 0 3.132-0.416 4.484-1.195 0.479-0.276 1.090-0.111 1.366 0.368s0.111 1.090-0.368 1.366c-1.654 0.953-3.532 1.462-5.482 1.462-6.075 0-11-4.925-11-11s4.925-11 11-11c6.075 0 11 4.925 11 11 0 1.948-0.508 3.824-1.458 5.477z"></path>
</symbol>
<symbol id="icon-minus" viewBox="0 0 24 24">
<title>minus</title>
<path fill="#adb5bd" style="fill: var(--color1, #adb5bd)" d="M5 13c-0.552 0-1-0.448-1-1s0.448-1 1-1h14c0.552 0 1 0.448 1 1s-0.448 1-1 1h-14z"></path>
</symbol>
<symbol id="icon-money" viewBox="0 0 24 24">
<title>money</title>
<path fill="#adb5bd" style="fill: var(--color1, #adb5bd)" d="M11 17h-1c-1.105 0-2-0.895-2-2 0-0.552 0.448-1 1-1s1 0.448 1 1h4c0.552 0 1-0.448 1-1s-0.448-1-1-1h-4c-1.657 0-3-1.343-3-3s1.343-3 3-3h1v-1c0-0.552 0.448-1 1-1s1 0.448 1 1v1h1c1.105 0 2 0.895 2 2 0 0.552-0.448 1-1 1s-1-0.448-1-1h-4c-0.552 0-1 0.448-1 1s0.448 1 1 1h4c1.657 0 3 1.343 3 3s-1.343 3-3 3h-1v1c0 0.552-0.448 1-1 1s-1-0.448-1-1v-1zM21.542 17.477c-0.275 0.479-0.887 0.644-1.365 0.368s-0.644-0.887-0.368-1.365c0.777-1.352 1.192-2.884 1.192-4.48 0-4.971-4.029-9-9-9s-9 4.029-9 9c0 4.971 4.029 9 9 9 1.597 0 3.132-0.416 4.484-1.195 0.479-0.276 1.090-0.111 1.366 0.368s0.111 1.090-0.368 1.366c-1.654 0.953-3.532 1.462-5.482 1.462-6.075 0-11-4.925-11-11s4.925-11 11-11c6.075 0 11 4.925 11 11 0 1.948-0.508 3.824-1.458 5.477z"></path>
</symbol>
<symbol id="icon-more" viewBox="0 0 24 24">
<title>more</title>
<path fill="#adb5bd" style="fill: var(--color1, #adb5bd)" d="M12 8c-1.105 0-2-0.895-2-2s0.895-2 2-2c1.105 0 2 0.895 2 2s-0.895 2-2 2zM12 14c-1.105 0-2-0.895-2-2s0.895-2 2-2c1.105 0 2 0.895 2 2s-0.895 2-2 2zM12 20c-1.105 0-2-0.895-2-2s0.895-2 2-2c1.105 0 2 0.895 2 2s-0.895 2-2 2z"></path>
</symbol>
<symbol id="icon-phone" viewBox="0 0 24 24">
<title>phone</title>
<path fill="#adb5bd" style="fill: var(--color1, #adb5bd)" d="M14.62 13.974c0.836-0.825 2.076-1.089 3.173-0.677 0.842 0.313 1.716 0.531 2.607 0.648 0.548 0.072 0.933 0.574 0.861 1.122s-0.574 0.933-1.122 0.861c-1.040-0.137-2.061-0.391-3.046-0.758-0.37-0.139-0.787-0.050-1.064 0.223l-1.277 1.275c-0.318 0.318-0.809 0.384-1.2 0.162-2.674-1.518-4.888-3.727-6.409-6.396-0.223-0.392-0.157-0.884 0.162-1.203l1.273-1.271c0.277-0.28 0.365-0.694 0.226-1.064-0.367-0.981-0.621-2.001-0.757-3.030-0.071-0.5-0.503-0.871-1.021-0.866h-3.016c-0.284 0-0.555 0.12-0.747 0.329s-0.285 0.488-0.261 0.753c0.313 2.946 1.318 5.776 2.936 8.27 1.465 2.301 3.42 4.252 5.733 5.719 2.48 1.605 5.304 2.608 8.225 2.925 0.284 0.026 0.566-0.069 0.776-0.262s0.328-0.462 0.327-0.75v-2.011c0-0.552 0.448-1 1-1s1 0.448 1 1v2.007c0.003 0.847-0.351 1.656-0.976 2.229s-1.462 0.855-2.324 0.777c-3.25-0.352-6.371-1.461-9.106-3.231-2.554-1.619-4.719-3.78-6.337-6.322-1.785-2.75-2.896-5.881-3.244-9.156-0.076-0.841 0.205-1.675 0.776-2.299s1.376-0.978 2.221-0.979h3.007c1.511-0.015 2.799 1.091 3.012 2.595 0.117 0.889 0.335 1.761 0.648 2.599 0.414 1.099 0.149 2.339-0.682 3.178l-0.723 0.721c1.184 1.854 2.76 3.427 4.619 4.608l0.729-0.727z"></path>
</symbol>
<symbol id="icon-plus-circle-full" viewBox="0 0 24 24">
<title>plus-circle-full</title>
<path fill="#adb5bd" style="fill: var(--color1, #adb5bd)" d="M11 11h-3c-0.552 0-1 0.448-1 1s0.448 1 1 1h3v3c0 0.552 0.448 1 1 1s1-0.448 1-1v-3h3c0.552 0 1-0.448 1-1s-0.448-1-1-1h-3v-3c0-0.552-0.448-1-1-1s-1 0.448-1 1v3zM12 23c-6.075 0-11-4.925-11-11s4.925-11 11-11c6.075 0 11 4.925 11 11s-4.925 11-11 11z"></path>
</symbol>
<symbol id="icon-plus-circle" viewBox="0 0 24 24">
<title>plus-circle</title>
<path fill="#adb5bd" style="fill: var(--color1, #adb5bd)" d="M11 11v-3c0-0.552 0.448-1 1-1s1 0.448 1 1v3h3c0.552 0 1 0.448 1 1s-0.448 1-1 1h-3v3c0 0.552-0.448 1-1 1s-1-0.448-1-1v-3h-3c-0.552 0-1-0.448-1-1s0.448-1 1-1h3zM21.542 17.477c-0.275 0.479-0.887 0.644-1.365 0.368s-0.644-0.887-0.368-1.365c0.777-1.352 1.192-2.884 1.192-4.48 0-4.971-4.029-9-9-9s-9 4.029-9 9c0 4.971 4.029 9 9 9 1.597 0 3.132-0.416 4.484-1.195 0.479-0.276 1.090-0.111 1.366 0.368s0.111 1.090-0.368 1.366c-1.654 0.953-3.532 1.462-5.482 1.462-6.075 0-11-4.925-11-11s4.925-11 11-11c6.075 0 11 4.925 11 11 0 1.948-0.508 3.824-1.458 5.477z"></path>
</symbol>
<symbol id="icon-plus" viewBox="0 0 24 24">
<title>plus</title>
<path fill="#adb5bd" style="fill: var(--color1, #adb5bd)" d="M11 13h-6c-0.552 0-1-0.448-1-1s0.448-1 1-1h6v-6c0-0.552 0.448-1 1-1s1 0.448 1 1v14c0 0.552-0.448 1-1 1s-1-0.448-1-1v-6zM16 13c-0.552 0-1-0.448-1-1s0.448-1 1-1h3c0.552 0 1 0.448 1 1s-0.448 1-1 1h-3z"></path>
</symbol>
<symbol id="icon-search" viewBox="0 0 24 24">
<title>search</title>
<path fill="#adb5bd" style="fill: var(--color1, #adb5bd)" d="M15.707 14.293l6 6c0.391 0.391 0.391 1.024 0 1.414s-1.024 0.391-1.414 0l-5.34-5.34c-1.378 1.052-3.12 1.633-4.953 1.633-4.418 0-8-3.582-8-8s3.582-8 8-8c4.418 0 8 3.582 8 8 0 0.78-0.112 1.547-0.33 2.282-0.157 0.529-0.714 0.831-1.243 0.674s-0.831-0.714-0.674-1.243c0.164-0.55 0.248-1.125 0.248-1.712 0-3.314-2.686-6-6-6s-6 2.686-6 6c0 3.314 2.686 6 6 6 1.663 0 3.209-0.621 4.292-1.706 0.39-0.391 1.023-0.392 1.414-0.001z"></path>
</symbol>
<symbol id="icon-settings" viewBox="0 0 24 24">
<title>settings</title>
<path fill="#adb5bd" style="fill: var(--color1, #adb5bd)" d="M19 17h-2c-0.552 0-1-0.448-1-1s0.448-1 1-1h6c0.552 0 1 0.448 1 1s-0.448 1-1 1h-2v4c0 0.552-0.448 1-1 1s-1-0.448-1-1v-4zM11 7v-4c0-0.552 0.448-1 1-1s1 0.448 1 1v4h2c0.552 0 1 0.448 1 1s-0.448 1-1 1h-6c-0.552 0-1-0.448-1-1s0.448-1 1-1h2zM3 15h-2c-0.552 0-1-0.448-1-1s0.448-1 1-1h6c0.552 0 1 0.448 1 1s-0.448 1-1 1h-2v6c0 0.552-0.448 1-1 1s-1-0.448-1-1v-6zM5 10c0 0.552-0.448 1-1 1s-1-0.448-1-1v-7c0-0.552 0.448-1 1-1s1 0.448 1 1v7zM13 21c0 0.552-0.448 1-1 1s-1-0.448-1-1v-9c0-0.552 0.448-1 1-1s1 0.448 1 1v9zM21 12c0 0.552-0.448 1-1 1s-1-0.448-1-1v-9c0-0.552 0.448-1 1-1s1 0.448 1 1v9z"></path>
</symbol>
<symbol id="icon-social-facebook" viewBox="0 0 24 24">
<title>social-facebook</title>
<path fill="#adb5bd" style="fill: var(--color1, #adb5bd)" d="M15.808 18.133v-3.867h2.608l0.389-3.028h-2.997v-1.928c0-0.875 0.244-1.472 1.497-1.472h1.589v-0.006h0.006v-2.689c-0.002-0-0.004-0-0.006-0.001v-0.005c-0.773-0.082-1.55-0.122-2.328-0.12-2.306 0-3.889 1.408-3.889 3.992v2.222h-2.592v3.028h2.597v7.739h-9.572c-0.614 0-1.111-0.497-1.111-1.111v-17.778c0-0.614 0.497-1.111 1.111-1.111h17.778c0.614 0 1.111 0.497 1.111 1.111v17.778c0 0.614-0.497 1.111-1.111 1.111h-5.081v-3.867z"></path>
</symbol>
<symbol id="icon-social-instagram" viewBox="0 0 24 24">
<title>social-instagram</title>
<path fill="#adb5bd" style="fill: var(--color1, #adb5bd)" d="M7.8 2h8.4c3.2 0 5.8 2.6 5.8 5.8v8.4c0 3.203-2.597 5.8-5.8 5.8h-8.4c-3.2 0-5.8-2.6-5.8-5.8v-8.4c0-3.203 2.597-5.8 5.8-5.8v0zM7.6 4c-1.988 0-3.6 1.612-3.6 3.6v8.8c0 1.99 1.61 3.6 3.6 3.6h8.8c1.988 0 3.6-1.612 3.6-3.6v-8.8c0-1.99-1.61-3.6-3.6-3.6h-8.8zM17.25 5.5c0.69 0 1.25 0.56 1.25 1.25s-0.56 1.25-1.25 1.25c-0.69 0-1.25-0.56-1.25-1.25s0.56-1.25 1.25-1.25v0zM12 7c2.761 0 5 2.239 5 5s-2.239 5-5 5c-2.761 0-5-2.239-5-5s2.239-5 5-5v0zM12 9c-1.657 0-3 1.343-3 3s1.343 3 3 3c1.657 0 3-1.343 3-3s-1.343-3-3-3z"></path>
</symbol>
<symbol id="icon-social-linkedin" viewBox="0 0 24 24">
<title>social-linkedin</title>
<path fill="#adb5bd" style="fill: var(--color1, #adb5bd)" d="M4 2h16c1.105 0 2 0.895 2 2v16c0 1.105-0.895 2-2 2h-16c-1.105 0-2-0.895-2-2v-16c0-1.105 0.895-2 2-2zM19.222 13.333c0-2.001-1.622-3.622-3.622-3.622-0.944 0-2.044 0.578-2.578 1.444v-1.233h-3.1v9.3h3.1v-5.478c0-0.856 0.689-1.556 1.544-1.556 0.859 0 1.556 0.696 1.556 1.556v5.478h3.1v-5.889zM8.178 6.311c0-1.033-0.833-1.878-1.867-1.878-1.037 0-1.878 0.841-1.878 1.878 0 1.033 0.844 1.867 1.878 1.867 1.031 0 1.867-0.836 1.867-1.867zM7.856 19.222v-9.3h-3.078v9.3h3.078z"></path>
</symbol>
<symbol id="icon-social-twitter" viewBox="0 0 24 24">
<title>social-twitter</title>
<path fill="#adb5bd" style="fill: var(--color1, #adb5bd)" d="M19.965 8.508c0-0.175-0.004-0.349-0.012-0.522 0.801-0.57 1.498-1.281 2.047-2.091-0.735 0.321-1.526 0.538-2.356 0.636 0.847-0.5 1.498-1.291 1.804-2.234-0.793 0.463-1.671 0.799-2.605 0.98-0.749-0.785-1.815-1.276-2.995-1.276-2.266 0-4.104 1.809-4.104 4.039 0 0.317 0.036 0.625 0.106 0.921-3.41-0.169-6.434-1.776-8.458-4.22-0.353 0.597-0.556 1.29-0.556 2.030 0 1.401 0.724 2.638 1.826 3.362-0.673-0.020-1.305-0.202-1.858-0.505-0.001 0.017-0.001 0.034-0.001 0.051 0 1.956 1.415 3.59 3.292 3.96-0.345 0.092-0.707 0.142-1.082 0.142-0.264 0-0.521-0.026-0.771-0.073 0.522 1.605 2.037 2.773 3.833 2.805-1.405 1.083-3.174 1.729-5.096 1.729-0.331 0-0.658-0.019-0.979-0.056 1.816 1.146 3.972 1.814 6.29 1.814 7.548 0 11.675-6.155 11.675-11.492z"></path>
</symbol>
<symbol id="icon-social-youtube" viewBox="0 0 24 24">
<title>social-youtube</title>
<path fill="#adb5bd" style="fill: var(--color1, #adb5bd)" d="M22.547 7.191c0.471 1.565 0.453 4.826 0.453 4.826s0 3.245-0.453 4.809c-0.254 0.856-0.997 1.532-1.939 1.762-1.722 0.412-8.608 0.412-8.608 0.412s-6.868 0-8.608-0.428c-0.942-0.231-1.685-0.906-1.939-1.762-0.453-1.548-0.453-4.809-0.453-4.809s0-3.245 0.453-4.809c0.254-0.856 1.015-1.548 1.939-1.779 1.722-0.412 8.608-0.412 8.608-0.412s6.886 0 8.608 0.428c0.942 0.231 1.685 0.906 1.939 1.762zM15 12l-5-3v6l5-3z"></path>
</symbol>
<symbol id="icon-user-circle" viewBox="0 0 24 24">
<title>user-circle</title>
<path fill="#adb5bd" style="fill: var(--color1, #adb5bd)" d="M6 18.708v-0.708c0-1.657 1.343-3 3-3h6c1.657 0 3 1.343 3 3v2.631c0 0.144-0.031 0.282-0.086 0.406-0.080 0.204-0.227 0.384-0.432 0.502-1.654 0.953-3.532 1.462-5.482 1.462-6.075 0-11-4.925-11-11s4.925-11 11-11c6.075 0 11 4.925 11 11 0 1.948-0.508 3.824-1.458 5.477-0.275 0.479-0.887 0.644-1.365 0.368s-0.644-0.887-0.368-1.365c0.777-1.352 1.192-2.884 1.192-4.48 0-4.971-4.029-9-9-9s-9 4.029-9 9c0 2.665 1.159 5.060 3 6.708zM7.998 20.063c1.205 0.599 2.564 0.937 4.002 0.937 1.41 0 2.77-0.324 4-0.935v-2.065c0-0.552-0.448-1-1-1h-6c-0.552 0-1 0.448-1 1v2c0 0.021-0.001 0.042-0.002 0.063zM12 14c-2.209 0-4-1.791-4-4s1.791-4 4-4c2.209 0 4 1.791 4 4s-1.791 4-4 4zM12 12c1.105 0 2-0.895 2-2s-0.895-2-2-2c-1.105 0-2 0.895-2 2s0.895 2 2 2z"></path>
</symbol>
<symbol id="icon-user" viewBox="0 0 24 24">
<title>user</title>
<path fill="#adb5bd" style="fill: var(--color1, #adb5bd)" d="M21 21c0 0.552-0.448 1-1 1s-1-0.448-1-1v-2c0-1.657-1.343-3-3-3h-8c-1.657 0-3 1.343-3 3v2c0 0.552-0.448 1-1 1s-1-0.448-1-1v-2c0-2.761 2.239-5 5-5h8c2.761 0 5 2.239 5 5v2zM14.509 2.674c0.478 0.277 0.64 0.889 0.362 1.367s-0.889 0.64-1.367 0.362c-0.453-0.263-0.967-0.404-1.504-0.404-1.657 0-3 1.343-3 3s1.343 3 3 3c1.657 0 3-1.343 3-3 0-0.552 0.448-1 1-1s1 0.448 1 1c0 2.761-2.239 5-5 5s-5-2.239-5-5c0-2.761 2.239-5 5-5 0.892 0 1.753 0.235 2.509 0.674z"></path>
</symbol>
<symbol id="icon-warning" viewBox="0 0 24 24">
<title>warning</title>
<path fill="#adb5bd" style="fill: var(--color1, #adb5bd)" d="M21.542 17.477c-0.275 0.479-0.887 0.644-1.365 0.368s-0.644-0.887-0.368-1.365c0.777-1.352 1.192-2.884 1.192-4.48 0-4.971-4.029-9-9-9s-9 4.029-9 9c0 4.971 4.029 9 9 9 1.597 0 3.132-0.416 4.484-1.195 0.479-0.276 1.090-0.111 1.366 0.368s0.111 1.090-0.368 1.366c-1.654 0.953-3.532 1.462-5.482 1.462-6.075 0-11-4.925-11-11s4.925-11 11-11c6.075 0 11 4.925 11 11 0 1.948-0.508 3.824-1.458 5.477zM12 6c0.552 0 1 0.448 1 1v6c0 0.552-0.448 1-1 1s-1-0.448-1-1v-6c0-0.552 0.448-1 1-1zM12 16c0.552 0 1 0.448 1 1s-0.448 1-1 1c-0.552 0-1-0.448-1-1s0.448-1 1-1z"></path>
</symbol>
<symbol id="icon-wheelchair" viewBox="0 0 24 24">
<title>wheelchair</title>
<path fill="#adb5bd" style="fill: var(--color1, #adb5bd)" d="M10.401 11.013c0.614 0.041 1.217 0.176 1.789 0.4 0.031-0.042 0.065-0.082 0.103-0.12l2.275-2.275c0.047-0.047 0.088-0.098 0.125-0.152 0.306-0.46 0.182-1.080-0.277-1.387l-0.288-0.192-3.726 3.726zM6.344 12.242l6.087-6.087-1.303-0.869-2.42 2.42c-0.391 0.391-1.024 0.391-1.414 0s-0.391-1.024 0-1.414l3-3c0.337-0.337 0.865-0.389 1.262-0.125l2.983 1.989c0.011 0.007 0.022 0.014 0.033 0.022l0.955 0.636c1.379 0.919 1.751 2.782 0.832 4.16-0.11 0.164-0.235 0.318-0.375 0.457l-1.568 1.568h4.586c0.618 0 1.088 0.555 0.986 1.164l-1 6c-0.091 0.545-0.606 0.913-1.151 0.822s-0.913-0.606-0.822-1.151l0.806-4.836h-2.622c1.326 2.295 1.008 5.28-0.955 7.243-2.343 2.343-6.142 2.343-8.485 0-1.335-1.335-1.947-3.19-1.706-5.027 0.072-0.548 0.574-0.933 1.122-0.861s0.933 0.574 0.861 1.122c-0.161 1.226 0.246 2.461 1.137 3.352 1.562 1.562 4.095 1.562 5.657 0s1.562-4.095 0-5.657c-0.96-0.96-2.319-1.356-3.626-1.092-0.569 0.115-1.105 0.352-1.575 0.699-0.018 0.014-0.036 0.028-0.055 0.041-0.017 0.013-0.034 0.026-0.051 0.040-0.433 0.343-1.062 0.27-1.405-0.163s-0.27-1.062 0.163-1.405c0.021-0.017 0.043-0.034 0.064-0.050zM18.5 3c-0.276 0-0.5 0.224-0.5 0.5s0.224 0.5 0.5 0.5c0.276 0 0.5-0.224 0.5-0.5s-0.224-0.5-0.5-0.5zM18.5 1c1.381 0 2.5 1.119 2.5 2.5s-1.119 2.5-2.5 2.5c-1.381 0-2.5-1.119-2.5-2.5s1.119-2.5 2.5-2.5z"></path>
</symbol>
<symbol id="icon-x-circle-full" viewBox="0 0 24 24">
<title>x-circle-full</title>
<path fill="#adb5bd" style="fill: var(--color1, #adb5bd)" d="M10.586 12l-2.828 2.828c-0.391 0.391-0.391 1.024 0 1.414s1.024 0.391 1.414 0l2.828-2.828 2.828 2.828c0.391 0.391 1.024 0.391 1.414 0s0.391-1.024 0-1.414l-2.828-2.828 2.828-2.828c0.391-0.391 0.391-1.024 0-1.414s-1.024-0.391-1.414 0l-2.828 2.828-2.828-2.828c-0.391-0.391-1.024-0.391-1.414 0s-0.391 1.024 0 1.414l2.828 2.828zM12 23c-6.075 0-11-4.925-11-11s4.925-11 11-11c6.075 0 11 4.925 11 11s-4.925 11-11 11z"></path>
</symbol>
<symbol id="icon-x-circle" viewBox="0 0 24 24">
<title>x-circle</title>
<path fill="#adb5bd" style="fill: var(--color1, #adb5bd)" d="M10.586 12l-2.828-2.828c-0.391-0.391-0.391-1.024 0-1.414s1.024-0.391 1.414 0l2.828 2.828 2.828-2.828c0.391-0.391 1.024-0.391 1.414 0s0.391 1.024 0 1.414l-2.828 2.828 2.828 2.828c0.391 0.391 0.391 1.024 0 1.414s-1.024 0.391-1.414 0l-2.828-2.828-2.828 2.828c-0.391 0.391-1.024 0.391-1.414 0s-0.391-1.024 0-1.414l2.828-2.828zM21.542 17.477c-0.275 0.479-0.887 0.644-1.365 0.368s-0.644-0.887-0.368-1.365c0.777-1.352 1.192-2.884 1.192-4.48 0-4.971-4.029-9-9-9s-9 4.029-9 9c0 4.971 4.029 9 9 9 1.597 0 3.132-0.416 4.484-1.195 0.479-0.276 1.090-0.111 1.366 0.368s0.111 1.090-0.368 1.366c-1.654 0.953-3.532 1.462-5.482 1.462-6.075 0-11-4.925-11-11s4.925-11 11-11c6.075 0 11 4.925 11 11 0 1.948-0.508 3.824-1.458 5.477z"></path>
</symbol>
<symbol id="icon-x" viewBox="0 0 24 24">
<title>x</title>
<path fill="#adb5bd" style="fill: var(--color1, #adb5bd)" d="M12 13.414l-5.293 5.293c-0.391 0.391-1.024 0.391-1.414 0s-0.391-1.024 0-1.414l5.293-5.293-5.293-5.293c-0.391-0.391-0.391-1.024 0-1.414s1.024-0.391 1.414 0l12 12c0.391 0.391 0.391 1.024 0 1.414s-1.024 0.391-1.414 0l-5.293-5.293zM17.293 5.293c0.391-0.391 1.024-0.391 1.414 0s0.391 1.024 0 1.414l-3 3c-0.391 0.391-1.024 0.391-1.414 0s-0.391-1.024 0-1.414l3-3z"></path>
</symbol>
</defs>
</svg>
