<svg xmlns="http://www.w3.org/2000/svg" viewBox="0 0 60 60"><path class="st0" d="M30 0C13.4 0 0 13.4 0 30s13.4 30 30 30 30-13.4 30-30S46.6 0 30 0zm3.9 15.5l2-.1v7.5c0 .2 0 .4.1.5.1.1.2.2.4.2.1 0 .3-.1.5-.2s.4-.3.6-.5V15.5h2V25.4h-2v-1.1c-.4.4-.7.7-1.1.9-.4.2-.8.3-1.1.3-.5 0-.8-.1-1-.4-.1-.1-.1-.2-.1-.3 0-.1-.1-.2-.1-.2 0-.1-.1-.2-.1-.3v-.1-.3-8.4zm-7.4 2.2c.1-.8.4-1.4.9-1.8.3-.2.6-.4.9-.5.1 0 .2-.1.3-.1h.9c.8 0 1.5.2 2 .7.5.4.8 1.1.8 1.8v5.1c0 .9-.3 1.5-.8 2s-1.2.7-2.1.7c-.9 0-1.5-.2-2.1-.7-.5-.5-.8-1.2-.8-2v-5.2zM21.3 12l1.4 5.3h.1l1.4-5.3h2.2l-2.6 7.8v5.5h-2.2V20L19 12h2.3zm22.2 35.5C42.1 49 30 49 30 49h-.1c-1.3 0-12.1-.1-13.5-1.4C15 46.1 15 39.1 15 39v-.9c.1-2 .3-6.5 1.4-7.7 1.4-1.3 12.1-1.4 13.5-1.4h.1s12.1 0 13.5 1.4C45 31.9 45 39 45 39s0 7.1-1.5 8.5z"/><path class="st0" d="M28.7 23.5c0 .1.1.1.1.1.2.1.4.2.6.2s.4-.1.6-.2c.1-.1.2-.3.2-.6v-5.3c0-.2-.1-.4-.2-.5-.2-.1-.4-.2-.6-.2s-.4.1-.6.2c-.1.1-.2.3-.2.5v5.6c.1 0 .1.1.1.2zM17.9 34.6h2v10.3h2V34.6H24v-1.7h-6.1M28 42.7l-.5.5c-.2.1-.4.2-.5.2-.2 0-.3 0-.4-.1-.1-.1-.1-.2-.1-.5V36h-1.7v7.4c0 .5.1.9.3 1.2.2.3.5.4.9.4.3 0 .7-.1 1-.3.4-.2.7-.5 1-.8v1h1.7V36H28v6.7zM40.4 42.2c0 .5-.1.9-.2 1-.1.2-.3.2-.6.2s-.5-.1-.6-.3c-.1-.2-.2-.5-.2-1v-1.7h3.3v-2.3c0-.8-.2-1.5-.6-1.9-.5-.2-1.1-.4-1.9-.4-.8 0-1.4.2-1.9.7s-.7 1.1-.7 1.9v4c0 .9.2 1.5.7 2 .4.5 1.1.7 1.8.7.9 0 1.5-.2 2-.7.4-.5.7-1.1.7-2.1v-.5h-1.8v.4zm-1.6-3.8v-.3c0-.3.1-.4.2-.6.1-.1.3-.2.6-.2s.5.1.5.2c.1.2.2.3.2.6v1.2h-1.6v-.9zM34.3 35.9c-.3 0-.5.1-.8.2-.3.1-.5.3-.7.6v-3.9H31v12h1.8v-.7c.2.3.5.5.7.6.3.1.6.2.9.2.5 0 .9-.2 1.2-.5.3-.3.4-.8.4-1.4v-4.9c0-.7-.1-1.3-.4-1.7-.3-.3-.7-.5-1.3-.5zm-.1 6.9c0 .1 0 .3-.1.4 0 .1-.1.2-.1.2s-.1.1-.2.1-.2.1-.3.1c-.1 0-.3 0-.4-.1-.1 0-.3-.2-.4-.3v-5.5c.1-.1.2-.2.4-.3.1-.1.2-.1.4-.1s.4.1.5.2c.1.2.2.4.2.7v4.6z"/></svg>