<svg width="40" height="40" viewBox="0 0 40 40" fill="none" xmlns="http://www.w3.org/2000/svg">
<path fill-rule="evenodd" clip-rule="evenodd" d="M17 9.7002C17 8.04791 18.3477 6.7002 20 6.7002C21.6523 6.7002 23 8.04791 23 9.7002C23 11.3525 21.6523 12.7002 20 12.7002C18.3477 12.7002 17 11.3525 17 9.7002ZM20 8.7002C19.4523 8.7002 19 9.15248 19 9.7002C19 10.2479 19.4523 10.7002 20 10.7002C20.5477 10.7002 21 10.2479 21 9.7002C21 9.15248 20.5477 8.7002 20 8.7002Z" fill="#ADB5BD"/>
<path fill-rule="evenodd" clip-rule="evenodd" d="M26.0993 6.51625C18.5773 3.22541 9.78285 6.43436 6.51623 13.9009C3.23034 21.4115 6.5232 30.1153 13.9051 33.3858L13.9191 33.3921C15.1566 33.9633 16.2659 34.3292 17.4521 34.5117C17.998 34.5957 18.3724 35.1063 18.2884 35.6522C18.2045 36.198 17.6939 36.5724 17.148 36.4885C15.7366 36.2713 14.4479 35.8384 13.088 35.2113C4.67488 31.4793 0.970845 21.5863 4.68392 13.0993C8.4173 4.56583 18.4228 0.974781 26.9009 4.68394C35.418 8.41018 39.1362 18.4098 35.3128 26.8088C32.9672 32.1341 28.1758 35.5305 22.8772 36.4843C22.3337 36.5821 21.8137 36.2208 21.7159 35.6772C21.6181 35.1337 21.9794 34.6138 22.5229 34.5159C27.2223 33.67 31.4294 30.6686 33.4848 25.9974L33.49 25.9854L33.4901 25.9854C36.8621 18.5857 33.5801 9.78912 26.0993 6.51625Z" fill="#ADB5BD"/>
<path fill-rule="evenodd" clip-rule="evenodd" d="M8.80005 14.7002C8.80005 14.1479 9.24776 13.7002 9.80005 13.7002H18C18.5523 13.7002 19 14.1479 19 14.7002V22.8002C19 22.9337 18.9733 23.0658 18.9215 23.1887L15.4215 31.4888C15.2069 31.9976 14.6204 32.2362 14.1115 32.0216C13.6026 31.807 13.364 31.2205 13.5786 30.7116L17 22.598V15.7002H9.80005C9.24776 15.7002 8.80005 15.2525 8.80005 14.7002Z" fill="#ADB5BD"/>
<path fill-rule="evenodd" clip-rule="evenodd" d="M20.8 14.7002C20.8 14.1479 21.2478 13.7002 21.8 13.7002H30C30.5523 13.7002 31 14.1479 31 14.7002C31 15.2525 30.5523 15.7002 30 15.7002H22.8V22.598L26.2215 30.7116C26.4361 31.2205 26.1975 31.807 25.6886 32.0216C25.1797 32.2362 24.5932 31.9976 24.3786 31.4888L20.8786 23.1887C20.8268 23.0658 20.8 22.9337 20.8 22.8002V14.7002Z" fill="#ADB5BD"/>
<path d="M20 36.7002C20.5523 36.7002 21 36.2525 21 35.7002C21 35.1479 20.5523 34.7002 20 34.7002C19.4477 34.7002 19 35.1479 19 35.7002C19 36.2525 19.4477 36.7002 20 36.7002Z" fill="#ADB5BD"/>
</svg>
