<svg xmlns="http://www.w3.org/2000/svg" width="40" height="40" viewBox="0 0 40 40">
  <path fill-rule="evenodd" d="M6,20.477033 L6,31 C6,31.5522847 6.44771525,32 7,32 L33,32 C33.5522847,32 34,31.5522847 34,31 L34,27 C34,26.4477153 34.4477153,26 35,26 C35.5522847,26 36,26.4477153 36,27 L36,31 C36,32.6568542 34.6568542,34 33,34 L7,34 C5.34314575,34 3.99973399,32.6568542 3.99973399,31 L3.99973399,19.0226781 C3.99973399,19.0073879 3.99973399,18.9920602 3.99973399,18.9767064 L3.99973399,13 C3.99973399,11.3431458 5.34314575,10 7,10 L12,10 L12,9 C12,7.34314575 13.3431458,6 15,6 L25,6 C26.6568542,6 28,7.34314575 28,9 L28,10 L33,10 C34.6568542,10 36,11.3431458 36,13 L36,19 C36,19.4089046 35.7510491,19.7766133 35.3713907,19.9284767 L20.3713907,25.9284767 C20.1329796,26.0238411 19.8670204,26.0238411 19.6286093,25.9284767 L6,20.477033 Z M6,13 L6,18.322967 L20,23.922967 L34,18.322967 L34,13 C34,12.4477153 33.5522847,12 33,12 L27,12 C26.4477153,12 26,11.5522847 26,11 L26,9 C26,8.44771525 25.5522847,8 25,8 L15,8 C14.4477153,8 14,8.44771525 14,9 L14,11 C14,11.5522847 13.5522847,12 13,12 L7,12 C6.44771525,12 6,12.4477153 6,13 Z M35,25 C34.4477153,25 34,24.5522847 34,24 C34,23.4477153 34.4477153,23 35,23 C35.5522847,23 36,23.4477153 36,24 C36,24.5522847 35.5522847,25 35,25 Z M17,12 C16.4477153,12 16,11.5522847 16,11 C16,10.4477153 16.4477153,10 17,10 L23,10 C23.5522847,10 24,10.4477153 24,11 C24,11.5522847 23.5522847,12 23,12 L17,12 Z"/>
</svg>
