<svg xmlns="http://www.w3.org/2000/svg" width="40" height="40" viewBox="0 0 40 40">
  <path fill-rule="evenodd" d="M10,13 L8,13 L8,15 C8,15.5522847 7.55228475,16 7,16 L1,16 C0.44771525,16 0,15.5522847 0,15 L0,9 C0,8.44771525 0.44771525,8 1,8 L6.5,8 L10,8 L10,1 C10,0.44771525 10.4477153,0 11,0 L14,0 C14.5522847,0 15,0.44771525 15,1 L15,6 L16,6 C16.5522847,6 17,6.44771525 17,7 L17,8 L30,8 C30.2652165,8 30.5195704,8.10535684 30.7071068,8.29289322 L33.7071068,11.2928932 C33.8946432,11.4804296 34,11.7347835 34,12 L34,21 C34,21.5522847 33.5522847,22 33,22 C32.4477153,22 32,21.5522847 32,21 L32,13 L17,13 L17,14 C17,14.5522847 16.5522847,15 16,15 L15,15 L15,39 C15,39.5522847 14.5522847,40 14,40 C13.4477153,40 13,39.5522847 13,39 L13,15 L12,15 L12,18 C12,18.5522847 11.5522847,19 11,19 C10.4477153,19 10,18.5522847 10,18 L10,14 L10,13 Z M13,6 L13,2 L12,2 L12,6 L13,6 Z M10,11 L10,10 L8,10 L8,11 L10,11 Z M17,10 L17,11 L30.5857864,11 L29.5857864,10 L17,10 Z M2,10 L2,14 L6,14 L6,10 L2,10 Z M10,25 C10,24.4477153 10.4477153,24 11,24 C11.5522847,24 12,24.4477153 12,25 L12,39 C12,39.5522847 11.5522847,40 11,40 C10.4477153,40 10,39.5522847 10,39 L10,25 Z M11,22 C10.4477153,22 10,21.5522847 10,21 C10,20.4477153 10.4477153,20 11,20 C11.5522847,20 12,20.4477153 12,21 C12,21.5522847 11.5522847,22 11,22 Z M24,26 L24,39 C24,39.5522847 23.5522847,40 23,40 C22.4477153,40 22,39.5522847 22,39 L22,25 C22,24.4477153 22.4477153,24 23,24 L39,24 C39.5522847,24 40,24.4477153 40,25 L40,39 C40,39.5522847 39.5522847,40 39,40 C38.4477153,40 38,39.5522847 38,39 L38,26 L24,26 Z M26,29 C26,28.4477153 26.4477153,28 27,28 C27.5522847,28 28,28.4477153 28,29 L28,31 C28,31.5522847 27.5522847,32 27,32 C26.4477153,32 26,31.5522847 26,31 L26,29 Z M26,35 C26,34.4477153 26.4477153,34 27,34 C27.5522847,34 28,34.4477153 28,35 L28,37 C28,37.5522847 27.5522847,38 27,38 C26.4477153,38 26,37.5522847 26,37 L26,35 Z M30,29 C30,28.4477153 30.4477153,28 31,28 C31.5522847,28 32,28.4477153 32,29 L32,31 C32,31.5522847 31.5522847,32 31,32 C30.4477153,32 30,31.5522847 30,31 L30,29 Z M30,35 C30,34.4477153 30.4477153,34 31,34 C31.5522847,34 32,34.4477153 32,35 L32,37 C32,37.5522847 31.5522847,38 31,38 C30.4477153,38 30,37.5522847 30,37 L30,35 Z M34,29 C34,28.4477153 34.4477153,28 35,28 C35.5522847,28 36,28.4477153 36,29 L36,31 C36,31.5522847 35.5522847,32 35,32 C34.4477153,32 34,31.5522847 34,31 L34,29 Z M34,35 C34,34.4477153 34.4477153,34 35,34 C35.5522847,34 36,34.4477153 36,35 L36,37 C36,37.5522847 35.5522847,38 35,38 C34.4477153,38 34,37.5522847 34,37 L34,35 Z M12,8 L12,13 L15,13 L15,8 L12,8 Z"/>
</svg>
