<svg xmlns="http://www.w3.org/2000/svg" width="40" height="40" viewBox="0 0 40 40">
  <path fill-rule="evenodd" d="M7,14 C9.209139,14 11,15.790861 11,18 C11,20.209139 9.209139,22 7,22 C4.790861,22 3,20.209139 3,18 C3,15.790861 4.790861,14 7,14 Z M7,16 C5.8954305,16 5,16.8954305 5,18 C5,19.1045695 5.8954305,20 7,20 C8.1045695,20 9,19.1045695 9,18 C9,16.8954305 8.1045695,16 7,16 Z M15,6 C17.209139,6 19,7.790861 19,10 C19,12.209139 17.209139,14 15,14 C12.790861,14 11,12.209139 11,10 C11,7.790861 12.790861,6 15,6 Z M15,8 C13.8954305,8 13,8.8954305 13,10 C13,11.1045695 13.8954305,12 15,12 C16.1045695,12 17,11.1045695 17,10 C17,8.8954305 16.1045695,8 15,8 Z M25,6 C27.209139,6 29,7.790861 29,10 C29,12.209139 27.209139,14 25,14 C22.790861,14 21,12.209139 21,10 C21,7.790861 22.790861,6 25,6 Z M25,8 C23.8954305,8 23,8.8954305 23,10 C23,11.1045695 23.8954305,12 25,12 C26.1045695,12 27,11.1045695 27,10 C27,8.8954305 26.1045695,8 25,8 Z M32,14 C34.209139,14 36,15.790861 36,18 C36,20.209139 34.209139,22 32,22 C29.790861,22 28,20.209139 28,18 C28,15.790861 29.790861,14 32,14 Z M32,16 C30.8954305,16 30,16.8954305 30,18 C30,19.1045695 30.8954305,20 32,20 C33.1045695,20 34,19.1045695 34,18 C34,16.8954305 33.1045695,16 32,16 Z M27.3036455,22.4320838 C27.6125693,22.8898878 27.4918779,23.5114435 27.0340738,23.8203673 C26.5762697,24.129291 25.954714,24.0085996 25.6457903,23.5507955 C24.1167478,21.2848579 22.1505218,20 20,20 C15.7058572,20 12,25.6519609 12,31 C12,31.6604162 12.5353731,32.1957893 13.1957893,32.1957893 C13.400222,32.1957893 13.6012304,32.1433785 13.7796482,32.0435461 C16.1989285,30.6899708 18.2628508,30 20,30 C21.7371492,30 23.8010715,30.6899708 26.2203615,32.0435516 C26.7966921,32.3660141 27.525309,32.160206 27.8477686,31.5838655 C27.9475877,31.4054563 28,31.204435 28,31 C28,30.4091522 27.9457693,29.7795792 27.83868,29.1308709 C27.7487257,28.5859611 28.1175401,28.0713022 28.6624499,27.9813479 C29.2073597,27.8913937 29.7220186,28.260208 29.8119729,28.8051178 C29.9364117,29.5589224 30,30.2971304 30,31 C30,31.5463598 29.8599262,32.0835964 29.5931562,32.5604013 C28.731368,34.1006977 26.7840921,34.6507332 25.243816,33.7889337 C23.0965026,32.5875225 21.3390357,32 20,32 C18.6609643,32 16.9034974,32.5875225 14.7562155,33.7889161 C14.2794127,34.0557075 13.7421649,34.1957893 13.1957893,34.1957893 C11.4308036,34.1957893 10,32.7649857 10,31 C10,24.6806299 14.3803312,18 20,18 C22.8930208,18 25.4328448,19.6596836 27.3036455,22.4320838 Z M28,27 C27.4477153,27 27,26.5522847 27,26 C27,25.4477153 27.4477153,25 28,25 C28.5522847,25 29,25.4477153 29,26 C29,26.5522847 28.5522847,27 28,27 Z"/>
</svg>
