<svg width="40" height="40" viewBox="0 0 40 40" fill="none" xmlns="http://www.w3.org/2000/svg">
<path fill-rule="evenodd" clip-rule="evenodd" d="M5.1999 15C4.22877 15 3.3999 15.7754 3.3999 16.8V27.1C3.3999 27.9548 4.00063 28.6993 4.84324 28.8655C4.95402 28.8232 5.07425 28.8 5.1999 28.8H6.1999C6.75219 28.8 7.1999 29.2477 7.1999 29.8V32.0486L10.0852 29.1005C10.2734 28.9083 10.531 28.8 10.7999 28.8H23.1999C24.171 28.8 24.9999 28.0246 24.9999 27V23.5C24.9999 22.9477 25.4476 22.5 25.9999 22.5C26.5522 22.5 26.9999 22.9477 26.9999 23.5V27C26.9999 29.1754 25.2288 30.8 23.1999 30.8H11.2204L6.91457 35.1995C6.6303 35.4899 6.19851 35.5794 5.82219 35.4259C5.44588 35.2724 5.1999 34.9064 5.1999 34.5V30.9C3.02448 30.9 1.3999 29.1289 1.3999 27.1V16.8C1.3999 14.6246 3.17104 13 5.1999 13H13.5C14.0523 13 14.5 13.4477 14.5 14C14.5 14.5523 14.0523 15 13.5 15H5.1999Z" fill="#ADB5BD"/>
<path fill-rule="evenodd" clip-rule="evenodd" d="M12.5999 9.8C12.5999 7.77114 14.2244 6 16.3999 6H34.3999C36.5753 6 38.1999 7.77114 38.1999 9.8V20.1C38.1999 22.1289 36.5753 23.9 34.3999 23.9V27.5C34.3999 27.9064 34.1539 28.2724 33.7776 28.4259C33.4013 28.5794 32.9695 28.4899 32.6852 28.1995L28.3793 23.8H16.3999C14.371 23.8 12.5999 22.1754 12.5999 20V9.8ZM16.3999 8C15.3753 8 14.5999 8.82886 14.5999 9.8V20C14.5999 21.0246 15.4287 21.8 16.3999 21.8H28.7999C29.0688 21.8 29.3264 21.9083 29.5145 22.1005L32.3999 25.0486V22.8C32.3999 22.2477 32.8476 21.8 33.3999 21.8H34.3999C34.5255 21.8 34.6457 21.8232 34.7565 21.8655C35.5991 21.6993 36.1999 20.9548 36.1999 20.1V9.8C36.1999 8.82886 35.4244 8 34.3999 8H16.3999Z" fill="#ADB5BD"/>
<path d="M21.6 16.3001C22.2075 16.3001 22.7 15.8076 22.7 15.2001C22.7 14.5926 22.2075 14.1001 21.6 14.1001C20.9925 14.1001 20.5 14.5926 20.5 15.2001C20.5 15.8076 20.9925 16.3001 21.6 16.3001Z" fill="#ADB5BD"/>
<path d="M24.9999 16.3001C25.6074 16.3001 26.0999 15.8076 26.0999 15.2001C26.0999 14.5926 25.6074 14.1001 24.9999 14.1001C24.3924 14.1001 23.8999 14.5926 23.8999 15.2001C23.8999 15.8076 24.3924 16.3001 24.9999 16.3001Z" fill="#ADB5BD"/>
<path d="M28.4999 16.3001C29.1074 16.3001 29.5999 15.8076 29.5999 15.2001C29.5999 14.5926 29.1074 14.1001 28.4999 14.1001C27.8924 14.1001 27.3999 14.5926 27.3999 15.2001C27.3999 15.8076 27.8924 16.3001 28.4999 16.3001Z" fill="#ADB5BD"/>
</svg>
