<svg width="40" height="40" viewBox="0 0 40 40" fill="none" xmlns="http://www.w3.org/2000/svg">
<path fill-rule="evenodd" clip-rule="evenodd" d="M14 0C13.5696 0 13.1874 0.27543 13.0513 0.683772L11.0588 6.66135C11.0212 6.76576 11.0005 6.87823 11 6.99546L11 7V8H3C2.44772 8 2 8.44771 2 9V26H1C0.447715 26 0 26.4477 0 27C0 27.5523 0.447715 28 1 28H3H12H20H22.4692L22.0299 29.7575C22.01 29.8368 22 29.9182 22 30V36C22 36.5523 22.4477 37 23 37H26.126C26.5701 38.7252 28.1362 40 30 40C31.8638 40 33.4299 38.7252 33.874 37H36C36.5523 37 37 36.5523 37 36C37 35.4477 36.5523 35 36 35H33.874C33.4299 33.2748 31.8638 32 30 32C28.1362 32 26.5701 33.2748 26.126 35H24V30.1231L25.7808 23H39C39.5523 23 40 22.5523 40 22C40 21.4477 39.5523 21 39 21H25C24.5411 21 24.1411 21.3123 24.0299 21.7575L22.9692 26H21V19H35H39C39.5523 19 40 18.5523 40 18C40 17.4477 39.5523 17 39 17H36V8C36 7.44772 35.5523 7 35 7C34.4477 7 34 7.44772 34 8V17H21V13.2285C21.7645 13.7878 22.7494 14.37 23.8919 14.7358C25.1367 15.1344 26.5897 15.2825 28.1401 14.8447C29.6908 14.4068 31.2541 13.4068 32.7592 11.6508C33.1187 11.2315 33.0701 10.6002 32.6508 10.2407C32.2314 9.88132 31.6001 9.92988 31.2407 10.3492C29.9404 11.8663 28.6981 12.6089 27.5966 12.92C26.4949 13.2311 25.449 13.1343 24.5018 12.8311C22.8259 12.2945 21.5274 11.133 21 10.6035V7.13017C21 7.10823 20.9993 7.08647 20.9979 7.06489C21.0062 6.93755 20.9901 6.80814 20.9487 6.68377L18.9487 0.683772C18.8126 0.27543 18.4304 0 18 0H14ZM13 26V9V8H15V9C15 9.55228 15.4477 10 16 10C16.5523 10 17 9.55228 17 9V8H19V18V26H13ZM4 10H11V26H4V10ZM17 5V6H18.6126L17.2792 2H14.7208L13.3874 6H15V5C15 4.44772 15.4477 4 16 4C16.5523 4 17 4.44772 17 5ZM17 12C17 12.5523 16.5523 13 16 13C15.4477 13 15 12.5523 15 12C15 11.4477 15.4477 11 16 11C16.5523 11 17 11.4477 17 12ZM16 16C16.5523 16 17 15.5523 17 15C17 14.4477 16.5523 14 16 14C15.4477 14 15 14.4477 15 15C15 15.5523 15.4477 16 16 16ZM17 18C17 18.5523 16.5523 19 16 19C15.4477 19 15 18.5523 15 18C15 17.4477 15.4477 17 16 17C16.5523 17 17 17.4477 17 18ZM16 22C16.5523 22 17 21.5523 17 21C17 20.4477 16.5523 20 16 20C15.4477 20 15 20.4477 15 21C15 21.5523 15.4477 22 16 22ZM17 24C17 24.5523 16.5523 25 16 25C15.4477 25 15 24.5523 15 24C15 23.4477 15.4477 23 16 23C16.5523 23 17 23.4477 17 24ZM15 31C14.4477 31 14 31.4477 14 32C14 32.5523 14.4477 33 15 33H18C18.5523 33 19 32.5523 19 32C19 31.4477 18.5523 31 18 31H15ZM7 32C7 31.4477 7.44772 31 8 31H11C11.5523 31 12 31.4477 12 32C12 32.5523 11.5523 33 11 33H8C7.44772 33 7 32.5523 7 32ZM1 31C0.447715 31 0 31.4477 0 32C0 32.5523 0.447715 33 1 33H4C4.55228 33 5 32.5523 5 32C5 31.4477 4.55228 31 4 31H1ZM38.7071 10.2929C38.3166 9.90237 37.6834 9.90237 37.2929 10.2929C36.9024 10.6834 36.9024 11.3166 37.2929 11.7071L38.2929 12.7071C38.6834 13.0976 39.3166 13.0976 39.7071 12.7071C40.0976 12.3166 40.0976 11.6834 39.7071 11.2929L38.7071 10.2929ZM6 17C5.44772 17 5 17.4477 5 18C5 18.5523 5.44772 19 6 19H9C9.55229 19 10 18.5523 10 18C10 17.4477 9.55229 17 9 17H6ZM5 15C5 14.4477 5.44772 14 6 14H9C9.55229 14 10 14.4477 10 15C10 15.5523 9.55229 16 9 16H6C5.44772 16 5 15.5523 5 15ZM6 11C5.44772 11 5 11.4477 5 12C5 12.5523 5.44772 13 6 13H9C9.55229 13 10 12.5523 10 12C10 11.4477 9.55229 11 9 11H6ZM5 21C5 20.4477 5.44772 20 6 20H9C9.55229 20 10 20.4477 10 21C10 21.5523 9.55229 22 9 22H6C5.44772 22 5 21.5523 5 21ZM6 23C5.44772 23 5 23.4477 5 24C5 24.5523 5.44772 25 6 25H9C9.55229 25 10 24.5523 10 24C10 23.4477 9.55229 23 9 23H6ZM32 36C32 34.8954 31.1046 34 30 34C28.8954 34 28 34.8954 28 36C28 37.1046 28.8954 38 30 38C31.1046 38 32 37.1046 32 36ZM30 25C30 24.4477 29.5523 24 29 24C28.4477 24 28 24.4477 28 25V28H27C26.4477 28 26 28.4477 26 29C26 29.5523 26.4477 30 27 30H29C29.5523 30 30 29.5523 30 29V25ZM32 25C32 24.4477 32.4477 24 33 24H38C38.5523 24 39 24.4477 39 25V29C39 29.5523 38.5523 30 38 30H33C32.4477 30 32 29.5523 32 29V25ZM40 36C40 36.5523 39.5523 37 39 37C38.4477 37 38 36.5523 38 36C38 35.4477 38.4477 35 39 35C39.5523 35 40 35.4477 40 36ZM37 26H34V28H37V26Z" fill="#ADB5BD"/>
</svg>
