<svg xmlns="http://www.w3.org/2000/svg" width="40" height="40" viewBox="0 0 40 40">
  <path fill-rule="evenodd" d="M20,34 L21,34 C21.5522847,34 22,34.4477153 22,35 C22,35.5522847 21.5522847,36 21,36 L5,36 C4.44771525,36 4,35.5522847 4,35 C4,34.4477153 4.44771525,34 5,34 L6,34 L6,33 C6,31.8954305 6.8954305,31 8,31 L18,31 C19.1045695,31 20,31.8954305 20,33 L20,34 Z M18,34 L18,33 L8,33 L8,34 L18,34 Z M21.2928932,19.2928932 L23.2928932,17.2928932 L24.5857864,16 L18,9.41421356 L13.4142136,14 L20,20.5857864 L21.2928932,19.2928932 Z M25.4142136,18 L29.7071068,22.2928932 C30.0976311,22.6834175 30.0976311,23.3165825 29.7071068,23.7071068 C29.3165825,24.0976311 28.6834175,24.0976311 28.2928932,23.7071068 L24,19.4142136 L23.4142136,20 L32.7071068,29.2928932 C32.8688672,29.4546537 33.1311328,29.4546537 33.2928932,29.2928932 C33.4546537,29.1311328 33.4546537,28.8688672 33.2928932,28.7071068 C32.9023689,28.3165825 32.9023689,27.6834175 33.2928932,27.2928932 C33.6834175,26.9023689 34.3165825,26.9023689 34.7071068,27.2928932 C35.6499158,28.2357023 35.6499158,29.7642977 34.7071068,30.7071068 C33.7642977,31.6499158 32.2357023,31.6499158 31.2928932,30.7071068 L22,21.4142136 L19.1213203,24.2928932 C17.9497475,25.4644661 16.0502525,25.4644661 14.8786797,24.2928932 L9.70710678,19.1213203 C8.53553391,17.9497475 8.53553391,16.0502525 9.70710678,14.8786797 L18.8786797,5.70710678 C20.0502525,4.53553391 21.9497475,4.53553391 23.1213203,5.70710678 L28.2928932,10.8786797 C29.4644661,12.0502525 29.4644661,13.9497475 28.2928932,15.1213203 L25.4142136,18 Z M19.4142136,8 L26,14.5857864 L26.8786797,13.7071068 C27.2692039,13.3165825 27.2692039,12.6834175 26.8786797,12.2928932 L21.7071068,7.12132034 C21.3165825,6.73079605 20.6834175,6.73079605 20.2928932,7.12132034 L19.4142136,8 Z M12,15.4142136 L11.1213203,16.2928932 C10.7307961,16.6834175 10.7307961,17.3165825 11.1213203,17.7071068 L16.2928932,22.8786797 C16.6834175,23.2692039 17.3165825,23.2692039 17.7071068,22.8786797 L18.5857864,22 L12,15.4142136 Z M32,27 C31.4477153,27 31,26.5522847 31,26 C31,25.4477153 31.4477153,25 32,25 C32.5522847,25 33,25.4477153 33,26 C33,26.5522847 32.5522847,27 32,27 Z"/>
</svg>
