<svg xmlns="http://www.w3.org/2000/svg" width="40" height="40" viewBox="0 0 40 40">
  <path fill-rule="evenodd" d="M31,16 L34,16 C34.5522847,16 35,16.4477153 35,17 C35,17.5522847 34.5522847,18 34,18 L30,18 C29.4477153,18 29,17.5522847 29,17 L29,11 L25,11 C24.7347835,11 24.4804296,10.8946432 24.2928932,10.7071068 L22.2928932,8.70710678 C21.9023689,8.31658249 21.9023689,7.68341751 22.2928932,7.29289322 L24.2928932,5.29289322 C24.4804296,5.10535684 24.7347835,5 25,5 L29,5 L29,3 C29,2.44771525 29.4477153,2 30,2 C30.5522847,2 31,2.44771525 31,3 L35,3 C35.2652165,3 35.5195704,3.10535684 35.7071068,3.29289322 L37.7071068,5.29289322 C38.0976311,5.68341751 38.0976311,6.31658249 37.7071068,6.70710678 L35.7071068,8.70710678 C35.5195704,8.89464316 35.2652165,9 35,9 L31,9 L31,16 Z M29,7 L25.4142136,7 L24.4142136,8 L25.4142136,9 L29,9 L29,7 Z M31,6 L31,7 L34.5857864,7 L35.5857864,6 L34.5857864,5 L31,5 L31,6 Z M24,32.1707057 L24,23 C24,22.4477153 24.4477153,22 25,22 L37,22 C37.5522847,22 38,22.4477153 38,23 L38,35 C38,36.6568542 36.6568542,38 35,38 C33.3431458,38 32,36.6568542 32,35 C32,33.3431458 33.3431458,32 35,32 C35.3506354,32 35.6872211,32.0601542 36,32.1707057 L36,24 L26,24 L26,27 L30,27 C30.5522847,27 31,27.4477153 31,28 C31,28.5522847 30.5522847,29 30,29 L26,29 L26,35 C26,36.6568542 24.6568542,38 23,38 C21.3431458,38 20,36.6568542 20,35 C20,33.3431458 21.3431458,32 23,32 C23.3506354,32 23.6872211,32.0601542 24,32.1707057 Z M13.9920335,18 L3,18 C2.44771525,18 2,17.5522847 2,17 L2,7 C2,6.44771525 2.44771525,6 3,6 L5.58578644,6 L9.29289322,2.29289322 C9.68341751,1.90236893 10.3165825,1.90236893 10.7071068,2.29289322 L14.4142136,6 L17,6 C17.5522847,6 18,6.44771525 18,7 L18,17 C18,17.5522847 17.5522847,18 17,18 L14.009238,18 C14.0035024,18.0000491 13.9977675,18.0000491 13.992034,18 Z M4,9.58578644 L7.12741788,12.7132043 L9.4452998,11.1679497 C9.87689066,10.8802225 10.4568347,10.9702623 10.7808688,11.375305 L14.4806248,16 L16,16 L16,8 L14,8 L6,8 L4,8 L4,9.58578644 Z M4,12.4142136 L4,16 L11.9193752,16 L9.79186228,13.3406089 L7.5547002,14.8320503 C7.15807761,15.0964653 6.6299576,15.0441712 6.29289322,14.7071068 L4,12.4142136 Z M8.41421356,6 L11.5857864,6 L10,4.41421356 L8.41421356,6 Z M23,34 C22.4477153,34 22,34.4477153 22,35 C22,35.5522847 22.4477153,36 23,36 C23.5522847,36 24,35.5522847 24,35 C24,34.4477153 23.5522847,34 23,34 Z M35,34 C34.4477153,34 34,34.4477153 34,35 C34,35.5522847 34.4477153,36 35,36 C35.5522847,36 36,35.5522847 36,35 C36,34.4477153 35.5522847,34 35,34 Z M27,16 C27.5522847,16 28,16.4477153 28,17 C28,17.5522847 27.5522847,18 27,18 L25,18 C24.4477153,18 24,17.5522847 24,17 C24,16.4477153 24.4477153,16 25,16 L27,16 Z M14,11 C13.4477153,11 13,10.5522847 13,10 C13,9.44771525 13.4477153,9 14,9 C14.5522847,9 15,9.44771525 15,10 C15,10.5522847 14.5522847,11 14,11 Z M33,29 C32.4477153,29 32,28.5522847 32,28 C32,27.4477153 32.4477153,27 33,27 C33.5522847,27 34,27.4477153 34,28 C34,28.5522847 33.5522847,29 33,29 Z M10,22 C14.418278,22 18,25.581722 18,30 C18,34.418278 14.418278,38 10,38 C5.581722,38 2,34.418278 2,30 C2,25.581722 5.581722,22 10,22 Z M10,24 C6.6862915,24 4,26.6862915 4,30 C4,33.3137085 6.6862915,36 10,36 C13.3137085,36 16,33.3137085 16,30 C16,26.6862915 13.3137085,24 10,24 Z M17,29 C17,29 17,29.4477153 17,30 C17,30.5522847 17,31 17,31 C12.581722,31 9,27.418278 9,23 C9,23 9.44771525,23 10,23 C10.5522847,23 11,23 11,23 C11,26.3137085 13.6862915,29 17,29 Z M3,31 C3,31 3,30.5522847 3,30 C3,29.4477153 3,29 3,29 C7.418278,29 11,32.581722 11,37 C11,37 10.5522847,37 10,37 C9.44771525,37 9,37 9,37 C9,33.6862915 6.3137085,31 3,31 Z"/>
</svg>
