<svg width="40" height="40" viewBox="0 0 40 40" fill="none" xmlns="http://www.w3.org/2000/svg">
<path fill-rule="evenodd" clip-rule="evenodd" d="M20.5724 6.18001C20.8403 6.36705 21 6.67322 21 7V12.3094C23.6027 13.2745 25.7278 13.8047 27.7673 13.9459C29.9621 14.0978 32.1168 13.8031 34.7189 13.041C35.249 12.8858 35.8045 13.1896 35.9597 13.7196C36.1149 14.2496 35.8111 14.8051 35.2811 14.9604C32.5157 15.7702 30.1184 16.1134 27.6292 15.9411C25.5335 15.7961 23.4148 15.2884 21 14.4364V18V24C21 28.4183 24.5817 32 29 32C33.4183 32 37 28.4183 37 24V17C37 16.4477 37.4477 16 38 16C38.5523 16 39 16.4477 39 17V24C39 29.5228 34.5228 34 29 34C23.4775 34 19.0005 29.5234 19 24.001C17.1755 26.4293 14.2712 28 11 28C5.47715 28 1 23.5228 1 18V7C1 6.6703 1.16251 6.3618 1.4344 6.17532C1.70629 5.98884 2.05262 5.94837 2.36019 6.06712C5.76608 7.38215 8.35517 7.99159 10.9261 7.98447C13.5015 7.97734 16.1426 7.35144 19.6552 6.06131C19.962 5.94865 20.3044 5.99297 20.5724 6.18001ZM19 8.41483V13V18C19 22.4183 15.4183 26 11 26C6.58172 26 3 22.4183 3 18V8.43635C5.91782 9.46596 8.39999 9.99147 10.9316 9.98446C13.4724 9.97742 15.9992 9.43404 19 8.41483ZM9 17C9.55229 17 10 16.5523 10 16V14.5C10 13.1193 8.88071 12 7.5 12C6.11929 12 5 13.1193 5 14.5L5 16C5 16.5523 5.44772 17 6 17H9ZM8 14.5V15H7V14.5C7 14.2239 7.22386 14 7.5 14C7.77614 14 8 14.2239 8 14.5ZM17 16C17 16.5523 16.5523 17 16 17H13C12.4477 17 12 16.5523 12 16V14.5C12 13.1193 13.1193 12 14.5 12C15.8807 12 17 13.1193 17 14.5V16ZM15 15V14.5C15 14.2239 14.7761 14 14.5 14C14.2239 14 14 14.2239 14 14.5V15H15ZM6.41602 19C6.07863 19 5.76398 19.1701 5.57924 19.4524C5.39451 19.7348 5.36458 20.0912 5.49966 20.4004C6.42462 22.5174 8.53804 24 11 24C13.4619 24 15.5753 22.5174 16.5003 20.4004C16.6354 20.0912 16.6054 19.7348 16.4207 19.4524C16.236 19.1701 15.9213 19 15.5839 19H6.41602ZM11 22C9.98613 22 9.05954 21.6228 8.35392 21H13.646C12.9404 21.6228 12.0138 22 11 22ZM23 19C23 18.4477 23.4477 18 24 18H27C27.5523 18 28 18.4477 28 19V20.5C28 21.8807 26.8807 23 25.5 23C24.1193 23 23 21.8807 23 20.5V19ZM25 20V20.5C25 20.7761 25.2239 21 25.5 21C25.7761 21 26 20.7761 26 20.5V20H25ZM31 18C30.4477 18 30 18.4477 30 19V20.5C30 21.8807 31.1193 23 32.5 23C33.8807 23 35 21.8807 35 20.5V19C35 18.4477 34.5523 18 34 18H31ZM32 20.5V20H33V20.5C33 20.7761 32.7761 21 32.5 21C32.2239 21 32 20.7761 32 20.5ZM34.4207 28.5476C34.236 28.8299 33.9213 29 33.5839 29H24.416C24.0786 29 23.764 28.8299 23.5792 28.5476C23.3945 28.2652 23.3646 27.9088 23.4997 27.5996C24.4246 25.4826 26.538 24 29 24C31.4619 24 33.5753 25.4826 34.5003 27.5996C34.6354 27.9088 34.6054 28.2652 34.4207 28.5476ZM31.646 27C30.9404 26.3772 30.0138 26 29 26C27.9861 26 27.0595 26.3772 26.3539 27H31.646ZM38 14C38.5523 14 39 13.5523 39 13C39 12.4477 38.5523 12 38 12C37.4477 12 37 12.4477 37 13C37 13.5523 37.4477 14 38 14Z" fill="#ADB5BD"/>
</svg>
