<svg width="40" height="40" viewBox="0 0 40 40" fill="none" xmlns="http://www.w3.org/2000/svg">
<path fill-rule="evenodd" clip-rule="evenodd" d="M19.5528 7.10557C19.8343 6.96481 20.1657 6.96481 20.4472 7.10557L23.4472 8.60557C23.9412 8.85256 24.1414 9.45324 23.8944 9.94721C23.6474 10.4412 23.0468 10.6414 22.5528 10.3944L20 9.11803L6.23607 16L10.4278 18.0959C10.4404 18.1019 10.4529 18.1081 10.4652 18.1146L20 22.882L29.5348 18.1146C29.5471 18.1081 29.5596 18.1019 29.5721 18.0959L33.7639 16L29.5528 13.8944C29.0588 13.6474 28.8586 13.0468 29.1056 12.5528C29.3526 12.0588 29.9532 11.8586 30.4472 12.1056L36.4278 15.0959C36.489 15.1249 36.5468 15.1599 36.6004 15.2002C36.6639 15.2479 36.7211 15.3027 36.771 15.3631C36.9164 15.5392 37 15.7633 37 16V22C37 22.0565 36.9953 22.1119 36.9863 22.1659C38.1586 22.5738 39 23.6887 39 25V29C39 29.3466 38.8205 29.6684 38.5257 29.8507C38.2309 30.0329 37.8628 30.0494 37.5528 29.8944L36 29.118L34.4472 29.8944C34.1372 30.0494 33.7691 30.0329 33.4743 29.8507C33.1795 29.6684 33 29.3466 33 29V25C33 23.6887 33.8414 22.5738 35.0137 22.1659C35.0047 22.1119 35 22.0565 35 22V17.618L31 19.618V27C31 27.1812 30.9507 27.3591 30.8575 27.5145L30 27C30.8575 27.5145 30.8572 27.5149 30.8569 27.5154L30.8563 27.5165L30.8549 27.5189L30.8511 27.5251L30.8401 27.5429L30.8274 27.563L30.8043 27.5992C30.7743 27.6456 30.7318 27.7095 30.6767 27.7883C30.5664 27.9459 30.4049 28.1637 30.1901 28.4214C29.761 28.9363 29.1153 29.6153 28.2347 30.2926C26.4661 31.6531 23.7569 33 20 33C16.2431 33 13.5339 31.6531 11.7653 30.2926C10.8847 29.6153 10.239 28.9363 9.8099 28.4214C9.59508 28.1637 9.43363 27.9459 9.32335 27.7883C9.26817 27.7095 9.22571 27.6456 9.19568 27.5992C9.18066 27.576 9.16875 27.5571 9.1599 27.5429L9.14892 27.5251L9.14514 27.5189L9.14368 27.5165L9.14306 27.5154C9.14278 27.5149 9.14251 27.5145 10 27L9.14251 27.5145C9.04926 27.3591 9 27.1812 9 27V19.618L3.55279 16.8944C3.214 16.725 3 16.3788 3 16C3 15.6212 3.214 15.275 3.55279 15.1056L19.5528 7.10557ZM11 26.6953V20.618L19.5528 24.8944C19.8343 25.0352 20.1657 25.0352 20.4472 24.8944L29 20.618V26.6953C28.9191 26.8081 28.804 26.9607 28.6537 27.1411C28.3015 27.5637 27.7597 28.1347 27.0153 28.7074C25.5339 29.8469 23.2431 31 20 31C16.7569 31 14.4661 29.8469 12.9847 28.7074C12.2403 28.1347 11.6985 27.5637 11.3463 27.1411C11.196 26.9607 11.0809 26.8081 11 26.6953ZM35 25C35 24.4477 35.4477 24 36 24C36.5523 24 37 24.4477 37 25V27.382L36.4472 27.1056C36.1657 26.9648 35.8343 26.9648 35.5528 27.1056L35 27.382V25ZM26 12C26.5523 12 27 11.5523 27 11C27 10.4477 26.5523 10 26 10C25.4477 10 25 10.4477 25 11C25 11.5523 25.4477 12 26 12Z" fill="#ADB5BD"/>
</svg>
