<svg width="40" height="40" viewBox="0 0 40 40" fill="none" xmlns="http://www.w3.org/2000/svg">
<path fill-rule="evenodd" clip-rule="evenodd" d="M3 4C3 3.44772 3.44772 3 4 3H6C6.55228 3 7 3.44772 7 4C7 4.55228 6.55228 5 6 5H5V6C5 6.55228 4.55228 7 4 7C3.44772 7 3 6.55228 3 6V4ZM9 4C9 3.44772 9.44772 3 10 3H14C14.5523 3 15 3.44772 15 4C15 4.55228 14.5523 5 14 5H10C9.44772 5 9 4.55228 9 4ZM17 4C17 3.44772 17.4477 3 18 3H22C22.5523 3 23 3.44772 23 4C23 4.55228 22.5523 5 22 5H18C17.4477 5 17 4.55228 17 4ZM25 4C25 3.44772 25.4477 3 26 3H30C30.5523 3 31 3.44772 31 4C31 4.55228 30.5523 5 30 5H26C25.4477 5 25 4.55228 25 4ZM33 4C33 3.44772 33.4477 3 34 3H36C36.5523 3 37 3.44772 37 4V6C37 6.55228 36.5523 7 36 7C35.4477 7 35 6.55228 35 6V5H34C33.4477 5 33 4.55228 33 4ZM4 9C4.55228 9 5 9.44772 5 10V14C5 14.5523 4.55228 15 4 15C3.44772 15 3 14.5523 3 14V10C3 9.44772 3.44772 9 4 9ZM36 9C36.5523 9 37 9.44772 37 10V14C37 14.5523 36.5523 15 36 15C35.4477 15 35 14.5523 35 14V10C35 9.44772 35.4477 9 36 9ZM4 17C4.55228 17 5 17.4477 5 18V22C5 22.5523 4.55228 23 4 23C3.44772 23 3 22.5523 3 22V18C3 17.4477 3.44772 17 4 17ZM36 17C36.5523 17 37 17.4477 37 18V20V22C37 22.0034 37 22.0067 37 22.0101V24C37 31.1797 31.1797 37 24 37H22H20H18C17.4477 37 17 36.5523 17 36C17 35.4477 17.4477 35 18 35H20H22C23.6568 35 25 33.6569 25 32V26C25 25.4477 25.4477 25 26 25H32C33.6568 25 35 23.6569 35 22H35V20V18C35 17.4477 35.4477 17 36 17ZM4 25C4.55228 25 5 25.4477 5 26V30C5 30.5523 4.55228 31 4 31C3.44772 31 3 30.5523 3 30V26C3 25.4477 3.44772 25 4 25ZM4 33C4.55228 33 5 33.4477 5 34V35H6C6.55228 35 7 35.4477 7 36C7 36.5523 6.55228 37 6 37H4C3.44772 37 3 36.5523 3 36V34C3 33.4477 3.44772 33 4 33ZM9 36C9 35.4477 9.44772 35 10 35H14C14.5523 35 15 35.4477 15 36C15 36.5523 14.5523 37 14 37H10C9.44772 37 9 36.5523 9 36ZM32 27C33.0331 27 33.9931 26.6866 34.79 26.1498C33.928 30.5004 30.5004 33.9281 26.1498 34.79C26.6866 33.9931 27 33.0332 27 32V27H32Z" fill="black"/>
</svg>
