<svg xmlns="http://www.w3.org/2000/svg" width="40" height="40" viewBox="0 0 40 40">
  <path fill-rule="evenodd" d="M18.1231056,22 L18.2425356,22.0298575 C18.7783305,22.1638062 19.1040912,22.7067407 18.9701425,23.2425356 C18.8361938,23.7783305 18.2932593,24.1040912 17.7574644,23.9701425 L14,23.0307764 L11,23.7807764 L11,28.2192236 L33,33.7192236 L33,23.7807764 L22,21.0307764 L18.1231056,22 Z M14,8.96922359 L33.7574644,4.0298575 C34.3886111,3.87207082 35,4.34942885 35,5 L35,17 C35,17.4588676 34.6877026,17.8588507 34.2425356,17.9701425 L26.1231056,20 L34.2425356,22.0298575 C34.6877026,22.1411493 35,22.5411324 35,23 L35,35 C35,35.6505712 34.3886111,36.1279292 33.7574644,35.9701425 L14,31.0307764 L14,39 C14,39.5522847 13.5522847,40 13,40 C12.4477153,40 12,39.5522847 12,39 L12,30.5307764 L9.75746437,29.9701425 C9.31229737,29.8588507 9,29.4588676 9,29 L9,23 L9,11 C9,10.5411324 9.31229737,10.1411493 9.75746437,10.0298575 L12,9.46922359 L12,3.53518376 L10,2.20185043 L8,3.53518376 L8,36 C8,36.5522847 7.55228475,37 7,37 C6.44771525,37 6,36.5522847 6,36 L6,3 C6,2.66564681 6.16710114,2.35341548 6.4452998,2.16794971 L9.4452998,0.167949706 C9.78119922,-0.0559832352 10.2188008,-0.0559832352 10.5547002,0.167949706 L13.5547002,2.16794971 C13.8328989,2.35341548 14,2.66564681 14,3 L14,8.96922359 Z M14.2425356,25.0298575 L27.2219893,28.2747209 C27.7577842,28.4086697 28.0835449,28.9516041 27.9495962,29.487399 C27.8156475,30.023194 27.272713,30.3489547 26.7369181,30.2150059 L13.7574644,26.9701425 C13.2216695,26.8361938 12.8959088,26.2932593 13.0298575,25.7574644 C13.1638062,25.2216695 13.7067407,24.8959088 14.2425356,25.0298575 Z M11,11.7807764 L11,21.7192236 L33,16.2192236 L33,6.28077641 L11,11.7807764 Z M14.2425356,18.9701425 C13.7067407,19.1040912 13.1638062,18.7783305 13.0298575,18.2425356 C12.8959088,17.7067407 13.2216695,17.1638062 13.7574644,17.0298575 L29.7574644,13.0298575 C30.2932593,12.8959088 30.8361938,13.2216695 30.9701425,13.7574644 C31.1040912,14.2932593 30.7783305,14.8361938 30.2425356,14.9701425 L14.2425356,18.9701425 Z M14.2425356,14.9701425 C13.7067407,15.1040912 13.1638062,14.7783305 13.0298575,14.2425356 C12.8959088,13.7067407 13.2216695,13.1638062 13.7574644,13.0298575 L17.790523,12.0215928 C18.3263179,11.8876441 18.8692524,12.2134048 19.0032012,12.7491997 C19.1371499,13.2849946 18.8113892,13.8279291 18.2755943,13.9618778 L14.2425356,14.9701425 Z M7,40 C6.44771525,40 6,39.5522847 6,39 C6,38.4477153 6.44771525,38 7,38 C7.55228475,38 8,38.4477153 8,39 C8,39.5522847 7.55228475,40 7,40 Z M30,31 C29.4477153,31 29,30.5522847 29,30 C29,29.4477153 29.4477153,29 30,29 C30.5522847,29 31,29.4477153 31,30 C31,30.5522847 30.5522847,31 30,31 Z"/>
</svg>
