<svg xmlns="http://www.w3.org/2000/svg" width="40" height="40" viewBox="0 0 40 40">
  <path fill-rule="evenodd" d="M15.4142136,26 L12.5417883,28.8724253 C14.815323,30.8220975 17.7701046,32 21,32 C21.3062151,32 21.6123172,31.9882442 21.9176303,31.9647586 C28.5059426,31.4579653 33.4359878,25.7062459 32.9291945,19.1179337 L32.0029455,7.0766965 C31.9605872,6.52603851 32.3726455,6.04530382 32.9233035,6.00294551 C33.4739615,5.96058721 33.9546962,6.37264551 33.9970545,6.9233035 L34.9233035,18.9645407 C35.5148134,26.6541689 29.7606515,33.3673577 22.0710233,33.9588676 C21.7146735,33.9862791 21.3574026,34 21,34 C17.2177485,34 13.7624524,32.6001377 11.1239561,30.2902574 L5.70710678,35.7071068 C5.31658249,36.0976311 4.68341751,36.0976311 4.29289322,35.7071068 C3.90236893,35.3165825 3.90236893,34.6834175 4.29289322,34.2928932 L9.70974256,28.8760439 C7.39986232,26.2375476 6,22.7822515 6,19 C6,11.287655 12.2520909,5.03556405 19.9644359,5.03556405 C20.3218386,5.03556405 20.6791094,5.04928497 21.0354593,5.0766965 L26.0421631,5.46182756 C26.5928211,5.50418587 27.0048794,5.98492056 26.9625211,6.53557854 C26.9201628,7.08623653 26.4394281,7.49829484 25.8887701,7.45593653 L20.8820663,7.07080547 C20.5767532,7.04731985 20.270651,7.03556405 19.9644359,7.03556405 C13.3566604,7.03556405 8,12.3922245 8,19 C8,22.2298954 9.17790252,25.184677 11.1275747,27.4582117 L14,24.5857864 L14,15 C14,14.4477153 14.4477153,14 15,14 C15.5522847,14 16,14.4477153 16,15 L16,22.5857864 L24.2928932,14.2928932 C24.6834175,13.9023689 25.3165825,13.9023689 25.7071068,14.2928932 C26.0976311,14.6834175 26.0976311,15.3165825 25.7071068,15.7071068 L17.4142136,24 L25,24 C25.5522847,24 26,24.4477153 26,25 C26,25.5522847 25.5522847,26 25,26 L15.4142136,26 Z M29,7.69 C28.4477153,7.69 28,7.24228475 28,6.69 C28,6.13771525 28.4477153,5.69 29,5.69 C29.5522847,5.69 30,6.13771525 30,6.69 C30,7.24228475 29.5522847,7.69 29,7.69 Z"/>
</svg>
