<svg width="40" height="40" viewBox="0 0 40 40" fill="none" xmlns="http://www.w3.org/2000/svg">
<path d="M34.9 27C35.3971 27 35.8 26.597 35.8 26.1C35.8 25.6029 35.3971 25.2 34.9 25.2C34.4029 25.2 34 25.6029 34 26.1C34 26.597 34.4029 27 34.9 27Z" fill="#ADB5BD"/>
<path fill-rule="evenodd" clip-rule="evenodd" d="M13.4928 13.4928C13.8834 13.1023 14.5165 13.1023 14.9071 13.4928L26.5071 25.0928C26.8976 25.4834 26.8976 26.1165 26.5071 26.5071C26.1165 26.8976 25.4834 26.8976 25.0928 26.5071L13.4928 14.9071C13.1023 14.5165 13.1023 13.8834 13.4928 13.4928Z" fill="#ADB5BD"/>
<path fill-rule="evenodd" clip-rule="evenodd" d="M26.5072 13.4928C26.8977 13.8834 26.8977 14.5165 26.5072 14.9071L14.8072 26.6071C14.4167 26.9976 13.7835 26.9976 13.393 26.6071C13.0025 26.2165 13.0025 25.5834 13.393 25.1928L25.093 13.4928C25.4835 13.1023 26.1167 13.1023 26.5072 13.4928Z" fill="#ADB5BD"/>
<path fill-rule="evenodd" clip-rule="evenodd" d="M12.7929 3.59294C12.9805 3.40541 13.2348 3.30005 13.5 3.30005H26.5C26.7653 3.30005 27.0196 3.40541 27.2072 3.59294L36.4072 12.7929C36.5947 12.9805 36.7001 13.2348 36.7001 13.5V23.5C36.7001 24.0523 36.2523 24.5 35.7001 24.5C35.1478 24.5 34.7001 24.0523 34.7001 23.5V13.9143L26.0858 5.30005H13.9143L5.30005 13.9143V26.0858L13.9143 34.7001H26.0858L32.8929 27.8929C33.2835 27.5024 33.9166 27.5024 34.3072 27.8929C34.6977 28.2835 34.6977 28.9166 34.3072 29.3072L27.2072 36.4072C27.0196 36.5947 26.7653 36.7001 26.5 36.7001H13.5C13.2348 36.7001 12.9805 36.5947 12.7929 36.4072L3.59294 27.2072C3.40541 27.0196 3.30005 26.7653 3.30005 26.5V13.5C3.30005 13.2348 3.40541 12.9805 3.59294 12.7929L12.7929 3.59294Z" fill="#ADB5BD"/>
</svg>
