<?xml version="1.0" encoding="UTF-8"?>
<svg width="40px" height="40px" viewBox="0 0 40 40" version="1.1" xmlns="http://www.w3.org/2000/svg" xmlns:xlink="http://www.w3.org/1999/xlink">
    <!-- Generator: Sketch 58 (84663) - https://sketch.com -->
    <title>Illustrative Icon/Editorial/ticket</title>
    <desc>Created with Sketch.</desc>
    <g id="Illustrative-Icon/Editorial/ticket" stroke="none" stroke-width="1" fill="none" fill-rule="evenodd">
        <path d="M27.619886,3.21518685 L27.7071068,3.29289322 L29.7071068,5.29289322 C29.9024951,5.48828158 30.0001262,5.74440857 29.9999999,6.00049629 L30.0486988,6.00008699 C30.0622925,6.26931163 29.9676118,6.54308218 29.7642973,6.75060873 C29.3088931,7.21544755 29.0502525,7.83603877 29.0502525,8.5 C29.0502525,9.88071187 30.1695407,11 31.5502525,11 C32.2139398,11 32.8342944,10.741575 33.2990809,10.2865065 C33.6906819,9.9030933 34.3179326,9.90631384 34.7055759,10.293728 L38.7068977,14.2926842 C39.0976191,14.6831746 39.0977127,15.3165008 38.7071068,15.7071068 L15.7071068,38.7071068 C15.3165969,39.0976167 14.6834603,39.0976332 14.2929301,38.7071436 L10.2925928,34.7072231 C9.89922141,34.3138927 9.90245381,33.675145 10.2997859,33.285816 C10.7773069,32.8179132 11.0502525,32.1818835 11.0502525,31.5 C11.0502525,30.1192881 9.93096441,29 8.55025253,29 C7.86864601,29 7.23285421,29.2727216 6.76499339,29.7498985 C6.37567878,30.1469652 5.73721045,30.1501576 5.34394467,29.7570039 L1.29299398,25.7072075 C0.902374694,25.3166995 0.902329578,24.6834569 1.29289322,24.2928932 L15.4101599,10.1756265 L17.285,8.3 L17.2928932,8.29289322 L17.2966954,8.28911094 L19.3071982,6.27858826 L19.2928932,6.29289322 L21.2928932,4.29289322 C21.6834175,3.90236893 22.3165825,3.90236893 22.7071068,4.29289322 C23.0697365,4.65552292 23.0956386,5.22736831 22.7848131,5.61988597 L22.7071068,5.70710678 L21.768,6.64674521 L19.414,8.999 L20.7071068,10.2928932 C21.0675907,10.6533772 21.0953203,11.2206082 20.7902954,11.6128994 L20.7071068,11.7071068 C20.3466228,12.0675907 19.7793918,12.0953203 19.3871006,11.7902954 L19.2928932,11.7071068 L17.999,10.414 L3.41431433,24.9998992 L6.12436352,27.7091762 C6.83748087,27.2520587 7.6744838,27 8.55025253,27 C11.0355339,27 13.0502525,29.0147186 13.0502525,31.5 C13.0502525,32.3761056 12.7979992,33.2134098 12.3405591,33.9266963 L14.9999632,36.5858233 L29.585,22 L28.2928932,20.7071068 C27.9324093,20.3466228 27.9046797,19.7793918 28.2097046,19.3871006 L28.2928932,19.2928932 C28.6834175,18.9023689 29.3165825,18.9023689 29.7071068,19.2928932 L29.7071068,19.2928932 L31,20.585 L36.5855773,15.0002091 L33.9138241,12.3300354 C33.2140767,12.7626005 32.4002481,13 31.5502525,13 C29.0649712,13 27.0502525,10.9852814 27.0502525,8.5 C27.0502525,7.64966993 27.2878396,6.83554064 27.7207184,6.13561716 L26.2928932,4.70710678 C25.9023689,4.31658249 25.9023689,3.68341751 26.2928932,3.29289322 C26.6555229,2.93026352 27.2273683,2.9043614 27.619886,3.21518685 Z M15.2365646,19.0516458 C15.3465169,19.0502404 15.4538662,19.0851203 15.5419935,19.1508856 L17.3910862,20.5307791 L19.5760884,19.7898235 C19.8376033,19.7011412 20.1214942,19.8412498 20.2101765,20.1027647 C20.2454903,20.2069013 20.2454903,20.319775 20.2101765,20.4239116 L19.4692209,22.6089138 L20.8491144,24.4580065 C21.0142688,24.6793177 20.9687448,24.9926099 20.7474336,25.1577643 C20.6593063,25.2235297 20.5519571,25.2584096 20.4420047,25.2570042 L18.1349762,25.2275163 L16.8027952,27.1112741 C16.6433513,27.3367342 16.3313249,27.3902509 16.1058648,27.230807 C16.0160854,27.1673156 15.9497399,27.0759989 15.9170994,26.9709937 L15.232233,24.767767 L13.0290063,24.0829006 C12.7653102,24.0009315 12.6179913,23.7207143 12.6999605,23.4570182 C12.732601,23.352013 12.7989465,23.2606962 12.8887259,23.1972048 L14.7724837,21.8650238 L14.7429958,19.5579953 C14.7394665,19.2818755 14.9604448,19.0551751 15.2365646,19.0516458 Z M24.1128994,13.7097046 L24.2071068,13.7928932 L26.2071068,15.7928932 C26.5976311,16.1834175 26.5976311,16.8165825 26.2071068,17.2071068 C25.8466228,17.5675907 25.2793918,17.5953203 24.8871006,17.2902954 L24.7928932,17.2071068 L22.7928932,15.2071068 C22.4023689,14.8165825 22.4023689,14.1834175 22.7928932,13.7928932 C23.1533772,13.4324093 23.7206082,13.4046797 24.1128994,13.7097046 Z M25,1 C25.5522847,1 26,1.44771525 26,2 C26,2.55228475 25.5522847,3 25,3 C24.4477153,3 24,2.55228475 24,2 C24,1.44771525 24.4477153,1 25,1 Z" id="Combined-Shape" fill="#ADB5BD"></path>
    </g>
</svg>