<svg width="40" height="40" viewBox="0 0 40 40" fill="none" xmlns="http://www.w3.org/2000/svg">
<g clip-path="url(#clip0)">
<path fill-rule="evenodd" clip-rule="evenodd" d="M1 11C1 7.13401 4.13401 4 8 4C11.866 4 15 7.13401 15 11V13V15.447L24.5862 11.0896C24.8609 10.9648 25.1773 10.9706 25.4472 11.1056L32.4472 14.6056C32.9412 14.8526 33.1414 15.4532 32.8944 15.9472C32.6474 16.4412 32.0468 16.6414 31.5528 16.3944L24.9795 13.1078L14.8108 17.7299L12.3874 25H14C14.5523 25 15 25.4477 15 26V36H19V29C19 28.4477 19.4477 28 20 28H30C30.5523 28 31 28.4477 31 29V36H35V26C35 25.4477 35.4477 25 36 25H37.4612L35.4195 20.4061C35.1952 19.9015 35.4225 19.3105 35.9272 19.0862C36.4319 18.8619 37.0229 19.0892 37.2472 19.5939L39.9138 25.5939C40.0513 25.9032 40.023 26.2611 39.8385 26.5449C39.654 26.8288 39.3385 27 39 27H37V37C37 37.5523 36.5523 38 36 38H30H20H14H2C1.44772 38 1 37.5523 1 37V29V21V13V11ZM13 36V30H7V36H13ZM13 28V27H11C10.6786 27 10.3767 26.8455 10.1888 26.5847C10.0008 26.3239 9.94967 25.9887 10.0513 25.6838L11.2792 22H7V28H13ZM11.9459 20L13 16.8377V14H7V20H11.9459ZM22.6666 36H27.3333L25 34.25L22.6666 36ZM5 36V30H3V36H5ZM5 28V22H3V28H5ZM5 20V14H3V20H5ZM6 12H13V11C13 8.23858 10.7614 6 8 6C5.23858 6 3 8.23858 3 11V12H6ZM22 19C22 18.4477 22.4477 18 23 18H27C27.5523 18 28 18.4477 28 19V23C28 23.5523 27.5523 24 27 24H23C22.4477 24 22 23.5523 22 23V19ZM24 22H26V20H24V22ZM21 34.75L23.3333 33L21 31.25V34.75ZM29 31.25L26.6666 33L29 34.75V31.25ZM22.6666 30L25 31.75L27.3333 30H22.6666ZM36 17C36 17.5523 35.5523 18 35 18C34.4477 18 34 17.5523 34 17C34 16.4477 34.4477 16 35 16C35.5523 16 36 16.4477 36 17Z" fill="#ADB5BD"/>
</g>
<defs>
<clipPath id="clip0">
<rect width="40" height="40" fill="white"/>
</clipPath>
</defs>
</svg>
