<svg width="40" height="40" viewBox="0 0 40 40" fill="none" xmlns="http://www.w3.org/2000/svg">
<path fill-rule="evenodd" clip-rule="evenodd" d="M5.5 18.1C5.5 11.3478 11.0477 5.80005 17.8 5.80005C24.5523 5.80005 30.1 11.3478 30.1 18.1C30.1 18.6523 29.6523 19.1 29.1 19.1C28.5477 19.1 28.1 18.6523 28.1 18.1C28.1 12.4523 23.4477 7.80005 17.8 7.80005C12.1523 7.80005 7.5 12.4523 7.5 18.1C7.5 23.7478 12.1523 28.4 17.8 28.4C20.6123 28.4 23.1726 27.2214 25.1103 25.3759C25.5034 25.0016 26.1233 25.0091 26.5071 25.3929L34.2071 33.0929C34.5976 33.4835 34.5976 34.1166 34.2071 34.5072C33.8166 34.8977 33.1834 34.8977 32.7929 34.5072L25.7583 27.4725C23.5907 29.2593 20.835 30.4 17.8 30.4C11.0477 30.4 5.5 24.8523 5.5 18.1Z" fill="#ADB5BD"/>
<path d="M28 23.4001C28.5523 23.4001 29 22.9524 29 22.4001C29 21.8479 28.5523 21.4001 28 21.4001C27.4477 21.4001 27 21.8479 27 22.4001C27 22.9524 27.4477 23.4001 28 23.4001Z" fill="#ADB5BD"/>
</svg>
