<svg width="40" height="40" viewBox="0 0 40 40" fill="none" xmlns="http://www.w3.org/2000/svg">
<mask id="mask0_24622_59084" style="mask-type:luminance" maskUnits="userSpaceOnUse" x="1" y="13" width="19" height="22">
<path d="M19.9999 15.2002L12.4999 13.2002L4.9999 15.2002L1.8999 34.4002L10.9999 29.8002L19.9999 34.4002" fill="white"/>
</mask>
<g mask="url(#mask0_24622_59084)">
<path fill-rule="evenodd" clip-rule="evenodd" d="M11.9271 12.3806C12.1688 12.2116 12.4728 12.158 12.7577 12.234L20.2577 14.234C20.6954 14.3507 21 14.7472 21 15.2002V34.4002C21 34.7484 20.8189 35.0714 20.522 35.2532C20.225 35.4349 19.8549 35.4491 19.5449 35.2906L10.5449 30.6906C10.1814 30.5048 9.96734 30.1168 10.0041 29.7102L11.5041 13.1102C11.5306 12.8165 11.6854 12.5495 11.9271 12.3806ZM13.3891 14.4722L12.0568 29.2173L19 32.766V15.9685L13.3891 14.4722Z" fill="#ADB5BD"/>
</g>
<path fill-rule="evenodd" clip-rule="evenodd" d="M12.2423 12.234C12.4111 12.1889 12.5888 12.1889 12.7576 12.234L20.2576 14.234C20.7912 14.3763 21.1085 14.9242 20.9662 15.4579C20.8239 15.9915 20.2759 16.3087 19.7423 16.1664L12.4999 14.2351L5.88384 15.9994L3.19989 32.6226L10.5488 28.9077C10.8339 28.7636 11.1706 28.7644 11.455 28.9098L20.455 33.5098C20.9468 33.7611 21.1417 34.3635 20.8904 34.8553C20.639 35.3471 20.0366 35.542 19.5448 35.2906L10.9974 30.922L2.35106 35.2927C2.0155 35.4623 1.61314 35.4293 1.30964 35.2074C1.00613 34.9854 0.852781 34.612 0.912714 34.2408L4.01271 15.0408C4.07556 14.6515 4.36128 14.3356 4.74227 14.234L12.2423 12.234Z" fill="#ADB5BD"/>
<mask id="mask1_24622_59084" style="mask-type:luminance" maskUnits="userSpaceOnUse" x="20" y="13" width="19" height="22">
<path d="M38.2 34.4L29.1 29.7999L20 34.4V15.2L27.5 13.2L35 15.2L38.2 34.4Z" fill="white"/>
</mask>
<g mask="url(#mask1_24622_59084)">
<path fill-rule="evenodd" clip-rule="evenodd" d="M27.8519 16.8504C28.4016 16.7974 28.8902 17.2001 28.9432 17.7498L30.0426 29.1559L38.6512 33.5075C39.1441 33.7567 39.3416 34.3582 39.0925 34.8511C38.8433 35.344 38.2418 35.5416 37.7489 35.2924L28.6489 30.6924C28.3429 30.5378 28.1375 30.2371 28.1046 29.8959L26.9524 17.9417C26.8995 17.392 27.3021 16.9034 27.8519 16.8504Z" fill="#ADB5BD"/>
</g>
<path fill-rule="evenodd" clip-rule="evenodd" d="M25.7969 13.6542C25.9392 14.1878 25.6219 14.7358 25.0883 14.8781L21 15.9683V32.774L28.0391 29.2158L26.9402 17.815C26.8872 17.2652 27.2899 17.7766 27.8396 17.7236C28.3894 17.6707 28.878 17.0733 28.931 17.6231L30.0954 29.7041C30.1349 30.1142 29.9189 30.5066 29.5511 30.6925L20.4511 35.2925C20.1411 35.4492 19.772 35.4338 19.4761 35.2518C19.1803 35.0699 19 34.7474 19 34.4V15.2C19 14.747 19.3046 14.3505 19.7423 14.2338L24.573 12.9456C25.1066 12.8033 25.6546 13.1206 25.7969 13.6542Z" fill="#ADB5BD"/>
<path fill-rule="evenodd" clip-rule="evenodd" d="M25.686 13.6837C25.8283 14.2174 25.5111 14.7653 24.9774 14.9076L21 15.9683V32.774L28.6489 28.9076C28.9325 28.7642 29.2675 28.7642 29.5511 28.9076L36.889 32.6168L34.1196 16.0002L30.9923 15.1663C30.4587 15.0239 30.1415 14.476 30.2838 13.9424C30.4261 13.4087 30.974 13.0915 31.5077 13.2338L35.2577 14.2338C35.6369 14.3349 35.9219 14.6485 35.9864 15.0356L39.1864 34.2356C39.2484 34.6074 39.096 34.9824 38.7923 35.2057C38.4887 35.429 38.0852 35.4625 37.7489 35.2925L29.1 30.9205L20.4511 35.2925C20.1411 35.4492 19.772 35.4338 19.4761 35.2518C19.1803 35.0698 19 34.7474 19 34.4V15.2C19 14.747 19.3046 14.3505 19.7423 14.2338L24.4621 12.9752C24.9957 12.8329 25.5437 13.1501 25.686 13.6837Z" fill="#ADB5BD"/>
<path fill-rule="evenodd" clip-rule="evenodd" d="M29.4808 1.70619C29.6984 1.19856 30.2862 0.963409 30.7939 1.18096C33.2404 2.2295 35 4.67761 35 7.50011C35 8.22227 34.7856 9.0571 34.4923 9.88312C34.1923 10.7281 33.7792 11.6466 33.3181 12.5623C32.3957 14.3945 31.2486 16.28 30.332 17.6548L30.3192 17.6736C29.2543 19.1948 26.8612 19.3085 25.844 17.6171C25.8435 17.6163 25.843 17.6154 25.8425 17.6146L25.8115 17.5637C24.9685 16.1752 23.8423 14.3204 22.9231 12.5323C22.4571 11.626 22.0342 10.7174 21.7257 9.88028C21.4244 9.06259 21.2 8.22925 21.2 7.50011C21.2 4.91148 22.7197 2.5896 24.8143 1.42595C25.2971 1.15774 25.9059 1.33168 26.1741 1.81447C26.4423 2.29725 26.2684 2.90605 25.7856 3.17427C24.2802 4.01062 23.2 5.68875 23.2 7.50011C23.2 7.87097 23.3255 8.43763 23.6023 9.18869C23.8719 9.92031 24.2553 10.7493 24.7018 11.6179C25.5884 13.3425 26.6841 15.1472 27.5348 16.5483L27.5575 16.5856C27.6552 16.7485 27.8323 16.8501 28.0625 16.8501C28.2921 16.8501 28.5242 16.7449 28.6754 16.5341C29.5576 15.2099 30.6567 13.4008 31.5318 11.6629C31.9707 10.7912 32.3451 9.95341 32.6076 9.21398C32.8768 8.45562 33 7.87795 33 7.50011C33 5.52261 31.7595 3.77072 30.006 3.01925C29.4984 2.8017 29.2632 2.21382 29.4808 1.70619Z" fill="#ADB5BD"/>
<path fill-rule="evenodd" clip-rule="evenodd" d="M28.1 5.6001C27.0506 5.6001 26.2 6.45076 26.2 7.5001C26.2 8.54944 27.0506 9.4001 28.1 9.4001C29.1493 9.4001 30 8.54944 30 7.5001C30 6.45076 29.1493 5.6001 28.1 5.6001ZM24.2 7.5001C24.2 5.34619 25.946 3.6001 28.1 3.6001C30.2539 3.6001 32 5.34619 32 7.5001C32 9.65401 30.2539 11.4001 28.1 11.4001C25.946 11.4001 24.2 9.65401 24.2 7.5001Z" fill="#ADB5BD"/>
<path d="M27.9 2.6999C28.3971 2.6999 28.8 2.29696 28.8 1.7999C28.8 1.30285 28.3971 0.899902 27.9 0.899902C27.4029 0.899902 27 1.30285 27 1.7999C27 2.29696 27.4029 2.6999 27.9 2.6999Z" fill="#ADB5BD"/>
</svg>
