<svg width="40" height="40" viewBox="0 0 40 40" fill="none" xmlns="http://www.w3.org/2000/svg">
<path fill-rule="evenodd" clip-rule="evenodd" d="M18.6933 9.26033C15.5192 6.20506 10.4835 6.25306 7.36827 9.36827C5.72778 11.0088 4.93956 13.1769 5.00361 15.3281C5.02004 15.8801 4.58585 16.341 4.03381 16.3574C3.48177 16.3739 3.02093 15.9397 3.00449 15.3876C2.92473 12.7086 3.90792 10.0002 5.95406 7.95406C9.83981 4.0683 16.1212 4.00843 20.0803 7.81942L20.2183 7.95232C24.1089 4.15966 30.346 4.18302 34.2075 8.04453C38.0963 11.9333 38.0963 18.2383 34.2075 22.127L33.4722 22.8623L33.4706 22.864L20.7426 35.5919C20.5551 35.7794 20.3008 35.8848 20.0355 35.8848C19.7703 35.8848 19.516 35.7794 19.3284 35.5919L15.724 31.9875C15.3335 31.597 15.3335 30.9638 15.724 30.5733C16.1146 30.1828 16.7477 30.1828 17.1383 30.5733L20.0355 33.4706L32.0564 21.4497L32.7933 20.7128C35.901 17.6051 35.901 12.5665 32.7933 9.45875C29.6649 6.33041 24.5856 6.3542 21.4867 9.51171L20.9503 10.0583C20.5661 10.4498 19.9383 10.4587 19.5431 10.0783L18.6933 9.26033L19.3868 8.53987L18.6933 9.26033ZM16.9897 12.0001C17.4351 11.9955 17.8298 12.286 17.9578 12.7127L20.744 22H24C24.5523 22 25 22.4477 25 23C25 23.5523 24.5523 24 24 24H20C19.5584 24 19.1691 23.7103 19.0422 23.2873L17.037 16.6033L12.9635 31.2676C12.8437 31.6992 12.4515 31.9983 12.0037 32C11.5558 32.0016 11.1615 31.7053 11.0385 31.2747L7.9265 20.3828L6.94868 23.3162C6.81257 23.7246 6.43043 24 6 24H4C3.44772 24 3 23.5523 3 23C3 22.4477 3.44772 22 4 22H5.27924L7.05132 16.6838C7.18996 16.2678 7.58339 15.9907 8.02172 16.0002C8.46006 16.0098 8.84107 16.3037 8.96152 16.7253L11.9864 27.3125L16.0365 12.7324C16.1557 12.3032 16.5444 12.0046 16.9897 12.0001ZM1 24C1.55228 24 2 23.5523 2 23C2 22.4477 1.55228 22 1 22C0.447715 22 0 22.4477 0 23C0 23.5523 0.447715 24 1 24Z" fill="#ADB5BD"/>
</svg>
