<svg width="40" height="40" viewBox="0 0 40 40" fill="none" xmlns="http://www.w3.org/2000/svg">
<path fill-rule="evenodd" clip-rule="evenodd" d="M14 3H15V12.7724L5.84932 31.8363C4.25611 35.1555 6.67518 39 10.3569 39H29.6431C33.3248 39 35.7439 35.1555 34.1507 31.8363L27.9015 18.8173C27.6625 18.3194 27.0652 18.1095 26.5673 18.3485C26.0694 18.5875 25.8595 19.1848 26.0985 19.6827L27.6908 23H12.3092L16.9015 13.4327C16.9663 13.2977 17 13.1498 17 13V3H23V13C23 13.1498 23.0337 13.2977 23.0985 13.4327L24.5985 16.5577C24.8375 17.0556 25.4348 17.2655 25.9327 17.0265C26.4306 16.7875 26.6405 16.1902 26.4015 15.6923L25 12.7724V3H26C26.5523 3 27 2.55228 27 2C27 1.44772 26.5523 1 26 1H24H16H14C13.4477 1 13 1.44772 13 2C13 2.55228 13.4477 3 14 3ZM11.3492 25L7.65236 32.7018C6.69644 34.6933 8.14788 37 10.3569 37H29.6431C31.8521 37 33.3036 34.6933 32.3476 32.7018L28.6508 25H11.3492Z" fill="#ADB5BD"/>
</svg>
