<svg width="40" height="40" viewBox="0 0 40 40" fill="none" xmlns="http://www.w3.org/2000/svg">
<path fill-rule="evenodd" clip-rule="evenodd" d="M21 5C20.4477 5 20 5.44772 20 6C20 6.55228 20.4477 7 21 7C21.5523 7 22 6.55228 22 6C22 5.44772 22.4477 5 23 5C23.5523 5 24 5.44772 24 6C24 7.30622 23.1652 8.41746 22 8.82929V12.7802L30.7921 11.0218C30.8196 11.0159 30.8474 11.0113 30.8755 11.0077C31.0877 10.9809 31.2948 11.0233 31.4724 11.1186C31.521 11.1447 31.5674 11.1747 31.611 11.2084C31.7748 11.3347 31.9003 11.512 31.9608 11.7226L34.744 21H35C35.5523 21 36 21.4477 36 22V22.05C36 24.7919 33.7508 27 31.0252 27C28.2719 27 26 24.7696 26 22C26 21.4477 26.4477 21 27 21H27.256L29.5639 13.307L22 14.8198V31H25C26.6569 31 28 32.3431 28 34V35H29C29.5523 35 30 35.4477 30 36C30 36.5523 29.5523 37 29 37H27H15H13C12.4477 37 12 36.5523 12 36C12 35.4477 12.4477 35 13 35H14V34C14 32.3431 15.3431 31 17 31H20V15.2198L12.2736 16.7651L14.744 25H15C15.5523 25 16 25.4477 16 26V26.05C16 28.7919 13.7508 31 11.0252 31C8.27191 31 6 28.7696 6 26C6 25.4477 6.44772 25 7 25H7.25597L10.0362 15.7325C10.0521 15.6755 10.0729 15.6203 10.0983 15.5674C10.1377 15.4854 10.1876 15.4101 10.246 15.343C10.3646 15.2067 10.5208 15.1015 10.7027 15.0451C10.7394 15.0337 10.7769 15.0243 10.8151 15.0172L20 13.1802V8.82929C18.8348 8.41746 18 7.30622 18 6C18 4.34315 19.3431 3 21 3C21.5523 3 22 3.44772 22 4C22 4.55228 21.5523 5 21 5ZM16 35H26V34C26 33.4477 25.5523 33 25 33H21H17C16.4477 33 16 33.4477 16 34V35ZM11 19.4801L12.656 25H9.34403L11 19.4801ZM32.656 21L31 15.4801L29.344 21H32.656ZM8.1739 27C8.5914 28.1617 9.7137 29 11.0252 29C12.3274 29 13.4398 28.1595 13.8407 27H8.1739ZM31.0252 25C29.7137 25 28.5914 24.1617 28.1739 23H33.8407C33.4398 24.1595 32.3274 25 31.0252 25Z" fill="#ADB5BD"/>
</svg>
