<svg width="40" height="40" viewBox="0 0 40 40" fill="none" xmlns="http://www.w3.org/2000/svg">
<path fill-rule="evenodd" clip-rule="evenodd" d="M9 15.0536C9 8.94465 13.9291 4 20 4C21.6369 4 23.1877 4.35861 24.5813 5.00108C25.0829 5.2323 25.6769 5.01316 25.9081 4.51161C26.1394 4.01006 25.9202 3.41602 25.4187 3.1848C23.768 2.42384 21.932 2 20 2C12.8161 2 7 7.84849 7 15.0536C7 19.9851 10.2454 24.4685 13.2807 27.6115C14.8209 29.2064 16.3575 30.5079 17.5078 31.4102C18.0838 31.862 18.5649 32.2153 18.904 32.457C19.0736 32.5778 19.2078 32.6709 19.3007 32.7344C19.3471 32.7662 19.3833 32.7906 19.4084 32.8074L19.4377 32.827L19.4459 32.8325L19.4484 32.8341L19.4493 32.8347C19.4496 32.8349 19.4498 32.835 20 32L19.4498 32.835C19.7923 33.0607 20.2379 33.0543 20.5739 32.819L20 32C20.5739 32.819 20.5741 32.8188 20.5744 32.8186L20.5752 32.818L20.5776 32.8163L20.5856 32.8107L20.6145 32.7902C20.6394 32.7725 20.6752 32.7468 20.7214 32.7133C20.8138 32.6464 20.9474 32.5484 21.1164 32.4214C21.4543 32.1675 21.9342 31.7971 22.5088 31.3263C23.6564 30.3861 25.1896 29.0394 26.7262 27.416C29.7457 24.2261 33 19.7394 33 15.0536C33 12.6665 32.361 10.4261 31.2444 8.49872C30.9676 8.02084 30.3558 7.85787 29.8779 8.13471C29.4 8.41156 29.237 9.02339 29.5139 9.50128C30.4585 11.1318 31 13.0276 31 15.0536C31 18.9057 28.2543 22.8922 25.2738 26.0411C23.8104 27.587 22.3436 28.8761 21.2412 29.7792C20.7295 30.1985 20.2979 30.5333 19.984 30.7705C19.6721 30.5467 19.2462 30.232 18.7422 29.8366C17.6425 28.974 16.1791 27.7339 14.7193 26.2222C11.7546 23.1521 9 19.1622 9 15.0536ZM10.8944 28.4472C11.1414 27.9532 10.9412 27.3526 10.4472 27.1056C9.95324 26.8586 9.35256 27.0588 9.10557 27.5528L5.10557 35.5528C4.95058 35.8628 4.96714 36.2309 5.14935 36.5257C5.33156 36.8205 5.65342 37 6 37H34C34.3466 37 34.6684 36.8205 34.8507 36.5257C35.0329 36.2309 35.0494 35.8628 34.8944 35.5528L30.8944 27.5528C30.6474 27.0588 30.0468 26.8586 29.5528 27.1056C29.0588 27.3526 28.8586 27.9532 29.1056 28.4472L32.382 35H7.61803L10.8944 28.4472ZM20 12C18.3431 12 17 13.3431 17 15C17 16.6569 18.3431 18 20 18C21.6569 18 23 16.6569 23 15C23 13.3431 21.6569 12 20 12ZM15 15C15 12.2386 17.2386 10 20 10C22.7614 10 25 12.2386 25 15C25 17.7614 22.7614 20 20 20C17.2386 20 15 17.7614 15 15ZM28 7C28.5523 7 29 6.55228 29 6C29 5.44772 28.5523 5 28 5C27.4477 5 27 5.44772 27 6C27 6.55228 27.4477 7 28 7Z" fill="black"/>
</svg>
