<svg xmlns="http://www.w3.org/2000/svg" width="40" height="40" viewBox="0 0 40 40">
  <path fill-rule="evenodd" d="M12,4 L12,1 C12,0.44771525 12.4477153,0 13,0 L27,0 C27.5522847,0 28,0.44771525 28,1 L28,4 L33,4 C33.5522847,4 34,4.44771525 34,5 L34,8 C34,8.55228475 33.5522847,9 33,9 C32.4477153,9 32,8.55228475 32,8 L32,6 L8,6 L8,39 C8,39.5522847 7.55228475,40 7,40 L3,40 C2.44771525,40 2,39.5522847 2,39 C2,38.4477153 2.44771525,38 3,38 L6,38 L6,5 C6,4.44771525 6.44771525,4 7,4 L12,4 Z M14,4 L26,4 L26,2 L14,2 L14,4 Z M28,38 L32,38 L32,15 C32,14.4477153 32.4477153,14 33,14 C33.5522847,14 34,14.4477153 34,15 L34,38 L37,38 C37.5522847,38 38,38.4477153 38,39 C38,39.5522847 37.5522847,40 37,40 L27,40 C26.4477153,40 26,39.5522847 26,39 L26,32 L24,32 L24,39 C24,39.5522847 23.5522847,40 23,40 C22.4477153,40 22,39.5522847 22,39 L22,31 C22,30.4477153 22.4477153,30 23,30 L27,30 C27.5522847,30 28,30.4477153 28,31 L28,38 Z M22,22 L22,15 C22,14.4477153 22.4477153,14 23,14 L27,14 C27.5522847,14 28,14.4477153 28,15 L28,22 L29,22 C29.5522847,22 30,22.4477153 30,23 C30,23.5522847 29.5522847,24 29,24 L16,24 L16,30.1000181 C18.2822403,30.5632884 20,32.5810421 20,35 C20,37.7614237 17.7614237,40 15,40 L11,40 C10.4477153,40 10,39.5522847 10,39 C10,38.4477153 10.4477153,38 11,38 L14,38 L14,31.8999819 C11.7177597,31.4367116 10,29.4189579 10,27 C10,24.2385763 12.2385763,22 15,22 L22,22 Z M24,22 L26,22 L26,16 L24,16 L24,22 Z M17.8292943,34 C17.5280094,33.1475866 16.8524134,32.4719906 16,32.1707057 L16,34 L17.8292943,34 Z M17.8292943,36 L16,36 L16,37.8292943 C16.8524134,37.5280094 17.5280094,36.8524134 17.8292943,36 Z M14,29.8292943 L14,28 L12.1707057,28 C12.4719906,28.8524134 13.1475866,29.5280094 14,29.8292943 Z M12.1707057,26 L14,26 L14,24.1707057 C13.1475866,24.4719906 12.4719906,25.1475866 12.1707057,26 Z M15,12 C16.6568542,12 18,13.3431458 18,15 L18,19 C18,19.5522847 17.5522847,20 17,20 L13,20 C12.4477153,20 12,19.5522847 12,19 L12,15 C12,13.3431458 13.3431458,12 15,12 Z M16,18 L16,15 C16,14.4477153 15.5522847,14 15,14 C14.4477153,14 14,14.4477153 14,15 L14,18 L16,18 Z M24,12 C23.4477153,12 23,11.5522847 23,11 C23,10.4477153 23.4477153,10 24,10 L26,10 C26.5522847,10 27,10.4477153 27,11 C27,11.5522847 26.5522847,12 26,12 L24,12 Z M24,28 C23.4477153,28 23,27.5522847 23,27 C23,26.4477153 23.4477153,26 24,26 L26,26 C26.5522847,26 27,26.4477153 27,27 C27,27.5522847 26.5522847,28 26,28 L24,28 Z M33,12 C32.4477153,12 32,11.5522847 32,11 C32,10.4477153 32.4477153,10 33,10 C33.5522847,10 34,10.4477153 34,11 C34,11.5522847 33.5522847,12 33,12 Z"/>
</svg>
