<svg width="40" height="40" viewBox="0 0 40 40" fill="none" xmlns="http://www.w3.org/2000/svg">
<g clip-path="url(#clip0)">
<path fill-rule="evenodd" clip-rule="evenodd" d="M24.2685 3.67386C24.6695 3.72665 24.9993 4.0158 25.1039 4.40648L26.6783 10.2822C29.5426 10.0076 32.2699 11.8318 33.0394 14.7035C33.8089 17.5752 32.359 20.5187 29.7412 21.713L31.3156 27.5887C31.4203 27.9794 31.2793 28.3947 30.9584 28.6409C30.6376 28.8871 30.1999 28.9158 29.8497 28.7135L28.095 27.7005C24.743 25.7652 20.7596 25.2408 17.021 26.2426L13.2318 27.2579L19.1661 33.95L20.8699 33.4934L18.9763 31.358C18.6099 30.9448 18.6478 30.3128 19.061 29.9463C19.4742 29.5799 20.1063 29.6178 20.4727 30.0311L23.4398 33.3771C23.6698 33.6364 23.749 33.9963 23.6494 34.3282C23.5497 34.6602 23.2852 34.9168 22.9504 35.0065L19.0867 36.0418C18.7209 36.1398 18.331 36.0227 18.0797 35.7393L11.0719 27.8366L9.73706 28.1943C6.0028 29.1949 2.16444 26.9788 1.16385 23.2445C0.163257 19.5103 2.37933 15.6719 6.1136 14.6713L8.04545 14.1537L13.3975 12.7196C17.1361 11.7178 20.3237 9.27194 22.2589 5.91997L23.272 4.1653C23.4742 3.81503 23.8675 3.62106 24.2685 3.67386ZM7.59716 16.3443L6.63124 16.6032C3.96391 17.3179 2.38099 20.0596 3.0957 22.7269C3.81041 25.3942 6.5521 26.9771 9.21943 26.2624L10.1854 26.0036L7.59716 16.3443ZM9.52901 15.8267L13.9151 14.6515C18.0424 13.5455 21.5791 10.8917 23.7953 7.25002L24.9838 11.6856L27.572 21.3449L28.7605 25.7804C25.0203 23.7347 20.6306 23.2048 16.5033 24.3107L12.1172 25.486L9.52901 15.8267ZM31.1075 15.2211C30.6252 13.4208 28.9885 12.238 27.2071 12.2556L29.2124 19.7396C30.7639 18.8641 31.5899 17.0215 31.1075 15.2211ZM34.9713 14.1859C34.8283 13.6524 35.1449 13.1041 35.6784 12.9611L38.5761 12.1847C39.1096 12.0417 39.6579 12.3583 39.8009 12.8918C39.9438 13.4252 39.6272 13.9736 39.0938 14.1165L36.196 14.893C35.6625 15.0359 35.1142 14.7193 34.9713 14.1859ZM34.0665 4.78112C34.3255 4.29333 34.14 3.68794 33.6522 3.42896C33.1644 3.16998 32.559 3.35547 32.3 3.84327L30.698 6.86072C30.439 7.34852 30.6245 7.9539 31.1123 8.21288C31.6001 8.47186 32.2055 8.28637 32.4645 7.79857L34.0665 4.78112ZM34.5975 21.3185C34.8736 20.8402 35.4852 20.6764 35.9635 20.9525L38.8152 22.599C39.2935 22.8751 39.4574 23.4867 39.1813 23.965C38.9051 24.4433 38.2935 24.6071 37.8152 24.331L34.9635 22.6846C34.4852 22.4084 34.3213 21.7968 34.5975 21.3185ZM18.2409 29.0215C18.7744 28.8786 19.091 28.3302 18.948 27.7968C18.8051 27.2633 18.2568 26.9467 17.7233 27.0896C17.1898 27.2326 16.8732 27.7809 17.0162 28.3144C17.1591 28.8479 17.7075 29.1644 18.2409 29.0215Z" fill="black"/>
</g>
<defs>
<clipPath id="clip0">
<path d="M0 0H40V40H0V0Z" fill="white"/>
</clipPath>
</defs>
</svg>
