<svg xmlns="http://www.w3.org/2000/svg" width="40" height="40" viewBox="0 0 40 40">
  <path fill="#ADB5BD" fill-rule="evenodd" d="M33,3 C33.5522847,3 34,3.44771525 34,4 C34,4.55228475 33.5522847,5 33,5 L13,5 L13,32 C13,33.1261445 12.6276991,34.1653335 11.9994649,35.0011995 L32,35 C33.6568542,35 35,33.6568542 35,32 L35,32 L35,24 L35,24 L35,8 C35,7.44771525 35.4477153,7 36,7 C36.5522847,7 37,7.44771525 37,8 L37,25 L37,32 C37,34.7614237 34.7614237,37 32,37 L32,37 L8,37 L8,37 C5.3112453,37 3.11818189,34.8776933 3.00461951,32.2168896 L3,32 L3,14 C3,12.3431458 4.34314575,11 6,11 C7.59768088,11 8.90366088,12.24892 8.99490731,13.8237272 L9,14 L9,32 C9,32.5522847 8.55228475,33 8,33 C7.48716416,33 7.06449284,32.6139598 7.00672773,32.1166211 L7,32 L7,14 C7,13.4477153 6.55228475,13 6,13 C5.48716416,13 5.06449284,13.3860402 5.00672773,13.8833789 L5,14 L5,32 C5,33.6568542 6.34314575,35 8,35 C9.59768088,35 10.9036609,33.75108 10.9949073,32.1762728 L11,32 L11,4 C11,3.48716416 11.3860402,3.06449284 11.8833789,3.00672773 L12,3 L33,3 Z M32,31 C32.5522847,31 33,31.4477153 33,32 C33,32.5128358 32.6139598,32.9355072 32.1166211,32.9932723 L32,33 L16,33 C15.4477153,33 15,32.5522847 15,32 C15,31.4871642 15.3860402,31.0644928 15.8833789,31.0067277 L16,31 L32,31 Z M32,27 C32.5522847,27 33,27.4477153 33,28 C33,28.5128358 32.6139598,28.9355072 32.1166211,28.9932723 L32,29 L16,29 C15.4477153,29 15,28.5522847 15,28 C15,27.4871642 15.3860402,27.0644928 15.8833789,27.0067277 L16,27 L32,27 Z M32,23 C32.5522847,23 33,23.4477153 33,24 C33,24.5128358 32.6139598,24.9355072 32.1166211,24.9932723 L32,25 L16,25 C15.4477153,25 15,24.5522847 15,24 C15,23.4871642 15.3860402,23.0644928 15.8833789,23.0067277 L16,23 L32,23 Z M32,19 C32.5522847,19 33,19.4477153 33,20 C33,20.5128358 32.6139598,20.9355072 32.1166211,20.9932723 L32,21 L16,21 C15.4477153,21 15,20.5522847 15,20 C15,19.4871642 15.3860402,19.0644928 15.8833789,19.0067277 L16,19 L32,19 Z M32,15 C32.5522847,15 33,15.4477153 33,16 C33,16.5128358 32.6139598,16.9355072 32.1166211,16.9932723 L32,17 L28,17 C27.4477153,17 27,16.5522847 27,16 C27,15.4871642 27.3860402,15.0644928 27.8833789,15.0067277 L28,15 L32,15 Z M24,7 C24.5522847,7 25,7.44771525 25,8 L25,16 C25,16.5522847 24.5522847,17 24,17 L16,17 C15.4477153,17 15,16.5522847 15,16 L15,8 C15,7.44771525 15.4477153,7 16,7 L24,7 Z M23,9 L17,9 L17,15 L23,15 L23,9 Z M32,11 C32.5522847,11 33,11.4477153 33,12 C33,12.5128358 32.6139598,12.9355072 32.1166211,12.9932723 L32,13 L28,13 C27.4477153,13 27,12.5522847 27,12 C27,11.4871642 27.3860402,11.0644928 27.8833789,11.0067277 L28,11 L32,11 Z M36,3 C36.5522847,3 37,3.44771525 37,4 C37,4.55228475 36.5522847,5 36,5 C35.4477153,5 35,4.55228475 35,4 C35,3.44771525 35.4477153,3 36,3 Z"/>
</svg>
