<svg xmlns="http://www.w3.org/2000/svg" width="40" height="40" viewBox="0 0 40 40">
  <path fill="#ADB5BD" fill-rule="evenodd" d="M18,3 C26.2842712,3 33,9.71572875 33,18 C33,21.7818764 31.6004153,25.2368622 29.2909446,27.8752589 L36.7071068,35.2928932 C37.0976311,35.6834175 37.0976311,36.3165825 36.7071068,36.7071068 C36.3466228,37.0675907 35.7793918,37.0953203 35.3871006,36.7902954 L35.2928932,36.7071068 L27.8752589,29.2909446 C25.2368622,31.6004153 21.7818764,33 18,33 C9.71572875,33 3,26.2842712 3,18 C3,9.71572875 9.71572875,3 18,3 Z M18,5 C16.2283154,5 14.5394076,5.3544094 13.0003054,5.99619932 C13.0000109,7.59754515 14.2489204,8.90365603 15.8237272,8.99490713 L16,9 L24,9 C24.5522847,9 25,9.44771525 25,10 C25,10.5128358 24.6139598,10.9355072 24.1166211,10.9932723 L24,11 L16,11 C13.5747588,11 11.5528088,9.27330487 11.0964395,6.98220405 C7.43477153,9.28129839 5,13.3563135 5,18 C5,25.1797017 10.8202983,31 18,31 C25.1797017,31 31,25.1797017 31,18 C31,10.8202983 25.1797017,5 18,5 Z M22.8377549,23.8089603 L23.0596651,23.9117986 L23.4472136,24.1055728 C23.9411921,24.3525621 24.1414164,24.9532351 23.8944272,25.4472136 C23.66508,25.9059079 23.1307708,26.1113142 22.6601042,25.9405643 L22.5527864,25.8944272 L22.165238,25.700653 C21.5411197,25.3885938 20.8068233,25.407316 20.2028416,25.7418469 L20.0547002,25.8320503 L19.865335,25.9502518 C18.7168772,26.6200603 17.2954822,26.6221276 16.1453396,25.9564537 L15.9452998,25.8320503 L15.7971584,25.7418469 C15.2435085,25.4351936 14.5803581,25.3939073 13.9929478,25.6295208 L13.834762,25.700653 L13.4472136,25.8944272 C12.9532351,26.1414164 12.3525621,25.9411921 12.1055728,25.4472136 C11.8762256,24.9885193 12.0324861,24.4378281 12.451486,24.1637448 L12.5527864,24.1055728 L12.9403349,23.9117986 C14.1851795,23.2893763 15.6548684,23.3419912 16.8472591,24.038381 L17.0547002,24.1679497 L17.1897177,24.2492412 C17.6949059,24.5224709 18.3050941,24.5224709 18.8102823,24.2492412 L18.9452998,24.1679497 L19.1527409,24.038381 C20.274991,23.3829553 21.6428755,23.2977939 22.8377549,23.8089603 Z M11.6128994,14.2097046 L11.7071068,14.2928932 L13,15.585 L14.2928932,14.2928932 C14.6533772,13.9324093 15.2206082,13.9046797 15.6128994,14.2097046 L15.7071068,14.2928932 C16.0675907,14.6533772 16.0953203,15.2206082 15.7902954,15.6128994 L15.7071068,15.7071068 L14.415,17 L15.7071068,18.2928932 C16.0675907,18.6533772 16.0953203,19.2206082 15.7902954,19.6128994 L15.7071068,19.7071068 C15.3466228,20.0675907 14.7793918,20.0953203 14.3871006,19.7902954 L14.2928932,19.7071068 L13,18.415 L11.7071068,19.7071068 C11.3466228,20.0675907 10.7793918,20.0953203 10.3871006,19.7902954 L10.2928932,19.7071068 C9.93240926,19.3466228 9.90467972,18.7793918 10.2097046,18.3871006 L10.2928932,18.2928932 L11.585,17 L10.2928932,15.7071068 C9.93240926,15.3466228 9.90467972,14.7793918 10.2097046,14.3871006 L10.2928932,14.2928932 C10.6533772,13.9324093 11.2206082,13.9046797 11.6128994,14.2097046 Z M21.6128994,14.2097046 L21.7071068,14.2928932 L23,15.585 L24.2928932,14.2928932 C24.6533772,13.9324093 25.2206082,13.9046797 25.6128994,14.2097046 L25.7071068,14.2928932 C26.0675907,14.6533772 26.0953203,15.2206082 25.7902954,15.6128994 L25.7071068,15.7071068 L24.415,17 L25.7071068,18.2928932 C26.0675907,18.6533772 26.0953203,19.2206082 25.7902954,19.6128994 L25.7071068,19.7071068 C25.3466228,20.0675907 24.7793918,20.0953203 24.3871006,19.7902954 L24.2928932,19.7071068 L23,18.415 L21.7071068,19.7071068 C21.3466228,20.0675907 20.7793918,20.0953203 20.3871006,19.7902954 L20.2928932,19.7071068 C19.9324093,19.3466228 19.9046797,18.7793918 20.2097046,18.3871006 L20.2928932,18.2928932 L21.585,17 L20.2928932,15.7071068 C19.9324093,15.3466228 19.9046797,14.7793918 20.2097046,14.3871006 L20.2928932,14.2928932 C20.6533772,13.9324093 21.2206082,13.9046797 21.6128994,14.2097046 Z"/>
</svg>
