<svg xmlns="http://www.w3.org/2000/svg" width="40" height="40" viewBox="0 0 40 40">
  <path fill="#ADB5BD" fill-rule="evenodd" d="M20,1 C21.6568542,1 23,2.34314575 23,4 L23.0011345,6.41438593 C27.6175638,7.72061818 31,11.9653039 31,17 C31,17.5522847 30.5522847,18 30,18 C29.4477153,18 29,17.5522847 29,17 C29,12.0294373 24.9705627,8 20,8 C15.1181973,8 11.1442086,11.8868137 11.0038371,16.7346377 L11,17 L11,22.527864 C11,24.581329 10.2363095,26.5187823 8.91851047,28.0011131 L28,28 C28.5522847,28 29,28.4477153 29,29 C29,29.5128358 28.6139598,29.9355072 28.1166211,29.9932723 L28,30 L7,30 L7,32 L33,32 L33,29.5911028 L32.7468327,29.4330017 C30.9146843,28.2421383 29.6241227,26.3654797 29.1742482,24.2142034 C29.0611999,23.6736125 29.4077917,23.1437332 29.9483827,23.030685 C30.4889736,22.9176367 31.0188528,23.2642285 31.1319011,23.8048194 C31.520484,25.6630027 32.7377665,27.2508493 34.4472136,28.1055728 C34.748355,28.2561435 34.9509034,28.5464642 34.9921964,28.8751447 L35,29 L35,33 C35,33.5128358 34.6139598,33.9355072 34.1166211,33.9932723 L34,34 L24.9999999,34.0010046 C24.999457,36.7619667 22.7610889,39 20,39 C17.2385763,39 15,36.7614237 15,34 L15,34 L6,34 C5.48716416,34 5.06449284,33.6139598 5.00672773,33.1166211 L5,33 L5,29 L5.00672773,28.8833789 C5.0114592,28.8426424 5.01863885,28.8026527 5.0281157,28.7635607 L5.04079735,28.7171708 C5.04795579,28.6920409 5.05628505,28.6673997 5.0655266,28.6432094 C5.06899435,28.6348297 5.07234298,28.6264091 5.0758036,28.6180397 C5.08605409,28.5926334 5.09747204,28.5679787 5.10983895,28.5438913 C5.11820168,28.5280096 5.12702599,28.511885 5.13628551,28.4960176 L5.1529653,28.468253 L5.17061126,28.4411467 C5.17999367,28.4274051 5.18953471,28.4139754 5.19940626,28.4007831 C5.21235933,28.3834093 5.22601131,28.3663803 5.24019526,28.3498204 C5.25056098,28.3377097 5.26117326,28.3258868 5.27207372,28.3143113 C5.29133313,28.2938654 5.31209863,28.2736174 5.33370915,28.254295 C5.34015546,28.2485059 5.34657131,28.2429201 5.35306388,28.2374121 C5.37755656,28.2166194 5.40326949,28.1968264 5.429927,28.1782974 C5.43636877,28.1739084 5.44285286,28.1695231 5.44939624,28.1652092 C5.47691971,28.146912 5.505418,28.1300357 5.53477889,28.1145769 C5.5409741,28.1115521 5.54686117,28.1085354 5.5527864,28.1055728 C7.59001377,27.0869591 8.90368365,25.0427427 8.99491871,22.7801239 L9,22.527864 L9,17 C9,11.9649414 12.3829233,7.72000691 16.9998627,6.41410381 L17,4 C17,2.34314575 18.3431458,1 20,1 Z M20.375,34 L19.5,34 L17.0000046,34.005321 C17.0027741,35.600643 18.2507677,36.9038657 19.8239187,36.9949182 L20.0000046,37 C21.6543837,37 22.9959937,35.6608568 22.999991,34.0074096 L22.999991,34.0074096 L20.375,34 Z M30,19 C30.5522847,19 31,19.4477153 31,20 C31,20.5522847 30.5522847,21 30,21 C29.4477153,21 29,20.5522847 29,20 C29,19.4477153 29.4477153,19 30,19 Z M20,10 C20.5522847,10 21,10.4477153 21,11 C21,11.5522847 20.5522847,12 20,12 C17.2385763,12 15,14.2385763 15,17 C15,17.5522847 14.5522847,18 14,18 C13.4477153,18 13,17.5522847 13,17 C13,13.1340068 16.1340068,10 20,10 Z M20,3 C19.4477153,3 19,3.44771525 19,4 L19,6 L21,6 L21,4 C21,3.44771525 20.5522847,3 20,3 Z"/>
</svg>
