<svg xmlns="http://www.w3.org/2000/svg" width="40" height="40" viewBox="0 0 40 40">
  <path fill-rule="evenodd" d="M21,18.4648162 L29.5547002,24.1679497 C29.8328989,24.3534155 30,24.6656468 30,25 L30,28 L35,28 C35.5522847,28 36,28.4477153 36,29 L36,32 L37,32 C37.5522847,32 38,32.4477153 38,33 L38,37 C38,37.5522847 37.5522847,38 37,38 C36.4477153,38 36,37.5522847 36,37 L36,34 L30,34 L30,37 C30,37.5522847 29.5522847,38 29,38 C28.4477153,38 28,37.5522847 28,37 L28,25.5351838 L20,20.2018504 L12,25.5351838 L12,37 C12,37.5522847 11.5522847,38 11,38 C10.4477153,38 10,37.5522847 10,37 L10,34 L4,34 L4,37 C4,37.5522847 3.55228475,38 3,38 C2.44771525,38 2,37.5522847 2,37 L2,33 C2,32.4477153 2.44771525,32 3,32 L4,32 L4,29 C4,28.4477153 4.44771525,28 5,28 L10,28 L10,25 C10,24.6656468 10.1671011,24.3534155 10.4452998,24.1679497 L19,18.4648162 L19,3 C19,2.44771525 19.4477153,2 20,2 C20.5522847,2 21,2.44771525 21,3 L21,3.70563517 C22.764788,3.36276754 24.5962618,3.47799471 26.3162278,4.0513167 C28.0582929,4.63200507 29.9417071,4.63200507 31.6837722,4.0513167 C32.2077156,3.87666893 32.7740355,4.15982892 32.9486833,4.68377223 C33.1233311,5.20771555 32.8401711,5.77403553 32.3162278,5.9486833 C30.163629,6.66621621 27.836371,6.66621621 25.6837722,5.9486833 C24.1674625,5.44324672 22.5440649,5.37774686 21,5.75218371 L21,11.7056352 C22.764788,11.3627675 24.5962618,11.4779947 26.3162278,12.0513167 C27.8325375,12.5567533 29.4559351,12.6222531 31,12.2478163 L31,11 C31,10.4477153 31.4477153,10 32,10 C32.5522847,10 33,10.4477153 33,11 L33,13 C33,13.4304304 32.7245699,13.8125693 32.3162278,13.9486833 C30.163629,14.6662162 27.836371,14.6662162 25.6837722,13.9486833 C24.1674625,13.4432467 22.5440649,13.3777469 21,13.7521837 L21,18.4648162 Z M10,30 L6,30 L6,32 L10,32 L10,30 Z M30,30 L30,32 L34,32 L34,30 L30,30 Z M20,24 C23.3137085,24 26,26.6862915 26,30 C26,33.3137085 23.3137085,36 20,36 C16.6862915,36 14,33.3137085 14,30 C14,26.6862915 16.6862915,24 20,24 Z M20,26 C17.790861,26 16,27.790861 16,30 C16,32.209139 17.790861,34 20,34 C22.209139,34 24,32.209139 24,30 C24,27.790861 22.209139,26 20,26 Z M21,28 L21,29.5857864 L21.7071068,30.2928932 C22.0976311,30.6834175 22.0976311,31.3165825 21.7071068,31.7071068 C21.3165825,32.0976311 20.6834175,32.0976311 20.2928932,31.7071068 L19.2928932,30.7071068 C19.1053568,30.5195704 19,30.2652165 19,30 L19,28 C19,27.4477153 19.4477153,27 20,27 C20.5522847,27 21,27.4477153 21,28 Z M32,9 C31.4477153,9 31,8.55228475 31,8 C31,7.44771525 31.4477153,7 32,7 C32.5522847,7 33,7.44771525 33,8 C33,8.55228475 32.5522847,9 32,9 Z"/>
</svg>
