<svg xmlns="http://www.w3.org/2000/svg" width="40" height="40" viewBox="0 0 40 40">
  <path fill-rule="evenodd" d="M28,30.5 L28,35 C28,35.5522847 27.5522847,36 27,36 C26.4477153,36 26,35.5522847 26,35 L26,24 C26,20.6862915 23.3137085,18 20,18 C16.6862915,18 14,20.6862915 14,24 L14,35 C14,35.5522847 13.5522847,36 13,36 C12.4477153,36 12,35.5522847 12,35 L12,33 L12,24 C12,21.790861 10.209139,20 8,20 C5.790861,20 4,21.790861 4,24 L4,33 C4,33.5522847 3.55228475,34 3,34 C2.44771525,34 2,33.5522847 2,33 L2,24 C2,20.6862915 4.6862915,18 8,18 C9.9821678,18 11.7398397,18.9611814 12.8323509,20.4428796 C14.1417186,17.8095613 16.8595365,16 20,16 C24.2637103,16 27.7483724,19.3355018 27.986967,23.539486 C29.0500263,22.5824517 30.4569937,22 32,22 C35.3137085,22 38,24.6862915 38,28 L38,30 C38,30.5522847 37.5522847,31 37,31 C36.4477153,31 36,30.5522847 36,30 L36,28 C36,25.790861 34.209139,24 32,24 C29.790861,24 28,25.790861 28,28 L28,30.5 Z M8,6 C10.7614237,6 13,8.23857625 13,11 C13,13.7614237 10.7614237,16 8,16 C5.23857625,16 3,13.7614237 3,11 C3,8.23857625 5.23857625,6 8,6 Z M8,8 C6.34314575,8 5,9.34314575 5,11 C5,12.6568542 6.34314575,14 8,14 C9.65685425,14 11,12.6568542 11,11 C11,9.34314575 9.65685425,8 8,8 Z M20,4 C22.7614237,4 25,6.23857625 25,9 C25,11.7614237 22.7614237,14 20,14 C17.2385763,14 15,11.7614237 15,9 C15,6.23857625 17.2385763,4 20,4 Z M20,6 C18.3431458,6 17,7.34314575 17,9 C17,10.6568542 18.3431458,12 20,12 C21.6568542,12 23,10.6568542 23,9 C23,7.34314575 21.6568542,6 20,6 Z M32,12 C34.209139,12 36,13.790861 36,16 C36,18.209139 34.209139,20 32,20 C29.790861,20 28,18.209139 28,16 C28,13.790861 29.790861,12 32,12 Z M32,14 C30.8954305,14 30,14.8954305 30,16 C30,17.1045695 30.8954305,18 32,18 C33.1045695,18 34,17.1045695 34,16 C34,14.8954305 33.1045695,14 32,14 Z M37,34 C36.4477153,34 36,33.5522847 36,33 C36,32.4477153 36.4477153,32 37,32 C37.5522847,32 38,32.4477153 38,33 C38,33.5522847 37.5522847,34 37,34 Z"/>
</svg>
