<svg width="40" height="40" viewBox="0 0 40 40" fill="none" xmlns="http://www.w3.org/2000/svg">
<path fill-rule="evenodd" clip-rule="evenodd" d="M6.65132 17.4838C6.82597 16.9599 7.39229 16.6767 7.91623 16.8514L10.3162 17.6514C10.5368 17.7249 10.7248 17.873 10.848 18.0701L14.3234 23.6307C14.3331 23.6431 14.3467 23.6603 14.3642 23.6817C14.4121 23.7403 14.4887 23.8309 14.5945 23.9456C14.8063 24.1753 15.1334 24.5003 15.5783 24.8596C16.4682 25.5784 17.8224 26.4291 19.6652 26.9359L19.6873 26.9422C21.7049 27.5475 23.2712 28.0779 24.3363 28.4583C24.8689 28.6485 25.2762 28.8013 25.552 28.9071C25.6899 28.96 25.7949 29.0012 25.8663 29.0295L25.8752 29.033C25.8882 29.0348 25.9031 29.0366 25.9197 29.0383C26.0063 29.0474 26.1278 29.0533 26.2621 29.0414C26.4932 29.0211 26.7002 28.9558 26.8617 28.8231C26.8607 28.7957 26.8564 28.755 26.8445 28.6978C26.8036 28.5015 26.6976 28.2462 26.5391 27.9621C26.3858 27.6871 26.2093 27.431 26.0675 27.24C26.0086 27.1607 25.9572 27.0947 25.9181 27.0456C25.8779 27.0188 25.8269 26.9853 25.7662 26.9464C25.5928 26.8351 25.3419 26.6804 25.0379 26.5109C24.4215 26.1672 23.6246 25.7837 22.8324 25.5636C21.6944 25.2475 20.986 24.628 20.5663 24.0507C20.3607 23.7681 20.2296 23.5034 20.148 23.3016C20.107 23.2004 20.0781 23.1139 20.0582 23.0472C20.0482 23.0139 20.0405 22.9853 20.0346 22.9622C20.0317 22.9507 20.0292 22.9404 20.0272 22.9317L20.0253 22.9235C20.0253 22.9235 20.0253 22.9235 20.0253 22.9235L20.0244 22.9195L20.0232 22.9143L20.0227 22.9119L20.0224 22.9107L20.0188 22.8935C20.0161 22.8803 20.013 22.8643 20.0097 22.8458C20.0031 22.8089 19.9957 22.7613 19.9891 22.7047C19.9758 22.5918 19.9651 22.4394 19.9708 22.2591C19.9821 21.901 20.0592 21.409 20.3315 20.902C20.9145 19.8163 22.1832 19.013 24.4464 18.9015C25.459 18.8428 26.3861 19.0507 27.0415 19.2599C27.374 19.366 27.6477 19.476 27.8412 19.5611C27.9383 19.6037 28.0159 19.6404 28.0715 19.6675C28.0993 19.6812 28.1217 19.6924 28.1383 19.7009L28.1589 19.7116L28.1659 19.7152L28.1685 19.7166L28.1696 19.7172C28.1699 19.7173 28.1706 19.7177 27.7 20.6001L28.1706 19.7177C28.2823 19.7773 28.3816 19.8575 28.4634 19.9541L30.6634 22.5541C30.8531 22.7784 30.9347 23.0747 30.8864 23.3645L30.5864 25.1645C30.4956 25.7092 29.9804 26.0773 29.4356 25.9865C28.8908 25.8957 28.5228 25.3804 28.6136 24.8357L28.8375 23.4925L27.0744 21.4089C27.0625 21.4035 27.05 21.398 27.0369 21.3922C26.8961 21.3304 26.6885 21.2466 26.4335 21.1652C25.915 20.9998 25.2442 20.858 24.5587 20.8984L24.5487 20.8989C22.715 20.9884 22.235 21.5846 22.0935 21.8482C22.0033 22.0161 21.9741 22.1866 21.9698 22.3223C21.9677 22.3889 21.9719 22.4412 21.9754 22.4713C21.9759 22.4754 21.9763 22.479 21.9768 22.4821C21.9811 22.4961 21.9892 22.52 22.002 22.5517C22.0329 22.628 22.0893 22.7445 22.1837 22.8744C22.364 23.1222 22.7056 23.4527 23.3676 23.6366C24.3754 23.9165 25.3285 24.383 26.0121 24.7642C26.3581 24.9572 26.6447 25.1338 26.8463 25.2631C26.9473 25.3279 27.0273 25.3811 27.0834 25.419C27.1114 25.4379 27.1334 25.4531 27.1491 25.4639L27.1678 25.4769L27.1735 25.4809L27.1754 25.4822L27.1764 25.4829C27.1766 25.483 27.1767 25.4831 26.6 26.3001C27.3593 25.6493 27.3594 25.6495 27.3596 25.6496L27.3628 25.6534L27.3689 25.6606L27.3885 25.684C27.4047 25.7034 27.4271 25.7306 27.4546 25.7648C27.5095 25.8329 27.5853 25.9293 27.6731 26.0476C27.847 26.2817 28.0767 26.613 28.2859 26.988C28.4899 27.3539 28.7027 27.8112 28.8024 28.2899C28.9006 28.7613 28.9176 29.4044 28.5192 29.9735C28.4971 30.0052 28.4731 30.0356 28.4474 30.0644C27.8184 30.7721 27.0108 30.9832 26.4379 31.0337C26.1473 31.0594 25.8937 31.0465 25.7115 31.0275C25.6195 31.0178 25.5432 31.0063 25.4863 30.9965C25.4578 30.9915 25.434 30.9869 25.4154 30.9831L25.3913 30.9781L25.3822 30.9761L25.3784 30.9752L25.3767 30.9748C25.3763 30.9747 25.3751 30.9745 25.6 30.0001L25.3751 30.9745C25.3227 30.9624 25.2714 30.9461 25.2216 30.9257M25.2216 30.9257L25.2174 30.924L25.2006 30.9172L25.129 30.8886C25.0645 30.863 24.9664 30.8245 24.8355 30.7743C24.5738 30.6739 24.1811 30.5266 23.6637 30.3418C22.6307 29.9729 21.1007 29.4545 19.1235 28.8611C16.972 28.2675 15.3799 27.2703 14.3217 26.4155C13.7916 25.9874 13.3937 25.5936 13.1242 25.3014C12.9894 25.1552 12.8864 25.034 12.8147 24.9462C12.7788 24.9022 12.7508 24.8666 12.7304 24.8402C12.7203 24.8271 12.7121 24.8162 12.7058 24.8078L12.6977 24.7971L12.6948 24.7931L12.6936 24.7915C12.6934 24.7911 12.6926 24.7901 13.5 24.2001L12.6926 24.7901C12.6784 24.7706 12.6648 24.7506 12.652 24.7301L9.34261 19.435L7.28377 18.7488C6.75983 18.5741 6.47667 18.0078 6.65132 17.4838M26.6 26.3001L27.3596 25.6496C27.3058 25.5869 27.2439 25.5306 27.1764 25.4829L26.6 26.3001ZM21.9769 22.4864L21.975 22.4778L21.9756 22.4806L21.9768 22.4821L21.9766 22.4851L21.9769 22.4864Z" fill="#ADB5BD"/>
<path fill-rule="evenodd" clip-rule="evenodd" d="M16.6386 10.9252C16.7903 10.3942 17.3438 10.0867 17.8748 10.2384L27.6748 13.0384C27.7016 13.0461 27.728 13.0548 27.754 13.0647L27.4001 14C27.754 13.0647 27.7538 13.0646 27.754 13.0647L27.7563 13.0656L27.76 13.0669L27.7713 13.0713L27.8094 13.0862C27.8415 13.0989 27.8869 13.1171 27.944 13.1407C28.0581 13.1879 28.2195 13.2569 28.4162 13.3469C28.8087 13.5265 29.3471 13.7923 29.9338 14.139C31.0763 14.8141 32.5326 15.871 33.3639 17.2961L33.3717 17.3097C34.2526 18.8758 35.0356 20.0504 35.4322 20.6453L35.4413 20.6592L34.6001 21.2C35.4413 20.6592 35.4411 20.6589 35.4413 20.6592L35.4432 20.6622L35.4454 20.6657L35.4509 20.6744L35.4655 20.6981C35.4768 20.7168 35.4911 20.741 35.5079 20.7706C35.5413 20.8298 35.5847 20.9107 35.6329 21.011C35.7287 21.2105 35.846 21.4926 35.9399 21.8368C36.1258 22.5185 36.2301 23.4866 35.8434 24.5325C35.5971 25.2719 35.2772 26.2808 35.0168 27.1116C34.886 27.5291 34.7707 27.8999 34.6881 28.1663L34.556 28.5936C34.556 28.5936 34.5559 28.594 33.6001 28.3L32.6443 28.0058L32.7777 27.5742C32.8608 27.3063 32.9767 26.9334 33.1084 26.5134C33.3711 25.6753 33.6984 24.6429 33.9514 23.8837C33.9553 23.872 33.9594 23.8604 33.9638 23.8488C34.1689 23.3018 34.1233 22.7774 34.0103 22.3631C33.9542 22.1573 33.8841 21.9894 33.8298 21.8764C33.803 21.8205 33.7808 21.7795 33.7674 21.7558C33.7632 21.7486 33.76 21.743 33.7577 21.7392C33.3514 21.1297 32.5423 19.914 31.6326 18.2975C31.0629 17.3253 29.9716 16.4844 28.9164 15.8609C28.4031 15.5576 27.929 15.3234 27.584 15.1655C27.412 15.0868 27.2734 15.0277 27.1797 14.9889C27.1367 14.9711 27.1032 14.9577 27.0804 14.9486L17.3254 12.1615C16.7944 12.0098 16.4869 11.4563 16.6386 10.9252ZM33.6001 28.3L32.6443 28.0058C32.4819 28.5337 32.7782 29.0933 33.306 29.2557C33.8339 29.4182 34.3936 29.1215 34.556 28.5936L33.6001 28.3Z" fill="#ADB5BD"/>
<path fill-rule="evenodd" clip-rule="evenodd" d="M28.9 26.3C28.1005 26.3 27.4053 26.5395 26.8813 26.9138C26.4319 27.2348 25.8073 27.1307 25.4863 26.6813C25.1653 26.2319 25.2694 25.6073 25.7188 25.2863C26.5948 24.6606 27.6996 24.3 28.9 24.3C31.9523 24.3 34.4001 26.7478 34.4001 29.8C34.4001 32.762 32.2386 35.4001 29.1 35.4001C26.1032 35.4001 23.3 32.9062 23.3 29.8C23.3 29.2478 23.7478 28.8 24.3 28.8C24.8523 28.8 25.3 29.2478 25.3 29.8C25.3 31.6939 27.0969 33.4001 29.1 33.4001C30.9615 33.4001 32.4001 31.8381 32.4001 29.8C32.4001 27.8523 30.8478 26.3 28.9 26.3Z" fill="#ADB5BD"/>
<path fill-rule="evenodd" clip-rule="evenodd" d="M8.07903 6.11037C8.29423 5.60174 8.881 5.36385 9.38964 5.57905L11.9896 6.67905C12.4864 6.88922 12.727 7.45553 12.5333 7.95899L8.03335 19.659C7.83509 20.1745 7.25649 20.4316 6.74102 20.2334C6.22555 20.0351 5.9684 19.4565 6.16666 18.941L10.3194 8.14402L8.61036 7.42098C8.10172 7.20579 7.86384 6.61901 8.07903 6.11037Z" fill="#ADB5BD"/>
<path fill-rule="evenodd" clip-rule="evenodd" d="M3.59204 17.681C3.82348 17.1796 4.4176 16.9607 4.91905 17.1921L7.51905 18.3921C8.02051 18.6236 8.2394 19.2177 8.00796 19.7192C7.77652 20.2206 7.18239 20.4395 6.68094 20.2081L4.08094 19.0081C3.57949 18.7766 3.3606 18.1825 3.59204 17.681Z" fill="#ADB5BD"/>
<path d="M14.2 11.2C14.7522 11.2 15.2 10.7522 15.2 10.2C15.2 9.64767 14.7522 9.19995 14.2 9.19995C13.6477 9.19995 13.2 9.64767 13.2 10.2C13.2 10.7522 13.6477 11.2 14.2 11.2Z" fill="#ADB5BD"/>
</svg>
