<svg width="40" height="40" viewBox="0 0 40 40" fill="none" xmlns="http://www.w3.org/2000/svg">
<path d="M27.6001 17.4001H33.3001C33.8001 17.4001 34.3001 17.0001 34.3001 16.4001C34.3001 15.9001 33.9001 15.4001 33.3001 15.4001H27.6001C27.1001 15.4001 26.6001 15.8001 26.6001 16.4001C26.7001 17.0001 27.1001 17.4001 27.6001 17.4001Z" fill="#ADB5BD"/>
<path d="M27.6001 22.2H31.4001C31.9001 22.2 32.4001 21.8 32.4001 21.2C32.4001 20.6 32.0001 20.2 31.4001 20.2H27.6001C27.1001 20.2 26.6001 20.6 26.6001 21.2C26.6001 21.8 27.1001 22.2 27.6001 22.2Z" fill="#ADB5BD"/>
<path d="M27.6001 26.9001H32.4001C32.9001 26.9001 33.4001 26.5001 33.4001 25.9001C33.4001 25.4001 33.0001 24.9001 32.4001 24.9001H27.6001C27.1001 24.9001 26.6001 25.3001 26.6001 25.9001C26.7001 26.5001 27.1001 26.9001 27.6001 26.9001Z" fill="#ADB5BD"/>
<path d="M36.2001 7.90015H4.80005C4.30005 7.90015 3.80005 8.30015 3.80005 8.90015C3.80005 9.40015 4.20005 9.90015 4.80005 9.90015H36.3C36.8 9.90015 37.3 10.3001 37.3 10.9001V31.9001C37.3 32.4001 36.9 32.9001 36.3 32.9001H3.80005C3.30005 32.9001 2.80005 32.5001 2.80005 31.9001V11.9001C2.80005 11.4001 2.40005 10.9001 1.80005 10.9001C1.20005 10.9001 0.800049 11.3001 0.800049 11.9001V31.9001C0.800049 33.5001 2.10005 34.8001 3.70005 34.8001H36.1C37.7 34.8001 39 33.5001 39 31.9001V10.9001C39.1 9.10015 37.8 7.90015 36.2001 7.90015Z" fill="#ADB5BD"/>
<path d="M23.8 21.3C23.8 16 19.5 11.7 14.3 11.7C9.10005 11.7 4.80005 16 4.80005 21.3C4.80005 26.6 9.10005 30.9 14.3 30.9C19.5 30.9 23.8 26.6 23.8 21.3ZM6.70005 21.3C6.70005 17.1 10.1 13.6 14.3 13.6C18.5 13.6 21.9 17 21.9 21.3C21.9 25.6 18.5 29 14.3 29C10.1 29 6.70005 25.5 6.70005 21.3Z" fill="#ADB5BD"/>
<path d="M1.90015 9.80005C2.45243 9.80005 2.90015 9.35233 2.90015 8.80005C2.90015 8.24776 2.45243 7.80005 1.90015 7.80005C1.34786 7.80005 0.900146 8.24776 0.900146 8.80005C0.900146 9.35233 1.34786 9.80005 1.90015 9.80005Z" fill="#ADB5BD"/>
<path fill-rule="evenodd" clip-rule="evenodd" d="M19.0189 17.8146C19.4527 18.1564 19.5273 18.7852 19.1855 19.219L13.9855 25.819C13.6774 26.2101 13.1285 26.3149 12.6979 26.0649L9.59788 24.2649C9.12027 23.9876 8.95791 23.3756 9.23523 22.898C9.51255 22.4204 10.1245 22.258 10.6022 22.5353L12.9516 23.8996L17.6145 17.9813C17.9563 17.5475 18.5851 17.4729 19.0189 17.8146Z" fill="#ADB5BD"/>
</svg>
