<svg width="40" height="40" viewBox="0 0 40 40" fill="none" xmlns="http://www.w3.org/2000/svg">
<path fill-rule="evenodd" clip-rule="evenodd" d="M3 9C3 6.79086 4.79086 5 7 5C9.20914 5 11 6.79086 11 9V31C11 31.5523 10.5523 32 10 32C9.44772 32 9 31.5523 9 31C9 29.8954 8.10457 29 7 29C5.89543 29 5 29.8954 5 31C5 32.1046 5.89543 33 7 33H35V11H14C13.4477 11 13 10.5523 13 10C13 9.44772 13.4477 9 14 9H36C36.5523 9 37 9.44772 37 10V34C37 34.5523 36.5523 35 36 35H7C4.79086 35 3 33.2091 3 31C3 28.7909 4.79086 27 7 27C7.72857 27 8.41165 27.1948 9 27.5351V9C9 7.89543 8.10457 7 7 7C5.89543 7 5 7.89543 5 9V22C5 22.5523 4.55228 23 4 23C3.44772 23 3 22.5523 3 22V9ZM19.0761 30.3827C18.9214 30.009 19.0069 29.5789 19.2929 29.2929L31.2929 17.2929C31.5789 17.0069 32.009 16.9213 32.3827 17.0761C32.7564 17.2309 33 17.5955 33 18V30C33 30.5523 32.5523 31 32 31H20C19.5956 31 19.2309 30.7564 19.0761 30.3827ZM22.4142 29H31V20.4142L22.4142 29ZM14 14C13.4477 14 13 14.4477 13 15C13 15.5523 13.4477 16 14 16H24C24.5523 16 25 15.5523 25 15C25 14.4477 24.5523 14 24 14H14ZM14 17C13.4477 17 13 17.4477 13 18C13 18.5523 13.4477 19 14 19H22C22.5523 19 23 18.5523 23 18C23 17.4477 22.5523 17 22 17H14ZM4 26C4.55228 26 5 25.5523 5 25C5 24.4477 4.55228 24 4 24C3.44772 24 3 24.4477 3 25C3 25.5523 3.44772 26 4 26Z" fill="#ADB5BD"/>
</svg>
