<svg xmlns="http://www.w3.org/2000/svg" width="40" height="40" viewBox="0 0 40 40">
  <path fill="#ADB5BD" fill-rule="evenodd" d="M14,9 C14.5522847,9 15,9.44771525 15,10 C15,10.5128358 14.6139598,10.9355072 14.1166211,10.9932723 L14,11 L3,11 C2.48716416,11 2.06449284,11.3860402 2.00672773,11.8833789 L2,12 L2,32 C2,32.5128358 2.38604019,32.9355072 2.88337887,32.9932723 L3,33 L37,33 C37.5114647,33 37.9353113,32.6122189 37.9932513,32.1162481 L38,32 L38,26 C38,25.4477153 38.4477153,25 39,25 C39.5128358,25 39.9355072,25.3860402 39.9932723,25.8833789 L40,26 L40,32 C40,33.5952132 38.7502098,34.9034846 37.1761796,34.9948979 L37,35 L3,35 C1.40231912,35 0.0963391206,33.75108 0.00509269341,32.1762728 L0,32 L0,12 C0,10.4023191 1.24891996,9.09633912 2.82372721,9.00509269 L3,9 L14,9 Z M13,13 C17.9705627,13 22,17.0294373 22,22 C22,26.9705627 17.9705627,31 13,31 C8.02943725,31 4,26.9705627 4,22 C4,17.0294373 8.02943725,13 13,13 Z M13,15 C9.13400675,15 6,18.1340068 6,22 C6,25.8659932 9.13400675,29 13,29 C16.8659932,29 20,25.8659932 20,22 C20,18.1340068 16.8659932,15 13,15 Z M10.5251263,24.5961941 C11.8919613,25.9630291 14.1080387,25.9630291 15.4748737,24.5961941 C15.865398,24.2056698 16.498563,24.2056698 16.8890873,24.5961941 C17.2796116,24.9867184 17.2796116,25.6198833 16.8890873,26.0104076 C14.7412037,28.1582912 11.2587963,28.1582912 9.1109127,26.0104076 C8.72038841,25.6198833 8.72038841,24.9867184 9.1109127,24.5961941 C9.501437,24.2056698 10.134602,24.2056698 10.5251263,24.5961941 Z M28,25 C28.5522847,25 29,25.4477153 29,26 C29,26.5522847 28.5522847,27 28,27 L26,27 C25.4477153,27 25,26.5522847 25,26 C25,25.4477153 25.4477153,25 26,25 L28,25 Z M32,21 C32.5522847,21 33,21.4477153 33,22 C33,22.5522847 32.5522847,23 32,23 L26,23 C25.4477153,23 25,22.5522847 25,22 C25,21.4477153 25.4477153,21 26,21 L32,21 Z M39,21 C39.5522847,21 40,21.4477153 40,22 C40,22.5522847 39.5522847,23 39,23 C38.4477153,23 38,22.5522847 38,22 C38,21.4477153 38.4477153,21 39,21 Z M37,9 C38.5976809,9 39.9036609,10.24892 39.9949073,11.8237272 L40,12 L40,18 C40,18.5522847 39.5522847,19 39,19 C38.4871642,19 38.0644928,18.6139598 38.0067277,18.1166211 L38,18 L38,12 L37.9932723,11.8833789 C37.9399506,11.424297 37.575703,11.0600494 37.1166211,11.0067277 L37,11 L26,11 C25.4477153,11 25,10.5522847 25,10 C25,9.48716416 25.3860402,9.06449284 25.8833789,9.00672773 L26,9 L37,9 Z M34,17 C34.5522847,17 35,17.4477153 35,18 C35,18.5522847 34.5522847,19 34,19 L26,19 C25.4477153,19 25,18.5522847 25,18 C25,17.4477153 25.4477153,17 26,17 L34,17 Z M23,5 C23.5522847,5 24,5.44771525 24,6 L24,10 C24,10.5522847 23.5522847,11 23,11 L17,11 C16.4477153,11 16,10.5522847 16,10 L16,6 C16,5.44771525 16.4477153,5 17,5 L23,5 Z M22,7 L18,7 L18,9 L22,9 L22,7 Z"/>
</svg>
