<svg width="40" height="40" viewBox="0 0 40 40" fill="none" xmlns="http://www.w3.org/2000/svg">
<path fill-rule="evenodd" clip-rule="evenodd" d="M16.2118 0.384588C16.4013 0.141872 16.6921 0 17 0H23C23.3079 0 23.5987 0.141872 23.7882 0.384588C23.9777 0.627304 24.0448 0.943794 23.9702 1.24254L22.9702 5.24254C22.8589 5.6877 22.4589 6 22 6H21V7.0449C22.3514 7.16682 23.6337 7.53341 24.8011 8.10052C25.2979 8.34185 25.5049 8.9402 25.2636 9.43697C25.0223 9.93374 24.4239 10.1408 23.9272 9.89948C22.7416 9.32353 21.41 9 20 9C15.0294 9 11 13.0294 11 18C11 22.9706 15.0294 27 20 27C24.9706 27 29 22.9706 29 18C29 17.0576 28.8555 16.1508 28.5881 15.2997C28.4227 14.7727 28.7156 14.2114 29.2425 14.046C29.7695 13.8805 30.3308 14.1734 30.4962 14.7003C30.8238 15.7432 31 16.852 31 18C31 22.9748 27.6975 27.1784 23.1652 28.5378L23.9702 31.7575C24.0448 32.0562 23.9777 32.3727 23.7882 32.6154C23.5987 32.8581 23.3079 33 23 33H21V35C21 35.5523 20.5523 36 20 36C19.4477 36 19 36.4477 19 37C19 37.5523 19.4477 38 20 38C20.5523 38 21 37.5523 21 37C21 36.4477 21.4477 36 22 36C22.5523 36 23 36.4477 23 37C23 38.6569 21.6569 40 20 40C18.3431 40 17 38.6569 17 37C17 35.6938 17.8348 34.5825 19 34.1707V33H17C16.6921 33 16.4013 32.8581 16.2118 32.6154C16.0223 32.3727 15.9552 32.0562 16.0299 31.7575L16.8348 28.5378C12.3025 27.1784 9 22.9749 9 18C9 12.262 13.3935 7.55007 19 7.04484V6H18C17.5411 6 17.1412 5.6877 17.0299 5.24254L16.0299 1.24254C15.9552 0.943794 16.0223 0.627304 16.2118 0.384588ZM21.7192 31H20H18.2808L18.7808 29H20H21.2192L21.7192 31ZM21.2192 4H20H18.7808L18.2808 2H21.7192L21.2192 4ZM22 18C22 19.1046 21.1046 20 20 20C19.8208 20 19.6472 19.9764 19.482 19.9323L16.7071 22.7071C16.3166 23.0976 15.6834 23.0976 15.2929 22.7071C14.9024 22.3166 14.9024 21.6834 15.2929 21.2929L18.0677 18.518C18.0236 18.3528 18 18.1792 18 18C18 16.8954 18.8954 16 20 16C21.1046 16 22 16.8954 22 18ZM28 13C28.5523 13 29 12.5523 29 12C29 11.4477 28.5523 11 28 11C27.4477 11 27 11.4477 27 12C27 12.5523 27.4477 13 28 13Z" fill="#ADB5BD"/>
</svg>
