<svg width="40" height="40" viewBox="0 0 40 40" fill="none" xmlns="http://www.w3.org/2000/svg">
<path fill-rule="evenodd" clip-rule="evenodd" d="M6.52023 4.0749C7.03116 3.86521 7.61534 4.1094 7.82504 4.62033L20.425 35.3203C20.6347 35.8313 20.3905 36.4154 19.8796 36.6251C19.3687 36.8348 18.7845 36.5906 18.5748 36.0797L5.97481 5.37971C5.76511 4.86878 6.00931 4.2846 6.52023 4.0749Z" fill="#ADB5BD"/>
<path fill-rule="evenodd" clip-rule="evenodd" d="M6.01494 4.53421C6.27217 4.04548 6.87688 3.85782 7.36561 4.11504L6.89986 4.99996C7.36561 4.11504 7.36578 4.11513 7.36561 4.11504L7.36992 4.11727L7.39556 4.13037C7.41961 4.14256 7.45741 4.16148 7.50808 4.1861C7.60946 4.23538 7.76211 4.3074 7.95908 4.39412C8.35356 4.56781 8.92267 4.79911 9.61117 5.02465C10.9994 5.47942 12.819 5.89275 14.6499 5.80121C16.5982 5.70379 17.8874 5.48587 18.6708 5.30154C19.0623 5.20942 19.327 5.1258 19.4842 5.07003C19.5628 5.04215 19.6145 5.02122 19.6417 5.00968C19.6535 5.00468 19.6608 5.00143 19.6636 5.00014C19.679 4.99269 19.6945 4.98564 19.7102 4.97899L20.0999 5.89996C19.7102 4.97899 19.7108 4.97875 19.7114 4.97849L19.7127 4.97795L19.7157 4.97671L19.723 4.97365L19.7436 4.96532C19.7599 4.95881 19.7812 4.95045 19.8076 4.94052C19.8604 4.92067 19.9331 4.89454 20.025 4.86446C20.2087 4.80432 20.469 4.72825 20.7986 4.65502C21.4574 4.50861 22.3948 4.37309 23.5484 4.40023C25.8676 4.4548 29.0165 5.16644 32.488 7.69122C32.8275 7.93809 32.9766 8.37065 32.8615 8.77427C32.7464 9.17778 32.3916 9.4665 31.9732 9.49727L31.9676 9.49771L31.9395 9.50005C31.9135 9.50231 31.873 9.50601 31.8194 9.51145C31.7121 9.52234 31.5526 9.54019 31.3514 9.56746C30.9482 9.6221 30.3819 9.714 29.7359 9.86215C28.4243 10.163 26.8704 10.6768 25.6754 11.5178C24.3429 12.4554 22.5315 13.8199 21.0448 14.9568C20.3033 15.5239 19.6458 16.0318 19.1737 16.398C18.9376 16.581 18.748 16.7286 18.6175 16.8303L18.4169 16.9869L17.7999 16.2L17.1836 15.4124L17.388 15.2528C17.5197 15.1503 17.7105 15.0017 17.9479 14.8176C18.4227 14.4494 19.0839 13.9386 19.8299 13.3681C21.3182 12.23 23.1568 10.8445 24.5244 9.88215C25.9753 8.86109 27.7435 8.27957 29.1352 7.94865C26.9127 6.78282 24.9697 6.43423 23.5013 6.39968C22.5299 6.37682 21.7548 6.49131 21.2324 6.6074C20.9713 6.66542 20.7739 6.72373 20.6474 6.76515C20.5842 6.78585 20.5388 6.80229 20.5121 6.81233C20.507 6.81426 20.5025 6.81596 20.4988 6.8174C20.4785 6.82671 20.453 6.83806 20.422 6.85118C20.3571 6.87869 20.2682 6.91402 20.153 6.95489C19.9227 7.03661 19.5874 7.1405 19.1289 7.24838C18.2123 7.46405 16.8016 7.69612 14.7498 7.79871C12.5808 7.90716 10.5003 7.42049 8.98855 6.92527C8.22705 6.67581 7.59616 6.41961 7.15314 6.22455C6.93136 6.1269 6.75589 6.04423 6.63383 5.98491C6.57278 5.95524 6.52503 5.93138 6.49147 5.91437L6.45184 5.8941L6.4402 5.88806L6.43646 5.88611L6.43511 5.8854C6.43488 5.88528 6.43411 5.88488 6.89986 4.99996L6.43411 5.88488C5.94539 5.62765 5.75772 5.02294 6.01494 4.53421ZM20.4843 6.82311C20.4838 6.82332 20.4845 6.82303 20.4864 6.82227L20.4843 6.82311ZM17.7999 16.2L17.1836 15.4124C16.7487 15.7528 16.672 16.3813 17.0124 16.8163C17.3527 17.2512 17.982 17.3273 18.4169 16.9869L17.7999 16.2Z" fill="#ADB5BD"/>
<path d="M14.9998 18.7C15.552 18.7 15.9998 18.2522 15.9998 17.7C15.9998 17.1477 15.552 16.7 14.9998 16.7C14.4475 16.7 13.9998 17.1477 13.9998 17.7C13.9998 18.2522 14.4475 18.7 14.9998 18.7Z" fill="#ADB5BD"/>
</svg>
