<svg width="40" height="40" viewBox="0 0 40 40" fill="none" xmlns="http://www.w3.org/2000/svg">
<path d="M16.8 12.8999L16.3039 12.0317C15.8244 12.3057 15.6578 12.9166 15.9318 13.3961C16.2057 13.8755 16.8163 14.0421 17.2958 13.7684L17.305 13.7633C17.3156 13.7575 17.3334 13.7479 17.3581 13.7349C17.4075 13.709 17.4838 13.6704 17.5825 13.6241C17.7808 13.531 18.0644 13.4099 18.3991 13.3002C19.0917 13.0731 19.8941 12.9311 20.594 13.0785C21.3764 13.2432 21.8529 13.5421 22.1199 13.7661C22.2558 13.8801 22.3428 13.9792 22.3903 14.0396C22.414 14.0699 22.4279 14.0904 22.4328 14.098L22.4334 14.0989C22.4446 14.1183 22.4565 14.1374 22.469 14.1561L22.4746 14.1649C22.4815 14.1758 22.4939 14.1959 22.5104 14.2245C22.5435 14.282 22.5923 14.372 22.6455 14.4881C22.7535 14.724 22.8707 15.0481 22.9223 15.4146C23.0175 16.0896 22.9095 16.9593 21.9018 17.7972C21.875 17.8156 21.8405 17.84 21.7993 17.8704C21.7117 17.9349 21.5933 18.0271 21.4545 18.1474C21.1776 18.3874 20.8147 18.7435 20.453 19.2211C19.7257 20.1811 19 21.6378 19 23.5999C19 24.1522 19.4478 24.5999 20 24.5999C20.5523 24.5999 21 24.1522 21 23.5999C21 22.1621 21.5244 21.1188 22.0471 20.4288C22.3104 20.0814 22.5725 19.825 22.7644 19.6588C22.8599 19.5759 22.9368 19.5165 22.986 19.4803C23.0105 19.4622 23.028 19.45 23.0373 19.4436L23.0445 19.4387C23.0747 19.4191 23.1038 19.3979 23.1317 19.3752C24.793 18.0216 25.0815 16.4029 24.9028 15.1353C24.8169 14.5268 24.6278 14.0134 24.464 13.6555C24.3812 13.4748 24.3027 13.3289 24.2425 13.2246C24.2123 13.1723 24.1865 13.1302 24.1668 13.0989L24.1507 13.0736C24.1393 13.0546 24.1253 13.0319 24.1083 13.0058C24.073 12.9517 24.0251 12.8831 23.9629 12.804C23.8385 12.6457 23.6568 12.4448 23.4052 12.2338C22.8972 11.8078 22.1237 11.3567 21.0061 11.1214C19.806 10.8687 18.6084 11.1268 17.776 11.3997C17.3481 11.54 16.988 11.6938 16.7333 11.8133C16.6054 11.8733 16.5027 11.9252 16.4299 11.9634C16.3934 11.9825 16.3643 11.9982 16.3432 12.0098L16.3174 12.0241L16.3091 12.0287L16.3061 12.0304L16.3049 12.0311C16.3047 12.0313 16.3039 12.0317 16.8 12.8999Z" fill="#ADB5BD"/>
<path d="M21 28.1001C21 28.6524 20.5523 29.1001 20 29.1001C19.4477 29.1001 19 28.6524 19 28.1001C19 27.5478 19.4477 27.1001 20 27.1001C20.5523 27.1001 21 27.5478 21 28.1001Z" fill="#ADB5BD"/>
<path fill-rule="evenodd" clip-rule="evenodd" d="M3.30005 20C3.30005 10.7769 10.7769 3.30005 20 3.30005C29.2232 3.30005 36.7001 10.7769 36.7001 20C36.7001 29.2232 29.2232 36.7001 20 36.7001C10.7769 36.7001 3.30005 29.2232 3.30005 20ZM20 5.30005C11.8815 5.30005 5.30005 11.8815 5.30005 20C5.30005 28.1186 11.8815 34.7001 20 34.7001C28.1186 34.7001 34.7001 28.1186 34.7001 20C34.7001 11.8815 28.1186 5.30005 20 5.30005Z" fill="#ADB5BD"/>
</svg>
