<svg xmlns="http://www.w3.org/2000/svg" width="40" height="40" viewBox="0 0 40 40">
  <path fill-rule="evenodd" d="M8,14.6821789 C8,22.8655878 12.6697796,30.3160409 20,33.8931139 C26.9366945,30.5078814 31.515473,23.6376185 31.9638216,15.9283532 C31.9958867,15.3770001 32.4688406,14.956034 33.0201937,14.9880991 C33.5715469,15.0201642 33.992513,15.4931181 33.9604479,16.0444712 C33.4603133,24.6441876 28.2609514,32.288624 20.4190582,35.9079594 C20.1531631,36.0306802 19.8468369,36.0306802 19.5809418,35.9079594 C11.301806,32.0868198 6,23.8005778 6,14.6821789 L6,9 C6,8.44771525 6.44771525,8 7,8 L8.59687576,8 C12.5147458,8 16.3159624,6.66660522 19.375305,4.21913119 C19.7405236,3.92695627 20.2594764,3.92695627 20.624695,4.21913119 C23.6840376,6.66660522 27.4852542,8 31.4031242,8 L33,8 C33.5522847,8 34,8.44771525 34,9 C34,9.55228475 33.5522847,10 33,10 L31.4031242,10 C27.2940091,10 23.2998847,8.68561108 20,6.26002279 C16.7001153,8.68561108 12.7059909,10 8.59687576,10 L8,10 L8,14.6821789 Z M19,14 C19,13.4477153 19.4477153,13 20,13 C20.5522847,13 21,13.4477153 21,14 L21,22 C21,22.5522847 20.5522847,23 20,23 C19.4477153,23 19,22.5522847 19,22 L19,14 Z M33,13 C32.4477153,13 32,12.5522847 32,12 C32,11.4477153 32.4477153,11 33,11 C33.5522847,11 34,11.4477153 34,12 C34,12.5522847 33.5522847,13 33,13 Z M20,25 C20.5522847,25 21,25.4477153 21,26 C21,26.5522847 20.5522847,27 20,27 C19.4477153,27 19,26.5522847 19,26 C19,25.4477153 19.4477153,25 20,25 Z"/>
</svg>
