<svg width="40" height="40" viewBox="0 0 40 40" fill="none" xmlns="http://www.w3.org/2000/svg">
<path d="M14 38C14.5523 38 15 37.5523 15 37C15 36.4477 14.5523 36 14 36C13.4477 36 13 36.4477 13 37C13 37.5523 13.4477 38 14 38Z" fill="#ADB5BD"/>
<path fill-rule="evenodd" clip-rule="evenodd" d="M8 16.6001V36.0001H11C11.5523 36.0001 12 36.4478 12 37.0001C12 37.5524 11.5523 38.0001 11 38.0001H7.8C7.26008 38.0001 6.77933 37.7738 6.44911 37.3835C6.13297 37.0099 6 36.5432 6 36.1001V16.4001C6 15.2677 6.9314 14.6001 7.8 14.6001H32.1C33.2324 14.6001 33.9 15.5315 33.9 16.4001V36.2001C33.9 37.3325 32.9686 38.0001 32.1 38.0001H18C17.4477 38.0001 17 37.5524 17 37.0001C17 36.4478 17.4477 36.0001 18 36.0001H31.9V16.6001H8ZM8.00349 36.136C8.00345 36.136 8.00319 36.1353 8.00284 36.1338C8.00335 36.1352 8.00352 36.136 8.00349 36.136Z" fill="#ADB5BD"/>
<path fill-rule="evenodd" clip-rule="evenodd" d="M19.6 4C16.6522 4 14.2 6.45228 14.2 9.4V15.1C14.2 15.6523 13.7522 16.1 13.2 16.1C12.6477 16.1 12.2 15.6523 12.2 15.1V9.4C12.2 5.34771 15.5477 2 19.6 2H20.5C24.5522 2 27.9 5.34771 27.9 9.4V15.1C27.9 15.6523 27.4522 16.1 26.9 16.1C26.3477 16.1 25.9 15.6523 25.9 15.1V9.4C25.9 6.45228 23.4477 4 20.5 4H19.6Z" fill="#ADB5BD"/>
<path fill-rule="evenodd" clip-rule="evenodd" d="M20.0999 21.8C18.3326 21.8 16.8999 23.2327 16.8999 25C16.8999 26.7674 18.3326 28.2001 20.0999 28.2001C21.8672 28.2001 23.2999 26.7674 23.2999 25C23.2999 23.2327 21.8672 21.8 20.0999 21.8ZM14.8999 25C14.8999 22.1282 17.228 19.8 20.0999 19.8C22.9718 19.8 25.2999 22.1282 25.2999 25C25.2999 27.8719 22.9718 30.2001 20.0999 30.2001C17.228 30.2001 14.8999 27.8719 14.8999 25Z" fill="#ADB5BD"/>
<path fill-rule="evenodd" clip-rule="evenodd" d="M20 28.6001C20.5523 28.6001 21 29.0478 21 29.6001V33.0001C21 33.5524 20.5523 34.0001 20 34.0001C19.4477 34.0001 19 33.5524 19 33.0001V29.6001C19 29.0478 19.4477 28.6001 20 28.6001Z" fill="#ADB5BD"/>
</svg>
