<?xml version="1.0" encoding="UTF-8"?>
<svg width="40px" height="40px" viewBox="0 0 40 40" version="1.1" xmlns="http://www.w3.org/2000/svg" xmlns:xlink="http://www.w3.org/1999/xlink">
    <!-- Generator: Sketch 58 (84663) - https://sketch.com -->
    <title>Illustrative Icon/Editorial/service</title>
    <desc>Created with Sketch.</desc>
    <g id="Illustrative-Icon/Editorial/service" stroke="none" stroke-width="1" fill="none" fill-rule="evenodd">
        <path d="M5,21 C5.51283584,21 5.93550716,21.3860402 5.99327227,21.8833789 L6,22 L6,22.522 L8.09025877,21.6868635 C9.23941297,21.2272018 10.5150651,21.211178 11.6710248,21.6357902 L11.9168086,21.7335218 L21.828,25.981 L27.7041357,23.370511 C27.7610242,23.3452273 27.8185061,23.3213232 27.8765307,23.2988184 L28.0521822,23.2355217 C29.771059,22.6625627 31.6077565,23.3624566 32.5395277,24.8238296 L34.131207,24.1415151 L34.399734,24.038724 C36.2123934,23.4249527 38.2091877,24.3303869 38.9284767,26.1286093 C39.6612538,27.9605522 38.8766309,30.0364935 37.1450498,30.9357899 L36.9625662,31.024565 L19.1510444,39.1207113 C17.8582914,39.7083263 16.3808627,39.7169492 15.086433,39.1533865 L14.8459617,39.0410148 L12.5527864,37.8944272 C12.0588079,37.6474379 11.8585836,37.0467649 12.1055728,36.5527864 C12.33492,36.0940921 12.8692292,35.8886858 13.3398958,36.0594357 L13.4472136,36.1055728 L15.7403889,37.2521605 C16.4878049,37.6258684 17.3541003,37.6695879 18.1311546,37.379466 L18.3234385,37.2999783 L36.1349603,29.203832 C37.0201853,28.801457 37.4326573,27.7742258 37.0715233,26.8713907 C36.7562061,26.0830978 35.8937387,25.6771824 35.0957444,25.9157688 L34.9557156,25.964616 L23.6973934,30.7896665 C22.8457418,32.0869648 21.1942837,32.6339999 19.7263633,32.077982 L19.5505168,32.0056583 L12.5938615,28.9138115 C12.0891774,28.6895075 11.8618844,28.0985457 12.0861885,27.5938615 C12.2944708,27.1252262 12.8189019,26.8957701 13.2968363,27.044972 L13.4061385,27.0861885 L20.3627937,30.1780352 C21.0174578,30.4689971 21.7851843,30.1935633 22.1055728,29.5527864 L22.1197053,29.5234519 L22.1329701,29.493715 L22.1745666,29.3801457 C22.3263393,28.884155 22.1112222,28.3463621 21.6592552,28.0918673 L21.5508099,28.0383147 L11.1289701,23.5718119 C10.4641362,23.2868831 9.72115898,23.2526581 9.03653893,23.4708013 L8.83304013,23.5438169 L6,24.676 L6,36 C6,36.5128358 5.61395981,36.9355072 5.11662113,36.9932723 L5,37 L1,37 C0.44771525,37 0,36.5522847 0,36 C0,35.4871642 0.38604019,35.0644928 0.883378875,35.0067277 L1,35 L4,35 L4,23 L1,23 C0.44771525,23 0,22.5522847 0,22 C0,21.4871642 0.38604019,21.0644928 0.883378875,21.0067277 L1,21 L5,21 Z M9,34 C9.55228475,34 10,34.4477153 10,35 C10,35.5522847 9.55228475,36 9,36 C8.44771525,36 8,35.5522847 8,35 C8,34.4477153 8.44771525,34 9,34 Z M28.6846377,25.1328883 L28.5997382,25.1634821 L28.5997382,25.1634821 L28.5164126,25.1981341 L23.7038892,27.3372689 C23.9212054,27.6651639 24.0747171,28.0317633 24.156058,28.4161513 L30.6475002,25.6342127 C30.1635308,25.1138243 29.4028076,24.8934983 28.6846377,25.1328883 Z M31,0 C31.5522847,0 32,0.44771525 32,1 L32,12 L32,21 C32,21.5522847 31.5522847,22 31,22 C30.4871642,22 30.0644928,21.6139598 30.0067277,21.1166211 L30,21 L30,13 L10,13 L10,19 C10,19.5522847 9.55228475,20 9,20 C8.48716416,20 8.06449284,19.6139598 8.00672773,19.1166211 L8,19 L8,12 L8,1 C8,0.44771525 8.44771525,0 9,0 L31,0 Z M21,18 C21.5522847,18 22,18.4477153 22,19 C22,19.5128358 21.6139598,19.9355072 21.1166211,19.9932723 L21,20 L13,20 C12.4477153,20 12,19.5522847 12,19 C12,18.4871642 12.3860402,18.0644928 12.8833789,18.0067277 L13,18 L21,18 Z M25,15 C25.5522847,15 26,15.4477153 26,16 C26,16.5128358 25.6139598,16.9355072 25.1166211,16.9932723 L25,17 L13,17 C12.4477153,17 12,16.5522847 12,16 C12,15.4871642 12.3860402,15.0644928 12.8833789,15.0067277 L13,15 L25,15 Z M30,2 L10,2 L10,11 L30,11 L30,2 Z M21,7 C21.5522847,7 22,7.44771525 22,8 C22,8.51283584 21.6139598,8.93550716 21.1166211,8.99327227 L21,9 L13,9 C12.4477153,9 12,8.55228475 12,8 C12,7.48716416 12.3860402,7.06449284 12.8833789,7.00672773 L13,7 L21,7 Z M25,4 C25.5522847,4 26,4.44771525 26,5 C26,5.51283584 25.6139598,5.93550716 25.1166211,5.99327227 L25,6 L13,6 C12.4477153,6 12,5.55228475 12,5 C12,4.48716416 12.3860402,4.06449284 12.8833789,4.00672773 L13,4 L25,4 Z" id="Combined-Shape" fill="#ADB5BD"></path>
    </g>
</svg>