<svg width="40" height="40" viewBox="0 0 40 40" fill="none" xmlns="http://www.w3.org/2000/svg">
<path fill-rule="evenodd" clip-rule="evenodd" d="M3 5C3.55228 5 4 5.44772 4 6V33H6V18C6 17.4477 6.44772 17 7 17H13C13.5523 17 14 17.4477 14 18V33H16V10C16 9.44772 16.4477 9 17 9H20C20.5523 9 21 9.44772 21 10C21 10.5523 20.5523 11 20 11H18V33H22V13C22 12.4477 22.4477 12 23 12C23.5523 12 24 12.4477 24 13V33H26V22C26 21.4477 26.4477 21 27 21H33C33.5523 21 34 21.4477 34 22V33H37C37.5523 33 38 33.4477 38 34C38 34.5523 37.5523 35 37 35H33H27H23H17H13H7H3C2.44772 35 2 34.5523 2 34V6C2 5.44772 2.44772 5 3 5ZM32 33H28V23H32V33ZM12 33H8V19H12V33ZM23 11C23.5523 11 24 10.5523 24 10C24 9.44772 23.5523 9 23 9C22.4477 9 22 9.44772 22 10C22 10.5523 22.4477 11 23 11Z" fill="#ADB5BD"/>
</svg>
