<svg width="40" height="40" viewBox="0 0 40 40" fill="none" xmlns="http://www.w3.org/2000/svg">
<path fill-rule="evenodd" clip-rule="evenodd" d="M5 20C5 11.7157 11.7157 5 20 5C28.2843 5 35 11.7157 35 20C35 22.5562 34.3614 24.9603 33.2359 27.0644C32.9754 27.5514 33.159 28.1574 33.646 28.4179C34.133 28.6784 34.7389 28.4948 34.9994 28.0078C36.2764 25.6206 37 22.8933 37 20C37 10.6112 29.3888 3 20 3C10.6112 3 3 10.6112 3 20C3 29.3888 10.6112 37 20 37C22.8933 37 25.6206 36.2764 28.0078 34.9994C28.4948 34.7389 28.6784 34.133 28.4179 33.646C28.1574 33.159 27.5514 32.9754 27.0644 33.2359C24.9603 34.3614 22.5562 35 20 35C11.7157 35 5 28.2843 5 20ZM28.7071 14.2929C29.0976 14.6834 29.0976 15.3166 28.7071 15.7071L17.7071 26.7071C17.3166 27.0976 16.6834 27.0976 16.2929 26.7071L11.2929 21.7071C10.9024 21.3166 10.9024 20.6834 11.2929 20.2929C11.6834 19.9024 12.3166 19.9024 12.7071 20.2929L17 24.5858L27.2929 14.2929C27.6834 13.9024 28.3166 13.9024 28.7071 14.2929ZM32 31C32 30.4477 31.5523 30 31 30C30.4477 30 30 30.4477 30 31C30 31.5523 30.4477 32 31 32C31.5523 32 32 31.5523 32 31Z" fill="black"/>
</svg>
