<svg xmlns="http://www.w3.org/2000/svg" width="40" height="40" viewBox="0 0 40 40">
  <path fill="#ADB5BD" fill-rule="evenodd" d="M20,-7.10542736e-15 C21.4854116,-7.10542736e-15 22.8046586,0.774574059 23.4948498,1.99989326 L27,2 C27.5128358,2 27.9355072,2.38604019 27.9932723,2.88337887 L28,3 L28,4 L33,4 C33.5128358,4 33.9355072,4.38604019 33.9932723,4.88337887 L34,5 L34,7 C34,7.55228475 33.5522847,8 33,8 C32.4477153,8 32,7.55228475 32,7 L32,6 L28,6 L28,7 C28,7.51283584 27.6139598,7.93550716 27.1166211,7.99327227 L27,8 L13,8 C12.4871642,8 12.0644928,7.61395981 12.0067277,7.11662113 L12,7 L12,6 L8,6 L8,38 L32,38 L32,15 C32,14.4477153 32.4477153,14 33,14 C33.5128358,14 33.9355072,14.3860402 33.9932723,14.8833789 L34,15 L34,39 C34,39.5128358 33.6139598,39.9355072 33.1166211,39.9932723 L33,40 L7,40 C6.48716416,40 6.06449284,39.6139598 6.00672773,39.1166211 L6,39 L6,5 C6,4.48716416 6.38604019,4.06449284 6.88337887,4.00672773 L7,4 L12,4 L12,3 C12,2.48716416 12.3860402,2.06449284 12.8833789,2.00672773 L13,2 L16.517835,1.99970851 C17.2127537,0.779331957 18.5269767,-7.10542736e-15 20,-7.10542736e-15 Z M14.3560399,28.4275577 C14.6728174,27.9751526 15.2963632,27.8652046 15.7487684,28.1819821 C16.2011736,28.4987597 16.3111215,29.1223054 15.994344,29.5747106 L15.994344,29.5747106 L13.7000383,32.8513188 C13.3832608,33.303724 12.759715,33.4136719 12.3073098,33.0968944 L12.3073098,33.0968944 L10.4808848,31.8180179 C10.0284796,31.5012403 9.91853168,30.8776946 10.2353092,30.4252894 C10.5520867,29.9728842 11.1756325,29.8629363 11.6280377,30.1797138 L11.6280377,30.1797138 L12.6353106,30.8850139 Z M26,30 C26.5522847,30 27,30.4477153 27,31 C27,31.5522847 26.5522847,32 26,32 L20,32 C19.4477153,32 19,31.5522847 19,31 C19,30.4477153 19.4477153,30 20,30 L26,30 Z M15.7487684,20.1819821 C16.1663732,20.4743922 16.2921801,21.0281905 16.0599099,21.467489 L15.994344,21.5747106 L13.7000383,24.8513188 C13.4076283,25.2689236 12.8538299,25.3947305 12.4145315,25.1624603 L12.3073098,25.0968944 L10.4808848,23.8180179 C10.0284796,23.5012403 9.91853168,22.8776946 10.2353092,22.4252894 C10.5277192,22.0076846 11.0815176,21.8818777 11.520816,22.1141479 L11.6280377,22.1797138 L12.6353106,22.8850139 L14.3560399,20.4275577 C14.6728174,19.9751526 15.2963632,19.8652046 15.7487684,20.1819821 Z M28,22 C28.5522847,22 29,22.4477153 29,23 C29,23.5522847 28.5522847,24 28,24 L20,24 C19.4477153,24 19,23.5522847 19,23 C19,22.4477153 19.4477153,22 20,22 L28,22 Z M15.7487684,12.1819821 C16.1663732,12.4743922 16.2921801,13.0281905 16.0599099,13.467489 L15.994344,13.5747106 L13.7000383,16.8513188 C13.4076283,17.2689236 12.8538299,17.3947305 12.4145315,17.1624603 L12.3073098,17.0968944 L10.4808848,15.8180179 C10.0284796,15.5012403 9.91853168,14.8776946 10.2353092,14.4252894 C10.5277192,14.0076846 11.0815176,13.8818777 11.520816,14.1141479 L11.6280377,14.1797138 L12.6353106,14.8850139 L14.3560399,12.4275577 C14.6728174,11.9751526 15.2963632,11.8652046 15.7487684,12.1819821 Z M27,14 C27.5522847,14 28,14.4477153 28,15 C28,15.5522847 27.5522847,16 27,16 L20,16 C19.4477153,16 19,15.5522847 19,15 C19,14.4477153 19.4477153,14 20,14 L27,14 Z M33,10 C33.5522847,10 34,10.4477153 34,11 C34,11.5522847 33.5522847,12 33,12 C32.4477153,12 32,11.5522847 32,11 C32,10.4477153 32.4477153,10 33,10 Z M20,2 C19.1783332,2 18.4691351,2.46810244 18.1620632,3.17738205 L18.1060964,3.32238643 L18.0621308,3.43061201 C17.8711191,3.83229453 17.4358223,4.05799183 17.0006681,3.98746927 L17,4 L14,4 L14,6 L26,6 L26,4 L23,4 L23.0004298,3.98855752 C22.5642083,4.05611776 22.1300907,3.82667901 21.9422829,3.42294775 L21.8992359,3.3143535 L21.8447122,3.16973453 C21.544517,2.46261663 20.8368545,2 20,2 Z"/>
</svg>
