<svg width="40" height="40" viewBox="0 0 40 40" fill="none" xmlns="http://www.w3.org/2000/svg">
<path fill-rule="evenodd" clip-rule="evenodd" d="M25 9C25 6.23858 22.7614 4 20 4C17.2386 4 15 6.23858 15 9C15 11.7614 17.2386 14 20 14C22.7614 14 25 11.7614 25 9ZM17 9C17 7.34315 18.3431 6 20 6C21.6569 6 23 7.34315 23 9C23 10.6569 21.6569 12 20 12C18.3431 12 17 10.6569 17 9ZM8 6C10.7614 6 13 8.23858 13 11C13 13.7614 10.7614 16 8 16C5.23858 16 3 13.7614 3 11C3 8.23858 5.23858 6 8 6ZM8 8C6.34315 8 5 9.34315 5 11C5 12.6569 6.34315 14 8 14C9.65685 14 11 12.6569 11 11C11 9.34315 9.65685 8 8 8ZM14 24C14 20.6863 16.6863 18 20 18C23.3137 18 26 20.6863 26 24V28V33V35C26 35.5523 26.4477 36 27 36C27.5523 36 28 35.5523 28 35V33V28C28 25.7909 29.7909 24 32 24C34.2091 24 36 25.7909 36 28V30C36 30.5523 36.4477 31 37 31C37.5523 31 38 30.5523 38 30V28C38 24.6863 35.3137 22 32 22C30.457 22 29.05 22.5825 27.987 23.5395C27.7484 19.3355 24.2637 16 20 16C16.8595 16 14.1417 17.8096 12.8323 20.4429C11.7398 18.9612 9.98217 18 8 18C4.68629 18 2 20.6863 2 24V33C2 33.5523 2.44772 34 3 34C3.55228 34 4 33.5523 4 33V24C4 21.7909 5.79086 20 8 20C10.2091 20 12 21.7909 12 24V33V35C12 35.5523 12.4477 36 13 36C13.5523 36 14 35.5523 14 35V33V24ZM32 12C34.2091 12 36 13.7909 36 16C36 18.2091 34.2091 20 32 20C29.7909 20 28 18.2091 28 16C28 13.7909 29.7909 12 32 12ZM32 14C30.8954 14 30 14.8954 30 16C30 17.1046 30.8954 18 32 18C33.1046 18 34 17.1046 34 16C34 14.8954 33.1046 14 32 14ZM38 33C38 33.5523 37.5523 34 37 34C36.4477 34 36 33.5523 36 33C36 32.4477 36.4477 32 37 32C37.5523 32 38 32.4477 38 33Z" fill="#ADB5BD"/>
</svg>
