<svg width="40" height="40" viewBox="0 0 40 40" fill="none" xmlns="http://www.w3.org/2000/svg">
<path fill-rule="evenodd" clip-rule="evenodd" d="M19 12.8C19 12.2478 19.4477 11.8 20 11.8C23.4463 11.8 26.48 13.924 26.9852 16.8287C27.0798 17.3728 26.7155 17.8906 26.1713 17.9853C25.6272 18.0799 25.1094 17.7155 25.0148 17.1714C24.72 15.4761 22.7537 13.8 20 13.8C19.4477 13.8 19 13.3523 19 12.8Z" fill="#ADB5BD"/>
<path fill-rule="evenodd" clip-rule="evenodd" d="M14.7 34C14.7 33.4477 15.1477 33 15.7 33H19.6C20.1522 33 20.6 33.4477 20.6 34C20.6 34.5523 20.1522 35 19.6 35H16.702C16.7516 36.2172 17.7027 37.1 18.8 37.1H21.2C22.3866 37.1 23.3 36.1109 23.3 34.9V34C23.3 33.4477 23.7477 33 24.3 33C24.8522 33 25.3 33.4477 25.3 34V34.9C25.3 37.0891 23.6133 39.1 21.2 39.1H18.8C16.5271 39.1 14.7 37.2315 14.7 34.9V34Z" fill="#ADB5BD"/>
<path fill-rule="evenodd" clip-rule="evenodd" d="M20 1C20.5523 1 21 1.44772 21 2V6.2C21 6.75228 20.5523 7.2 20 7.2C19.4477 7.2 19 6.75228 19 6.2V2C19 1.44772 19.4477 1 20 1Z" fill="#ADB5BD"/>
<path fill-rule="evenodd" clip-rule="evenodd" d="M10.496 3.53629C10.9731 3.25801 11.5854 3.41914 11.8637 3.89619L13.9637 7.49619C14.242 7.97325 14.0808 8.58556 13.6038 8.86384C13.1267 9.14212 12.5144 8.98099 12.2361 8.50394L10.1361 4.90394C9.85786 4.42688 10.019 3.81457 10.496 3.53629Z" fill="#ADB5BD"/>
<path fill-rule="evenodd" clip-rule="evenodd" d="M3.63614 10.3962C3.91442 9.91914 4.52674 9.75801 5.00379 10.0363L8.60379 12.1363C9.08084 12.4146 9.24198 13.0269 8.9637 13.5039C8.68542 13.981 8.0731 14.1421 7.59605 13.8638L3.99605 11.7638C3.519 11.4856 3.35786 10.8732 3.63614 10.3962Z" fill="#ADB5BD"/>
<path fill-rule="evenodd" clip-rule="evenodd" d="M36.3636 10.3962C36.6419 10.8732 36.4807 11.4856 36.0037 11.7638L32.4037 13.8638C31.9266 14.1421 31.3143 13.981 31.036 13.5039C30.7578 13.0269 30.9189 12.4146 31.3959 12.1363L34.996 10.0363C35.473 9.75801 36.0853 9.91914 36.3636 10.3962Z" fill="#ADB5BD"/>
<path fill-rule="evenodd" clip-rule="evenodd" d="M29.5037 3.53629C29.9807 3.81457 30.1419 4.42688 29.8636 4.90394L27.7636 8.50394C27.4853 8.98099 26.873 9.14212 26.3959 8.86384C25.9189 8.58556 25.7578 7.97325 26.036 7.49619L28.136 3.89619C28.4143 3.41914 29.0266 3.25801 29.5037 3.53629Z" fill="#ADB5BD"/>
<path d="M26 21C26.5523 21 27 20.5523 27 20C27 19.4477 26.5523 19 26 19C25.4477 19 25 19.4477 25 20C25 20.5523 25.4477 21 26 21Z" fill="#ADB5BD"/>
<path fill-rule="evenodd" clip-rule="evenodd" d="M20.0999 10C15.2589 10 11.3999 13.9456 11.3999 18.7C11.3999 21.6482 12.9074 24.5754 16.1269 26.0958C16.4767 26.261 16.6999 26.6131 16.6999 27V31C16.6999 31.5523 16.2522 32 15.6999 32C15.1476 32 14.6999 31.5523 14.6999 31V27.6137C11.1106 25.6628 9.3999 22.1719 9.3999 18.7C9.3999 12.8544 14.1409 8 20.0999 8C26.0522 8 30.7999 12.7477 30.7999 18.7C30.7999 22.4899 28.8806 25.7976 25.2999 27.6303V31C25.2999 31.5523 24.8522 32 24.2999 32C23.7476 32 23.2999 31.5523 23.2999 31V27C23.2999 26.6048 23.5326 26.2467 23.8938 26.0862C27.1319 24.647 28.7999 21.9057 28.7999 18.7C28.7999 13.8523 24.9476 10 20.0999 10Z" fill="#ADB5BD"/>
</svg>
