<svg width="40" height="40" viewBox="0 0 40 40" fill="none" xmlns="http://www.w3.org/2000/svg">
<path fill-rule="evenodd" clip-rule="evenodd" d="M7 7C5.34315 7 4 8.34315 4 10V11H3H2C1.44772 11 1 11.4477 1 12V18C1 18.5523 1.44772 19 2 19C2.55228 19 3 18.5523 3 18V13H4V22V30C4 30.5523 4.44772 31 5 31H6V33C6 33.5523 6.44772 34 7 34H10C10.5523 34 11 33.5523 11 33V31H18V33C18 33.5523 18.4477 34 19 34H22C22.5523 34 23 33.5523 23 33V31H34V33C34 33.5523 34.4477 34 35 34H38C38.5523 34 39 33.5523 39 33V30V23C39.5523 23 40 22.5523 40 22C40 21.4477 39.5523 21 39 21H38.6594L35.9191 14.6061C35.7616 14.2384 35.4 14 35 14H27V12C27 11.4477 26.5523 11 26 11H24V10C24 8.34314 22.6569 7 21 7H7ZM25 14V13H24V14H25ZM18 29V26V23H6V29H7H10H18ZM18 21H18.3406L21.0809 14.6061C21.2384 14.2384 21.6 14 22 14V13H6V21H18ZM22 11V10C22 9.44772 21.5523 9 21 9H7C6.44772 9 6 9.44772 6 10V11H22ZM9 31H8V32H9V31ZM13 25C12.4477 25 12 25.4477 12 26C12 26.5523 12.4477 27 13 27H15C15.5523 27 16 26.5523 16 26C16 25.4477 15.5523 25 15 25H13ZM10 26C10 26.5523 9.55228 27 9 27C8.44772 27 8 26.5523 8 26C8 25.4477 8.44772 25 9 25C9.55228 25 10 25.4477 10 26ZM36.4835 21L34.3406 16H22.6594L20.5165 21H36.4835ZM37 23H20V29H22H35H37V23ZM36 32V31H37V32H36ZM21 31H20V32H21V31ZM23 27C23.5523 27 24 26.5523 24 26C24 25.4477 23.5523 25 23 25C22.4477 25 22 25.4477 22 26C22 26.5523 22.4477 27 23 27ZM35 26C35 26.5523 34.5523 27 34 27C33.4477 27 33 26.5523 33 26C33 25.4477 33.4477 25 34 25C34.5523 25 35 25.4477 35 26ZM26 26C26 25.4477 26.4477 25 27 25H30C30.5523 25 31 25.4477 31 26C31 26.5523 30.5523 27 30 27H27C26.4477 27 26 26.5523 26 26Z" fill="#ADB5BD"/>
</svg>
