<svg xmlns="http://www.w3.org/2000/svg" width="40" height="40" viewBox="0 0 40 40">
  <path fill-rule="evenodd" d="M4.83290175,23.1835643 C4.82100939,23.1948748 4.80911021,23.2061915 4.7972042,23.2175144 C0.501436995,18.9217472 0.501436995,11.9569324 4.7972042,7.66116524 C8.90605199,3.55231745 15.456727,3.37353135 19.7780747,7.12480693 C23.0785827,4.31824376 27.7257268,3.72221414 31.6295162,5.58054794 C32.1281827,5.81792981 32.3399957,6.41461492 32.1026139,6.91328144 C31.865232,7.41194795 31.2685469,7.623761 30.7698804,7.38637913 C27.3584048,5.76240311 23.2519504,6.38430503 20.5362554,9.1 L16.6715729,12.9644661 C16.0857864,13.5502525 16.0857864,14.5 16.6715729,15.0857864 C17.2573593,15.6715729 18.2071068,15.6715729 18.7928932,15.0857864 L24.0961941,9.78248558 C24.4867184,9.39196129 25.1198833,9.39196129 25.5104076,9.78248558 C25.9009319,10.1730099 25.9009319,10.8061748 25.5104076,11.1966991 L24.5733515,12.1337553 L33.0062183,20.3210046 C33.0321583,20.3422001 33.0572825,20.3648943 33.0814755,20.3890873 L33.2525432,20.560155 L33.8927541,21.181719 C36.1096352,18.4497376 36.5307311,14.6604132 34.9607018,11.505346 C34.7146538,11.010898 34.9160218,10.4106074 35.4104698,10.1645594 C35.9049178,9.9185114 36.5052084,10.1198794 36.7512564,10.6143274 C38.7664708,14.6640203 38.0985488,19.5667837 35.0241146,22.9315457 C35.3749274,24.1212665 35.0809344,25.4606962 34.1421356,26.3994949 C33.4496348,27.0919958 32.5391422,27.4336442 31.6315469,27.4244401 C31.640751,28.3320354 31.2991026,29.242528 30.6066017,29.9350288 C29.9141009,30.6275297 29.0036083,30.9691781 28.096013,30.959974 C28.105217,31.8675693 27.7635687,32.7780619 27.0710678,33.4705627 C26.0838068,34.4578238 24.6534847,34.731989 23.4201451,34.2930583 L21.4142136,36.2989899 C20.0473785,37.6658249 17.8313011,37.6658249 16.4644661,36.2989899 C15.7719652,35.606489 15.4303169,34.6959964 15.4395209,33.7884011 C14.5319256,33.7976052 13.621433,33.4559568 12.9289322,32.763456 C12.2364313,32.0709551 11.894783,31.1604625 11.903987,30.2528672 C10.9963917,30.2620713 10.0858991,29.9204229 9.39339828,29.2279221 C8.70089744,28.5354212 8.35924905,27.6249286 8.36845311,26.7173333 C7.46085783,26.7265374 6.55036522,26.384889 5.85786438,25.6923882 C5.16581241,25.0003362 4.8241582,24.090575 4.83290175,23.1835643 Z M5.56106161,21.0796431 C5.65156182,20.9626175 5.75049607,20.850009 5.85786438,20.7426407 L7.97918472,18.6213203 C9.34601974,17.2544853 11.5620972,17.2544853 12.9289322,18.6213203 C13.621433,19.3138212 13.9630814,20.2243138 13.9538774,21.1319091 C14.8614726,21.122705 15.7719652,21.4643534 16.4644661,22.1568542 C17.1569669,22.8493551 17.4986153,23.7598477 17.4894113,24.667443 C18.3970065,24.6582389 19.3074992,24.9998873 20,25.6923882 C20.6925008,26.384889 21.0341492,27.2953816 21.0249452,28.2029769 C21.9325404,28.1937728 22.8430331,28.5354212 23.5355339,29.2279221 C24.4206768,30.113065 24.7326138,31.3543524 24.4713448,32.490516 C24.8956958,32.5257465 25.3321792,32.3810242 25.6568542,32.0563492 C26.2426407,31.4705627 26.2426407,30.5208153 25.6568542,29.9350288 L24.5961941,28.8743687 C24.2056698,28.4838444 24.2056698,27.8506794 24.5961941,27.4601551 C24.9867184,27.0696308 25.6198833,27.0696308 26.0104076,27.4601551 L27.0710678,28.5208153 C27.6568542,29.1066017 28.6066017,29.1066017 29.1923882,28.5208153 C29.7781746,27.9350288 29.7781746,26.9852814 29.1923882,26.3994949 L28.131728,25.3388348 C27.7412037,24.9483105 27.7412037,24.3151455 28.131728,23.9246212 C28.5222523,23.5340969 29.1554173,23.5340969 29.5459415,23.9246212 L30.6066017,24.9852814 C31.1923882,25.5710678 32.1421356,25.5710678 32.7279221,24.9852814 C33.3137085,24.3994949 33.3137085,23.4497475 32.7279221,22.863961 L31.8487789,21.9848179 L23.1589835,13.5481233 L20.2071068,16.5 C18.8402718,17.866835 16.6241943,17.866835 15.2573593,16.5 C13.8905243,15.133165 13.8905243,12.9170876 15.2573593,11.5502525 L18.3127598,8.49485205 L18.1933925,8.40711253 C14.6597008,5.57691327 9.48712787,5.7996687 6.21141777,9.0753788 C2.92881352,12.357983 2.71202813,17.5454429 5.56106161,21.0796431 Z M12.9289322,23.5710678 L10.8076118,25.6923882 C10.2218254,26.2781746 10.2218254,27.2279221 10.8076118,27.8137085 C11.3933983,28.3994949 12.3431458,28.3994949 12.9289322,27.8137085 L15.0502525,25.6923882 C15.636039,25.1066017 15.636039,24.1568542 15.0502525,23.5710678 C14.4644661,22.9852814 13.5147186,22.9852814 12.9289322,23.5710678 Z M18.5857864,29.2279221 C19.1715729,28.6421356 19.1715729,27.6923882 18.5857864,27.1066017 C18,26.5208153 17.0502525,26.5208153 16.4644661,27.1066017 L14.3431458,29.2279221 C13.7573593,29.8137085 13.7573593,30.763456 14.3431458,31.3492424 C14.9289322,31.9350288 15.8786797,31.9350288 16.4644661,31.3492424 L18.5857864,29.2279221 Z M22.1213203,30.6421356 C21.5355339,30.0563492 20.5857864,30.0563492 20,30.6421356 L17.8786797,32.763456 C17.2928932,33.3492424 17.2928932,34.2989899 17.8786797,34.8847763 C18.4644661,35.4705627 19.4142136,35.4705627 20,34.8847763 L22.1213203,32.763456 C22.7071068,32.1776695 22.7071068,31.2279221 22.1213203,30.6421356 Z M33.82,9.4 C33.2677153,9.4 32.82,8.95228475 32.82,8.4 C32.82,7.84771525 33.2677153,7.4 33.82,7.4 C34.3722847,7.4 34.82,7.84771525 34.82,8.4 C34.82,8.95228475 34.3722847,9.4 33.82,9.4 Z M11.5147186,20.0355339 C10.9289322,19.4497475 9.97918472,19.4497475 9.39339828,20.0355339 L7.27207794,22.1568542 C6.6862915,22.7426407 6.6862915,23.6923882 7.27207794,24.2781746 C7.85786438,24.863961 8.80761184,24.863961 9.39339828,24.2781746 L11.5147186,22.1568542 C12.1005051,21.5710678 12.1005051,20.6213203 11.5147186,20.0355339 Z"/>
</svg>
