<svg width="40" height="40" viewBox="0 0 40 40" fill="none" xmlns="http://www.w3.org/2000/svg">
<path fill-rule="evenodd" clip-rule="evenodd" d="M17 1C16.4477 1 16 1.44772 16 2V2.83209C13.0581 4.11745 10.8542 6.77735 10.2 10H9C8.44772 10 8 10.4477 8 11C8 11.5523 8.44772 12 9 12H10C10 17.5228 14.4772 22 20 22C25.5228 22 30 17.5228 30 12H31C31.5523 12 32 11.5523 32 11C32 10.4477 31.5523 10 31 10H29.8C29.1458 6.77735 26.9419 4.11745 24 2.83209V2C24 1.44772 23.5523 1 23 1H17ZM20 20C15.5817 20 12 16.4183 12 12H28C28 16.4183 24.4183 20 20 20ZM12.252 10H27.748C27.207 7.89833 25.8335 6.13089 24 5.07026V7C24 7.55228 23.5523 8 23 8C22.4477 8 22 7.55228 22 7V4.25203V3H18V4.25203V7C18 7.55228 17.5523 8 17 8C16.4477 8 16 7.55228 16 7V5.07026C14.1665 6.13089 12.793 7.89833 12.252 10ZM7 34C7 29.0294 11.0294 25 16 25H24C28.9706 25 33 29.0294 33 34C33 34.5523 32.5523 35 32 35C31.4477 35 31 34.5523 31 34C31 30.134 27.866 27 24 27H16C12.134 27 9 30.134 9 34V38C9 38.5523 8.55228 39 8 39C7.44772 39 7 38.5523 7 38V34ZM32 39C32.5523 39 33 38.5523 33 38C33 37.4477 32.5523 37 32 37C31.4477 37 31 37.4477 31 38C31 38.5523 31.4477 39 32 39Z" fill="#ADB5BD"/>
</svg>
