<svg xmlns="http://www.w3.org/2000/svg" viewBox="0 0 24 24" role="icon">
    <path d="M4 1h4a3 3 0 013 3v4a3 3 0 01-3 3H4a3 3 0 01-3-3V4a3 3 0 013-3zm0 2a1 1 0 00-1 1v4a1 1 0 001 1h4a1 1 0 001-1V4a1 1 0 00-1-1H4zm0 10h4a3 3 0 013 3v4a3 3 0 01-3 3H4a3 3 0 01-3-3v-4a3 3 0 013-3zm0 2a1 1 0 00-1 1v4a1 1 0 001 1h4a1 1 0 001-1v-4a1 1 0 00-1-1H4zM16 1h4a3 3 0 013 3v4a3 3 0 01-3 3h-4a3 3 0 01-3-3V4a3 3 0 013-3zm0 2a1 1 0 00-1 1v4a1 1 0 001 1h4a1 1 0 001-1V4a1 1 0 00-1-1h-4zm4 18a1 1 0 010 2h-4a3 3 0 01-3-3v-4a3 3 0 013-3h4a3 3 0 013 3v3a1 1 0 01-2 0v-3a1 1 0 00-1-1h-4a1 1 0 00-1 1v4a1 1 0 001 1h4z"/>
</svg>
