<svg xmlns="http://www.w3.org/2000/svg" viewBox="0 0 24 24" role="icon">
    <path d="M12 1a1 1 0 01.993.883L13 2v1.07c3.392.486 6 3.404 6 6.93v4.172c0 1.545.614 3.028 1.707 4.12.63.63.184 1.708-.707 1.708h-5l-.005.176A3 3 0 019 20.001L4 20c-.89 0-1.337-1.077-.707-1.707A5.828 5.828 0 005 14.172V10a7.002 7.002 0 016-6.93V2a1 1 0 011-1zm1 19h-2a1 1 0 002 0zM12 5a5 5 0 00-5 5v4.172C7 15.524 6.65 16.84 6 18h12c-.65-1.16-1-2.476-1-3.828V10a5 5 0 00-5-5zM5.6 1.793a1 1 0 010 1.414 8.967 8.967 0 00-2.636 6.364 1 1 0 11-2 0c0-2.898 1.132-5.688 3.222-7.778a1 1 0 011.415 0zm14.143 0a10.967 10.967 0 013.221 7.778 1 1 0 01-2 0 8.967 8.967 0 00-2.636-6.364 1 1 0 111.415-1.414z"/>
</svg>
