<svg xmlns="http://www.w3.org/2000/svg" viewBox="0 0 24 24" role="icon">
    <path d="M1.613.21l.094.083 22 22a1 1 0 01-1.32 1.497l-.094-.083L18.584 20H15V20a3 3 0 01-6 0v-.001L4 20c-.852 0-1.297-.986-.783-1.623l.076-.084A5.828 5.828 0 005 14.172c0-.029.001-.057.003-.085L5 14v-4c0-1.004.248-1.875.75-2.832L.294 1.708A1 1 0 011.613.21zM11 19.999V20a1 1 0 002 0v-.001h-2zM7.257 8.674c-.15.385-.23.747-.252 1.126L7 10v4l-.005.083.005.089c0 1.24-.294 2.449-.844 3.535L6 18l10.584-.001-9.327-9.325zM12 1a1 1 0 01.993.883L13 2l.001 1.071A7.002 7.002 0 0119 10v3a1 1 0 01-2 0v-3a5 5 0 00-7.172-4.505 1 1 0 11-.87-1.8A6.955 6.955 0 0111 3.07V2a1 1 0 011-1z"/>
</svg>
