<svg viewBox="0 0 24 24" xmlns="http://www.w3.org/2000/svg" role="icon">
    <path fill-rule="evenodd" clip-rule="evenodd" d="M15 1H9a2 2 0 00-2 2H6a3 3 0 00-3 3v14a3 3 0 003 3h12a3 3 0 003-3 1 1 0 10-2 0 1 1 0 01-1 1H6a1 1 0 01-1-1V6a1 1 0 011-1h1a2 2 0 002 2h6a2 2 0 002-2h1a1 1 0 011 1v4a1 1 0 102 0V6a3 3 0 00-3-3h-1a2 2 0 00-2-2zM9 5V3h6v2H9zm13.707 7.293a1 1 0 00-1.414 0L17 16.586l-1.293-1.293a1 1 0 00-1.414 1.414l2 2a1 1 0 001.414 0l5-5a1 1 0 000-1.414zM7 11a1 1 0 011-1h8a1 1 0 110 2H8a1 1 0 01-1-1zm1 4a1 1 0 100 2h4a1 1 0 100-2H8z"/>
</svg>
