<svg viewBox="0 0 24 24" xmlns="http://www.w3.org/2000/svg" role="icon">
    <g id="Icone utilitaire/droplet">
        <path id="Icon" fill-rule="evenodd" clip-rule="evenodd" d="M12.707 1.293a1 1 0 00-1.414 0l-4 4C4.567 8.018 3 10.733 3 13a9 9 0 1018 0c0-2.03-1.114-4.27-3.216-6.624l.003-.003-.075-.076a.601.601 0 00-.01-.01l-2.995-2.994L14.414 3l-1.707-1.707zM13 4.414l-1-1-3.293 3.293C6.321 9.093 5 11.38 5 13a7 7 0 1014 0c0-1.46-.91-3.283-2.726-5.312l-2.98-2.98h-.001L13 4.413zm2.536 5.05a1 1 0 10-1.415 1.415 3 3 0 010 4.242 1 1 0 001.415 1.414 5 5 0 000-7.07z"/>
    </g>
</svg>
