<svg viewBox="0 0 24 24" xmlns="http://www.w3.org/2000/svg" role="icon">
    <path d="M11.067 7.87a.957.957 0 011.914 0v4.786a.957.957 0 11-1.914 0V7.87zM12.024 15.527a.958.958 0 10.001 1.916.958.958 0 00-.001-1.916z"/>
    <path fill-rule="evenodd" clip-rule="evenodd" d="M9.878 1.879a3 3 0 014.243 0l8 7.999a3 3 0 010 4.242l-7.999 8.001a3 3 0 01-4.242 0l-8.001-7.999a3 3 0 010-4.242l7.999-8.001zm2.829 1.414a1 1 0 00-1.415 0l-8 8a1 1 0 00.001 1.415l8 8a1 1 0 001.415 0l8-8.002a1 1 0 000-1.414l-8.001-8z"/>
</svg>
