<svg xmlns="http://www.w3.org/2000/svg" viewBox="0 0 24 24" role="icon">
    <path fill-rule="evenodd" d="M21 13h1a1 1 0 010 2h-1v2a1 1 0 01-2 0v-6a1 1 0 011-1h3a1 1 0 010 2h-2v1zm-6-8.586V7h2.586L15 4.414zm5.707 2.879C21.337 7.923 20.891 9 20 9h-6a1 1 0 01-1-1V3H6a1 1 0 00-1 1v16a1 1 0 001 1h12a1 1 0 001-1 1 1 0 012 0 3 3 0 01-3 3H6a3 3 0 01-3-3V4a3 3 0 013-3h8a1 1 0 01.707.293l6 6zM10 13a1 1 0 00-1-1v2a1 1 0 001-1zm-1 4c0 1.333-2 1.333-2 0v-6a1 1 0 011-1h1a3 3 0 010 6v1zm6-1a1 1 0 001-1v-2a1 1 0 00-1-1v4zm-1-6h1a3 3 0 013 3v2a3 3 0 01-3 3h-1a1 1 0 01-1-1v-6a1 1 0 011-1z"/>
</svg>
