<svg viewBox="0 0 24 24" xmlns="http://www.w3.org/2000/svg" role="icon">
    <path d="M3 3a1 1 0 01.293-.707c.22-.22.614-.483 1.21-.721C5.407 1.21 6.564 1 8 1c1.25 0 2.15.215 3.71.812l.962.379C14.226 2.8 14.98 3 16 3c1.189 0 2.094-.165 2.754-.428.341-.137.508-.249.539-.28l.085-.075C20.015 1.703 21 2.147 21 3v12a1 1 0 01-.293.707c-.22.22-.614.483-1.21.721-.903.362-2.06.572-3.497.572-1.25 0-2.15-.215-3.71-.812l-.962-.379C9.774 15.2 9.02 15 8 15c-1.189 0-2.094.165-2.754.428a4.045 4.045 0 00-.247.108L5 22a1 1 0 11-2 0V3z"/>
</svg>
