<svg xmlns="http://www.w3.org/2000/svg" viewBox="0 0 24 24" role="icon">
    <path fill-rule="evenodd" d="M21.542 17.477a1 1 0 01-1.734-.997A8.953 8.953 0 0021 12a9 9 0 10-9 9 8.953 8.953 0 004.484-1.195 1 1 0 01.998 1.733A10.953 10.953 0 0112 23C5.925 23 1 18.075 1 12S5.925 1 12 1s11 4.925 11 11c0 1.948-.508 3.824-1.458 5.477zm-11.498-8.14a1 1 0 01-1.887-.664 4 4 0 017.773 1.332c0 1.28-.758 2.29-1.945 3.082a7.575 7.575 0 01-1.739.867 1 1 0 01-.632-1.898 5.988 5.988 0 001.262-.633c.687-.459 1.054-.948 1.054-1.42a2 2 0 00-3.886-.666zm1.26 8.375a1 1 0 111.413-1.414 1 1 0 01-1.414 1.414z"/>
</svg>
