<svg viewBox="0 0 24 24" xmlns="http://www.w3.org/2000/svg" role="icon">
    <path fill-rule="evenodd" clip-rule="evenodd" d="M19.764 7L12 10.882 4.236 7l8.211-4.106a1 1 0 10-.894-1.788l-10 5a1 1 0 000 1.788l10 5a1 1 0 00.894 0l10-5a1 1 0 000-1.788l-6-3a1 1 0 10-.894 1.788L19.763 7zM12 20.882l-9.553-4.776a1 1 0 10-.894 1.788l10 5a1 1 0 00.894 0l10-5a1 1 0 10-.894-1.788L12 20.882zm-10.894-9.33a1 1 0 011.341-.446L12 15.882l9.553-4.776a1 1 0 11.894 1.788l-10 5a1 1 0 01-.894 0l-10-5a1 1 0 01-.447-1.341z"/>
</svg>
