<svg viewBox="0 0 24 24" xmlns="http://www.w3.org/2000/svg" role="icon">
    <path fill-rule="evenodd" clip-rule="evenodd" d="M.293.293a1 1 0 000 1.414L4.16 5.575A8.963 8.963 0 003 10c0 3.879 2.206 7.116 4.272 9.31a24.647 24.647 0 003.818 3.286 14.418 14.418 0 00.348.232l.022.014.006.004.003.001s.001.001.531-.847l-.53.848a1 1 0 001.06 0L12 22l.53.848.002-.001.003-.002.008-.005.03-.02a16.06 16.06 0 00.485-.327c.32-.225.768-.554 1.29-.978a23.93 23.93 0 002.935-2.817l5.01 5.01a1 1 0 001.414-1.415l-22-22a1 1 0 00-1.414 0zM15.866 17.28l-3.318-3.317a4 4 0 01-4.511-4.511L5.645 7.06A6.97 6.97 0 005 10c0 3.121 1.794 5.884 3.728 7.94A22.658 22.658 0 0012 20.792c.28-.2.656-.479 1.088-.83a21.833 21.833 0 002.778-2.682zM8.54 3.913A7 7 0 0119 10c0 1.3-.31 2.54-.818 3.697a1 1 0 001.832.803c.598-1.364.986-2.876.986-4.5A9 9 0 007.55 2.176a1 1 0 10.99 1.737zM11 7a1 1 0 011-1 4 4 0 014 4 1 1 0 11-2 0 2 2 0 00-2-2 1 1 0 01-1-1z"/>
</svg>
