<svg viewBox="0 0 24 24" xmlns="http://www.w3.org/2000/svg" role="icon">
    <path fill-rule="evenodd" clip-rule="evenodd" d="M8.007 1c.166.001.321.042.458.115l7.504 3.751 6.535-3.734A1 1 0 0124 2v4a1 1 0 11-2 0V3.723L17 6.58v13.697l5-2.857V10a1 1 0 012 0v8a1 1 0 01-.504.868l-6.985 3.992A.994.994 0 0116 23h-.003a.989.989 0 01-.462-.115L8.03 19.134l-6.535 3.734A1 1 0 010 22V6a1 1 0 01.504-.868L7.489 1.14A.995.995 0 018.007 1zM7 3.723L2 6.58v13.697l5-2.857V3.723zm2 13.659l6 3V6.618l-6-3v13.764z"/>
</svg>
