<svg viewBox="0 0 24 24" xmlns="http://www.w3.org/2000/svg" role="icon">
    <path fill-rule="evenodd" clip-rule="evenodd" d="M20.5 5.404A3 3 0 0122 8v6a1 1 0 11-2 0V8.18l-7 4.374v8.024l6.504-3.716a1 1 0 11.992 1.736L13.5 22.596a3 3 0 01-2.996.002L3.5 18.596A3 3 0 012 16V7.999a3.002 3.002 0 011.504-2.597L10.5 1.404a2.998 2.998 0 012.996-.002L20.5 5.404zM11 20.578l-6.504-3.716A.998.998 0 014 15.999v-7.82l7 4.375v8.024zm1.5-17.442l6.162 3.521L16.4 8.071 9.935 4.03l1.561-.893c.313-.18.695-.18 1.004-.002zm-4.536 2.02l6.55 4.094L12 10.82 5.338 6.658l2.626-1.5z"/>
</svg>
