<svg viewBox="0 0 24 24" xmlns="http://www.w3.org/2000/svg" role="icon">
    <path fill-rule="evenodd" clip-rule="evenodd" d="M14.782 4c-1.337 0-2.58 1.189-2.653 2.873a1 1 0 01-.272 1.962 1.925 1.925 0 00-1.926 1.926v.298c0 1.228.996 2.224 2.224 2.224h5.253a2.224 2.224 0 002.224-2.224v-.298a1.925 1.925 0 00-1.925-1.926 1 1 0 01-.272-1.962C17.362 5.189 16.119 4 14.782 4zm-4.656 3.03c0 .068 0 .137.003.205a3.925 3.925 0 00-2.198 3.526v.298a4.224 4.224 0 004.224 4.224H14V20H6v-3a1 1 0 001-1v-3a1 1 0 00-1-1H3a1 1 0 00-1 1v3a1 1 0 001 1v4a1 1 0 001 1h16.944c.583 0 1.056-.448 1.056-1s-.473-1-1.056-1H16v-4.717h1.408a4.224 4.224 0 004.224-4.224v-.298a3.925 3.925 0 00-2.197-3.526c.002-.068.003-.137.003-.205 0-2.685-1.995-5.03-4.656-5.03-2.66 0-4.656 2.345-4.656 5.03zM4.5 11a1.5 1.5 0 100-3 1.5 1.5 0 000 3z"/>
</svg>
