<svg viewBox="0 0 24 24" xmlns="http://www.w3.org/2000/svg" role="icon">
    <path fill-rule="evenodd" clip-rule="evenodd" d="M16.892 13.073a3.393 3.393 0 00-.637-1.4c-.635-.838-1.663-1.368-3.055-1.368-2.164 0-3.495 1.47-3.889 3.019-.354-1.092-1.3-1.83-2.301-2.14.753-.55 1.147-1.335 1.147-2.231 0-.832-.346-1.59-.926-2.082C6.381 6.148 5.221 6 3.793 6H1v12.058h.794c.535-.001 1.074-.002 1.603 0 .706.004 1.395 0 2.037-.026 2.033-.082 3.425-1.105 3.87-2.642.153.683.448 1.24.832 1.663.783.862 1.918 1.199 3.061 1.199 1.408 0 2.425-.409 3.12-1.034l-.995-1.17c-.5.378-1.144.6-1.867.6-1.417-.004-2.042-.9-2.098-1.763h5.535v3.173h2.073V6.06h-2.073v7.013zM3.707 7.629H3.13v3.175h.68c.376 0 .642-.02.827-.058C5.74 10.52 5.94 9.696 5.94 9.17c0-.62-.297-1.117-.922-1.36-.317-.122-.756-.182-1.312-.182zm.933 8.722c.257 0 .575-.01.834-.057 1.182-.213 1.684-.998 1.684-1.93 0-.9-.545-1.579-1.492-1.827-.277-.072-.759-.12-1.185-.12H3.13v3.934H4.64zm8.544-4.476c-.957 0-1.606.632-1.789 1.51h3.55c-.166-.944-.803-1.51-1.761-1.51zM20.35 6.06h2.038v11.998H20.35V6.06z"/>
</svg>
