<svg viewBox="0 0 24 24" xmlns="http://www.w3.org/2000/svg" role="icon">
    <path fill-rule="evenodd" clip-rule="evenodd" d="M11 21a1 1 0 102 0v-1.062A8.004 8.004 0 0019.938 13H21a1 1 0 100-2h-1.062A8.004 8.004 0 0013 4.062V3a1 1 0 10-2 0v1.062A8.004 8.004 0 004.062 11H3a1 1 0 100 2h1.062A8.004 8.004 0 0011 19.938V21zm0-5v1.917A6.005 6.005 0 016.083 13H8a1 1 0 100-2H6.083A6.005 6.005 0 0111 6.083V8a1 1 0 102 0V6.083A6.005 6.005 0 0117.917 11H16a1 1 0 100 2h1.917A6.005 6.005 0 0113 17.917V16a1 1 0 10-2 0zm1-3a1 1 0 100-2 1 1 0 000 2z"/>
</svg>
