<svg viewBox="0 0 24 24" xmlns="http://www.w3.org/2000/svg" role="icon">
    <path fill-rule="evenodd" clip-rule="evenodd" d="M2 3a1 1 0 011-1h2.25a1 1 0 010 2H4v1.25a1 1 0 01-2 0V3zm6.75 0a1 1 0 011-1h4.5a1 1 0 110 2h-4.5a1 1 0 01-1-1zm9 0a1 1 0 011-1H21a1 1 0 011 1v2.25a1 1 0 11-2 0V4h-1.25a1 1 0 01-1-1zM3 8.75a1 1 0 011 1v4.5a1 1 0 11-2 0v-4.5a1 1 0 011-1zm18 0a1 1 0 011 1v4.5a1 1 0 11-2 0v-4.5a1 1 0 011-1zm-18 9a1 1 0 011 1V20h1.25a1 1 0 110 2H3a1 1 0 01-1-1v-2.25a1 1 0 011-1zm18 0a1 1 0 011 1V21a1 1 0 01-1 1h-2.25a1 1 0 110-2H20v-1.25a1 1 0 011-1zM8.75 21a1 1 0 011-1h4.5a1 1 0 110 2h-4.5a1 1 0 01-1-1z"/>
</svg>
