<svg xmlns="http://www.w3.org/2000/svg" viewBox="0 0 24 24" role="icon">
    <path d="M16 12a1 1 0 01-2 0 2 2 0 10-2 2 1 1 0 010 2 4 4 0 114-4zm4.83-3H21a3 3 0 010 6h-.086a.65.65 0 00-.595.394l-.004.01a.647.647 0 00.122.709l.06.06a3 3 0 11-4.244 4.244l-.052-.052a.654.654 0 00-.727-.126.649.649 0 00-.394.591V21a3 3 0 01-6 0v-.067c-.006-.266-.175-.502-.484-.618a.647.647 0 00-.709.122l-.06.06a3 3 0 11-4.244-4.244l.052-.052a.654.654 0 00.126-.727.649.649 0 00-.591-.394H3a3 3 0 010-6h.067c.266-.006.502-.175.618-.484a.647.647 0 00-.122-.709l-.06-.06a3 3 0 114.244-4.244l.052.052a.65.65 0 00.717.13 1 1 0 01.2-.064A.647.647 0 009 3.17V3a3 3 0 016 0v.086c.001.26.156.493.404.6a.647.647 0 00.709-.123l.06-.06a3 3 0 114.244 4.244l-.052.052a.65.65 0 00-.13.717 1 1 0 01.064.2.647.647 0 00.531.284zm.08 4H21a1 1 0 000-2h-.174a2.65 2.65 0 01-2.425-1.606 1 1 0 01-.073-.264 2.655 2.655 0 01.615-2.737l.06-.06a1 1 0 10-1.416-1.416l-.068.068a2.646 2.646 0 01-2.913.534A2.651 2.651 0 0113 3.09V3a1 1 0 00-2 0v.174a2.65 2.65 0 01-1.606 2.425 1 1 0 01-.264.073 2.655 2.655 0 01-2.737-.615l-.06-.06a1 1 0 10-1.416 1.416l.068.068c.757.774.967 1.932.554 2.864A2.657 2.657 0 013.09 11.08H3a1 1 0 000 2h.174a2.646 2.646 0 012.42 1.596 2.654 2.654 0 01-.537 2.931l-.06.06a1 1 0 101.416 1.416l.068-.068c.774-.757 1.932-.967 2.864-.554a2.657 2.657 0 011.735 2.449V21a1 1 0 002 0v-.174a2.646 2.646 0 011.596-2.42 2.654 2.654 0 012.931.537l.06.06a1 1 0 101.416-1.416l-.068-.068a2.65 2.65 0 01-.532-2.918A2.651 2.651 0 0120.91 13z"/>
</svg>
