<svg viewBox="0 0 24 24" xmlns="http://www.w3.org/2000/svg" role="icon">
    <path d="M21.99 7.194c-.093 2.044-1.518 4.843-4.284 8.396-2.854 3.712-5.268 5.569-7.247 5.569-1.223 0-2.259-1.13-3.107-3.39-1.65-6.056-2.354-9.604-3.718-9.604-.159 0-.707.333-1.65.989L1 7.879c2.419-2.124 4.73-4.486 6.178-4.617 1.636-.16 2.64.96 3.019 3.351 1.345 8.508 1.94 9.792 4.387 5.94.877-1.388 1.35-2.443 1.416-3.17.225-2.151-1.678-2.006-2.967-1.453 1.031-3.38 3.005-5.02 5.915-4.926 2.147.056 3.165 1.458 3.043 4.19z"/>
</svg>
