<svg viewBox="0 0 24 24" xmlns="http://www.w3.org/2000/svg" role="icon">
    <path d="M4 1.5c-1.655 0-2 .845-2 2.5v16c0 1.655.345 2.5 2 2.5h17c1.655 0 2-.845 2-2.5V4c0-1.655-.345-2.5-2-2.5H4zm11.79 9.952c.915.435 1.58 1.101 1.932 1.917.487 1.139.534 2.995-.947 4.472-1.134 1.13-2.508 1.64-4.458 1.654h-.01c-2.193-.014-3.88-.754-5.01-2.193C6.289 16.022 5.769 14.236 5.75 12V11.991c.019-2.236.54-4.018 1.547-5.302 1.134-1.439 2.822-2.18 5.01-2.194h.01c2.199.014 3.905.75 5.072 2.185.577.708.998 1.56 1.266 2.55l-1.261.337c-.22-.806-.558-1.495-1.003-2.044-.91-1.12-2.283-1.692-4.078-1.706-1.782.014-3.132.586-4.008 1.697-.82 1.045-1.247 2.55-1.261 4.477.014 1.926.44 3.436 1.26 4.476.877 1.116 2.223 1.688 4.008 1.697 1.608-.014 2.668-.394 3.554-1.28 1.007-1.007.989-2.245.665-3-.187-.44-.534-.81-.998-1.092-.113.844-.37 1.51-.774 2.025-.534.68-1.298 1.05-2.268 1.102-.736.042-1.444-.136-1.997-.502a2.33 2.33 0 01-1.074-1.851c-.08-1.51 1.116-2.593 2.977-2.7a8.19 8.19 0 011.851.089c-.075-.464-.23-.83-.459-1.097-.314-.366-.801-.553-1.444-.558h-.018c-.516 0-1.22.145-1.67.825l-1.077-.74c.6-.91 1.575-1.412 2.742-1.412h.028c1.96.014 3.122 1.233 3.24 3.366.065.028.13.056.196.09l.005.023zm-3.365 3.164c.797-.043 1.706-.357 1.86-2.288a6.488 6.488 0 00-1.358-.136c-.15 0-.3.005-.45.014-1.341.075-1.786.727-1.754 1.308.043.783.891 1.149 1.707 1.106l-.005-.004z"/>
</svg>
