<svg xmlns="http://www.w3.org/2000/svg" viewBox="0 0 24 24" role="icon">
    <path fill-rule="evenodd" d="M15.754 7.346l6.39.935a1 1 0 01.554 1.705l-4.623 4.503 1.09 6.362a1 1 0 01-1.45 1.054L12 18.9l-5.715 3.005a1 1 0 01-1.45-1.054l1.09-6.362-4.623-4.503a1 1 0 01.553-1.705l6.39-.935 2.858-5.789a1 1 0 011.794 0l2.857 5.79zm-.809 1.903a1 1 0 01-.752-.546L12 4.259 9.807 8.703a1 1 0 01-.752.546l-4.907.718 3.55 3.457a1 1 0 01.288.885l-.838 4.883 4.387-2.307a1 1 0 01.93 0l4.387 2.307-.838-4.883a1 1 0 01.288-.885l3.55-3.457-4.907-.718z"/>
</svg>
