<svg viewBox="0 0 24 24" xmlns="http://www.w3.org/2000/svg" role="icon">
    <path fill-rule="evenodd" clip-rule="evenodd" d="M13.293 1.293a1 1 0 011.414 0l2.495 2.495.005.005a.997.997 0 010 1.414c-.338.338-.36 1.055.086 1.5.445.445 1.162.424 1.5.086a.996.996 0 011.414 0l.005.005 2.495 2.495a1 1 0 010 1.414l-5 5-7 7a1 1 0 01-1.414 0l-2.5-2.5a1 1 0 01.03-1.443 1.122 1.122 0 00-1.616-1.557 1 1 0 01-1.414 0l-2.5-2.5a1 1 0 010-1.414l7-7 5-5zM17 13.586l-1.793-1.793a1 1 0 00-1.414 1.414L15.586 15 10 20.586l-1.2-1.2A3.123 3.123 0 004.614 15.2l-1.2-1.2L9 8.414l1.793 1.793a1 1 0 001.414-1.414L10.414 7 14 3.414l1.214 1.214c-.527 1.168-.223 2.606.665 3.493.888.888 2.325 1.192 3.493.665L20.586 10 17 13.586z"/>
</svg>
