<svg viewBox="0 0 24 24" xmlns="http://www.w3.org/2000/svg" role="icon">
    <g clip-path="url(#clip0)">
        <path fill-rule="evenodd" clip-rule="evenodd" d="M8.5 2a4.98 4.98 0 012.509.674 1 1 0 11-1.005 1.73A3 3 0 1011.5 7a1 1 0 112 0 5 5 0 11-5-5zm10.207 5.293a1 1 0 10-1.414 1.414l1.793 1.793-1.793 1.793a1 1 0 001.414 1.414l1.793-1.793 1.793 1.793a1 1 0 001.414-1.414L21.914 10.5l1.793-1.793a1 1 0 00-1.414-1.414L20.5 9.086l-1.793-1.793zM1.464 15.464A5 5 0 015 14h7a5 5 0 015 5v2a1 1 0 11-2 0v-2a3 3 0 00-3-3H5a3 3 0 00-3 3v2a1 1 0 11-2 0v-2a5 5 0 011.464-3.536z"/>
    </g>
    <defs>
        <clipPath id="clip0">
            <path d="M0 0h24v24H0V0z"/>
        </clipPath>
    </defs>
</svg>
