<svg viewBox="0 0 24 24" xmlns="http://www.w3.org/2000/svg" role="icon">
    <path fill-rule="evenodd" clip-rule="evenodd" d="M20.176 17.845a1 1 0 001.366-.368A10.953 10.953 0 0023 12c0-6.075-4.925-11-11-11S1 5.925 1 12s4.925 11 11 11c1.95 0 3.828-.509 5.482-1.462a1 1 0 10-.998-1.733 8.93 8.93 0 01-2.21.905A16.301 16.301 0 0016.95 13h3.995a8.932 8.932 0 01-1.137 3.48 1 1 0 00.368 1.365zm.77-6.845h-3.999a16.331 16.331 0 00-2.673-7.71A9.008 9.008 0 0120.945 11zM9.725 3.29A9.008 9.008 0 003.055 11H7.05a16.3 16.3 0 012.676-7.71zM3.055 13a9.008 9.008 0 006.671 7.71A16.331 16.331 0 017.053 13H3.055zM12 20.45A14.3 14.3 0 019.058 13h5.887A14.288 14.288 0 0112 20.45zM9.055 11h5.887A14.3 14.3 0 0012 3.55 14.288 14.288 0 009.055 11z"/>
</svg>
