<svg viewBox="0 0 24 24" xmlns="http://www.w3.org/2000/svg" role="icon">
    <path fill-rule="evenodd" clip-rule="evenodd" d="M21 3.5a2.5 2.5 0 10-5 0 2.5 2.5 0 005 0zm-3 0a.5.5 0 111 0 .5.5 0 01-1 0zM8.707 7.707l2.42-2.42 1.303.868-6.086 6.087a6.166 6.166 0 00-.064.05A1 1 0 007.52 13.86a3.987 3.987 0 01.106-.081 3.995 3.995 0 015.201.393 4 4 0 11-6.794 2.304 1 1 0 10-1.983-.26A6 6 0 1015.198 14h2.622l-.806 4.836a1 1 0 101.972.328l1-6A1 1 0 0019 12h-4.586l1.568-1.568a3 3 0 00-.457-4.617l-.955-.637a.917.917 0 00-.033-.021l-2.982-1.99a1 1 0 00-1.262.126l-3 3a1 1 0 001.414 1.414zm5.42-.42l-3.726 3.726c.614.04 1.217.176 1.79.4.03-.042.064-.082.102-.12l2.275-2.275a1 1 0 00-.152-1.54l-.289-.191z"/>
</svg>
