<svg viewBox="0 0 24 24" xmlns="http://www.w3.org/2000/svg" role="icon">
    <path fill-rule="evenodd" clip-rule="evenodd" d="M1.85 9.632A15.93 15.93 0 0112 6a15.93 15.93 0 0110.15 3.632 1 1 0 001.27-1.546A17.93 17.93 0 0012 4 17.93 17.93 0 00.58 8.086a1 1 0 001.27 1.546zm3.38 3.698A10.948 10.948 0 0112 11c2.555 0 4.904.87 6.771 2.33a1 1 0 001.232-1.575A12.948 12.948 0 0012 9c-3.017 0-5.797 1.03-8.003 2.755a1 1 0 001.232 1.575zm3.37 3.726A5.968 5.968 0 0112 16c1.264 0 2.435.39 3.401 1.056a1 1 0 101.135-1.647A7.968 7.968 0 0012 14c-1.683 0-3.247.52-4.536 1.41a1 1 0 001.135 1.646zm5.138 2.498A2.986 2.986 0 0012 19c-.648 0-1.248.205-1.738.554-.225.16-.223.481-.028.677l1.412 1.414a.5.5 0 00.708 0l1.412-1.414c.195-.196.197-.517-.028-.677z"/>
</svg>
