<svg xmlns="http://www.w3.org/2000/svg" width="375" height="81" viewBox="0 0 375 81">
  <g fill="none">
    <g fill="#000">
      <path d="M.338 13.966H12.56l15.882 43.187h.166L44.57 13.966H56.38v53.12h-8.232V21.2h-.168L31.184 67.086h-6.982L7.407 21.2H7.24v45.886H.337M62.552 48.76c0-12.396 5.82-19.166 17.46-19.166s17.544 6.772 17.544 19.166c0 12.395-5.904 19.17-17.544 19.17-11.637 0-17.46-6.774-17.46-19.17zM80.014 64.7c7.48 0 8.4-9.24 8.4-15.94 0-6.697-.92-15.94-8.4-15.94-7.4 0-8.315 9.243-8.315 15.94 0 6.7.915 15.94 8.314 15.94zm24.05-34.26h8.4v8.698h.163c1.33-2.693 5.156-9.544 13.885-9.544 6.986 0 9.977 5.387 9.977 10.697v26.796h-8.397V44.142c0-4.618-.75-8.775-4.99-8.775-8.314 0-10.64 12.01-10.64 16.55v15.17h-8.4V30.44zm62.547 36.95c-1.663.384-3.907.54-5.82.54-7.898 0-12.472-2.235-12.472-9.315V34.44H142v-4h6.318v-8.62l8.396-4.7v13.32h10.807v4h-10.806v21.094c0 5.39.584 8.006 5.987 8.006 1.333 0 2.743-.156 3.91-.613v4.463zm6.32-36.95h8.4v9.313h.165c2.66-4.928 5.57-9.62 12.803-10.16v8.082c-8.063.23-12.97 2.773-12.97 12.624v16.784h-8.398V30.44zm44.067 37.49c-10.973 0-19.79-6.004-19.79-20.784 0-10.163 4.407-17.554 16.877-17.554 12.81 0 15.22 7.93 15.22 15.013h-23.7c0 7.234 3.493 19.24 15.38 19.24 2.58 0 5.072-.46 7.57-1.54v3.547c-3.495 1.31-6.57 2.078-11.557 2.078zm4.074-26.867c0-2.846-1.082-8.24-7.318-8.24-6.485 0-7.73 6.163-7.9 8.24h15.22zm-6.017-27.065h8.812L215.75 24.05h-6.242l5.545-10.052zm41.02 48.005h-.17c-1.33 2.152-4.82 5.927-11.14 5.927-6.234 0-10.807-4.082-10.807-9.163 0-11.314 16.88-11.854 22.118-12.086v-3.23c0-4.007 0-10.63-5.57-10.63-5.157 0-6.072 3.698-6.404 8.01h-8.812c.417-5.467 2.742-11.24 15.217-11.24 12.89 0 13.968 6.698 13.968 13.86v23.634h-8.397v-5.08h-.004zm0-12.088c-3.495.233-12.976.926-12.976 7.697 0 3.315 2.08 5.47 4.825 5.47 2.91 0 8.15-2.618 8.15-8.857v-4.31zM273.16 13.966h8.397v53.12h-8.397"/>
    </g>
    <path fill="#E33131" d="M335.042 6.816c-2.567-3.823-6.774-6.2-11.06-6.2-7.35 0-13.106 5.834-13.106 13.288 0 .714.15 1.714.43 2.962-.677-.14-1.94-.38-2.983-.38-7.45 0-13.29 5.727-13.29 13.046 0 4.306 2.403 8.517 6.265 11.09-3.9 2.61-6.236 6.67-6.236 10.944 0 7.23 5.966 13.108 13.295 13.108.9 0 1.984-.208 2.93-.417-.265 1.196-.41 2.204-.41 2.933 0 7.45 5.758 13.287 13.107 13.287 4.353 0 8.416-2.27 10.963-6.073 2.45 3.64 6.853 6.073 11.072 6.073 7.322 0 13.05-5.834 13.05-13.287 0-.968-.21-2.136-.38-2.933 1.25.267 2.246.417 2.96.417 7.328 0 13.286-5.88 13.286-13.108 0-4.31-2.32-8.5-6.066-11.024 3.745-2.522 6.066-6.698 6.066-11.017 0-7.19-5.987-13.047-13.35-13.047-.92 0-2.033.234-2.904.423.144-.68.387-1.966.387-2.996 0-7.454-5.728-13.29-13.05-13.29-4.264 0-8.42 2.377-10.978 6.202zM317.8 20.126l-.004-.003c-.638-.602-2.71-2.84-2.715-6.37v-.018c0-5.463 4.594-8.855 8.857-8.864 2.372-.003 4.6.917 6.286 2.594 1.682 1.674 2.6 3.914 2.603 6.307v20.596c-.004 2.544-2.26 3.957-3.856 3.957h-20.688c-2.343.004-4.647-.947-6.336-2.626-1.157-1.153-2.537-3.172-2.543-6.222-.002-2.35.947-4.65 2.616-6.32 1.642-1.644 3.835-2.554 6.18-2.556 3.123-.003 5.223 1.453 6.432 2.673 0 0 .78.78 1.043 1.028-.176.462-.35 1.062-.35 1.89 0 2.95 2.43 5.357 5.415 5.37 1.44.01 2.723-.516 3.724-1.505 1.016-1.014 1.62-2.462 1.62-3.878.005-1.376-.618-2.855-1.624-3.868-.995-.988-2.29-1.51-3.762-1.505-.804.002-1.48.236-1.838.355-.185-.177-1.06-1.035-1.06-1.035zm19.398-6.376c-.008-2.34.917-4.65 2.597-6.338 1.153-1.157 3.178-2.54 6.222-2.543 2.35-.003 4.66.95 6.323 2.615 1.644 1.643 2.55 3.84 2.555 6.186v.014c0 3.118-1.448 5.21-2.67 6.416 0 .005-.782.786-1.034 1.04-.46-.17-1.06-.344-1.887-.346-2.946-.002-5.353 2.43-5.364 5.416-.007 1.44.51 2.72 1.5 3.716 1.01 1.016 2.457 1.625 3.876 1.63h.012c1.375 0 2.846-.63 3.856-1.638.986-.98 1.5-2.273 1.5-3.74v-.01c0-.802-.227-1.483-.35-1.836.18-.183 1.04-1.066 1.04-1.066.604-.64 2.837-2.713 6.362-2.72 5.478-.01 8.877 4.592 8.883 8.86.003 2.37-.92 4.606-2.594 6.29-1.672 1.676-3.91 2.623-6.304 2.627H341.13c-2.548-.004-3.934-2.294-3.936-3.897V13.75h.004zm-35.2 44.22c-1.685-1.676-2.65-3.978-2.657-6.308-.005-2.37.917-4.606 2.598-6.29 1.672-1.68 3.905-2.64 6.3-2.647h20.6c2.548.006 3.984 2.314 3.988 3.91v20.68c.002 2.343-.977 4.65-2.66 6.34-1.156 1.157-3.173 2.536-6.22 2.538-4.887.01-8.873-3.94-8.878-8.798v-.016c0-3.11 1.455-5.205 2.672-6.418.004 0 .78-.78 1.032-1.04.466.172 1.06.346 1.887.35 2.955 0 5.356-2.428 5.37-5.42 0-1.435-.515-2.713-1.5-3.712-1.01-1.014-2.46-1.624-3.882-1.628-1.37 0-2.856.62-3.866 1.63-.984.99-1.508 2.283-1.508 3.746v.01c0 .802.23 1.485.36 1.832l-1.043 1.068c-.598.642-2.843 2.72-6.368 2.72-2.362.01-4.57-.9-6.224-2.547zm37.868 15.6c-1.68-1.67-2.668-3.91-2.67-6.303V46.67c.002-2.545 2.344-3.94 3.943-3.945h20.67c4.27-.004 8.88 3.357 8.888 8.835.004 4.886-3.945 8.872-8.808 8.878-3.124.004-5.22-1.448-6.425-2.67-.004-.003-.786-.782-1.037-1.038.168-.463.343-1.057.343-1.886v-.006c0-2.946-2.428-5.353-5.417-5.362-1.437-.006-2.715.515-3.708 1.498-1.014 1.01-1.627 2.466-1.635 3.885 0 1.372.63 2.855 1.637 3.865.987.988 2.283 1.508 3.754 1.502.81 0 1.484-.227 1.833-.352l1.064 1.037c.64.602 2.715 2.838 2.723 6.367v.012c0 5.47-4.603 8.866-8.868 8.872-2.364.01-4.603-.916-6.286-2.595z"/>
  </g>
</svg>
