<?xml version="1.0" encoding="utf-8"?><svg viewBox="0 0 80 80" xmlns="http://www.w3.org/2000/svg" width="80" height="80"><path d="M41.183 37.467a1.615 1.615 0 01-.016 2.3 1.63 1.63 0 01-2.3 0 1.615 1.615 0 01.016-2.3c.65-.634 1.684-.634 2.3 0zm.167 22.4c.633-.634.65-1.667.017-2.3a1.63 1.63 0 00-2.3 0c-.634.633-.65 1.666-.017 2.3.633.633 1.65.65 2.3 0zm.317-41.2c0-.917-.75-1.667-1.667-1.667s-1.667.75-1.667 1.667v15c0 .916.75 1.666 1.667 1.666s1.667-.75 1.667-1.666v-15zM63.333 65.15c.034.267 0 .533-.1.8a1.83 1.83 0 01-.516.7l-6.55 6.383A1.65 1.65 0 0155 73.5c-.433 0-.867-.167-1.2-.5a1.645 1.645 0 01.033-2.35L60 64.633l.033-23.566c0-1.134-1.333-2.4-3.266-2.4-1.8 0-3.267 1.15-3.267 2.55l-.167 22.466c0 .917-.75 1.65-1.666 1.65H30V72c0 .917-.75 1.667-1.667 1.667-.916 0-1.666-.75-1.666-1.667v-6.667c-4.067-.083-6.484-2.55-6.5-6.666l-.017-3.334h-3.767c-3.516 0-6.383-2.916-6.383-6.5a7.06 7.06 0 012.133-5.05c-1.3-1.2-2.133-2.966-2.133-4.95 0-2.033.85-3.9 2.15-5.166C10.85 32.4 10 30.533 10 28.5c0-3.583 2.717-6.5 6.067-6.5h3.983l-.033-8.333C20.033 9.5 22.517 7 26.683 7H53.35c4.167 0 6.65 2.483 6.667 6.667l.033 13.516a1.66 1.66 0 01-1.667 1.667c-.916 0-1.666-.75-1.666-1.667l-.05-13.516c0-2.334-1-3.334-3.334-3.334H26.667c-2.334 0-3.334 1-3.334 3.334L23.483 52H50.1l.083-10.8c0-3.233 2.967-5.867 6.6-5.867 3.634 0 6.6 2.567 6.6 5.734l-.05 24.083zM16.05 32h4.017l-.017-6.667h-4c-1.5 0-2.733 1.417-2.733 3.167 0 1.833 1.3 3.5 2.733 3.5zm-2.733 6.833c0 1.75 1.216 3.167 2.733 3.167h4.05l-.017-6.667H16.05c-1.433 0-2.733 1.667-2.733 3.5zM20.133 52l-.016-6.667h-3.734c-1.6 0-3.05 1.667-3.05 3.5 0 1.75 1.367 3.167 3.05 3.167h3.75zm6.7 10H50l.05-6.667H23.483l.017 3.334C23.5 61 24.5 62 26.833 62z"/></svg>