<?xml version="1.0" encoding="utf-8"?><svg viewBox="0 0 80 80" xmlns="http://www.w3.org/2000/svg" width="80" height="80"><path d="M72 40.333c.92 0 1.667-.746 1.667-1.666v-15a1.667 1.667 0 10-3.334 0V37h-60V25.333h55a1.667 1.667 0 100-3.333H8.667C7.747 22 7 22.746 7 23.667v15c0 .92.746 1.666 1.667 1.666h6.666v5H8.667C7.747 45.333 7 46.08 7 47v6.667c0 .92.746 1.666 1.667 1.666h6.666V62h-1.666a1.667 1.667 0 000 3.333h6.666a1.667 1.667 0 000-3.333h-1.666v-6.667H62V62h-1.667a1.667 1.667 0 000 3.333H67A1.667 1.667 0 1067 62h-1.667v-6.667H72c.92 0 1.667-.746 1.667-1.666V47c0-.92-.747-1.667-1.667-1.667h-6.667v-5H72zm-1.667 8.334V52h-60v-3.333h60zM62 45.333H18.667v-5H62v5zm-45-12.5a1.667 1.667 0 100-3.333 1.667 1.667 0 000 3.333zm46.667 0a1.667 1.667 0 100-3.333 1.667 1.667 0 000 3.333z"/></svg>