<?xml version="1.0" encoding="UTF-8"?><svg viewBox="0 0 80 80" xmlns="http://www.w3.org/2000/svg" role="icon" width="80" height="80"><title>Illustrative Icons/Calendrier</title><path d="M28.333 69.667a1.667 1.667 0 100-3.334 1.667 1.667 0 000 3.334zm35-56.667H60V9.667a1.667 1.667 0 10-3.333 0V13H23.333V9.667a1.667 1.667 0 00-3.333 0V13h-3.333A6.667 6.667 0 0010 19.667V63a6.667 6.667 0 006.667 6.667H20a1.667 1.667 0 100-3.334h-3.333A3.333 3.333 0 0113.333 63V33h53.334v30a3.333 3.333 0 01-3.334 3.333H36.667a1.667 1.667 0 100 3.334h26.666A6.667 6.667 0 0070 63V19.667A6.667 6.667 0 0063.333 13zm-50 16.667v-10a3.333 3.333 0 013.334-3.334H20v3.334a1.667 1.667 0 003.333 0v-3.334h33.334v3.334a1.667 1.667 0 103.333 0v-3.334h3.333a3.333 3.333 0 013.334 3.334v10H13.333z"/></svg>