<?xml version="1.0" encoding="utf-8"?><svg viewBox="0 0 80 80" xmlns="http://www.w3.org/2000/svg" width="80" height="80"><path d="M17 50.333a1.667 1.667 0 100 3.334h23.333a1.667 1.667 0 100-3.334H17zm36.667 0a1.667 1.667 0 100 3.334h10a1.667 1.667 0 000-3.334h-10zm15-33.333H11.93A4.937 4.937 0 007 21.93v3.403a1.667 1.667 0 103.333 0V21.93a1.6 1.6 0 011.597-1.597h56.737c.92 0 1.666.747 1.666 1.667v36.667c0 .92-.746 1.666-1.666 1.666H12c-.92 0-1.667-.746-1.667-1.666v-25h48.334a1.667 1.667 0 000-3.334h-50C7.747 30.333 7 31.08 7 32v26.667a5 5 0 005 5h56.667a5 5 0 005-5V22a5 5 0 00-5-5zm-3.334 16.667a1.667 1.667 0 100-3.334 1.667 1.667 0 000 3.334z"/></svg>