<?xml version="1.0" encoding="utf-8"?><svg viewBox="0 0 80 80" xmlns="http://www.w3.org/2000/svg" width="80" height="80"><path d="M50.333 17v-5a5 5 0 00-5-5h-10a5 5 0 00-5 5v5H27a1.667 1.667 0 000 3.333h6.667V12c0-.92.746-1.667 1.666-1.667h10c.92 0 1.667.747 1.667 1.667v8.333h13.333v50c0 .92-.746 1.667-1.666 1.667H22c-.92 0-1.667-.746-1.667-1.667V27A1.667 1.667 0 1017 27v43.333a5 5 0 005 5h36.667a5 5 0 005-5V17H50.333zM47 35.543c-.58 0-1.117.303-1.42.797l-4-6.755a1.666 1.666 0 00-1.433-.817 1.667 1.667 0 00-1.434.822l-6.466 10.98a1.667 1.667 0 102.871 1.692l5.035-8.55 2.43 4.121a1.667 1.667 0 00-.651 3.085l4.205 2.512a1.682 1.682 0 002.53-1.43v-4.79c0-.92-.747-1.667-1.667-1.667zM56.775 59.5c.296-.51.3-1.14.01-1.655l-6.242-11.07a1.667 1.667 0 00-2.903 1.637l4.85 8.601-4.778.027a1.667 1.667 0 00-2.334-2.12l-4.291 2.36a1.684 1.684 0 00-.04 2.898l4.133 2.42a1.667 1.667 0 002.31-2.223l7.853-.045a1.667 1.667 0 001.432-.83zm-31.442.833h8.334a1.667 1.667 0 000-3.333H28.18l2.307-4.108c.311.415.799.662 1.318.666h.028c.913 0 1.656-.734 1.667-1.646l.058-4.899a1.683 1.683 0 00-2.5-1.46l-4.14 2.407a1.667 1.667 0 00.782 3.105l-3.82 6.785a1.667 1.667 0 001.453 2.483zm-6.666-40a1.667 1.667 0 100-3.333 1.667 1.667 0 000 3.333z"/></svg>