<?xml version="1.0" encoding="UTF-8"?><svg viewBox="0 0 80 80" xmlns="http://www.w3.org/2000/svg" role="icon" width="80" height="80"><title>Illustrative Icons/Crayon</title><path d="M62.845 26.565l-9.077-9.077a1.667 1.667 0 00-2.356 0L22.948 45.951c-.217.218-.37.491-.441.79L19.65 58.675a1.667 1.667 0 002 2.011l11.8-2.723c.304-.07.583-.224.803-.445l28.592-28.597c.65-.65.65-1.706 0-2.356zM32.228 54.823l-8.711 2.01 2.121-8.86 26.952-26.95 6.72 6.72-27.082 27.08zm-15.561 10.51a1.667 1.667 0 100-3.333 1.667 1.667 0 000 3.333z"/></svg>