<?xml version="1.0" encoding="utf-8"?><svg viewBox="0 0 80 80" xmlns="http://www.w3.org/2000/svg" width="80" height="80"><path d="M70.174 35.31a1.667 1.667 0 00-1.083-1.352L17.238 15.1a1.667 1.667 0 00-2.137 2.137L33.958 69.09a1.667 1.667 0 002.936.378l9.47-13.678 12.73 12.73a1.667 1.667 0 002.357-2.357l-14.142-14.14a1.667 1.667 0 00-2.548.23l-8.772 12.666-16.535-45.465 45.469 16.534-12.667 8.771a1.667 1.667 0 00-.23 2.549l9.107 9.106a1.667 1.667 0 002.356-2.356l-7.695-7.695 13.679-9.47c.51-.356.78-.965.701-1.582zm-3.27 26.594a1.667 1.667 0 100-3.333 1.667 1.667 0 000 3.333z"/></svg>