<?xml version="1.0" encoding="UTF-8"?><svg viewBox="0 0 80 80" xmlns="http://www.w3.org/2000/svg" role="icon" width="80" height="80"><title>Illustrative Icons/Ecrou</title><path d="M74.557 39.167L58.192 10.833A1.667 1.667 0 0056.748 10H24.032c-.596 0-1.146.318-1.444.833L6.223 39.167a1.667 1.667 0 000 1.666l16.359 28.334c.297.515.848.833 1.443.833h32.717c.595 0 1.145-.318 1.443-.833l16.372-28.334a1.667 1.667 0 000-1.666zm-18.77 27.5H24.993L9.598 40l15.395-26.667h30.794L71.183 40 55.787 66.667zm-15.59-41.789A15.123 15.123 0 0026.89 47.175a1.667 1.667 0 102.933-1.583 11.87 11.87 0 116.167 5.406 1.667 1.667 0 00-1.192 3.114 15.117 15.117 0 105.4-29.234h-.001zM31.54 51.887a1.667 1.667 0 100-3.334 1.667 1.667 0 000 3.334z"/></svg>