<?xml version="1.0" encoding="utf-8"?><svg viewBox="0 0 80 80" xmlns="http://www.w3.org/2000/svg" width="80" height="80"><path d="M73.5 37.147c0-.055 0-.11-.01-.157a33.156 33.156 0 00-.42-2.815v-.035a4.31 4.31 0 00-.033-.212 1.667 1.667 0 00-2.117-1.275 4.63 4.63 0 01-3.528-8.52 1.667 1.667 0 00.47-2.563l-.015-.02a33.58 33.58 0 00-1.7-2.298 2.511 2.511 0 00-.094-.107 34.595 34.595 0 00-2.048-2.275 33.558 33.558 0 00-5.075-4.187 1.667 1.667 0 00-2.398.595 4.632 4.632 0 01-8.52-3.53 1.667 1.667 0 00-1.277-2.116A33.913 33.913 0 0040.185 7c-.977 0-2 .058-3.038.167-.055 0-.11 0-.159.01a33.74 33.74 0 00-2.815.42h-.035c-.071.01-.143.02-.213.035a1.667 1.667 0 00-1.273 2.115 4.63 4.63 0 01-8.52 3.528 1.667 1.667 0 10-2.937 1.577 7.963 7.963 0 0014.978-4.22c.387-.057.755-.104 1.115-.142l.145-.01a30.18 30.18 0 012.764-.147 29.848 29.848 0 014.29.295 7.96 7.96 0 0013.908 5.76 30.022 30.022 0 013.24 2.824c.63.636 1.257 1.333 1.853 2.06.03.036.062.073.097.111.227.279.453.572.687.887a7.96 7.96 0 005.273 13.922c.167 0 .333 0 .488-.015.057.386.104.755.142 1.115 0 .048 0 .096.01.145.093.95.142 1.881.147 2.763a30.018 30.018 0 01-.295 4.29 7.96 7.96 0 00-5.762 13.908 30 30 0 01-2.823 3.242 30.18 30.18 0 01-2.095 1.883l-.08.07c-.275.224-.567.45-.88.682a7.96 7.96 0 00-13.907 5.76 24.24 24.24 0 01-1.105.14h-.117a29.422 29.422 0 01-7.09-.147 7.96 7.96 0 00-13.908-5.761 30 30 0 01-3.242-2.824 30.208 30.208 0 01-1.853-2.061l-.093-.107c-.227-.28-.455-.572-.689-.888a7.96 7.96 0 00-5.76-13.907 23.848 23.848 0 01-.14-1.112c0-.048 0-.095-.008-.135a30.17 30.17 0 01-.148-2.776 30.028 30.028 0 01.295-4.29 7.963 7.963 0 004.218-14.97 1.667 1.667 0 10-1.577 2.936 4.632 4.632 0 01-3.528 8.52 1.667 1.667 0 00-2.117 1.275A33.587 33.587 0 007 40.482c0 .985.058 2.01.167 3.053a.7.7 0 00.01.143c.088.864.221 1.762.421 2.819v.033c.01.07.02.142.034.212a1.667 1.667 0 002.115 1.273 4.63 4.63 0 013.528 8.52 1.667 1.667 0 00-.468 2.563l.015.019a33.627 33.627 0 001.693 2.29c.033.041.07.083.11.126a34.004 34.004 0 002.037 2.262 33.57 33.57 0 005.075 4.187 1.667 1.667 0 002.398-.595 4.632 4.632 0 018.52 3.528 1.667 1.667 0 001.275 2.117c2.12.418 4.277.63 6.438.635h.114c1 0 2.036-.06 3.068-.167l.125-.008a33.232 33.232 0 002.833-.424h.03c.065-.008.13-.018.195-.031a1.667 1.667 0 001.282-2.117 4.632 4.632 0 018.52-3.528 1.667 1.667 0 002.403.59c.054-.037.107-.075.167-.115l.013-.01a35.27 35.27 0 002.324-1.72l.083-.074a33.936 33.936 0 002.285-2.058 33.538 33.538 0 004.187-5.075 1.667 1.667 0 00-.595-2.398 4.632 4.632 0 013.528-8.52 1.667 1.667 0 002.117-1.277c.42-2.158.628-4.352.62-6.55 0-.977-.059-1.998-.167-3.038zm-15.667 3.186c0-9.665-7.835-17.5-17.5-17.5s-17.5 7.835-17.5 17.5 7.835 17.5 17.5 17.5c9.661-.01 17.49-7.839 17.5-17.5zm-31.666 0c0-7.824 6.342-14.166 14.166-14.166 7.824 0 14.167 6.342 14.167 14.166 0 7.824-6.343 14.167-14.167 14.167-7.82-.008-14.158-6.346-14.166-14.167zM17.943 19.61a1.667 1.667 0 100-3.333 1.667 1.667 0 000 3.333z"/></svg>