<?xml version="1.0" encoding="UTF-8"?><svg viewBox="0 0 80 80" xmlns="http://www.w3.org/2000/svg" role="icon" width="80" height="80"><title>Illustrative Icons/Enveloppe</title><path d="M68.782 17H10.744c-1.85.03-3.322 1.293-3.667 3.145a3.955 3.955 0 002.405 4.447l30.334 12.285c.4.16.845.16 1.245 0l25-10a1.667 1.667 0 10-1.239-3.095L40.45 33.537 10.731 21.5a.642.642 0 01-.372-.752c.075-.41.333-.413.442-.416h57.981c.92 0 1.667.746 1.667 1.666v36.669c0 .92-.746 1.666-1.667 1.666H12.116a1.773 1.773 0 01-1.77-1.77v-23.23a1.667 1.667 0 00-3.334 0v23.23a5.11 5.11 0 005.104 5.104h56.666a5 5 0 005-5V22a5 5 0 00-5-5zm-60 13.333a1.667 1.667 0 100-3.333 1.667 1.667 0 000 3.333z"/></svg>