<?xml version="1.0" encoding="utf-8"?><svg viewBox="0 0 80 80" xmlns="http://www.w3.org/2000/svg" width="80" height="80"><path d="M69.082 52.474c-1.914 1.966-4.345 2.96-7.225 2.96-6.747 0-9.472-5.439-11.462-9.41a1.668 1.668 0 012.98-1.5c2.57 5.13 4.5 7.57 8.482 7.57 1.973 0 3.556-.637 4.833-1.947 1.853-1.89 2.713-4.843 3.108-6.987.169-.93.287-1.87.355-2.813l-14.911.025a1.667 1.667 0 110-3.333h4.2l-8.71-11.534a1.667 1.667 0 112.73-1.911l10.045 13.438h2.041L51.572 11.434 36.738 25.16a1.668 1.668 0 01-2.333-2.385L50.85 7.474a1.667 1.667 0 012.647.431l15.648 28.82c.046.092.084.188.113.287h2.622c.906 0 1.647.724 1.667 1.63.008.362.15 9.103-4.465 13.832zm-18.842 14.5a6.642 6.642 0 01-6.633 6.643H13.643a6.643 6.643 0 110-13.287h29.964a6.643 6.643 0 016.633 6.644zm-3.333 0a3.31 3.31 0 00-3.3-3.315H13.643a3.31 3.31 0 000 6.62h29.964a3.31 3.31 0 003.301-3.305h-.001zM10.23 56.997a1.667 1.667 0 003.333 0v-4.595c0-.063-.004-.127-.011-.19v-2.677l16.666-.025c.92 0 1.667-.746 1.667-1.666l-.038-18.25c3 .486 5.72 2.285 7.806 5.183 2.515 3.5 3.9 8.202 3.9 13.263v8.962a1.667 1.667 0 103.334 0v-8.965c0-5.755-1.609-11.157-4.529-15.212-3.113-4.323-7.44-6.703-12.181-6.703-.92 0-1.667.746-1.667 1.667l.042 18.388-9.992.017V32.899h3.408a1.667 1.667 0 000-3.334h-5.075c-.92 0-1.666.747-1.666 1.667V46.2h-3.334c-.92 0-1.666.746-1.666 1.666v7.195c0 .064.003.127.011.19l-.008 1.747zm30 8.292c-1.295 0-2.245 1.471-1.257 2.833a.382.382 0 00.085.087c1.357.986 2.834.036 2.834-1.259a1.667 1.667 0 00-1.659-1.661h-.003zm-23.363 0c-1.295 0-2.245 1.471-1.259 2.833a.357.357 0 00.087.087c1.357.986 2.833.036 2.833-1.259a1.667 1.667 0 00-1.658-1.661h-.003zm33.406-28.292a1.667 1.667 0 100 3.333 1.667 1.667 0 000-3.333z"/></svg>