<?xml version="1.0" encoding="UTF-8"?><svg viewBox="0 0 80 80" xmlns="http://www.w3.org/2000/svg" role="icon" width="80" height="80"><title>Illustrative Icons/Fax</title><path d="M22 36.667a1.667 1.667 0 100-3.334 1.667 1.667 0 000 3.334zm30 26.666H28.667a1.667 1.667 0 000 3.334H52a1.667 1.667 0 100-3.334zm14-16.666h-5.667v-35c0-.92-.746-1.667-1.666-1.667H37c-.472 0-.922.2-1.238.552l-15 16.666A1.667 1.667 0 0022 30h11.667a5 5 0 005-5v-5a1.667 1.667 0 00-3.334 0v5c0 .92-.746 1.667-1.666 1.667h-7.925l12-13.334H57v33.334H23.667v-5a1.667 1.667 0 00-3.334 0v5h-5.666A7.677 7.677 0 007 54.333V65c0 .92.746 1.667 1.667 1.667H22c.92 0 1.667-.747 1.667-1.667v-5H57v5c0 .92.746 1.667 1.667 1.667H72c.92 0 1.667-.747 1.667-1.667V54.333A7.677 7.677 0 0066 46.667zm4.333 16.666h-10v-5c0-.92-.746-1.666-1.666-1.666H22c-.92 0-1.667.746-1.667 1.666v5h-10v-9A4.333 4.333 0 0114.667 50H66a4.333 4.333 0 014.333 4.333v9z"/></svg>