<?xml version="1.0" encoding="UTF-8"?><svg viewBox="0 0 80 80" xmlns="http://www.w3.org/2000/svg" role="icon" width="80" height="80"><title>Illustrative Icons/Feuille</title><path d="M59.584 13.261a1.585 1.585 0 100-3.17 1.585 1.585 0 000 3.17zm8.835-3.248a1.667 1.667 0 00-1.752 1.578c-.015.304-1.64 30.407-8.582 41.804-2.88 4.728-8.873 8.1-15.641 8.8-6.7.693-12.97-1.275-17.424-5.422l21.082-21.187a1.667 1.667 0 00-2.363-2.351l-20.985 21.1c-4.075-4.935-6.197-10.605-6.01-16.152.19-5.63 2.7-10.852 7.258-15.102 9.435-8.801 29.897-9.73 30.102-9.746A1.668 1.668 0 1053.97 10c-4.071.234-8.119.777-12.108 1.625-8.983 1.894-15.757 4.922-20.133 9-5.229 4.875-8.097 10.905-8.319 17.44-.216 6.46 2.257 13.015 6.984 18.635l-9.909 9.959a1.667 1.667 0 102.364 2.351l9.818-9.873c4.5 4.227 10.568 6.53 17.15 6.53.993 0 1.984-.052 2.972-.155A27.54 27.54 0 0053.3 62.251c3.269-1.823 5.909-4.285 7.635-7.121 3.122-5.125 5.597-14 7.354-26.384C69.584 19.616 70 11.835 70 11.763a1.667 1.667 0 00-1.581-1.75z"/></svg>