<?xml version="1.0" encoding="utf-8"?><svg viewBox="0 0 80 80" xmlns="http://www.w3.org/2000/svg" width="80" height="80"><path d="M40.333 7C21.953 7 7 21.953 7 40.333s14.953 33.334 33.333 33.334 33.334-14.954 33.334-33.334C73.667 21.953 58.713 7 40.333 7zm0 63.333c-16.541 0-30-13.458-30-30 0-16.541 13.459-30 30-30 16.542 0 30 13.459 30 30 0 16.542-13.458 30-30 30zm8.834-36.516L42 40.6V21.89a1.667 1.667 0 10-3.333 0v22.725c0 .032 0 .052.008.077s0 .056.013.083c.014.027.012.053.017.08.005.027.013.053.02.078l.025.079c.008.026.018.051.028.076.01.025.02.05.032.074.012.023.023.05.037.075l.038.07.043.07.047.068.048.063.059.069.035.04.016.015c.024.023.047.046.072.068l.052.048c.023.02.05.039.075.057l.058.043a.854.854 0 00.082.05l.06.037c.047.027.097.05.148.072h.01c.048.02.097.038.147.053h.025c.045.013.09.025.136.035h.045c.04 0 .079.013.119.018.04.005.101 0 .151 0h.187l.062-.008.096-.015.072-.017.083-.021.072-.024.08-.03.067-.03.078-.038.065-.037.073-.045.064-.045.065-.048.063-.055.042-.037 9.975-9.446a1.667 1.667 0 00-2.29-2.4zM40.333 17a1.667 1.667 0 100-3.333 1.667 1.667 0 000 3.333z"/></svg>