<?xml version="1.0" encoding="UTF-8"?><svg viewBox="0 0 80 80" xmlns="http://www.w3.org/2000/svg" role="icon" width="80" height="80"><title>Illustrative Icons/Lampadaire</title><path d="M26.333 73.66h-6.666c-.92 0-1.667-.746-1.667-1.666V48.66a1.667 1.667 0 013.333 0v21.667h3.334V47.264l-3.249-9.744a1.667 1.667 0 01-.085-.526v-16.2a6.687 6.687 0 014.889-6.424h.025l28-7.316a1.667 1.667 0 012.086 1.606v2.485a5.022 5.022 0 01-3.626 4.809l-9.639 2.753a1.667 1.667 0 01-.915-3.205l9.639-2.753A1.667 1.667 0 0053 11.145v-.333L27.097 17.58a3.343 3.343 0 00-2.43 3.208v15.928l3.248 9.744c.056.17.085.347.085.526v25.009a1.667 1.667 0 01-1.667 1.666zM38 20.327a1.667 1.667 0 100-3.333 1.667 1.667 0 000 3.333zm4.998 8.333a1.667 1.667 0 01-1.535-2.315l2.112-5a1.667 1.667 0 013.072 1.297l-2.112 5a1.667 1.667 0 01-1.537 1.018zm9.447-1.055c-.685 0-1.3-.418-1.552-1.056l-2.056-5.222a1.667 1.667 0 013.101-1.222l2.057 5.222a1.667 1.667 0 01-1.55 2.278zm7.332-3.89c-.369 0-.727-.122-1.019-.348L53.87 19.59a1.667 1.667 0 112.038-2.639l4.889 3.779a1.667 1.667 0 01-1.02 2.985v.001z"/></svg>