<?xml version="1.0" encoding="UTF-8"?><svg viewBox="0 0 80 80" xmlns="http://www.w3.org/2000/svg" role="icon" width="80" height="80"><title>Illustrative Icons/Localisation-Etoile</title><path d="M27.455 25.782a1.667 1.667 0 00.605 1.863l5.793 4.21-2.211 6.812a1.667 1.667 0 002.565 1.863L40 36.32l5.793 4.21a1.667 1.667 0 002.565-1.863l-2.213-6.812 5.793-4.21a1.667 1.667 0 00-.98-3.015h-7.166l-2.214-6.812a1.667 1.667 0 00-3.166 0l-2.214 6.812h-7.166a1.667 1.667 0 00-1.577 1.152zm9.958 2.181c.722 0 1.362-.465 1.585-1.151l1-3.085 1 3.085a1.667 1.667 0 001.585 1.151h3.25L43.21 29.87a1.667 1.667 0 00-.605 1.863l1 3.085-2.623-1.906a1.667 1.667 0 00-1.96 0l-2.625 1.905 1-3.085a1.667 1.667 0 00-.605-1.864l-2.625-1.905h3.246zm22.465-13.13A25.18 25.18 0 0046.93 5.97 1.67 1.67 0 0046 9.177a21.833 21.833 0 0111.222 7.683A21.468 21.468 0 0161.667 30c0 11.577-6.144 22.36-11.297 29.367A87.945 87.945 0 0140 71.082a87.957 87.957 0 01-10.37-11.715C20.293 46.667 18.333 36.39 18.333 30a21.473 21.473 0 014.38-13.065A21.833 21.833 0 0133.807 9.23a1.667 1.667 0 00-.952-3.195 25.193 25.193 0 00-12.8 8.887A24.783 24.783 0 0015 30c0 5.547 1.272 11.357 3.778 17.265 1.987 4.682 4.75 9.438 8.214 14.14 5.878 7.978 11.68 12.985 11.923 13.193a1.667 1.667 0 002.167 0c.243-.21 6.045-5.215 11.923-13.193 3.463-4.702 6.227-9.458 8.213-14.14C63.728 41.357 65 35.547 65 30a24.774 24.774 0 00-5.122-15.167zM40 8.333A1.667 1.667 0 1040 5a1.667 1.667 0 000 3.333z"/></svg>