<?xml version="1.0" encoding="utf-8"?><svg viewBox="0 0 80 80" xmlns="http://www.w3.org/2000/svg" width="80" height="80"><path d="M40 75c-.398 0-.783-.143-1.085-.403-.243-.21-6.045-5.215-11.923-13.193-3.464-4.702-6.227-9.458-8.214-14.14C16.272 41.356 15 35.546 15 30a24.782 24.782 0 015.057-15.077 25.193 25.193 0 0112.8-8.886 1.667 1.667 0 11.951 3.195 21.833 21.833 0 00-11.093 7.705A21.473 21.473 0 0018.333 30c0 6.39 1.96 16.667 11.297 29.367A87.958 87.958 0 0040 71.08a87.96 87.96 0 0010.37-11.715c5.153-7.007 11.297-17.79 11.297-29.367a21.467 21.467 0 00-4.439-13.14A21.833 21.833 0 0046 9.176a1.667 1.667 0 11.922-3.204 25.18 25.18 0 0112.956 8.86A24.774 24.774 0 0165 30c0 5.547-1.272 11.357-3.778 17.265-1.987 4.682-4.75 9.438-8.214 14.14-5.878 7.978-11.68 12.985-11.923 13.193-.302.26-.687.402-1.085.402zm0-66.668a1.644 1.644 0 01-.645-.128 1.647 1.647 0 01-.542-.36A1.667 1.667 0 1140 8.332zm0 35c-7.364 0-13.333-5.969-13.333-13.333S32.637 16.666 40 16.666c7.364 0 13.333 5.97 13.333 13.333C53.325 37.36 47.36 43.324 40 43.332zM40 20c-5.523 0-10 4.477-10 10s4.477 10 10 10 10-4.477 10-10c-.006-5.52-4.48-9.993-10-10z"/></svg>