<?xml version="1.0" encoding="utf-8"?><svg viewBox="0 0 80 80" xmlns="http://www.w3.org/2000/svg" width="80" height="80"><path d="M69.12 27.85l-7.5-13.333a1.667 1.667 0 00-1.453-.85h-1.862l-.651-5.207A1.666 1.666 0 0056 7H46c-.84 0-1.549.626-1.653 1.46l-.652 5.207H20.167c-.602 0-1.158.324-1.453.85l-7.5 13.333a1.667 1.667 0 001.453 2.483h.833v38.334c0 .92.747 1.666 1.667 1.666h30a1.667 1.667 0 000-3.333H16.834V30.333h24.778l-.598 4.794A1.667 1.667 0 0042.667 37h16.667a1.667 1.667 0 001.653-1.873l-.598-4.794H63.5V67h-6.666V52c0-.92-.746-1.667-1.667-1.667h-10a1.667 1.667 0 100 3.334H53.5v15c0 .92.747 1.666 1.667 1.666h10c.92 0 1.667-.746 1.667-1.666V30.333h.833a1.667 1.667 0 001.453-2.483zM15.517 27l5.625-10H43.28l-1.25 10H15.517zm29.038 6.667l2.917-23.334h7.057l2.916 23.334h-12.89zM58.722 17h.47l5.625 10h-4.845l-1.25-10zM20.167 40.333v10h10v-10a5 5 0 10-10 0zm6.667 0V47H23.5v-6.667a1.667 1.667 0 013.334 0zm18.333 20a1.667 1.667 0 100-3.333 1.667 1.667 0 000 3.333z"/></svg>