<?xml version="1.0" encoding="utf-8"?><svg viewBox="0 0 80 80" xmlns="http://www.w3.org/2000/svg" width="80" height="80"><path d="M74.66 39.344a42.833 42.833 0 00-14.894-12.612 43.705 43.705 0 00-39.56 0 42.823 42.823 0 00-14.88 12.612 1.667 1.667 0 000 1.98 42.833 42.833 0 0014.893 12.612 43.707 43.707 0 0039.56 0 42.833 42.833 0 0014.88-12.612 1.667 1.667 0 000-1.98zm-65.904.99A39.31 39.31 0 0126.9 27.514c-6.989 7.118-6.989 18.522 0 25.64a39.31 39.31 0 01-18.145-12.82zm49.5 10.633a40.303 40.303 0 01-18.263 4.367h-.422c-8.118-.227-14.582-6.873-14.582-14.994 0-8.122 6.464-14.768 14.582-14.994h.843c8.11.237 14.566 6.874 14.579 14.988a1.667 1.667 0 003.333 0 18.27 18.27 0 00-5.242-12.82 39.31 39.31 0 0118.145 12.82 39.53 39.53 0 01-12.973 10.633zm-3.263-2.3a1.667 1.667 0 100-3.333 1.667 1.667 0 000 3.333z"/></svg>