<?xml version="1.0" encoding="UTF-8"?><svg viewBox="0 0 80 80" xmlns="http://www.w3.org/2000/svg" role="icon" width="80" height="80"><title>Illustrative Icons/Ordinateur</title><path d="M64.227 17H16.583c-3.406 0-6.178 2.99-6.178 6.667V57h60V23.667c0-3.677-2.772-6.667-6.178-6.667zm2.845 36.667H13.738v-30c0-1.807 1.304-3.334 2.845-3.334h47.644c1.541 0 2.845 1.527 2.845 3.334v30zm0 6.666H6.667a1.667 1.667 0 000 3.334h60.405a1.667 1.667 0 100-3.334zm6.666 3.334a1.667 1.667 0 100-3.334 1.667 1.667 0 000 3.334z"/></svg>