<?xml version="1.0" encoding="utf-8"?><svg viewBox="0 0 80 80" xmlns="http://www.w3.org/2000/svg" width="80" height="80"><path d="M31.208 43.304l-1.004-3.324h-6.8l-1.032 3.324h8.836zm.993 3.285h-10.85l-1.013 3.26h12.848l-.985-3.26zm-2.99-9.894l-1.978-6.542h-.774l-2.033 6.542h4.785zM16.856 49.849l6.788-21.842a1.662 1.662 0 011.589-1.166h3.237a1.66 1.66 0 011.592 1.179l6.598 21.829h1.685c.91 0 1.65.736 1.65 1.643s-.74 1.643-1.65 1.643H15.283c-.912 0-1.65-.736-1.65-1.643s.74-1.643 1.65-1.643h1.573zm31.394-16.42c-.91 0-1.65-.736-1.65-1.643s.74-1.643 1.65-1.643H63.1c.91 0 1.65.736 1.65 1.643s-.74 1.643-1.65 1.643H48.25zm0 8.214c-.91 0-1.65-.736-1.65-1.643s.74-1.643 1.65-1.643H59.8c.91 0 1.65.736 1.65 1.643s-.74 1.643-1.65 1.643H48.25zm0 8.214c-.91 0-1.65-.736-1.65-1.643s.74-1.643 1.65-1.643h13.2c.91 0 1.65.736 1.65 1.643s-.74 1.643-1.65 1.643h-13.2zM10.3 18.643c0 .907-.74 1.643-1.65 1.643-.91 0-1.65-.736-1.65-1.643S7.74 17 8.65 17c.91 0 1.65.736 1.65 1.643zM68.05 17c2.73 0 4.95 2.211 4.95 4.929V58.07c0 2.72-2.22 4.93-4.95 4.93h-56.1C9.22 63 7 60.789 7 58.071V25.214c0-.907.74-1.643 1.65-1.643.91 0 1.65.736 1.65 1.643v32.857c0 .906.74 1.643 1.65 1.643h56.1c.91 0 1.65-.737 1.65-1.643V21.93a1.65 1.65 0 00-1.65-1.643H15.265c-.91 0-1.65-.736-1.65-1.643S14.355 17 15.265 17H68.05z"/></svg>