<?xml version="1.0" encoding="utf-8"?><svg viewBox="0 0 80 80" xmlns="http://www.w3.org/2000/svg" width="80" height="80"><path d="M53.2 33.429c-.908 0-1.65-.74-1.65-1.643a1.65 1.65 0 011.65-1.643h9.9c.907 0 1.65.74 1.65 1.643s-.743 1.643-1.65 1.643h-9.9zm0 8.214h6.6c.908 0 1.65-.74 1.65-1.643a1.65 1.65 0 00-1.65-1.643h-6.6c-.908 0-1.65.74-1.65 1.643a1.65 1.65 0 001.65 1.643zm0 8.214h8.25c.907 0 1.65-.74 1.65-1.643s-.742-1.643-1.65-1.643H53.2c-.908 0-1.65.74-1.65 1.643a1.65 1.65 0 001.65 1.643zM10.3 18.643c0-.904-.743-1.643-1.65-1.643-.908 0-1.65.74-1.65 1.643s.742 1.643 1.65 1.643c.907 0 1.65-.74 1.65-1.643zm14.85 18.071c-.907 0-1.65.74-1.65 1.643V40a1.65 1.65 0 003.3 0v-1.643c0-.903-.742-1.643-1.65-1.643zm9.9 0c-.907 0-1.65.74-1.65 1.643V40a1.65 1.65 0 003.3 0v-1.643c0-.903-.742-1.643-1.65-1.643zm-6.6 8.247a1.65 1.65 0 003.3 0 1.65 1.65 0 00-1.65-1.642 1.63 1.63 0 00-1.65 1.642zm18.15-19.27V40c0 9.052-7.409 16.429-16.5 16.429-9.091 0-16.5-7.377-16.5-16.429V25.707c-.016-.788.132-1.478.726-1.906.742-.525 1.666-.262 2.211.46l4.719 5.159a16.455 16.455 0 018.86-2.58c3.234 0 6.254.937 8.795 2.53l4.752-5.125c.528-.74 1.6-.887 2.343-.361.561.427.61 1.051.594 1.807zm-3.3 4.895l-3.531 3.763a13.216 13.216 0 00-19.338 0L16.9 30.7V40c0 7.245 5.924 13.143 13.2 13.143 7.276 0 13.2-5.898 13.2-13.143v-9.414zM68.05 17c2.722 0 4.95 2.218 4.95 4.929V58.07c0 2.712-2.228 4.93-4.95 4.93h-56.1C9.227 63 7 60.782 7 58.071V28.5a1.65 1.65 0 013.3 0v29.571a1.65 1.65 0 001.65 1.643h56.1c.907 0 1.65-.739 1.65-1.643V21.93c0-.904-.743-1.643-1.65-1.643H15.267c-.908 0-1.65-.74-1.65-1.643a1.65 1.65 0 011.65-1.643H68.05z"/></svg>