<?xml version="1.0" encoding="utf-8"?><svg viewBox="0 0 80 80" xmlns="http://www.w3.org/2000/svg" width="80" height="80"><path d="M52 32c0-.917.75-1.667 1.667-1.667h10c.916 0 1.666.75 1.666 1.667s-.75 1.667-1.666 1.667h-10C52.75 33.667 52 32.917 52 32zm1.667 10h6.666C61.25 42 62 41.25 62 40.333c0-.916-.75-1.666-1.667-1.666h-6.666c-.917 0-1.667.75-1.667 1.666 0 .917.75 1.667 1.667 1.667zm0 8.333H62c.917 0 1.667-.75 1.667-1.666 0-.917-.75-1.667-1.667-1.667h-8.333C52.75 47 52 47.75 52 48.667c0 .916.75 1.666 1.667 1.666zm-45-30c.916 0 1.666-.75 1.666-1.666 0-.917-.75-1.667-1.666-1.667C7.75 17 7 17.75 7 18.667c0 .916.75 1.666 1.667 1.666zM25.333 42C26.25 42 27 41.25 27 40.333v-1.666C27 37.75 26.25 37 25.333 37c-.916 0-1.666.75-1.666 1.667v1.666c0 .917.75 1.667 1.666 1.667zm10 0C36.25 42 37 41.25 37 40.333v-1.666C37 37.75 36.25 37 35.333 37c-.916 0-1.666.75-1.666 1.667v1.666c0 .917.75 1.667 1.666 1.667zm-5 5.033c.917 0 1.667-.75 1.667-1.666 0-.917-.75-1.667-1.667-1.667-.916 0-1.666.75-1.666 1.667a1.66 1.66 0 001.666 1.666zM68.667 17H15.35c-.917 0-1.667.75-1.667 1.667 0 .916.75 1.666 1.667 1.666h53.317c.916 0 1.666.75 1.666 1.667v36.667c0 .916-.75 1.666-1.666 1.666H12c-.917 0-1.667-.75-1.667-1.666v-30c0-.917-.75-1.667-1.666-1.667C7.75 27 7 27.75 7 28.667v30c0 2.75 2.25 5 5 5h56.667c2.75 0 5-2.25 5-5V22c0-2.75-2.25-5-5-5zm-55 31.667v-8.334c0-9.183 7.483-16.666 16.666-16.666C39.517 23.667 47 31.15 47 40.333v8.334a4.168 4.168 0 01-6.95 3.1A11.648 11.648 0 0130.333 57c-4.05 0-7.633-2.083-9.716-5.233a4.168 4.168 0 01-6.95-3.1zm3.333 0c0 .466.367.833.833.833a.825.825 0 00.834-.833v-8.334c0-.916.75-1.666 1.666-1.666.917 0 1.667.75 1.667 1.666v5c0 4.6 3.733 8.334 8.333 8.334s8.334-3.734 8.334-8.334v-5c0-.916.75-1.666 1.666-1.666.917 0 1.667.75 1.667 1.666v8.334c0 .466.367.833.833.833a.825.825 0 00.834-.833v-8.334c0-7.35-5.984-13.333-13.334-13.333S17 32.983 17 40.333v8.334z"/></svg>