<?xml version="1.0" encoding="UTF-8"?><svg viewBox="0 0 80 80" xmlns="http://www.w3.org/2000/svg" role="icon" width="80" height="80"><title>Illustrative Icons/Permis-Generique</title><path d="M57 32H20.333a1.667 1.667 0 000 3.333H57A1.667 1.667 0 0057 32zM20.333 42H37a1.667 1.667 0 100-3.333H20.333a1.667 1.667 0 000 3.333zM47 45.333H20.333a1.667 1.667 0 100 3.334H47a1.667 1.667 0 000-3.334zM67 17H13.667A6.667 6.667 0 007 23.667V57a6.667 6.667 0 006.667 6.667H67A6.667 6.667 0 0073.667 57V23.667A6.667 6.667 0 0067 17zm3.333 40A3.333 3.333 0 0167 60.333H13.667A3.333 3.333 0 0110.333 57V23.667a3.333 3.333 0 013.334-3.334H67a3.333 3.333 0 013.333 3.334V57zM43.667 42a1.667 1.667 0 100-3.333 1.667 1.667 0 000 3.333z"/></svg>