<?xml version="1.0" encoding="UTF-8"?><svg viewBox="0 0 80 80" xmlns="http://www.w3.org/2000/svg" role="icon" width="80" height="80"><title>Illustrative Icons/Personnes</title><path d="M40 27c5.523 0 10-4.477 10-10S45.523 7 40 7s-10 4.477-10 10c.006 5.52 4.48 9.994 10 10zm0-16.667a6.667 6.667 0 110 13.334 6.667 6.667 0 010-13.334zM16.667 33.667a8.333 8.333 0 10-8.334-8.334 8.343 8.343 0 008.334 8.334zm0-13.334a5 5 0 110 10 5 5 0 010-10zM73.333 57c.92 0 1.667-.746 1.667-1.667a11.667 11.667 0 00-20-8.153v-1.847a15 15 0 00-29.41-4.166A11.667 11.667 0 005 48.667a1.667 1.667 0 103.333 0 8.333 8.333 0 0116.667 0V72a1.667 1.667 0 003.333 0V45.333c0-6.443 5.224-11.666 11.667-11.666s11.667 5.223 11.667 11.666V62A1.667 1.667 0 0055 62v-6.667a8.333 8.333 0 0116.667 0c0 .92.746 1.667 1.666 1.667zm-10-16.667a6.667 6.667 0 100-13.333 6.667 6.667 0 000 13.333zm0-10a3.333 3.333 0 110 6.667 3.333 3.333 0 010-6.667zm10 33.334a1.667 1.667 0 100-3.334 1.667 1.667 0 000 3.334z"/></svg>