<?xml version="1.0" encoding="UTF-8"?><svg viewBox="0 0 80 80" xmlns="http://www.w3.org/2000/svg" role="icon" width="80" height="80"><title>Illustrative Icons/Porte-voix</title><path d="M55.294 15.003a1.672 1.672 0 00-.844.287c-11.783 8.15-19.55 9.2-24.133 9.2l-13.967.017a9.434 9.434 0 00-6.916 3.033c-1.55 1.567-1.684 2.867-1.7 2.917-.15.733.216 1.566.95 1.816 1.533.534 2.483-1.55 2.483-1.55 1.066-1.75 2.967-2.933 5.183-2.933h7.317l-.017 15.7h-7.3a5.993 5.993 0 01-5.183-2.933s-.933-2.083-2.483-1.55c-.734.25-1.084 1.083-.95 1.817.016.066.15 1.366 1.7 2.916a9.326 9.326 0 006.916 3.05h7.317l6.666 16.534c.25.633.867 1.016 1.517 1.016a1.7 1.7 0 00.633-.116c.85-.35 1.234-1.3.9-2.15L27.067 46.79H30.3c15.95 0 23.467 8.45 23.767 8.833.316.417.8.667 1.316.667.184 0 .35-.033.517-.083a1.61 1.61 0 001.134-1.55v-11.85a7.33 7.33 0 005.7-7.15c.016-3.483-2.434-6.417-5.7-7.15V16.64c0-.616-.334-1.167-.884-1.45a1.626 1.626 0 00-.856-.187zm-1.627 4.72v30.984c-3.567-3.017-11.734-7.2-23.367-7.2h-3.283V27.773H30.3c4.7 0 12.433-.966 23.367-8.05zm17.357 6.13a1.656 1.656 0 00-.657.12L65.3 28.44a1.66 1.66 0 00-.933 2.15c.25.65.883 1.067 1.55 1.067.2 0 .4-.034.617-.117l5.066-2.466c.85-.334 1.284-1.3.934-2.167a1.662 1.662 0 00-1.51-1.055zM57.05 31.956a4.03 4.03 0 012.4 3.7c.017 1.633-.983 3.066-2.4 3.7v-7.4zM8.667 34.023c-.917 0-1.667.75-1.667 1.667s.75 1.667 1.667 1.667c.916 0 1.666-.75 1.666-1.667s-.75-1.667-1.666-1.667zm58 .067c-.917 0-1.667.75-1.667 1.667s.75 1.667 1.667 1.667h5.267c.916 0 1.666-.75 1.666-1.667a1.66 1.66 0 00-1.666-1.667h-5.267zm-.798 5.77a1.692 1.692 0 00-1.519 1.047c-.333.85.084 1.817.934 2.167l5.066 2.466a1.666 1.666 0 002.167-.95 1.66 1.66 0 00-.934-2.15l-5.066-2.466a1.657 1.657 0 00-.648-.115z"/></svg>