<?xml version="1.0" encoding="utf-8"?><svg viewBox="0 0 80 80" xmlns="http://www.w3.org/2000/svg" width="80" height="80"><path d="M58.667 75.333H22a5 5 0 01-5-5V27a1.667 1.667 0 013.333 0v43.333c0 .92.747 1.667 1.667 1.667h36.667c.92 0 1.666-.746 1.666-1.667v-50H47V12c0-.92-.746-1.667-1.667-1.667h-10c-.92 0-1.666.747-1.666 1.667v8.333H27A1.667 1.667 0 1127 17h3.333v-5a5 5 0 015-5h10a5 5 0 015 5v5h13.334v53.333a5 5 0 01-5 5zm-30-10c-.92 0-1.667-.746-1.667-1.666v-30a1.667 1.667 0 013.333 0v30c0 .92-.746 1.666-1.666 1.666zm11.666 0c-.92 0-1.666-.746-1.666-1.666v-30a1.667 1.667 0 013.333 0v30c0 .92-.746 1.666-1.667 1.666zm11.667 0c-.92 0-1.667-.746-1.667-1.666v-30a1.667 1.667 0 113.334 0v30c0 .92-.747 1.666-1.667 1.666zm-33.333-45a1.667 1.667 0 100-3.333 1.667 1.667 0 000 3.333z"/></svg>