<?xml version="1.0" encoding="UTF-8"?><svg viewBox="0 0 80 80" xmlns="http://www.w3.org/2000/svg" role="icon" width="80" height="80"><title>Illustrative Icons/Prix</title><path d="M40.333 70.333c16.569 0 30-13.431 30-30 0-16.568-13.431-30-30-30-16.568 0-30 13.432-30 30 0 16.569 13.432 30 30 30zm0 3.334C21.923 73.667 7 58.743 7 40.333 7 21.923 21.924 7 40.333 7c18.41 0 33.334 14.924 33.334 33.333 0 18.41-14.924 33.334-33.334 33.334zm-1.666-17.83A20.714 20.714 0 0134.235 55c-1.979-.607-3.56-1.444-4.745-2.513-.549-.463-.823-1.055-.823-1.777 0-.52.144-.96.433-1.322.289-.36.636-.541 1.04-.541s.896.187 1.473.563a14.216 14.216 0 007.054 2.767V42.18c-1.693-.422-3.134-.887-4.324-1.393-1.56-.665-2.78-1.568-3.661-2.709-.881-1.14-1.322-2.592-1.322-4.355 0-1.762.484-3.33 1.452-4.701.967-1.373 2.318-2.441 4.051-3.207 1.158-.512 2.426-.852 3.804-1.022v-4.46a1.667 1.667 0 013.333 0v4.368c1.594.091 3.087.369 4.477.832 1.733.578 3.206 1.43 4.42 2.557.577.491.866 1.083.866 1.777 0 .49-.151.924-.455 1.3-.303.375-.657.563-1.061.563-.376 0-.853-.188-1.43-.563-1.33-1.011-2.579-1.74-3.749-2.189-.886-.339-1.909-.55-3.068-.632v10.492c1.96.483 3.589.98 4.888 1.494 1.575.62 2.831 1.473 3.77 2.556.94 1.084 1.409 2.478 1.409 4.182 0 1.733-.484 3.272-1.452 4.615-.968 1.343-2.326 2.383-4.073 3.12-1.354.57-2.868.92-4.542 1.049v4.313a1.667 1.667 0 01-3.333 0v-4.33zM42 52.194c1.553-.16 2.8-.567 3.74-1.223 1.242-.867 1.863-2.109 1.863-3.727 0-1.27-.577-2.224-1.733-2.86-.884-.486-2.174-.955-3.87-1.408v9.218zm-3.333-23.715c-1.213.208-2.221.606-3.024 1.194-1.242.91-1.863 2.174-1.863 3.791 0 1.387.549 2.434 1.647 3.142.76.49 1.84.95 3.24 1.378v-9.505z"/></svg>