<?xml version="1.0" encoding="UTF-8"?><svg viewBox="0 0 80 80" xmlns="http://www.w3.org/2000/svg" role="icon" width="80" height="80"><title>Illustrative Icons/Rosace</title><path d="M68.605 40.35a10.82 10.82 0 00-8.667-19.593 10.823 10.823 0 00-19.588-8.662 10.82 10.82 0 00-19.593 8.667 10.823 10.823 0 00-8.662 19.588 10.82 10.82 0 008.667 19.593 10.823 10.823 0 0019.593 8.667 10.82 10.82 0 0019.593-8.667 10.823 10.823 0 008.667-19.593h-.01zM42.017 25.657V17.85a7.5 7.5 0 1111.756 6.167 4.968 4.968 0 00-6.726 4.371c0 .1-.03.194-.03.294a5 5 0 005 5c.1 0 .195-.024.293-.03a4.945 4.945 0 004.373-6.725 7.5 7.5 0 116.167 11.756h-17.5a3.333 3.333 0 01-3.333-3.333v-9.693zM10.35 31.183a7.5 7.5 0 0113.667-4.256 4.968 4.968 0 004.371 6.726c.099 0 .194.03.294.03a5 5 0 005-5c0-.1-.024-.195-.03-.293a4.945 4.945 0 00-6.725-4.373 7.5 7.5 0 1111.756-6.167v17.5a3.333 3.333 0 01-3.333 3.333h-17.5a7.5 7.5 0 01-7.5-7.5zm28.333 23.86v7.807a7.5 7.5 0 11-11.756-6.167 4.968 4.968 0 006.726-4.371c0-.1.03-.194.03-.294a5 5 0 00-5-5c-.1 0-.195.024-.293.03a4.945 4.945 0 00-4.373 6.725 7.5 7.5 0 11-6.167-11.756h17.5a3.333 3.333 0 013.333 3.333v9.693zm24.167 1.974a7.485 7.485 0 01-6.167-3.244 4.968 4.968 0 00-4.371-6.726c-.099 0-.194-.03-.294-.03a5 5 0 00-5 5c0 .1.024.195.03.293a4.945 4.945 0 006.725 4.373 7.5 7.5 0 11-11.756 6.167v-17.5a3.333 3.333 0 013.333-3.333h17.5a7.5 7.5 0 010 15z"/></svg>