<?xml version="1.0" encoding="UTF-8"?><svg viewBox="0 0 80 80" xmlns="http://www.w3.org/2000/svg" role="icon" width="80" height="80"><title>Illustrative Icons/Signalisation</title><path d="M39.587 33.511c.232-.121.495-.19.774-.191l4.514-.014.842-.003c2.523 0 4.596 2.098 4.596 4.58 0 1.688-.958 3.198-2.362 3.991l3.88 3.88A9.941 9.941 0 0053.652 40c0-5.515-4.47-9.987-9.986-9.987a9.941 9.941 0 00-5.754 1.824l1.674 1.674zm3.162 3.162l2.432 2.432.536-.002c.659 0 1.236-.584 1.236-1.22 0-.635-.577-1.22-1.231-1.22l-2.973.01zm1.011 5.797l-1.713.005V45a1.68 1.68 0 01-3.36 0v-7.604l-3.17-3.17A9.941 9.941 0 0033.68 40c0 5.515 4.471 9.987 9.987 9.987 2.15 0 4.143-.68 5.773-1.837l-5.68-5.68zM20.333 58.583v9.75c0 .917-.75 1.667-1.666 1.667C17.75 70 17 69.25 17 68.333V11.667c0-.917.75-1.667 1.667-1.667.916 0 1.666.75 1.666 1.667v13.08a1.665 1.665 0 011.65-1.414c.852 0 1.56.647 1.656 1.474l-.002-3.19v-1.17-.414c0-4.116 2.343-6.561 6.421-6.66.084-.013.17-.02.259-.02h26.641c4.27.021 6.672 2.466 6.672 6.714a1.68 1.68 0 01-3.36 0c0-2.408-.918-3.342-3.32-3.354H30.554a1.694 1.694 0 01-.237.017c-2.376 0-3.32.951-3.32 3.303V21.615a1133590.748 1133590.748 0 01.008 17.176v1.37l.008 19.889c0 2.384.943 3.32 3.32 3.32H57c2.408 0 3.337-.917 3.337-3.302v-.4a52949.679 52949.679 0 00-.034-29.682 1.68 1.68 0 013.36-.005 67029.278 67029.278 0 01.032 28.556l.002 1.129v.4c0 4.252-2.443 6.664-6.697 6.664H30.333c-4.227 0-6.68-2.435-6.68-6.68l-.007-19.887-.001-1.37-.006-12.975v-.625a1.66 1.66 0 01-1.706 1.474c-.799-.016-1.485-.64-1.6-1.417v32.83a1.665 1.665 0 011.65-1.413c.917 0 1.667.75 1.667 1.666 0 .934-.767 1.7-1.717 1.667-.799-.015-1.485-.64-1.6-1.417zm23.334-5.236C36.296 53.347 30.32 47.37 30.32 40c0-7.371 5.976-13.347 13.347-13.347 7.37 0 13.346 5.976 13.346 13.347 0 7.371-5.975 13.347-13.346 13.347zM63.633 25c0 .933-.766 1.7-1.716 1.667A1.675 1.675 0 0160.3 25.05a1.662 1.662 0 011.667-1.717c.916 0 1.666.75 1.666 1.667z"/></svg>