<?xml version="1.0" encoding="UTF-8"?><svg viewBox="0 0 80 80" xmlns="http://www.w3.org/2000/svg" role="icon" width="80" height="80"><title>Illustrative Icons/Vente-garage</title><path d="M24.735 47.44l-.03 1.862a1.758 1.758 0 01-1.792 1.722 1.757 1.757 0 01-1.736-1.777l.024-1.562-2.672 1.327V62.05h9.353V49.01l-3.147-1.57zm-3.47-3.701l.04-2.532c.008-4.284 3.398-8.032 7.636-8.032.974 0 1.764.783 1.764 1.75 0 .966-.79 1.75-1.764 1.75-2.202 0-4.107 2.108-4.107 4.547v.028l-.037 2.303 5.643 2.816c.595.297.971.902.971 1.563V63.8c0 .966-.79 1.75-1.764 1.75H16.765A1.757 1.757 0 0115 63.8V47.932c0-.663.377-1.268.974-1.565l5.29-2.628zm32.1 27.865a1.746 1.746 0 011.058 2.241 1.769 1.769 0 01-2.26 1.05l-8.823-3.167a1.75 1.75 0 01-1.164-1.645V44.2c0-.967.79-1.75 1.764-1.75.975 0 1.765.783 1.765 1.75v24.655l7.66 2.749zm-23.596-30.03a1.757 1.757 0 01-1.765-1.75c0-.966.79-1.75 1.765-1.75h7.642c.975 0 1.765.784 1.765 1.75v30.218a1.75 1.75 0 01-1.158 1.644l-8.823 3.207a1.769 1.769 0 01-2.264-1.041 1.746 1.746 0 011.05-2.246l7.665-2.786V41.575H29.77zM30.716 8.5L19.132 40.59a1.769 1.769 0 01-2.256 1.057 1.746 1.746 0 01-1.067-2.237L27.812 6.16A1.764 1.764 0 0129.474 5h22.758c.746 0 1.41.464 1.662 1.16l12.001 33.25c.412 1.14-.44 2.34-1.661 2.34H48.706A1.757 1.757 0 0146.94 40c0-.967.79-1.75 1.765-1.75h13.022L50.99 8.5H30.716zM45.53 39.825c0 .87-.712 1.575-1.589 1.575a1.582 1.582 0 01-1.588-1.575c0-.87.711-1.575 1.588-1.575.877 0 1.589.705 1.589 1.575z"/></svg>