<svg viewBox="0 0 80 80" xmlns="http://www.w3.org/2000/svg" class="icon" role="icon">
    <title>
        Illustrative Icons/Arbre
    </title>
    <path d="M46.339 73.672H28.005a1.667 1.667 0 110-3.334H46.34a1.667 1.667 0 010 3.334zm-8.334-1.667c-.92 0-1.666-.746-1.666-1.667V22.005a1.667 1.667 0 013.333 0v48.333c0 .92-.746 1.667-1.667 1.667zm0-48.333c-.258 0-.512-.061-.743-.177l-3.333-1.667a1.667 1.667 0 011.49-2.981l3.333 1.666a1.667 1.667 0 01-.747 3.159zm0 16.666a1.667 1.667 0 01-1.178-2.845l6.667-6.666a1.667 1.667 0 012.356 2.356l-6.666 6.667a1.666 1.666 0 01-1.179.488zM56.34 22.005a1.667 1.667 0 01-1.179-2.845l3.334-3.333a1.667 1.667 0 012.356 2.356l-3.333 3.334a1.667 1.667 0 01-1.178.488zm-31.36 9.78c-.323 0-.638-.094-.909-.27a13.333 13.333 0 1118.245-18.743 1.669 1.669 0 11-2.743 1.9 10 10 0 10-13.683 14.055 1.667 1.667 0 01-.912 3.063l.002-.005zm4.693 15.22a10 10 0 01-5.632-18.263 1.667 1.667 0 011.88 2.753 6.667 6.667 0 006.419 11.622 1.667 1.667 0 011.333 3.055 9.919 9.919 0 01-4 .833zm15-.197a1.667 1.667 0 01-.258-3.313c7.3-1.164 12.478-7.745 11.891-15.114-.586-7.37-6.74-13.049-14.133-13.043-.365 0-.735.014-1.1.042a1.667 1.667 0 01-.255-3.323c.448-.035.905-.052 1.355-.052 9.134-.009 16.739 7.01 17.462 16.115.722 9.106-5.68 17.236-14.7 18.668-.087.014-.174.02-.262.02z"/>
</svg>
