<svg viewBox="0 0 80 80" xmlns="http://www.w3.org/2000/svg" class="icon" role="icon">
    <title>
        Illustrative Icons/Attention
    </title>
    <path d="M39.665 56.04c-.92 0-1.666-.745-1.666-1.666V31.666a1.667 1.667 0 013.333 0v22.708c0 .92-.746 1.667-1.667 1.667zm30 7.293H46.332a1.667 1.667 0 010-3.334h20.39L39.665 14.906 12.61 59.999h20.39a1.667 1.667 0 110 3.334H9.665a1.666 1.666 0 01-1.428-2.524l30-50a1.667 1.667 0 012.858 0l30 50a1.667 1.667 0 01-1.43 2.524zm-30 0a1.667 1.667 0 100-3.334 1.667 1.667 0 000 3.334z"/>
</svg>
