<svg viewBox="0 0 80 80" xmlns="http://www.w3.org/2000/svg" class="icon" role="icon">
    <title>
        Illustrative Icons/Balai
    </title>
    <path d="M64.845 15.488a1.667 1.667 0 00-2.357 0L41.187 36.79c-2.779-2.084-6.129-2.699-9.797-1.775a17.05 17.05 0 00-5.468 2.5L8.452 50.68a1.667 1.667 0 00-.18 2.5l18.825 19c.311.318.738.498 1.183.5h.098c.478-.028.92-.26 1.215-.638l13.5-17.307.035-.045a17.047 17.047 0 002.445-5.458c.929-3.793.232-7.258-2.008-10.107l21.28-21.281c.65-.651.65-1.706 0-2.357zM28.13 68.5l-2.243-2.264 4.78-4.786a1.667 1.667 0 10-2.357-2.357l-4.772 4.772-2.345-2.365 4.762-4.762a1.667 1.667 0 10-2.357-2.357l-4.75 4.75-2.348-2.37 4.74-4.74a1.667 1.667 0 00-2.357-2.355l-4.73 4.729-2.166-2.19 13.44-10.132L38.478 55.24 28.13 68.5zm12.403-15.917L28.115 40.055a14.085 14.085 0 014.088-1.809c3.145-.791 5.834-.081 8.014 2.11 4.866 4.91 1.021 11.177.316 12.227zm-15.2-25.917a1.667 1.667 0 100-3.333 1.667 1.667 0 000 3.333zM8.667 43.333a1.667 1.667 0 100-3.333 1.667 1.667 0 000 3.333zm40 20a1.667 1.667 0 100-3.333 1.667 1.667 0 000 3.333z"/>
</svg>
