<svg viewBox="0 0 80 80" xmlns="http://www.w3.org/2000/svg" class="icon" role="icon">
    <title>
        Illustrative Icons/Drapeau
    </title>
    <path d="M40 75a1.667 1.667 0 01-1.542-1.033L15.125 17.3a1.667 1.667 0 012.167-2.178c.126.051 12.868 5.12 22.121 1.65 5.872-2.202 12.075-1.972 17.935.666 4.395 1.979 7.05 4.605 7.167 4.717A1.667 1.667 0 0163.167 25c-8.04-.803-13.68 3.988-19.137 8.622-2.18 1.851-4.238 3.6-6.458 5.038a1.667 1.667 0 01-1.814-2.797c2.04-1.321 4.019-3 6.114-4.781 4.633-3.935 9.77-8.299 16.593-9.295a23.982 23.982 0 00-2.592-1.349C50.795 18.167 45.65 18 40.585 19.893c-4.435 1.667-9.925 1.882-16.315.649a51.115 51.115 0 01-4.667-1.134l21.939 53.29A1.667 1.667 0 0140 75zm-8.333-33.333a1.667 1.667 0 100-3.334 1.667 1.667 0 000 3.334z"/>
</svg>
