<svg viewBox="0 0 80 80" xmlns="http://www.w3.org/2000/svg" class="icon" role="icon">
    <title>
        Illustrative Icons/Permis-Humain
    </title>
    <path d="M53.667 33.667h10a1.667 1.667 0 000-3.334h-10a1.667 1.667 0 100 3.334zm0 8.333h6.666a1.667 1.667 0 100-3.333h-6.666a1.667 1.667 0 000 3.333zm0 8.333H62A1.667 1.667 0 0062 47h-8.333a1.667 1.667 0 000 3.333zm15-33.333h-55a1.667 1.667 0 000 3.333h55c.92 0 1.666.747 1.666 1.667v36.667c0 .92-.746 1.666-1.666 1.666H12c-.92 0-1.667-.746-1.667-1.666v-35a1.667 1.667 0 10-3.333 0v35a5 5 0 005 5h56.667a5 5 0 005-5V22a5 5 0 00-5-5zM47 40.417c0-9.237-7.477-16.75-16.667-16.75-9.19 0-16.666 7.513-16.666 16.75 0 9.236 7.476 16.75 16.666 16.75 9.19 0 16.667-7.514 16.667-16.75zm-30 0C17 33.018 22.982 27 30.333 27c7.352 0 13.334 6.018 13.334 13.417 0 7.398-5.982 13.416-13.334 13.416C22.982 53.833 17 47.815 17 40.417zm17.59 9.033a10.637 10.637 0 003.285-2.24 1.667 1.667 0 10-2.357-2.357 7.333 7.333 0 01-10.37 0 1.667 1.667 0 10-2.356 2.359 10.675 10.675 0 0011.796 2.236l.002.002zM8.667 20.333a1.667 1.667 0 100-3.333 1.667 1.667 0 000 3.333z"/>
</svg>
