<svg viewBox="0 0 80 80" xmlns="http://www.w3.org/2000/svg" class="icon" role="icon">
    <title>
        Illustrative Icons/Permis-Animal generique
    </title>
    <path d="M53.667 33.667h10a1.667 1.667 0 000-3.334h-10a1.667 1.667 0 100 3.334m0 8.333h6.666a1.667 1.667 0 000-3.333h-6.666a1.667 1.667 0 000 3.333m0 8.333H62A1.667 1.667 0 0062 47h-8.333a1.667 1.667 0 000 3.333M10.333 18.667a1.667 1.667 0 11-3.333 0 1.667 1.667 0 013.333 0M68.667 17a5.015 5.015 0 015 5v36.667a5.015 5.015 0 01-5 5H12a5.015 5.015 0 01-5-5v-30a1.667 1.667 0 113.333 0v30c0 .92.747 1.666 1.667 1.666h56.667c.92 0 1.666-.746 1.666-1.666V22c0-.92-.746-1.667-1.666-1.667H15.35a1.667 1.667 0 110-3.333h53.317zM35.883 51.683c-.75 0-1.566-.183-2.383-.383-.95-.217-2.017-.467-3.1-.467-1.083 0-2.167.25-3.133.467-1.684.383-3.267.733-4.534-.283-1.216-.984-1.216-2.634-1.216-3.184a8.783 8.783 0 1117.566 0c0 .55 0 2.234-1.216 3.2-.566.441-1.267.671-1.984.65zm-5.6-9.3a5.463 5.463 0 00-5.45 5.45c-.001.173.01.346.034.517a13.248 13.248 0 001.666-.3c1.084-.233 2.417-.533 3.867-.533 1.45 0 2.783.3 3.85.55.477.125.961.22 1.45.283.023-.166.034-.333.033-.5a5.477 5.477 0 00-5.45-5.467zm-11.666-.05A3.333 3.333 0 1015.283 39a3.343 3.343 0 003.334 3.333zm23.266 0A3.333 3.333 0 1038.55 39a3.343 3.343 0 003.333 3.333zm-16.5-5.3A3.333 3.333 0 1022.05 33.7a3.343 3.343 0 003.333 3.333zm9.784 0a3.333 3.333 0 10-3.334-3.333 3.343 3.343 0 003.334 3.333z"/>
</svg>
