<svg viewBox="0 0 80 80" xmlns="http://www.w3.org/2000/svg" class="icon" role="icon">
    <title>
        Illustrative Icons/Preferences
    </title>
    <path d="M14.667 44.667c.92 0 1.666-.747 1.666-1.667V9.667a1.667 1.667 0 10-3.333 0V43c0 .92.746 1.667 1.667 1.667zm0 16.666c-.92 0-1.667.747-1.667 1.667v6.667a1.667 1.667 0 003.333 0V63c0-.92-.746-1.667-1.666-1.667zm0-15a6.667 6.667 0 100 13.334 6.667 6.667 0 000-13.334zm0 10a3.333 3.333 0 110-6.666 3.333 3.333 0 010 6.666zm25-21.666c-.92 0-1.667.746-1.667 1.666v33.334a1.667 1.667 0 003.333 0V36.333c0-.92-.746-1.666-1.666-1.666zm0-16.667c.92 0 1.666-.746 1.666-1.667V9.667a1.667 1.667 0 00-3.333 0v6.666c0 .92.746 1.667 1.667 1.667zm0 1.667a6.667 6.667 0 100 13.333 6.667 6.667 0 000-13.333zm0 10a3.333 3.333 0 110-6.667 3.333 3.333 0 010 6.667zm25 18.333c-.92 0-1.667.746-1.667 1.667v20a1.667 1.667 0 103.333 0v-20c0-.92-.746-1.667-1.666-1.667zm0-16.667c.92 0 1.666-.746 1.666-1.666v-20a1.667 1.667 0 00-3.333 0v20c0 .92.746 1.666 1.667 1.666zm0 1.667a6.667 6.667 0 100 13.333 6.667 6.667 0 000-13.333zm0 10a3.333 3.333 0 110-6.667 3.333 3.333 0 010 6.667z"/>
</svg>
