<svg viewBox="0 0 80 80" xmlns="http://www.w3.org/2000/svg" class="icon" role="icon">
    <title>
        Illustrative Icons/Souffleuse
    </title>
    <path d="M72.4 8l-.517.033s-5.25.284-8.316 1.817c-5.4 2.683-8.234 7.117-8.234 12.8v8.667c0 .916.75 1.666 1.667 1.666s1.667-.75 1.667-1.666V22.65c0-4.367 2.1-7.65 6.3-9.767 1.816-.933 3.916-1.166 5.416-1.283v3.05c-2.9.833-6.7 3.067-6.666 7.5v19.167h6.666v26.666l-6.85-7.716c.134-.734.2-1.5.2-2.284 0-7.35-5.983-13.333-13.333-13.333-6.817 0-12.467 5.167-13.233 11.783h-3.584c-.766-6.633-6.416-11.8-13.25-11.8-2.4 0-4.666.65-6.616 1.767v-5.117l10.066-4.966 26.65.033c.867 0 1.6-.667 1.684-1.517.016-.266.05-.533-.034-.816l-4.466-18.134a1.663 1.663 0 00-1.834-1.216H25.65c-.8 0-1.617.483-1.783 1.233-.084.2-.134.417-.134.65v11.517c0 .916.75 1.666 1.667 1.666s1.65-.733 1.667-1.65V18l9.983-.017v15.034H23.733v.016L11.4 38.483c-.567.134-1 .65-1.017 1.267v9.35C8.283 51.467 7 54.567 7 57.967 7 65.317 12.983 71.3 20.333 71.3c6.734 0 12.317-5.033 13.2-11.533h3.65c.884 6.5 6.467 11.55 13.217 11.55 5.217 0 9.75-3.017 11.933-7.4L68.5 70.75c.25.35.65.583 1.1.583h2.767c.733 0 1.333-.6 1.333-1.333V39.283c-.033-.7-.6-1.266-1.267-1.3h-5.366V22.15C67.033 18.5 72.4 17.6 72.4 17.6c.75-.133 1.383-.683 1.333-1.333V9.333C73.733 8.6 73.133 8 72.4 8zm-32.033 9.967l4.35.016 3.616 15.034h-7.966v-15.05zm16.7 19.966A1.66 1.66 0 0055.4 39.6c0 .917.75 1.667 1.667 1.667.916 0 1.666-.75 1.666-1.667s-.75-1.667-1.666-1.667zM20.3 47.967c5.517 0 10 4.483 10 10 0 5.516-4.483 10-10 10s-10-4.484-10-10c0-5.517 4.483-10 10-10zm30.083.016c5.517 0 10 4.484 10 10 0 5.517-4.5 10-10 10-5.516 0-10-4.483-10-10 0-5.516 4.484-10 10-10zm-30 5.167c-2.75 0-5 2.25-5 5s2.25 5 5 5 5-2.25 5-5-2.25-5-5-5zm30.1 0c-2.75 0-5 2.25-5 5s2.25 5 5 5 5-2.25 5-5-2.233-5-5-5zm-30.1 3.333c.917 0 1.667.75 1.667 1.667s-.75 1.667-1.667 1.667c-.916 0-1.666-.75-1.666-1.667s.75-1.667 1.666-1.667zm30.1 0c.917 0 1.667.75 1.667 1.667s-.75 1.667-1.667 1.667c-.916 0-1.666-.75-1.666-1.667s.75-1.667 1.666-1.667z"/>
</svg>
