<?xml version="1.0" encoding="UTF-8"?>
<svg width="24px" height="24px" viewBox="0 0 24 24" version="1.1" xmlns="http://www.w3.org/2000/svg" xmlns:xlink="http://www.w3.org/1999/xlink">
    <!-- Generator: Sketch 55.2 (78181) - https://sketchapp.com -->
    <title>Icons/24px/Check-Circle-Full</title>
    <desc>Created with Sketch.</desc>
    <g id="Icons/24px/Check-Circle-Full" stroke="none" stroke-width="1" fill="none" fill-rule="evenodd">
        <path d="M12,23 C5.92486775,23 1,18.0751322 1,12 C1,5.92486775 5.92486775,1 12,1 C18.0751322,1 23,5.92486775 23,12 C23,18.0751322 18.0751322,23 12,23 Z M15.2928932,9.29289322 L11,13.5857864 L9.70710678,12.2928932 C9.31658249,11.9023689 8.68341751,11.9023689 8.29289322,12.2928932 C7.90236893,12.6834175 7.90236893,13.3165825 8.29289322,13.7071068 L10.2928932,15.7071068 C10.6834175,16.0976311 11.3165825,16.0976311 11.7071068,15.7071068 L16.7071068,10.7071068 C17.0976311,10.3165825 17.0976311,9.68341751 16.7071068,9.29289322 C16.3165825,8.90236893 15.6834175,8.90236893 15.2928932,9.29289322 Z" id="Icon" fill="#ADB5BD"></path>
    </g>
</svg>