<?xml version="1.0" encoding="UTF-8"?>
<svg width="80px" height="80px" viewBox="0 0 80 80" version="1.1" xmlns="http://www.w3.org/2000/svg" xmlns:xlink="http://www.w3.org/1999/xlink">
    <!-- Generator: Sketch 55.2 (78181) - https://sketchapp.com -->
    <title>Illustrative Icons/Glissant</title>
    <desc>Created with Sketch.</desc>
    <g id="Illustrative-Icons/Glissant" stroke="none" stroke-width="1" fill="none" fill-rule="evenodd">
        <path d="M68.3526667,70.0089667 L16.686,70.0089667 C15.7693333,70.0089667 15.0193333,69.2589667 15.0193333,68.3423 C15.0193333,67.4256333 15.7693333,66.6756333 16.686,66.6756333 L68.3526667,66.6756333 C69.2693334,66.6756333 70.0193333,67.4256333 70.0193333,68.3423 C70.0193333,69.2589667 69.2693334,70.0089667 68.3526667,70.0089667 Z M39.7321387,39.8172976 L52.1358427,43.3887923 C53.0937931,43.6646223 53.6045581,44.7068865 53.2356086,45.6329681 L46.6022752,62.2829681 C46.2576487,63.1479981 45.2770284,63.5698685 44.4119985,63.2252418 C43.5469685,62.8806153 43.1250982,61.899995 43.4697249,61.0349651 L49.414166,46.1141188 L38.352824,42.929141 C38.060733,42.845037 37.7968112,42.6835338 37.588988,42.4617226 L25.9552707,30.0449666 L11.686,30.0449666 C10.7548479,30.0449666 10,29.2901188 10,28.3589666 C10,27.4278144 10.7548479,26.6729666 11.686,26.6729666 L26.686,26.6729666 C27.1522012,26.6729666 27.5975932,26.8660039 27.9163454,27.2062106 L39.7321387,39.8172976 Z M54.7847412,33.3666418 C55.1228329,33.3193089 55.4673351,33.3753551 55.7729876,33.5274173 L69.1063209,40.1607506 C69.9429674,40.5769823 70.2837811,41.5926408 69.8675494,42.4292875 C69.4513177,43.265934 68.4356592,43.6067476 67.5990126,43.190516 L54.7349029,36.7906213 L43.5872589,38.3512915 C43.0614847,38.4249 42.5316462,38.2474621 42.156242,37.872058 L32.0729087,27.7887246 C31.5363337,27.2521496 31.4226197,26.4239609 31.7947157,25.7626213 L40.178049,10.8626213 C40.6362679,10.0482124 41.6679365,9.75946336 42.4823454,10.2176822 C43.2967542,10.6759011 43.5855032,11.7075697 43.1272844,12.5219786 L35.3732989,26.3034161 L43.9529722,34.8830894 L54.7847412,33.3666418 Z M13.336,68.3256333 C13.336,69.2589667 12.5693333,70.0256333 11.6193333,69.9923 C10.7526667,69.9756333 10.0193333,69.2423 10.0026667,68.3756333 C9.96933333,67.4256333 10.736,66.6589667 11.6693333,66.6589667 C12.586,66.6589667 13.336,67.4089667 13.336,68.3256333 Z M30.0193333,18.3422999 C30.0193333,21.0922999 27.7693334,23.3422999 25.0193333,23.3422999 C22.2693333,23.3422999 20.0193333,21.0922999 20.0193333,18.3422999 C20.0193333,15.5922999 22.2693333,13.3422999 25.0193333,13.3422999 C27.7693334,13.3422999 30.0193333,15.5922999 30.0193333,18.3422999 Z M23.3526667,18.3422999 C23.3526667,19.2589666 24.1026667,20.0089666 25.0193334,20.0089666 C25.936,20.0089666 26.686,19.2589666 26.686,18.3422999 C26.686,17.4256333 25.936,16.6756333 25.0193334,16.6756333 C24.1026667,16.6756333 23.3526667,17.4256333 23.3526667,18.3422999 Z" id="Shape-color" fill="#ADB5BD"></path>
    </g>
</svg>