<?xml version="1.0" encoding="UTF-8"?>
<svg width="80px" height="80px" viewBox="0 0 80 80" version="1.1" xmlns="http://www.w3.org/2000/svg" xmlns:xlink="http://www.w3.org/1999/xlink">
    <!-- Generator: Sketch 55.2 (78181) - https://sketchapp.com -->
    <title>Illustrative Icons/Mire</title>
    <desc>Created with Sketch.</desc>
    <g id="Illustrative-Icons/Mire" stroke="none" stroke-width="1" fill="none" fill-rule="evenodd">
        <path d="M67,38.6666667 L61.9366667,38.6666667 C61.1009656,28.0212944 52.6453723,19.5657012 42,18.73 L42,13.6666667 C42,12.7461921 41.253808,12 40.3333334,12 C39.4128588,12 38.6666667,12.7461921 38.6666667,13.6666667 L38.6666667,18.73 C28.0212944,19.5657012 19.5657012,28.0212944 18.73,38.6666667 L13.6666667,38.6666667 C12.7461921,38.6666667 12,39.4128588 12,40.3333334 C12,41.253808 12.7461921,42 13.6666667,42 L18.73,42 C19.5657012,52.6453723 28.0212944,61.1009656 38.6666667,61.9366667 L38.6666667,67 C38.6666667,67.9204747 39.4128588,68.6666667 40.3333334,68.6666667 C41.253808,68.6666667 42,67.9204747 42,67 L42,61.9366667 C52.6453723,61.1009656 61.1009656,52.6453723 61.9366667,42 L67,42 C67.9204747,42 68.6666667,41.253808 68.6666667,40.3333334 C68.6666667,39.4128588 67.9204747,38.6666667 67,38.6666667 Z M40.3333334,58.6666667 C30.2081129,58.6666667 22,50.4585538 22,40.3333334 C22,30.2081129 30.2081129,22 40.3333334,22 C50.4585538,22 58.6666667,30.2081129 58.6666667,40.3333334 C58.655644,50.4539845 50.4539845,58.655644 40.3333334,58.6666667 L40.3333334,58.6666667 Z M40.3333334,42 C41.253808,42 42,41.253808 42,40.3333334 C42,39.4128588 41.253808,38.6666667 40.3333334,38.6666667 C39.4128588,38.6666667 38.6666667,39.4128588 38.6666667,40.3333334 C38.6666667,41.253808 39.4128588,42 40.3333334,42 Z" id="Shape-color" fill="#ADB5BD"></path>
    </g>
</svg>