<?xml version="1.0" encoding="UTF-8"?>
<svg width="80px" height="80px" viewBox="0 0 80 80" version="1.1" xmlns="http://www.w3.org/2000/svg" xmlns:xlink="http://www.w3.org/1999/xlink">
    <!-- Generator: Sketch 55.2 (78181) - https://sketchapp.com -->
    <title>Illustrative Icons/Permis-Generique</title>
    <desc>Created with Sketch.</desc>
    <g id="Illustrative-Icons/Permis-Generique" stroke="none" stroke-width="1" fill="none" fill-rule="evenodd">
        <path d="M57.0000001,32 L20.3333334,32 C19.4128588,32 18.6666667,32.7461921 18.6666667,33.6666667 C18.6666667,34.5871413 19.4128588,35.3333334 20.3333334,35.3333334 L57.0000001,35.3333334 C57.9204746,35.3333334 58.6666667,34.5871413 58.6666667,33.6666667 C58.6666667,32.7461921 57.9204746,32 57.0000001,32 Z M20.3333334,42 L37,42 C37.9204746,42 38.6666667,41.2538079 38.6666667,40.3333334 C38.6666667,39.4128588 37.9204746,38.6666667 37,38.6666667 L20.3333334,38.6666667 C19.4128588,38.6666667 18.6666667,39.4128588 18.6666667,40.3333334 C18.6666667,41.2538079 19.4128588,42 20.3333334,42 Z M47.0000001,45.3333334 L20.3333334,45.3333334 C19.4128588,45.3333334 18.6666667,46.0795255 18.6666667,47 C18.6666667,47.9204746 19.4128588,48.6666667 20.3333334,48.6666667 L47.0000001,48.6666667 C47.9204746,48.6666667 48.6666667,47.9204746 48.6666667,47 C48.6666667,46.0795255 47.9204746,45.3333334 47.0000001,45.3333334 Z M67,17 L13.6666667,17 C9.98476834,17 7,19.9847683 7,23.6666667 L7,57 C7,60.6818984 9.98476834,63.6666667 13.6666667,63.6666667 L67,63.6666667 C70.6818984,63.6666667 73.6666667,60.6818984 73.6666667,57 L73.6666667,23.6666667 C73.6666667,19.9847683 70.6818984,17 67,17 Z M70.3333333,57 C70.3333333,58.8409492 68.8409492,60.3333333 67.0000001,60.3333333 L13.6666667,60.3333333 C11.8257175,60.3333333 10.3333333,58.8409492 10.3333333,57 L10.3333333,23.6666667 C10.3333333,21.8257175 11.8257175,20.3333333 13.6666667,20.3333333 L67.0000001,20.3333333 C68.8409492,20.3333333 70.3333333,21.8257175 70.3333333,23.6666667 L70.3333333,57 Z M43.6666667,42 C44.5871413,42 45.3333334,41.2538079 45.3333334,40.3333334 C45.3333334,39.4128588 44.5871413,38.6666667 43.6666667,38.6666667 C42.7461921,38.6666667 42,39.4128588 42,40.3333334 C42,41.2538079 42.7461921,42 43.6666667,42 Z" id="Shape-color" fill="#ADB5BD"></path>
    </g>
</svg>