<?xml version="1.0" encoding="utf-8"?>
<!-- Generator: Adobe Illustrator 23.0.6, SVG Export Plug-In . SVG Version: 6.00 Build 0)  -->
<svg version="1.1" id="Calque_1" xmlns="http://www.w3.org/2000/svg" xmlns:xlink="http://www.w3.org/1999/xlink" x="0px" y="0px"
	 viewBox="0 0 264 88" style="enable-background:new 0 0 264 88;" xml:space="preserve">
<style type="text/css">
	.st0{fill-rule:evenodd;clip-rule:evenodd;fill:#FFFFFF;}
	.st1{fill:none;stroke:#FFFFFF;stroke-width:1.5;}
	.st2{fill:#FFFFFF;}
</style>
<title>default-skin 2</title>
<g>
	<path id="Rectangle-11" class="st0" d="M161,28.5l-3.2-3.2l-1.4,1.4l3.2,3.2L161,28.5z"/>
	<path id="Oval-1" class="st1" d="M152.5,27c3,0,5.5-2.5,5.5-5.5s-2.5-5.5-5.5-5.5s-5.5,2.5-5.5,5.5S149.5,27,152.5,27z"/>
	<path class="st0" d="M150,21h5v1h-5V21z"/>
</g>
<g>
	<path class="st0" d="M117,28.5l-1.4,1.4l-3.2-3.2l1.4-1.4L117,28.5z"/>
	<path class="st1" d="M108.5,27c3,0,5.5-2.5,5.5-5.5s-2.5-5.5-5.5-5.5s-5.5,2.5-5.5,5.5S105.5,27,108.5,27z"/>
	<path class="st0" d="M106,21h5v1h-5V21z"/>
	<path class="st0" d="M109,19l-0.1,5h-1l0.1-5H109z"/>
</g>
<path class="st0" d="M117,58.7c0.1,0.4,0.1,0.7-0.3,1.1l-5.3,5.3c-0.4,0.4-0.9,0.4-1.2,0s-0.4-0.9,0-1.2L114,60H102
	c-0.4,0-0.9-0.4-0.9-0.9s0.4-0.9,0.9-0.9h14.2C116.5,58.2,116.9,58.4,117,58.7L117,58.7z M110.2,54.3c-0.4-0.4-0.4-0.9,0-1.2
	s0.9-0.4,1.2,0l2.7,2.7c0.4,0.4,0.4,0.9,0,1.2c-0.4,0.4-0.9,0.4-1.2,0L110.2,54.3z"/>
<path class="st2" d="M68.8,29c-0.4,0-0.7-0.3-0.7-0.7v-2.1c0-1.1,0.9-2.1,2.1-2.1h2.1c0.4,0,0.7,0.3,0.7,0.7s-0.3,0.7-0.7,0.7h-2.1
	c-0.4,0-0.7,0.3-0.7,0.7v2.1C69.5,28.7,69.2,29,68.8,29z M63.2,29c-0.4,0-0.7-0.3-0.7-0.7v-2.1c0-0.4-0.3-0.7-0.7-0.7h-2.1
	c-0.4,0-0.7-0.3-0.7-0.7s0.3-0.7,0.7-0.7h2.1c1.1,0,2.1,0.9,2.1,2.1v2.1C63.9,28.7,63.6,29,63.2,29z M72.3,20h-2.1
	c-1.1,0-2.1-0.9-2.1-2.1v-2.1c0-0.4,0.3-0.7,0.7-0.7s0.7,0.3,0.7,0.7v2.1c0,0.4,0.3,0.7,0.7,0.7h2.1c0.4,0,0.7,0.3,0.7,0.7
	S72.6,20,72.3,20z M61.8,20h-2.1c-0.4,0-0.7-0.3-0.7-0.7s0.3-0.7,0.7-0.7h2.1c0.4,0,0.7-0.3,0.7-0.7v-2.1c0-0.4,0.3-0.7,0.7-0.7
	s0.7,0.3,0.7,0.7v2.1C63.9,19,63,20,61.8,20z"/>
<path class="st2" d="M27.3,29H25c-0.4,0-0.8-0.3-0.8-0.7c0-0.4,0.3-0.7,0.8-0.7h2.3c0.4,0,0.8-0.3,0.8-0.7v-2.1
	c0-0.4,0.3-0.7,0.8-0.7c0.4,0,0.8,0.3,0.8,0.7v2.1C29.6,28.1,28.5,29,27.3,29z M19,29h-2.3c-1.2,0-2.3-0.9-2.3-2.1v-2.1
	c0-0.4,0.3-0.7,0.8-0.7s0.8,0.3,0.8,0.7v2.1c0,0.4,0.3,0.7,0.8,0.7H19c0.4,0,0.8,0.3,0.8,0.7C19.7,28.7,19.4,29,19,29z M28.8,19.9
	c-0.4,0-0.8-0.3-0.8-0.7v-2.1c0-0.4-0.3-0.7-0.8-0.7H25c-0.4,0-0.8-0.3-0.8-0.7c0-0.4,0.3-0.7,0.8-0.7h2.3c1.2,0,2.3,0.9,2.3,2.1
	v2.1C29.6,19.6,29.2,19.9,28.8,19.9z M15.2,19.9c-0.4,0-0.8-0.3-0.8-0.7v-2.1c0-1.2,1-2.1,2.3-2.1H19c0.4,0,0.8,0.3,0.8,0.7
	c0,0.4-0.3,0.7-0.8,0.7h-2.3c-0.4,0-0.8,0.3-0.8,0.7v2.1C16,19.6,15.6,19.9,15.2,19.9z"/>
<path class="st0" d="M147,58.7c-0.1,0.4-0.1,0.7,0.3,1.1l5.3,5.3c0.4,0.4,0.9,0.4,1.2,0s0.4-0.9,0-1.2L150,60h12.1
	c0.4,0,0.9-0.4,0.9-0.9s-0.4-0.9-0.9-0.9h-14.3C147.6,58.1,147.2,58.3,147,58.7L147,58.7z M153.8,54.3c0.4-0.4,0.4-0.9,0-1.2
	s-0.9-0.4-1.2,0l-2.7,2.7c-0.4,0.4-0.4,0.9,0,1.2c0.4,0.4,0.9,0.4,1.2,0L153.8,54.3z"/>
<path class="st0" d="M22.1,67.1l-4.5,4.5c-0.3,0.3-0.9,0.3-1.2,0c-0.3-0.3-0.3-0.9,0-1.2l4.5-4.5l-4.5-4.5c-0.3-0.3-0.3-0.9,0-1.2
	c0.3-0.3,0.9-0.3,1.2,0l10.3,10.3c0.3,0.3,0.3,0.9,0,1.2c-0.3,0.3-0.9,0.3-1.2,0L22.1,67.1z M26.6,60.2c0.3-0.3,0.9-0.3,1.2,0
	c0.3,0.3,0.3,0.9,0,1.2l-2.6,2.6c-0.3,0.3-0.9,0.3-1.2,0c-0.3-0.3-0.3-0.9,0-1.2L26.6,60.2z"/>
<path class="st0" d="M63.4,65.4c0.1,0.3,0.1,0.5,0.1,0.8s0,0.6-0.1,0.8l4,2.3c0.5-0.5,1.3-0.9,2.1-0.9c1.7,0,3,1.3,3,3
	c0,0.4-0.3,0.8-0.8,0.8S71,71.9,71,71.5c0-0.8-0.7-1.5-1.5-1.5c-0.5,0-1,0.3-1.2,0.7v0.1c0,0,0,0.1-0.1,0.1C68.1,71,68,71.3,68,71.5
	c0,0.8,0.7,1.5,1.5,1.5c0.4,0,0.8,0.3,0.8,0.8s-0.3,0.8-0.8,0.8c-1.7,0-3-1.3-3-3c0-0.3,0-0.6,0.1-0.8l-4-2.3
	c-0.5,0.5-1.3,0.9-2.1,0.9c-1.7,0-3-1.3-3-3s1.3-3,3-3c0.8,0,1.6,0.3,2.1,0.9l4-2.3c-0.1-0.3-0.1-0.5-0.1-0.8c0-1.7,1.3-3,3-3
	s3,1.3,3,3s-1.3,3-3,3c-0.8,0-1.6-0.3-2.1-0.9L63.4,65.4z M61.8,65.5L61.8,65.5L61.8,65.5c-0.3-0.5-0.8-0.8-1.3-0.8
	c-0.8,0-1.5,0.7-1.5,1.5s0.7,1.5,1.5,1.5c0.5,0,1-0.3,1.3-0.7l0,0l0,0c0.1-0.2,0.2-0.5,0.2-0.7S61.9,65.7,61.8,65.5z M68.2,61.8
	c0.3,0.4,0.7,0.7,1.3,0.7c0.8,0,1.5-0.7,1.5-1.5s-0.7-1.5-1.5-1.5S68,60.2,68,61C68,61.3,68.1,61.5,68.2,61.8
	C68.2,61.7,68.2,61.7,68.2,61.8L68.2,61.8z"/>
</svg>
