<svg width="128" height="128" viewBox="0 0 128 128" fill="none" xmlns="http://www.w3.org/2000/svg">
  <g clip-path="url(#clip0)">
    <rect width="128" height="128" rx="64" fill="#DEE2E6"/>
    <path d="M64 85.3333C81.6731 85.3333 96 71.0065 96 53.3333C96 35.6602 81.6731 21.3333 64 21.3333C46.3269 21.3333 32 35.6602 32 53.3333C32 71.0065 46.3269 85.3333 64 85.3333Z" fill="#ADB5BD"/>
    <path d="M37.3333 96C25.5513 96 16 105.551 16 117.333V122.667C16 137.394 27.9391 149.333 42.6667 149.333H85.3333C100.061 149.333 112 137.394 112 122.667V117.333C112 105.551 102.449 96 90.6667 96H37.3333Z" fill="#ADB5BD"/>
  </g>
  <defs>
    <clipPath id="clip0">
      <rect width="128" height="128" rx="64" fill="white"/>
    </clipPath>
  </defs>
</svg>
