<?xml version="1.0" encoding="UTF-8"?>
<svg width="24px" height="24px" viewBox="0 0 24 24" version="1.1" xmlns="http://www.w3.org/2000/svg" xmlns:xlink="http://www.w3.org/1999/xlink">
    <!-- Generator: Sketch 55.2 (78181) - https://sketchapp.com -->
    <title>Icons/24px/Search</title>
    <desc>Created with Sketch.</desc>
    <g id="Icons/24px/Search" stroke="none" stroke-width="1" fill="none" fill-rule="evenodd">
        <path d="M15.7071068,14.2928932 L21.7071068,20.2928932 C22.0976311,20.6834175 22.0976311,21.3165825 21.7071068,21.7071068 C21.3165825,22.0976311 20.6834175,22.0976311 20.2928932,21.7071068 L14.9529022,16.3671157 C13.5746967,17.4194128 11.8329875,18 10,18 C5.581722,18 2,14.418278 2,10 C2,5.581722 5.581722,2 10,2 C14.418278,2 18,5.581722 18,10 C18,10.780355 17.8879595,11.5468125 17.6696612,12.2815954 C17.5123762,12.8110101 16.9556961,13.1126808 16.4262815,12.9553958 C15.8968668,12.7981108 15.5951961,12.2414307 15.7524811,11.7120161 C15.9159996,11.1616197 16,10.5869818 16,10 C16,6.6862915 13.3137085,4 10,4 C6.6862915,4 4,6.6862915 4,10 C4,13.3137085 6.6862915,16 10,16 C11.6632422,16 13.2085803,15.3792526 14.2922267,14.2935604 C14.6823825,13.902668 15.3155472,13.9020709 15.7064396,14.2922267 Z" id="Icon" fill="#ADB5BD"></path>
    </g>
</svg>