<svg viewBox="0 0 40 40" xmlns="http://www.w3.org/2000/svg" role="icon">
    <path fill-rule="evenodd" clip-rule="evenodd" d="M17 9.7c0-1.652 1.348-3 3-3s3 1.348 3 3-1.348 3-3 3-3-1.348-3-3zm3-1c-.548 0-1 .452-1 1s.452 1 1 1 1-.452 1-1-.452-1-1-1z"/>
    <path fill-rule="evenodd" clip-rule="evenodd" d="M26.1 6.516c-7.523-3.29-16.317-.082-19.584 7.385-3.286 7.51.007 16.214 7.39 19.485l.013.006c1.238.571 2.347.937 3.533 1.12a1 1 0 01-.304 1.977c-1.411-.218-2.7-.65-4.06-1.278C4.675 31.48.971 21.586 4.684 13.1 8.417 4.566 18.423.975 26.9 4.684c8.517 3.726 12.235 13.726 8.412 22.125-2.346 5.325-7.137 8.722-12.436 9.675a1 1 0 01-.354-1.968c4.7-.846 8.906-3.847 10.962-8.519l.005-.012c3.372-7.4.09-16.196-7.39-19.469z"/>
    <path fill-rule="evenodd" clip-rule="evenodd" d="M8.8 14.7a1 1 0 011-1H18a1 1 0 011 1v8.1a1 1 0 01-.078.389l-3.5 8.3a1 1 0 01-1.843-.777L17 22.598V15.7H9.8a1 1 0 01-1-1zM20.8 14.7a1 1 0 011-1H30a1 1 0 110 2h-7.2v6.898l3.421 8.114a1 1 0 01-1.842.777l-3.5-8.3a1 1 0 01-.079-.389v-8.1z"/>
    <path d="M20 36.7a1 1 0 100-2 1 1 0 000 2z"/>
</svg>
