<svg xmlns="http://www.w3.org/2000/svg" viewBox="0 0 40 40" role="icon">
    <path fill-rule="evenodd" d="M6 20.477V31a1 1 0 001 1h26a1 1 0 001-1v-4a1 1 0 012 0v4a3 3 0 01-3 3H7a3 3 0 01-3-3V19.023 13a3 3 0 013-3h5V9a3 3 0 013-3h10a3 3 0 013 3v1h5a3 3 0 013 3v6a1 1 0 01-.629.928l-15 6a1 1 0 01-.742 0L6 20.477zM6 13v5.323l14 5.6 14-5.6V13a1 1 0 00-1-1h-6a1 1 0 01-1-1V9a1 1 0 00-1-1H15a1 1 0 00-1 1v2a1 1 0 01-1 1H7a1 1 0 00-1 1zm29 12a1 1 0 110-2 1 1 0 010 2zM17 12a1 1 0 010-2h6a1 1 0 010 2h-6z"/>
</svg>
