<svg xmlns="http://www.w3.org/2000/svg" viewBox="0 0 40 40" role="icon">
    <path fill-rule="evenodd" d="M10 13H8v2a1 1 0 01-1 1H1a1 1 0 01-1-1V9a1 1 0 011-1h9V1a1 1 0 011-1h3a1 1 0 011 1v5h1a1 1 0 011 1v1h13a1 1 0 01.707.293l3 3A1 1 0 0134 12v9a1 1 0 01-2 0v-8H17v1a1 1 0 01-1 1h-1v24a1 1 0 01-2 0V15h-1v3a1 1 0 01-2 0v-5zm3-7V2h-1v4h1zm-3 5v-1H8v1h2zm7-1v1h13.586l-1-1H17zM2 10v4h4v-4H2zm8 15a1 1 0 012 0v14a1 1 0 01-2 0V25zm1-3a1 1 0 110-2 1 1 0 010 2zm13 4v13a1 1 0 01-2 0V25a1 1 0 011-1h16a1 1 0 011 1v14a1 1 0 01-2 0V26H24zm2 3a1 1 0 012 0v2a1 1 0 01-2 0v-2zm0 6a1 1 0 012 0v2a1 1 0 01-2 0v-2zm4-6a1 1 0 012 0v2a1 1 0 01-2 0v-2zm0 6a1 1 0 012 0v2a1 1 0 01-2 0v-2zm4-6a1 1 0 012 0v2a1 1 0 01-2 0v-2zm0 6a1 1 0 012 0v2a1 1 0 01-2 0v-2zM12 8v5h3V8h-3z"/>
</svg>
