<svg xmlns="http://www.w3.org/2000/svg" viewBox="0 0 40 40" role="icon">
    <path fill-rule="evenodd" d="M7 14a4 4 0 110 8 4 4 0 010-8zm0 2a2 2 0 100 4 2 2 0 000-4zm8-10a4 4 0 110 8 4 4 0 010-8zm0 2a2 2 0 100 4 2 2 0 000-4zm10-2a4 4 0 110 8 4 4 0 010-8zm0 2a2 2 0 100 4 2 2 0 000-4zm7 6a4 4 0 110 8 4 4 0 010-8zm0 2a2 2 0 100 4 2 2 0 000-4zm-4.696 6.432a1 1 0 11-1.658 1.119C24.116 21.285 22.15 20 20 20c-4.294 0-8 5.652-8 11a1.196 1.196 0 001.78 1.044C16.199 30.69 18.263 30 20 30s3.801.69 6.22 2.044A1.196 1.196 0 0028 31c0-.59-.054-1.22-.161-1.87a1 1 0 111.973-.325c.124.754.188 1.492.188 2.195a3.196 3.196 0 01-4.756 2.789C23.097 32.588 21.339 32 20 32s-3.097.588-5.244 1.789A3.196 3.196 0 0110 31c0-6.32 4.38-13 10-13 2.893 0 5.433 1.66 7.304 4.432zM28 27a1 1 0 110-2 1 1 0 010 2z"/>
</svg>
