<svg viewBox="0 0 40 40" xmlns="http://www.w3.org/2000/svg" role="icon">
    <path fill-rule="evenodd" clip-rule="evenodd" d="M5.2 15c-.971 0-1.8.775-1.8 1.8v10.3c0 .855.6 1.6 1.443 1.765A.998.998 0 015.2 28.8h1a1 1 0 011 1v2.249l2.885-2.948a1 1 0 01.715-.301h12.4c.971 0 1.8-.775 1.8-1.8v-3.5a1 1 0 112 0V27c0 2.175-1.771 3.8-3.8 3.8H11.22l-4.305 4.4a1 1 0 01-1.715-.7v-3.6c-2.176 0-3.8-1.771-3.8-3.8V16.8c0-2.175 1.771-3.8 3.8-3.8h8.3a1 1 0 110 2H5.2z"/>
    <path fill-rule="evenodd" clip-rule="evenodd" d="M12.6 9.8c0-2.029 1.624-3.8 3.8-3.8h18c2.175 0 3.8 1.771 3.8 3.8v10.3c0 2.029-1.625 3.8-3.8 3.8v3.6a1 1 0 01-1.715.7l-4.306-4.4H16.4c-2.028 0-3.8-1.625-3.8-3.8V9.8zM16.4 8c-1.025 0-1.8.829-1.8 1.8V20c0 1.025.829 1.8 1.8 1.8h12.4a1 1 0 01.715.3L32.4 25.05V22.8a1 1 0 011-1h1c.126 0 .246.023.357.066A1.797 1.797 0 0036.2 20.1V9.8c0-.971-.776-1.8-1.8-1.8h-18z"/>
    <path d="M21.6 16.3a1.1 1.1 0 100-2.2 1.1 1.1 0 000 2.2zM25 16.3a1.1 1.1 0 100-2.2 1.1 1.1 0 000 2.2zM28.5 16.3a1.1 1.1 0 100-2.2 1.1 1.1 0 000 2.2z"/>
</svg>
