<svg viewBox="0 0 40 40" xmlns="http://www.w3.org/2000/svg" role="icon">
    <path fill-rule="evenodd" clip-rule="evenodd" d="M14 0a1 1 0 00-.949.684L11.06 6.66a.997.997 0 00-.059.334V8H3a1 1 0 00-1 1v17H1a1 1 0 100 2h21.47l-.44 1.758c-.02.079-.03.16-.03.242v6a1 1 0 001 1h3.126a4.002 4.002 0 007.748 0H36a1 1 0 100-2h-2.126a4.002 4.002 0 00-7.748 0H24v-4.877L25.78 23H39a1 1 0 100-2H25a1 1 0 00-.97.758L22.97 26H21v-7h18a1 1 0 100-2h-3V8a1 1 0 10-2 0v9H21v-3.771c.765.559 1.75 1.141 2.892 1.507 1.245.398 2.698.546 4.248.109 1.55-.438 3.114-1.438 4.62-3.194a1 1 0 10-1.52-1.302c-1.3 1.517-2.542 2.26-3.643 2.571-1.102.311-2.148.214-3.095-.089-1.676-.537-2.975-1.698-3.502-2.227V7.13c0-.022 0-.044-.002-.065a1 1 0 00-.05-.381l-2-6A1 1 0 0018 0h-4zm-1 26V8h2v1a1 1 0 102 0V8h2v18h-6zM4 10h7v16H4V10zm13-5v1h1.613l-1.334-4h-2.558l-1.334 4H15V5a1 1 0 112 0zm0 7a1 1 0 11-2 0 1 1 0 012 0zm-1 4a1 1 0 100-2 1 1 0 000 2zm1 2a1 1 0 11-2 0 1 1 0 012 0zm-1 4a1 1 0 100-2 1 1 0 000 2zm1 2a1 1 0 11-2 0 1 1 0 012 0zm-2 7a1 1 0 100 2h3a1 1 0 100-2h-3zm-8 1a1 1 0 011-1h3a1 1 0 110 2H8a1 1 0 01-1-1zm-6-1a1 1 0 100 2h3a1 1 0 100-2H1zm37.707-20.707a1 1 0 10-1.414 1.414l1 1a1 1 0 001.414-1.414l-1-1zM6 17a1 1 0 100 2h3a1 1 0 100-2H6zm-1-2a1 1 0 011-1h3a1 1 0 110 2H6a1 1 0 01-1-1zm1-4a1 1 0 100 2h3a1 1 0 100-2H6zM5 21a1 1 0 011-1h3a1 1 0 110 2H6a1 1 0 01-1-1zm1 2a1 1 0 100 2h3a1 1 0 100-2H6zm26 13a2 2 0 10-4 0 2 2 0 004 0zm-2-11a1 1 0 10-2 0v3h-1a1 1 0 100 2h2a1 1 0 001-1v-4zm2 0a1 1 0 011-1h5a1 1 0 011 1v4a1 1 0 01-1 1h-5a1 1 0 01-1-1v-4zm8 11a1 1 0 11-2 0 1 1 0 012 0zm-3-10h-3v2h3v-2z"/>
</svg>
