<svg xmlns="http://www.w3.org/2000/svg" viewBox="0 0 40 40" role="icon">
    <path fill-rule="evenodd" d="M20 34h1a1 1 0 010 2H5a1 1 0 010-2h1v-1a2 2 0 012-2h10a2 2 0 012 2v1zm-2 0v-1H8v1h10zm3.293-14.707l2-2L24.586 16 18 9.414 13.414 14 20 20.586l1.293-1.293zM25.414 18l4.293 4.293a1 1 0 01-1.414 1.414L24 19.414l-.586.586 9.293 9.293a.414.414 0 10.586-.586 1 1 0 011.414-1.414 2.414 2.414 0 01-3.414 3.414L22 21.414l-2.879 2.879a3 3 0 01-4.242 0L9.707 19.12a3 3 0 010-4.242l9.172-9.172a3 3 0 014.242 0l5.172 5.172a3 3 0 010 4.242L25.414 18zm-6-10L26 14.586l.879-.879a1 1 0 000-1.414L21.707 7.12a1 1 0 00-1.414 0L19.414 8zM12 15.414l-.879.879a1 1 0 000 1.414l5.172 5.172a1 1 0 001.414 0l.879-.879L12 15.414zM32 27a1 1 0 110-2 1 1 0 010 2z"/>
</svg>
