<svg viewBox="0 0 40 40" xmlns="http://www.w3.org/2000/svg" role="icon">
    <path fill-rule="evenodd" clip-rule="evenodd" d="M20.572 6.18A1 1 0 0121 7v5.31c2.603.964 4.728 1.495 6.767 1.636 2.195.152 4.35-.143 6.952-.905a1 1 0 01.562 1.92c-2.765.81-5.163 1.152-7.652.98-2.096-.145-4.214-.653-6.629-1.505V24a8 8 0 1016 0v-7a1 1 0 112 0v7c0 5.523-4.477 10-10 10s-10-4.477-10-9.999A9.985 9.985 0 0111 28C5.477 28 1 23.523 1 18V7a1 1 0 011.36-.933c3.406 1.315 5.995 1.925 8.566 1.917 2.575-.007 5.217-.633 8.73-1.923a1 1 0 01.916.119zM19 8.415V18a8 8 0 11-16 0V8.436c2.918 1.03 5.4 1.555 7.932 1.548 2.54-.007 5.067-.55 8.068-1.57zM9 17a1 1 0 001-1v-1.5a2.5 2.5 0 00-5 0V16a1 1 0 001 1h3zm-1-2.5v.5H7v-.5a.5.5 0 011 0zm9 1.5a1 1 0 01-1 1h-3a1 1 0 01-1-1v-1.5a2.5 2.5 0 015 0V16zm-2-1v-.5a.5.5 0 00-1 0v.5h1zm-8.584 4a1 1 0 00-.916 1.4 6.001 6.001 0 0011 0 1 1 0 00-.916-1.4H6.416zM11 22a3.985 3.985 0 01-2.646-1h5.292c-.706.623-1.632 1-2.646 1zm12-3a1 1 0 011-1h3a1 1 0 011 1v1.5a2.5 2.5 0 01-5 0V19zm2 1v.5a.5.5 0 001 0V20h-1zm6-2a1 1 0 00-1 1v1.5a2.5 2.5 0 005 0V19a1 1 0 00-1-1h-3zm1 2.5V20h1v.5a.5.5 0 01-1 0zm2.42 8.048a1 1 0 01-.836.452h-9.168a1 1 0 01-.916-1.4 6.001 6.001 0 0111 0 1 1 0 01-.08.948zM31.647 27A3.985 3.985 0 0029 26c-1.014 0-1.94.377-2.646 1h5.292zM38 14a1 1 0 100-2 1 1 0 000 2z"/>
</svg>
