<svg xmlns="http://www.w3.org/2000/svg" viewBox="0 0 40 40" role="icon">
    <path fill-rule="evenodd" d="M31 16h3a1 1 0 010 2h-4a1 1 0 01-1-1v-6h-4a1 1 0 01-.707-.293l-2-2a1 1 0 010-1.414l2-2A1 1 0 0125 5h4V3a1 1 0 012 0h4a1 1 0 01.707.293l2 2a1 1 0 010 1.414l-2 2A1 1 0 0135 9h-4v7zm-2-9h-3.586l-1 1 1 1H29V7zm2-1v1h3.586l1-1-1-1H31v1zm-7 26.17V23a1 1 0 011-1h12a1 1 0 011 1v12a3 3 0 11-2-2.83V24H26v3h4a1 1 0 010 2h-4v6a3 3 0 11-2-2.83zM13.992 18H3a1 1 0 01-1-1V7a1 1 0 011-1h2.586l3.707-3.707a1 1 0 011.414 0L14.414 6H17a1 1 0 011 1v10a1 1 0 01-1 1h-3.008zM4 9.586l3.127 3.127 2.318-1.545a1 1 0 011.336.207L14.48 16H16V8H4v1.586zm0 2.828V16h7.92l-2.128-2.66-2.237 1.492a1 1 0 01-1.262-.125L4 12.414zM8.414 6h3.172L10 4.414 8.414 6zM23 34a1 1 0 100 2 1 1 0 000-2zm12 0a1 1 0 100 2 1 1 0 000-2zm-8-18a1 1 0 010 2h-2a1 1 0 010-2h2zm-13-5a1 1 0 110-2 1 1 0 010 2zm19 18a1 1 0 110-2 1 1 0 010 2zm-23-7a8 8 0 110 16 8 8 0 010-16zm0 2a6 6 0 100 12 6 6 0 000-12zm7 5v2a8 8 0 01-8-8h2a6 6 0 006 6zM3 31v-1-1a8 8 0 018 8H9a6 6 0 00-6-6z"/>
</svg>
