<svg viewBox="0 0 40 40" xmlns="http://www.w3.org/2000/svg" role="icon">
    <path fill-rule="evenodd" clip-rule="evenodd" d="M19.553 7.106a1 1 0 01.894 0l3 1.5a1 1 0 11-.894 1.788L20 9.118 6.236 16l4.192 2.096.037.019L20 22.882l9.535-4.767.037-.02L33.764 16l-4.211-2.106a1 1 0 11.894-1.788l5.98 2.99A1 1 0 0137 16v6c0 .056-.005.112-.014.166A3.001 3.001 0 0139 25v4a1 1 0 01-1.447.894L36 29.118l-1.553.776A1 1 0 0133 29v-4c0-1.311.841-2.426 2.014-2.834A1.008 1.008 0 0135 22v-4.382l-4 2V27a1 1 0 01-.142.515L30 27l.857.515v.002l-.002.002-.004.006-.01.018-.014.02-.023.036c-.03.047-.072.11-.127.19-.11.157-.272.375-.487.632a12.385 12.385 0 01-1.955 1.872C26.466 31.653 23.757 33 20 33c-3.757 0-6.466-1.347-8.235-2.707A12.385 12.385 0 019.81 28.42a9.536 9.536 0 01-.614-.822 3.844 3.844 0 01-.036-.056l-.011-.018-.004-.006-.001-.002v-.002L10 27l-.857.515A1 1 0 019 27v-7.382l-5.447-2.724a1 1 0 010-1.788l16-8zM11 26.696v-6.078l8.553 4.276a1 1 0 00.894 0L29 20.618v6.077c-.08.113-.196.266-.346.446-.352.423-.894.994-1.639 1.566C25.534 29.847 23.243 31 20 31s-5.534-1.153-7.015-2.293a10.396 10.396 0 01-1.639-1.566 7.838 7.838 0 01-.346-.446zM35 25a1 1 0 112 0v2.382l-.553-.276a1 1 0 00-.894 0l-.553.276V25zm-9-13a1 1 0 100-2 1 1 0 000 2z"/>
</svg>
