<svg viewBox="0 0 40 40" xmlns="http://www.w3.org/2000/svg" role="icon">
    <path fill-rule="evenodd" clip-rule="evenodd" d="M3 4a1 1 0 011-1h2a1 1 0 010 2H5v1a1 1 0 01-2 0V4zm6 0a1 1 0 011-1h4a1 1 0 110 2h-4a1 1 0 01-1-1zm8 0a1 1 0 011-1h4a1 1 0 110 2h-4a1 1 0 01-1-1zm8 0a1 1 0 011-1h4a1 1 0 110 2h-4a1 1 0 01-1-1zm8 0a1 1 0 011-1h2a1 1 0 011 1v2a1 1 0 11-2 0V5h-1a1 1 0 01-1-1zM4 9a1 1 0 011 1v4a1 1 0 11-2 0v-4a1 1 0 011-1zm32 0a1 1 0 011 1v4a1 1 0 11-2 0v-4a1 1 0 011-1zM4 17a1 1 0 011 1v4a1 1 0 11-2 0v-4a1 1 0 011-1zm32 0a1 1 0 011 1v6c0 7.18-5.82 13-13 13h-6a1 1 0 110-2h4a3 3 0 003-3v-6a1 1 0 011-1h6a3 3 0 003-3v-4a1 1 0 011-1zM4 25a1 1 0 011 1v4a1 1 0 11-2 0v-4a1 1 0 011-1zm0 8a1 1 0 011 1v1h1a1 1 0 110 2H4a1 1 0 01-1-1v-2a1 1 0 011-1zm5 3a1 1 0 011-1h4a1 1 0 110 2h-4a1 1 0 01-1-1zm23-9a4.977 4.977 0 002.79-.85 11.013 11.013 0 01-8.64 8.64c.537-.797.85-1.757.85-2.79v-5h5z"/>
</svg>
