<svg xmlns="http://www.w3.org/2000/svg" viewBox="0 0 40 40" role="icon">
    <path fill-rule="evenodd" d="M18.123 22l.12.03a1 1 0 01-.486 1.94L14 23.03l-3 .75v4.44l22 5.5v-9.94l-11-2.75-3.877.97zM14 8.97l19.757-4.94A1 1 0 0135 5v12a1 1 0 01-.757.97L26.123 20l8.12 2.03A1 1 0 0135 23v12a1 1 0 01-1.243.97L14 31.03V39a1 1 0 01-2 0v-8.47l-2.243-.56A1 1 0 019 29V11a1 1 0 01.757-.97L12 9.47V3.534l-2-1.333-2 1.333V36a1 1 0 01-2 0V3a1 1 0 01.445-.832l3-2a1 1 0 011.11 0l3 2A1 1 0 0114 3v5.97zm.243 16.06l12.979 3.245a1 1 0 01-.485 1.94l-12.98-3.245a1 1 0 01.486-1.94zM11 11.78v9.94l22-5.5V6.28l-22 5.5zm3.243 7.19a1 1 0 01-.486-1.94l16-4a1 1 0 01.486 1.94l-16 4zm0-4a1 1 0 01-.486-1.94l4.034-1.008a1 1 0 01.485 1.94l-4.033 1.008zM7 40a1 1 0 110-2 1 1 0 010 2zm23-9a1 1 0 110-2 1 1 0 010 2z"/>
</svg>
