<svg xmlns="http://www.w3.org/2000/svg" viewBox="0 0 40 40" role="icon">
    <path fill-rule="evenodd" d="M15.414 26l-2.872 2.872a12.949 12.949 0 009.376 3.093c6.588-.507 11.518-6.259 11.011-12.847l-.926-12.041a1 1 0 011.994-.154l.926 12.042c.592 7.69-5.162 14.402-12.852 14.994a14.943 14.943 0 01-10.947-3.669l-5.417 5.417a1 1 0 11-1.414-1.414l5.417-5.417A14.943 14.943 0 016 19c0-7.712 6.252-13.964 13.964-13.964.358 0 .715.013 1.071.04l5.007.386a1 1 0 11-.153 1.994l-5.007-.385a11.964 11.964 0 00-.918-.035C13.357 7.036 8 12.392 8 19c0 3.23 1.178 6.185 3.128 8.458L14 24.586V15a1 1 0 012 0v7.586l8.293-8.293a1 1 0 011.414 1.414L17.414 24H25a1 1 0 010 2h-9.586zM29 7.69a1 1 0 110-2 1 1 0 010 2z"/>
</svg>
