<svg viewBox="0 0 40 40" xmlns="http://www.w3.org/2000/svg" role="icon">
    <path d="M34.9 27a.9.9 0 100-1.8.9.9 0 000 1.8z"/>
    <path fill-rule="evenodd" clip-rule="evenodd" d="M13.493 13.493a1 1 0 011.414 0l11.6 11.6a1 1 0 01-1.414 1.414l-11.6-11.6a1 1 0 010-1.414z"/>
    <path fill-rule="evenodd" clip-rule="evenodd" d="M26.507 13.493a1 1 0 010 1.414l-11.7 11.7a1 1 0 01-1.414-1.414l11.7-11.7a1 1 0 011.414 0z"/>
    <path fill-rule="evenodd" clip-rule="evenodd" d="M12.793 3.593A1 1 0 0113.5 3.3h13a1 1 0 01.707.293l9.2 9.2a1 1 0 01.293.707v10a1 1 0 01-2 0v-9.586L26.086 5.3H13.914L5.3 13.914v12.172l8.614 8.614h12.172l6.807-6.807a1 1 0 011.414 1.414l-7.1 7.1a1 1 0 01-.707.293h-13a1 1 0 01-.707-.293l-9.2-9.2A1 1 0 013.3 26.5v-13a1 1 0 01.293-.707l9.2-9.2z"/>
</svg>
