<svg viewBox="0 0 40 40" xmlns="http://www.w3.org/2000/svg" role="icon">
    <g clip-path="url(#clip0)">
        <path fill-rule="evenodd" clip-rule="evenodd" d="M1 11a7 7 0 0114 0v4.447l9.586-4.357a1 1 0 01.861.016l7 3.5a1 1 0 11-.894 1.788l-6.573-3.286-10.17 4.622L12.388 25H14a1 1 0 011 1v10h4v-7a1 1 0 011-1h10a1 1 0 011 1v7h4V26a1 1 0 011-1h1.461l-2.041-4.594a1 1 0 111.827-.812l2.667 6A1 1 0 0139 27h-2v10a1 1 0 01-1 1H2a1 1 0 01-1-1V11zm12 25v-6H7v6h6zm0-8v-1h-2a1 1 0 01-.949-1.316L11.28 22H7v6h6zm-1.054-8L13 16.838V14H7v6h4.946zm10.72 16h4.667L25 34.25 22.667 36zM5 36v-6H3v6h2zm0-8v-6H3v6h2zm0-8v-6H3v6h2zm1-8h7v-1a5 5 0 00-10 0v1h3zm16 7a1 1 0 011-1h4a1 1 0 011 1v4a1 1 0 01-1 1h-4a1 1 0 01-1-1v-4zm2 3h2v-2h-2v2zm-3 12.75L23.333 33 21 31.25v3.5zm8-3.5L26.667 33 29 34.75v-3.5zM22.667 30L25 31.75 27.333 30h-4.666zM36 17a1 1 0 11-2 0 1 1 0 012 0z"/>
    </g>
    <defs>
        <clipPath id="clip0">
            <path d="M0 0h40v40H0z"/>
        </clipPath>
    </defs>
</svg>
