<svg viewBox="0 0 40 40" xmlns="http://www.w3.org/2000/svg" role="icon">
    <path fill-rule="evenodd" clip-rule="evenodd" d="M5.5 18.1c0-6.752 5.548-12.3 12.3-12.3 6.752 0 12.3 5.548 12.3 12.3a1 1 0 11-2 0c0-5.648-4.652-10.3-10.3-10.3-5.648 0-10.3 4.652-10.3 10.3 0 5.648 4.652 10.3 10.3 10.3 2.812 0 5.373-1.179 7.31-3.024a1 1 0 011.397.017l7.7 7.7a1 1 0 01-1.414 1.414l-7.035-7.034C23.591 29.259 20.835 30.4 17.8 30.4c-6.752 0-12.3-5.548-12.3-12.3z"/>
    <path d="M28 23.4a1 1 0 100-2 1 1 0 000 2z"/>
</svg>
