<svg viewBox="0 0 40 40" xmlns="http://www.w3.org/2000/svg" role="icon">
    <mask id="a" maskUnits="userSpaceOnUse" x="1" y="13" width="19" height="22">
        <path d="M20 15.2l-7.5-2-7.5 2-3.1 19.2 9.1-4.6 9 4.6"/>
    </mask>
    <g mask="url(#a)">
        <path fill-rule="evenodd" clip-rule="evenodd" d="M11.927 12.38a1 1 0 01.83-.146l7.5 2A1 1 0 0121 15.2v19.2a1 1 0 01-1.455.89l-9-4.6a1 1 0 01-.54-.98l1.5-16.6a1 1 0 01.422-.73zm1.462 2.092l-1.332 14.745L19 32.766V15.969l-5.61-1.497z"/>
    </g>
    <path fill-rule="evenodd" clip-rule="evenodd" d="M12.242 12.234a.998.998 0 01.516 0l7.5 2a1 1 0 11-.516 1.932l-7.242-1.93-6.616 1.763L3.2 32.623l7.349-3.715a1 1 0 01.906.002l9 4.6a1 1 0 11-.91 1.78l-8.548-4.368-8.646 4.37a1 1 0 01-1.438-1.051l3.1-19.2a1 1 0 01.73-.807l7.5-2z"/>
    <mask id="b" maskUnits="userSpaceOnUse" x="20" y="13" width="19" height="22">
        <path d="M38.2 34.4l-9.1-4.6-9.1 4.6V15.2l7.5-2 7.5 2 3.2 19.2z"/>
    </mask>
    <g mask="url(#b)">
        <path fill-rule="evenodd" clip-rule="evenodd" d="M27.852 16.85a1 1 0 011.091.9l1.1 11.406 8.608 4.352a1 1 0 01-.902 1.784l-9.1-4.6a1 1 0 01-.544-.796l-1.153-11.954a1 1 0 01.9-1.092z"/>
    </g>
    <path fill-rule="evenodd" clip-rule="evenodd" d="M25.797 13.654a1 1 0 01-.709 1.224L21 15.968v16.806l7.04-3.558-1.1-11.401c-.053-.55.35-.038.9-.091s1.038-.65 1.091-.1l1.164 12.08a1 1 0 01-.544.988l-9.1 4.6A1 1 0 0119 34.4V15.2a1 1 0 01.742-.966l4.831-1.288a1 1 0 011.224.708z"/>
    <path fill-rule="evenodd" clip-rule="evenodd" d="M25.686 13.684a1 1 0 01-.709 1.224L21 15.968v16.806l7.649-3.866a1 1 0 01.902 0l7.338 3.709L34.119 16l-3.127-.834a1 1 0 01.516-1.932l3.75 1a1 1 0 01.728.802l3.2 19.2a1 1 0 01-1.437 1.056L29.1 30.92l-8.649 4.372A1 1 0 0119 34.4V15.2a1 1 0 01.742-.966l4.72-1.259a1 1 0 011.224.709z"/>
    <path fill-rule="evenodd" clip-rule="evenodd" d="M29.48 1.706a1 1 0 011.314-.525C33.24 2.229 35 4.678 35 7.501c0 .721-.214 1.556-.508 2.382-.3.845-.713 1.764-1.174 2.68-.922 1.832-2.07 3.717-2.986 5.092l-.013.019c-1.065 1.52-3.458 1.634-4.475-.057l-.002-.002-.03-.051c-.844-1.389-1.97-3.244-2.889-5.032-.466-.906-.889-1.815-1.197-2.652-.302-.817-.526-1.65-.526-2.38 0-2.589 1.52-4.91 3.614-6.074a1 1 0 11.972 1.748C24.28 4.011 23.2 5.69 23.2 7.5c0 .371.126.938.402 1.689.27.731.653 1.56 1.1 2.429.886 1.724 1.982 3.53 2.833 4.93l.023.038a.564.564 0 00.505.264c.23 0 .461-.105.612-.316.883-1.324 1.982-3.133 2.857-4.871.439-.872.813-1.71 1.076-2.449.269-.758.392-1.336.392-1.714 0-1.977-1.24-3.73-2.994-4.48a1 1 0 01-.525-1.314z"/>
    <path fill-rule="evenodd" clip-rule="evenodd" d="M28.1 5.6a1.9 1.9 0 100 3.8 1.9 1.9 0 000-3.8zm-3.9 1.9a3.9 3.9 0 117.8 0 3.9 3.9 0 01-7.8 0z"/>
    <path d="M27.9 2.7a.9.9 0 100-1.8.9.9 0 000 1.8z"/>
</svg>
