<svg viewBox="0 0 40 40" xmlns="http://www.w3.org/2000/svg" role="icon">
    <path fill-rule="evenodd" clip-rule="evenodd" d="M18.693 9.26a8.086 8.086 0 00-13.69 6.068 1 1 0 01-1.999.06A10.086 10.086 0 0120.08 7.82l.138.132c3.89-3.792 10.128-3.769 13.99.093 3.888 3.888 3.888 10.193 0 14.082l-.736.735-.001.002-12.728 12.728a1 1 0 01-1.415 0l-3.604-3.604a1 1 0 011.414-1.415l2.897 2.898L32.056 21.45l.737-.737A7.958 7.958 0 1021.487 9.512l-.537.546a1 1 0 01-1.407.02l-.85-.818.694-.72-.694.72zM16.99 12a1 1 0 01.968.713L20.744 22H24a1 1 0 110 2h-4a1 1 0 01-.958-.713l-2.005-6.684-4.073 14.665a1 1 0 01-1.925.007L7.927 20.383l-.978 2.933A1 1 0 016 24H4a1 1 0 110-2h1.28l1.771-5.316a1 1 0 011.91.041l3.025 10.587 4.05-14.58A1 1 0 0116.99 12zM1 24a1 1 0 100-2 1 1 0 000 2z"/>
</svg>
