<svg viewBox="0 0 40 40" xmlns="http://www.w3.org/2000/svg" role="icon">
    <path fill-rule="evenodd" clip-rule="evenodd" d="M14 3h1v9.772L5.85 31.836C4.255 35.156 6.674 39 10.356 39h19.286c3.682 0 6.1-3.844 4.508-7.164L27.9 18.817a1 1 0 10-1.802.866L27.69 23H12.309l4.592-9.567A1 1 0 0017 13V3h6v10a1 1 0 00.099.433l1.5 3.125a1 1 0 101.802-.866L25 12.772V3h1a1 1 0 100-2H14a1 1 0 100 2zm-2.65 22l-3.698 7.702C6.696 34.693 8.148 37 10.357 37h19.286c2.21 0 3.66-2.307 2.705-4.298L28.65 25H11.349z"/>
</svg>
