<svg viewBox="0 0 40 40" xmlns="http://www.w3.org/2000/svg" role="icon">
    <path fill-rule="evenodd" clip-rule="evenodd" d="M21 5a1 1 0 101 1 1 1 0 112 0 3.001 3.001 0 01-2 2.83v3.95l8.792-1.758a1.008 1.008 0 01.68.097 1.001 1.001 0 01.489.604L34.744 21H35a1 1 0 011 1v.05c0 2.742-2.25 4.95-4.975 4.95C28.272 27 26 24.77 26 22a1 1 0 011-1h.256l2.308-7.693L22 14.82V31h3a3 3 0 013 3v1h1a1 1 0 110 2H13a1 1 0 110-2h1v-1a3 3 0 013-3h3V15.22l-7.726 1.545L14.744 25H15a1 1 0 011 1v.05c0 2.742-2.25 4.95-4.975 4.95C8.272 31 6 28.77 6 26a1 1 0 011-1h.256l2.78-9.268a1.005 1.005 0 01.78-.715L20 13.18V8.83A3.001 3.001 0 0121 3a1 1 0 110 2zm-5 30h10v-1a1 1 0 00-1-1h-8a1 1 0 00-1 1v1zm-5-15.52L12.656 25H9.344L11 19.48zM32.656 21L31 15.48 29.344 21h3.312zM8.174 27c.417 1.162 1.54 2 2.851 2 1.302 0 2.415-.84 2.816-2H8.174zm22.851-2a3.035 3.035 0 01-2.851-2h5.667c-.401 1.16-1.514 2-2.816 2z"/>
</svg>
