<svg viewBox="0 0 40 40" xmlns="http://www.w3.org/2000/svg" role="icon">
    <path fill-rule="evenodd" clip-rule="evenodd" d="M9 15.054C9 8.944 13.93 4 20 4c1.637 0 3.188.359 4.581 1.001a1 1 0 00.838-1.816A12.911 12.911 0 0020 2C12.816 2 7 7.848 7 15.054c0 4.931 3.245 9.414 6.28 12.557a41.928 41.928 0 005.624 4.846 25.427 25.427 0 00.504.35l.03.02.008.006.002.001h.001L20 32l-.55.835a1 1 0 001.124-.016L20 32l.574.819.001-.001.003-.002.008-.005.029-.02.106-.078a42.501 42.501 0 001.787-1.387 46.218 46.218 0 004.218-3.91C29.746 24.226 33 19.739 33 15.054c0-2.388-.639-4.628-1.756-6.555a1 1 0 10-1.73 1.002A11.04 11.04 0 0131 15.054c0 3.852-2.746 7.838-5.726 10.987a44.23 44.23 0 01-5.29 4.73 39.922 39.922 0 01-5.265-4.548C11.755 23.152 9 19.162 9 15.052zm1.894 13.393a1 1 0 10-1.788-.894l-4 8A1 1 0 006 37h28a1 1 0 00.894-1.447l-4-8a1 1 0 10-1.788.894L32.382 35H7.618l3.276-6.553zM20 12a3 3 0 100 6 3 3 0 000-6zm-5 3a5 5 0 1110 0 5 5 0 01-10 0zm13-8a1 1 0 100-2 1 1 0 000 2z"/>
</svg>
