<svg viewBox="0 0 40 40" xmlns="http://www.w3.org/2000/svg" role="icon">
    <path fill-rule="evenodd" clip-rule="evenodd" d="M29.954 2.702a1 1 0 00-1.594-.47l-11.993 9.994a.984.984 0 00-.265.334A.995.995 0 0016 13v9h-4v-6h2a1 1 0 100-2h-3a1 1 0 00-1 1v7H7a1 1 0 00-1 1v5a1 1 0 102 0v-4h9a1 1 0 001-1v-8.917c2.838.476 5 2.944 5 5.917v8a1 1 0 102 0v-8a8.003 8.003 0 00-5.656-7.651l6.04-5.034 1.667 5.001a1 1 0 001.898-.632L27.034 5.94l1.457-1.215L32.64 18H28a1 1 0 00-1 1v2a5 5 0 0010 0v-2a1 1 0 00-1-1h-1.265l-4.78-15.298zM29 20H35v1a3 3 0 11-6 0v-1zM5 34a2 2 0 012-2h17a2 2 0 110 4H7a2 2 0 01-2-2zm2-4a4 4 0 000 8h17a4 4 0 000-8H7zm1 4a1 1 0 10-2 0 1 1 0 002 0zm16-1a1 1 0 110 2 1 1 0 010-2z"/>
</svg>
