<svg xmlns="http://www.w3.org/2000/svg" viewBox="0 0 40 40" role="icon">
    <path fill-rule="evenodd" d="M12 4V1a1 1 0 011-1h14a1 1 0 011 1v3h5a1 1 0 011 1v3a1 1 0 01-2 0V6H8v33a1 1 0 01-1 1H3a1 1 0 010-2h3V5a1 1 0 011-1h5zm2 0h12V2H14v2zm14 34h4V15a1 1 0 012 0v23h3a1 1 0 010 2H27a1 1 0 01-1-1v-7h-2v7a1 1 0 01-2 0v-8a1 1 0 011-1h4a1 1 0 011 1v7zm-6-16v-7a1 1 0 011-1h4a1 1 0 011 1v7h1a1 1 0 010 2H16v6.1a5.002 5.002 0 01-1 9.9h-4a1 1 0 010-2h3v-6.1a5.002 5.002 0 011-9.9h7zm2 0h2v-6h-2v6zm-6.17 12A3.008 3.008 0 0016 32.17V34h1.83zm0 2H16v1.83A3.008 3.008 0 0017.83 36zM14 29.83V28h-1.83A3.008 3.008 0 0014 29.83zM12.17 26H14v-1.83A3.008 3.008 0 0012.17 26zM15 12a3 3 0 013 3v4a1 1 0 01-1 1h-4a1 1 0 01-1-1v-4a3 3 0 013-3zm1 6v-3a1 1 0 00-2 0v3h2zm8-6a1 1 0 010-2h2a1 1 0 010 2h-2zm0 16a1 1 0 010-2h2a1 1 0 010 2h-2zm9-16a1 1 0 110-2 1 1 0 010 2z"/>
</svg>
