<svg viewBox="0 0 40 40" xmlns="http://www.w3.org/2000/svg" role="icon">
    <g clip-path="url(#clip0)">
        <path fill-rule="evenodd" clip-rule="evenodd" d="M24.268 3.674a1 1 0 01.836.732l1.574 5.876a6.002 6.002 0 013.063 11.431l1.575 5.876a1 1 0 01-1.466 1.125L28.095 27.7a14.593 14.593 0 00-11.074-1.458l-3.79 1.015 5.935 6.692 1.704-.457-1.894-2.135a1 1 0 011.497-1.327l2.967 3.346a1 1 0 01-.49 1.63l-3.863 1.035a1 1 0 01-1.007-.303l-7.008-7.902-1.335.357a7 7 0 01-3.623-13.523l1.931-.517 5.353-1.434a14.594 14.594 0 008.86-6.8l1.014-1.755a1 1 0 01.997-.491zm-16.67 12.67l-.967.26a5 5 0 102.588 9.658l.966-.258-2.588-9.66zm1.931-.517l4.386-1.175a16.594 16.594 0 009.88-7.402l1.189 4.436 2.588 9.659 1.189 4.435a16.594 16.594 0 00-12.258-1.47l-4.386 1.176-2.588-9.66zm21.579-.606a4.002 4.002 0 00-3.9-2.965l2.004 7.484a4.002 4.002 0 001.896-4.519zm3.863-1.035a1 1 0 01.707-1.225l2.898-.776a1 1 0 11.518 1.931l-2.898.777a1 1 0 01-1.225-.707zm-.904-9.405a1 1 0 10-1.767-.938l-1.602 3.018a1 1 0 101.767.938l1.601-3.018zm.53 16.537a1 1 0 011.367-.366l2.851 1.647a1 1 0 11-1 1.732l-2.851-1.646a1 1 0 01-.367-1.366zm-16.356 7.703a1 1 0 10-.517-1.931 1 1 0 00.517 1.931z"/>
    </g>
    <defs>
        <clipPath id="clip0">
            <path d="M0 0h40v40H0V0z"/>
        </clipPath>
    </defs>
</svg>
