<svg xmlns="http://www.w3.org/2000/svg" viewBox="0 0 40 40" role="icon">
    <path fill-rule="evenodd" d="M33 3a1 1 0 010 2H13v27a4.978 4.978 0 01-1 3.001L32 35a3 3 0 003-3V8a1 1 0 012 0v24a5 5 0 01-5 5H8a5 5 0 01-4.995-4.783L3 32V14a3 3 0 015.995-.176L9 14v18a1 1 0 01-1.993.117L7 32V14a1 1 0 00-1.993-.117L5 14v18a3 3 0 005.995.176L11 32V4a1 1 0 01.883-.993L12 3h21zm-1 28a1 1 0 01.117 1.993L32 33H16a1 1 0 01-.117-1.993L16 31h16zm0-4a1 1 0 01.117 1.993L32 29H16a1 1 0 01-.117-1.993L16 27h16zm0-4a1 1 0 01.117 1.993L32 25H16a1 1 0 01-.117-1.993L16 23h16zm0-4a1 1 0 01.117 1.993L32 21H16a1 1 0 01-.117-1.993L16 19h16zm0-4a1 1 0 01.117 1.993L32 17h-4a1 1 0 01-.117-1.993L28 15h4zm-8-8a1 1 0 011 1v8a1 1 0 01-1 1h-8a1 1 0 01-1-1V8a1 1 0 011-1h8zm-1 2h-6v6h6V9zm9 2a1 1 0 01.117 1.993L32 13h-4a1 1 0 01-.117-1.993L28 11h4zm4-8a1 1 0 110 2 1 1 0 010-2z"/>
</svg>
