<svg xmlns="http://www.w3.org/2000/svg" viewBox="0 0 40 40" role="icon">
    <path fill-rule="evenodd" d="M18 3c8.284 0 15 6.716 15 15 0 3.782-1.4 7.237-3.71 9.875l7.417 7.418a1 1 0 01-1.32 1.497l-.094-.083-7.418-7.416A14.943 14.943 0 0118 33C9.716 33 3 26.284 3 18 3 9.716 9.716 3 18 3zm0 2c-1.772 0-3.46.354-5 .996a3 3 0 002.824 2.999L16 9h8a1 1 0 01.117 1.993L24 11h-8a5.002 5.002 0 01-4.904-4.018A12.991 12.991 0 005 18c0 7.18 5.82 13 13 13s13-5.82 13-13S25.18 5 18 5zm4.838 18.809l.222.103.387.194a1 1 0 01-.787 1.835l-.107-.047-.388-.193a2.107 2.107 0 00-1.962.04l-.148.091-.19.118a3.704 3.704 0 01-3.72.006l-.2-.124-.148-.09a2.107 2.107 0 00-1.804-.112l-.158.07-.388.194a1 1 0 01-.996-1.73l.102-.058.387-.194a4.107 4.107 0 013.907.126l.208.13.135.081a1.704 1.704 0 001.62 0l.135-.081.208-.13a4.107 4.107 0 013.685-.229zm-11.225-9.6l.094.084L13 15.585l1.293-1.292a1 1 0 011.32-.083l.094.083a1 1 0 01.083 1.32l-.083.094L14.415 17l1.292 1.293a1 1 0 01.083 1.32l-.083.094a1 1 0 01-1.32.083l-.094-.083L13 18.415l-1.293 1.292a1 1 0 01-1.32.083l-.094-.083a1 1 0 01-.083-1.32l.083-.094L11.585 17l-1.292-1.293a1 1 0 01-.083-1.32l.083-.094a1 1 0 011.32-.083zm10 0l.094.084L23 15.585l1.293-1.292a1 1 0 011.32-.083l.094.083a1 1 0 01.083 1.32l-.083.094L24.415 17l1.292 1.293a1 1 0 01.083 1.32l-.083.094a1 1 0 01-1.32.083l-.094-.083L23 18.415l-1.293 1.292a1 1 0 01-1.32.083l-.094-.083a1 1 0 01-.083-1.32l.083-.094L21.585 17l-1.292-1.293a1 1 0 01-.083-1.32l.083-.094a1 1 0 011.32-.083z"/>
</svg>
