<svg xmlns="http://www.w3.org/2000/svg" viewBox="0 0 40 40" role="icon">
    <path fill-rule="evenodd" d="M20 1a3 3 0 013 3l.001 2.414C27.618 7.721 31 11.965 31 17a1 1 0 01-2 0 9 9 0 00-17.996-.265L11 17v5.528c0 2.053-.764 3.99-2.081 5.473L28 28a1 1 0 01.117 1.993L28 30H7v2h26v-2.409l-.253-.158a8.237 8.237 0 01-3.573-5.219 1 1 0 111.958-.41 6.237 6.237 0 003.315 4.302 1 1 0 01.545.77L35 29v4a1 1 0 01-.883.993L34 34l-9 .001A5 5 0 0115 34H6a1 1 0 01-.993-.883L5 33v-4l.007-.117a.996.996 0 01.021-.12l.013-.046a.892.892 0 01.025-.074l.01-.025a.897.897 0 01.06-.122l.017-.028.018-.027a1.143 1.143 0 01.101-.127 1.01 1.01 0 01.263-.2l.018-.008a6.236 6.236 0 003.442-5.326L9 22.528V17c0-5.035 3.383-9.28 8-10.586V4a3 3 0 013-3zm.375 33H19.5l-2.5.005a3 3 0 002.824 2.99L20 37a3 3 0 003-2.993L20.375 34zM30 19a1 1 0 110 2 1 1 0 010-2zm-10-9a1 1 0 010 2 5 5 0 00-5 5 1 1 0 01-2 0 7 7 0 017-7zm0-7a1 1 0 00-1 1v2h2V4a1 1 0 00-1-1z"/>
</svg>
