<svg xmlns="http://www.w3.org/2000/svg" viewBox="0 0 40 40" role="icon">
    <path fill-rule="evenodd" d="M21 18.465l8.555 5.703A1 1 0 0130 25v3h5a1 1 0 011 1v3h1a1 1 0 011 1v4a1 1 0 01-2 0v-3h-6v3a1 1 0 01-2 0V25.535l-8-5.333-8 5.333V37a1 1 0 01-2 0v-3H4v3a1 1 0 01-2 0v-4a1 1 0 011-1h1v-3a1 1 0 011-1h5v-3a1 1 0 01.445-.832L19 18.465V3a1 1 0 012 0v.706a10.487 10.487 0 015.316.345c1.742.581 3.626.581 5.368 0a1 1 0 01.632 1.898c-2.152.717-4.48.717-6.632 0A8.487 8.487 0 0021 5.752v5.954a10.487 10.487 0 015.316.345c1.517.506 3.14.571 4.684.197V11a1 1 0 012 0v2a1 1 0 01-.684.949c-2.152.717-4.48.717-6.632 0A8.487 8.487 0 0021 13.752v4.713zM10 30H6v2h4v-2zm20 0v2h4v-2h-4zm-10-6a6 6 0 110 12 6 6 0 010-12zm0 2a4 4 0 100 8 4 4 0 000-8zm1 2v1.586l.707.707a1 1 0 01-1.414 1.414l-1-1A1 1 0 0119 30v-2a1 1 0 012 0zM32 9a1 1 0 110-2 1 1 0 010 2z"/>
</svg>
