<svg viewBox="0 0 40 40" xmlns="http://www.w3.org/2000/svg" role="icon">
    <path fill-rule="evenodd" clip-rule="evenodd" d="M12 31V5h18a1 1 0 100-2H11a1 1 0 00-1 1v27H3a1 1 0 00-1 1 5 5 0 005 5h22a5 5 0 005-5V8a1 1 0 10-2 0v24a3 3 0 11-6 0 1 1 0 00-1-1H12zm17-6H15a1 1 0 100 2h14a1 1 0 100-2zm-14-4h12a1 1 0 110 2H15a1 1 0 110-2zm14-4H15a1 1 0 100 2h14a1 1 0 100-2zm-14-4h12a1 1 0 110 2H15a1 1 0 110-2zm4-4h-4a1 1 0 100 2h4a1 1 0 100-2zM7 35h18a4.977 4.977 0 01-.9-2H4.17A3.001 3.001 0 007 35zM34 4a1 1 0 11-2 0 1 1 0 012 0z"/>
</svg>
