<svg xmlns="http://www.w3.org/2000/svg" viewBox="0 0 40 40" role="icon">
    <path fill-rule="evenodd" d="M28 30.5V35a1 1 0 01-2 0V24a6 6 0 10-12 0v11a1 1 0 01-2 0V24a4 4 0 10-8 0v9a1 1 0 01-2 0v-9a6 6 0 0110.832-3.557 8 8 0 0115.155 3.097A6 6 0 0138 28v2a1 1 0 01-2 0v-2a4 4 0 10-8 0v2.5zM8 6a5 5 0 110 10A5 5 0 018 6zm0 2a3 3 0 100 6 3 3 0 000-6zm12-4a5 5 0 110 10 5 5 0 010-10zm0 2a3 3 0 100 6 3 3 0 000-6zm12 6a4 4 0 110 8 4 4 0 010-8zm0 2a2 2 0 100 4 2 2 0 000-4zm5 20a1 1 0 110-2 1 1 0 010 2z"/>
</svg>
