<svg viewBox="0 0 40 40" xmlns="http://www.w3.org/2000/svg" role="icon">
    <path fill-rule="evenodd" clip-rule="evenodd" d="M6.651 17.484a1 1 0 011.265-.633l2.4.8a1 1 0 01.532.42l3.475 5.56.041.05c.048.06.125.15.23.265.212.23.54.554.984.914.89.718 2.244 1.57 4.087 2.076l.022.006a95.628 95.628 0 014.65 1.516 55.96 55.96 0 011.53.572l.008.003.045.005c.086.01.208.015.342.003.231-.02.438-.085.6-.218a.765.765 0 00-.017-.125c-.041-.197-.147-.452-.306-.736a6.806 6.806 0 00-.62-.916l-.153-.1a13.84 13.84 0 00-.728-.435c-.616-.344-1.413-.727-2.206-.947-1.138-.317-1.846-.936-2.266-1.513a3.53 3.53 0 01-.418-.75 2.85 2.85 0 01-.12-.37l-.003-.008v-.003l-.002-.006v-.003l-.004-.018a1.933 1.933 0 01-.03-.188 3.074 3.074 0 01.342-1.803c.584-1.086 1.852-1.889 4.115-2 1.013-.06 1.94.149 2.595.358a8.18 8.18 0 011.097.44l.02.012.008.003.003.002s.002 0-.469.883l.47-.882c.112.06.212.14.293.236l2.2 2.6a1 1 0 01.223.81l-.3 1.8a1 1 0 01-1.972-.328l.223-1.343-1.763-2.084-.037-.017a6.23 6.23 0 00-.604-.227c-.518-.165-1.189-.307-1.874-.267h-.01c-1.834.09-2.314.687-2.456.95a1.074 1.074 0 00-.118.623l.002.011a1.541 1.541 0 00.207.392c.18.248.522.579 1.184.763 1.007.28 1.96.746 2.644 1.127a15.961 15.961 0 011.071.655l.066.045.019.013.006.004.001.001h.001l-.576.818.76-.65.003.003.006.008.02.023.066.08a8.997 8.997 0 01.83 1.224c.205.366.418.823.517 1.302.099.471.116 1.114-.283 1.684a.968.968 0 01-.072.09c-.629.708-1.436.92-2.01.97a3.816 3.816 0 01-1.022-.05l-.024-.006-.009-.002h-.004l-.001-.001s-.002 0 .223-.975l-.225.974a.996.996 0 01-.153-.048m0 0l-.005-.002-.016-.007-.072-.028a54.117 54.117 0 00-1.465-.547 93.642 93.642 0 00-4.54-1.48 13.231 13.231 0 01-4.802-2.446c-.53-.429-.928-.822-1.198-1.115a7.888 7.888 0 01-.418-.493l-.008-.01-.003-.005-.001-.002.806-.59-.807.59a1.017 1.017 0 01-.041-.06l-3.31-5.296-2.058-.686a1 1 0 01-.633-1.265M26.6 26.3l.76-.65a1.01 1.01 0 00-.184-.167l-.576.817zm-4.623-3.814l-.002-.008v.003l.002.001v.004z"/>
    <path fill-rule="evenodd" clip-rule="evenodd" d="M16.639 10.925a1 1 0 011.236-.687l9.8 2.8a.993.993 0 01.079.027L27.4 14l.354-.935h.002l.004.002.011.004.038.015.135.055a16.573 16.573 0 011.99.998c1.142.675 2.599 1.732 3.43 3.157l.008.014a49.876 49.876 0 002.06 3.335l.01.014-.842.541.841-.54.002.002.002.004.006.008.014.024a3.078 3.078 0 01.168.313c.096.2.213.482.307.826.186.681.29 1.65-.097 2.695-.246.74-.566 1.749-.826 2.58l-.329 1.054-.132.428-.956-.294-.956-.294.134-.432.33-1.06a171.12 171.12 0 01.856-2.665c.205-.547.16-1.072.046-1.486a2.896 2.896 0 00-.243-.607l-.01-.017a51.825 51.825 0 01-2.124-3.442c-.57-.972-1.661-1.813-2.717-2.436a14.593 14.593 0 00-1.836-.912l-9.755-2.787a1 1 0 01-.686-1.237zM33.6 28.3l-.956-.294a1 1 0 101.912.588L33.6 28.3z"/>
    <path fill-rule="evenodd" clip-rule="evenodd" d="M28.9 26.3c-.8 0-1.495.24-2.019.614a1 1 0 01-1.162-1.628c.876-.625 1.98-.986 3.181-.986 3.052 0 5.5 2.448 5.5 5.5 0 2.962-2.161 5.6-5.3 5.6-2.997 0-5.8-2.494-5.8-5.6a1 1 0 012 0c0 1.894 1.797 3.6 3.8 3.6 1.861 0 3.3-1.562 3.3-3.6 0-1.948-1.552-3.5-3.5-3.5zM8.079 6.11a1 1 0 011.31-.531l2.6 1.1a1 1 0 01.544 1.28l-4.5 11.7a1 1 0 11-1.866-.718l4.152-10.797-1.709-.723a1 1 0 01-.531-1.31z"/>
    <path fill-rule="evenodd" clip-rule="evenodd" d="M3.592 17.681a1 1 0 011.327-.489l2.6 1.2a1 1 0 01-.838 1.816l-2.6-1.2a1 1 0 01-.489-1.327z"/>
    <path d="M14.2 11.2a1 1 0 100-2 1 1 0 000 2z"/>
</svg>
