<svg viewBox="0 0 40 40" xmlns="http://www.w3.org/2000/svg" role="icon">
    <path d="M27.6 17.4h5.7c.5 0 1-.4 1-1 0-.5-.4-1-1-1h-5.7c-.5 0-1 .4-1 1 .1.6.5 1 1 1zM27.6 22.2h3.8c.5 0 1-.4 1-1s-.4-1-1-1h-3.8c-.5 0-1 .4-1 1s.5 1 1 1zM27.6 26.9h4.8c.5 0 1-.4 1-1 0-.5-.4-1-1-1h-4.8c-.5 0-1 .4-1 1 .1.6.5 1 1 1z"/>
    <path d="M36.2 7.9H4.8c-.5 0-1 .4-1 1 0 .5.4 1 1 1h31.5c.5 0 1 .4 1 1v21c0 .5-.4 1-1 1H3.8c-.5 0-1-.4-1-1v-20c0-.5-.4-1-1-1s-1 .4-1 1v20c0 1.6 1.3 2.9 2.9 2.9h32.4c1.6 0 2.9-1.3 2.9-2.9v-21c.1-1.8-1.2-3-2.8-3z"/>
    <path d="M23.8 21.3c0-5.3-4.3-9.6-9.5-9.6S4.8 16 4.8 21.3s4.3 9.6 9.5 9.6 9.5-4.3 9.5-9.6zm-17.1 0c0-4.2 3.4-7.7 7.6-7.7 4.2 0 7.6 3.4 7.6 7.7 0 4.3-3.4 7.7-7.6 7.7-4.2 0-7.6-3.5-7.6-7.7zM1.9 9.8a1 1 0 100-2 1 1 0 000 2z"/>
    <path fill-rule="evenodd" clip-rule="evenodd" d="M19.019 17.815a1 1 0 01.167 1.404l-5.2 6.6a1 1 0 01-1.288.246l-3.1-1.8a1 1 0 111.004-1.73l2.35 1.365 4.662-5.919a1 1 0 011.405-.166z"/>
</svg>
