<svg viewBox="0 0 40 40" xmlns="http://www.w3.org/2000/svg" role="icon">
    <path fill-rule="evenodd" clip-rule="evenodd" d="M3 9a4 4 0 118 0v22a1 1 0 11-2 0 2 2 0 10-2 2h28V11H14a1 1 0 110-2h22a1 1 0 011 1v24a1 1 0 01-1 1H7a4 4 0 112-7.465V9a2 2 0 10-4 0v13a1 1 0 11-2 0V9zm16.076 21.383a1 1 0 01.217-1.09l12-12A1 1 0 0133 18v12a1 1 0 01-1 1H20a1 1 0 01-.924-.617zM22.414 29H31v-8.586L22.414 29zM14 14a1 1 0 100 2h10a1 1 0 100-2H14zm0 3a1 1 0 100 2h8a1 1 0 100-2h-8zM4 26a1 1 0 100-2 1 1 0 000 2z"/>
</svg>
