<svg xmlns="http://www.w3.org/2000/svg" viewBox="0 0 40 40" role="icon">
    <path fill-rule="evenodd" d="M14 9a1 1 0 01.117 1.993L14 11H3a1 1 0 00-.993.883L2 12v20a1 1 0 00.883.993L3 33h34c.511 0 .935-.388.993-.884L38 32v-6a1 1 0 011.993-.117L40 26v6a3.003 3.003 0 01-2.824 2.995L37 35H3a3 3 0 01-2.995-2.824L0 32V12a3 3 0 012.824-2.995L3 9h11zm-1 4a9 9 0 110 18 9 9 0 010-18zm0 2a7 7 0 100 14 7 7 0 000-14zm-2.475 9.596a3.5 3.5 0 004.95 0 1 1 0 011.414 1.414 5.5 5.5 0 01-7.778 0 1 1 0 111.414-1.414zM28 25a1 1 0 010 2h-2a1 1 0 010-2h2zm4-4a1 1 0 010 2h-6a1 1 0 010-2h6zm7 0a1 1 0 110 2 1 1 0 010-2zM37 9a3 3 0 012.995 2.824L40 12v6a1 1 0 01-1.993.117L38 18v-6l-.007-.117a1 1 0 00-.876-.876L37 11H26a1 1 0 01-.117-1.993L26 9h11zm-3 8a1 1 0 010 2h-8a1 1 0 010-2h8zM23 5a1 1 0 011 1v4a1 1 0 01-1 1h-6a1 1 0 01-1-1V6a1 1 0 011-1h6zm-1 2h-4v2h4V7z"/>
</svg>
