<svg viewBox="0 0 40 40" xmlns="http://www.w3.org/2000/svg" role="icon">
    <path fill-rule="evenodd" clip-rule="evenodd" d="M6.52 4.075a1 1 0 011.305.545l12.6 30.7a1 1 0 11-1.85.76l-12.6-30.7a1 1 0 01.545-1.305z"/>
    <path fill-rule="evenodd" clip-rule="evenodd" d="M6.015 4.534a1 1 0 011.35-.419L6.9 5l.466-.885.004.002.026.013.112.056c.101.05.254.121.451.208.395.174.964.405 1.652.63 1.388.455 3.208.869 5.039.777 1.948-.097 3.237-.315 4.02-.5.392-.092.657-.175.814-.231a2.854 2.854 0 00.226-.091l.39.921c-.39-.921-.39-.921-.389-.922h.002l.003-.001.007-.003.02-.009.065-.024c.052-.02.125-.046.217-.077a8.25 8.25 0 01.774-.209 11.484 11.484 0 012.75-.255c2.319.055 5.468.766 8.939 3.291a1 1 0 01-.515 1.806h-.005l-.029.003a14.173 14.173 0 00-.588.067c-.403.055-.97.147-1.615.295-1.312.301-2.866.815-4.06 1.656-1.333.937-3.144 2.302-4.631 3.439a351.382 351.382 0 00-2.428 1.873l-.2.157-.617-.787-.616-.788.204-.16.56-.434c.475-.369 1.136-.88 1.882-1.45 1.488-1.138 3.327-2.524 4.694-3.486 1.451-1.02 3.22-1.602 4.611-1.933-2.222-1.166-4.165-1.515-5.634-1.55a9.488 9.488 0 00-2.269.208 6.26 6.26 0 00-.72.205l-.013.005a4.834 4.834 0 01-.346.137c-.23.083-.566.187-1.024.294-.917.216-2.327.448-4.38.55-2.168.11-4.249-.378-5.76-.873a20.209 20.209 0 01-1.836-.7 15.319 15.319 0 01-.662-.31l-.04-.02-.01-.007-.005-.002c-.001 0-.002-.001.464-.886l-.466.885a1 1 0 01-.42-1.35zm14.47 2.29l.001-.002-.002.001zM17.8 16.2l-.616-.788a1 1 0 101.233 1.575L17.8 16.2z"/>
    <path d="M15 18.7a1 1 0 100-2 1 1 0 000 2z"/>
</svg>
