<svg viewBox="0 0 40 40" xmlns="http://www.w3.org/2000/svg" role="icon">
    <path d="M16.8 12.9l-.496-.868a1 1 0 00.992 1.736l.009-.005a3.86 3.86 0 01.277-.139c.199-.093.482-.214.817-.324.693-.227 1.495-.369 2.195-.222.782.165 1.259.464 1.526.688a1.888 1.888 0 01.313.332c.012.02.023.04.036.058l.006.009c.006.01.019.03.035.06a3.402 3.402 0 01.412 1.19c.095.675-.012 1.544-1.02 2.382a5.613 5.613 0 00-.447.35A7.15 7.15 0 0019 23.6a1 1 0 001.999 0c0-1.438.524-2.481 1.047-3.171.263-.348.526-.604.717-.77a3.577 3.577 0 01.273-.215l.008-.005c.03-.02.059-.041.087-.064 1.661-1.353 1.95-2.972 1.77-4.24a5.409 5.409 0 00-.735-2.036l-.016-.025a2.828 2.828 0 00-.188-.27 3.876 3.876 0 00-.558-.57c-.508-.426-1.281-.877-2.399-1.113-1.2-.252-2.398.006-3.23.279a9.308 9.308 0 00-1.433.61l-.026.014-.008.005-.003.001-.001.001.495.869zM21 28.1a1 1 0 11-2 0 1 1 0 012 0z"/>
    <path fill-rule="evenodd" clip-rule="evenodd" d="M3.3 20c0-9.223 7.477-16.7 16.7-16.7 9.223 0 16.7 7.477 16.7 16.7 0 9.223-7.477 16.7-16.7 16.7-9.223 0-16.7-7.477-16.7-16.7zM20 5.3C11.882 5.3 5.3 11.882 5.3 20c0 8.119 6.582 14.7 14.7 14.7 8.119 0 14.7-6.581 14.7-14.7 0-8.118-6.581-14.7-14.7-14.7z"/>
</svg>
