<svg xmlns="http://www.w3.org/2000/svg" viewBox="0 0 40 40" role="icon">
    <path fill-rule="evenodd" d="M8 14.682c0 8.184 4.67 15.634 12 19.211a21.378 21.378 0 0011.964-17.965 1 1 0 011.996.116c-.5 8.6-5.699 16.245-13.54 19.864a1 1 0 01-.84 0A23.377 23.377 0 016 14.682V9a1 1 0 011-1h1.597c3.918 0 7.719-1.333 10.778-3.78a1 1 0 011.25 0A17.254 17.254 0 0031.403 8H33a1 1 0 010 2h-1.597C27.294 10 23.3 8.686 20 6.26A19.254 19.254 0 018.597 10H8v4.682zM19 14a1 1 0 012 0v8a1 1 0 01-2 0v-8zm14-1a1 1 0 110-2 1 1 0 010 2zM20 25a1 1 0 110 2 1 1 0 010-2z"/>
</svg>
