<svg viewBox="0 0 40 40" xmlns="http://www.w3.org/2000/svg" role="icon">
    <path d="M14 38a1 1 0 100-2 1 1 0 000 2z"/>
    <path fill-rule="evenodd" clip-rule="evenodd" d="M8 16.6V36h3a1 1 0 110 2H7.8c-.54 0-1.02-.226-1.35-.617A1.977 1.977 0 016 36.1V16.4c0-1.132.931-1.8 1.8-1.8h24.3c1.132 0 1.8.931 1.8 1.8v19.8c0 1.133-.931 1.8-1.8 1.8H18a1 1 0 110-2h13.9V16.6H8zm.003 19.536v-.002.002z"/>
    <path fill-rule="evenodd" clip-rule="evenodd" d="M19.6 4c-2.948 0-5.4 2.452-5.4 5.4v5.7a1 1 0 01-2 0V9.4c0-4.052 3.348-7.4 7.4-7.4h.9c4.052 0 7.4 3.348 7.4 7.4v5.7a1 1 0 01-2 0V9.4c0-2.948-2.452-5.4-5.4-5.4h-.9zM20.1 21.8a3.2 3.2 0 100 6.4 3.2 3.2 0 000-6.4zM14.9 25a5.2 5.2 0 1110.4 0 5.2 5.2 0 01-10.4 0z"/>
    <path fill-rule="evenodd" clip-rule="evenodd" d="M20 28.6a1 1 0 011 1V33a1 1 0 11-2 0v-3.4a1 1 0 011-1z"/>
</svg>
