<svg viewBox="0 0 40 40" xmlns="http://www.w3.org/2000/svg" role="icon">
    <title>
        Illustrative Icon/Editorial/service
    </title>
    <path d="M5 21a1 1 0 01.993.883L6 22v.522l2.09-.835a5 5 0 013.581-.051l.246.098 9.911 4.247 5.876-2.61c.057-.026.115-.05.173-.072l.175-.063a3.873 3.873 0 014.488 1.588l1.591-.682.269-.103a3.628 3.628 0 014.528 2.09 3.82 3.82 0 01-1.783 4.807l-.182.089L19.15 39.12a5 5 0 01-4.065.032l-.24-.112-2.293-1.147a1 1 0 01.787-1.835l.107.047 2.293 1.146a3 3 0 002.391.127l.192-.079 17.812-8.096a1.82 1.82 0 00.937-2.333 1.628 1.628 0 00-1.976-.955l-.14.049-11.259 4.825a3.34 3.34 0 01-3.97 1.288l-.176-.072-6.957-3.092a1 1 0 01.703-1.869l.11.041 6.956 3.092a1.34 1.34 0 001.743-.625l.014-.03.013-.03.042-.113a1.109 1.109 0 00-.516-1.288l-.108-.054-10.422-4.466a3 3 0 00-2.092-.101l-.204.073L6 24.676V36a1 1 0 01-.883.993L5 37H1a1 1 0 01-.117-1.993L1 35h3V23H1a1 1 0 01-.117-1.993L1 21h4zm4 13a1 1 0 110 2 1 1 0 010-2zm19.685-8.867l-.085.03-.084.035-4.812 2.14c.217.327.37.694.452 1.078l6.492-2.782a1.871 1.871 0 00-1.963-.501zM31 0a1 1 0 011 1v20a1 1 0 01-1.993.117L30 21v-8H10v6a1 1 0 01-1.993.117L8 19V1a1 1 0 011-1h22zM21 18a1 1 0 01.117 1.993L21 20h-8a1 1 0 01-.117-1.993L13 18h8zm4-3a1 1 0 01.117 1.993L25 17H13a1 1 0 01-.117-1.993L13 15h12zm5-13H10v9h20V2zm-9 5a1 1 0 01.117 1.993L21 9h-8a1 1 0 01-.117-1.993L13 7h8zm4-3a1 1 0 01.117 1.993L25 6H13a1 1 0 01-.117-1.993L13 4h12z" fill-rule="evenodd"/>
</svg>
