<svg viewBox="0 0 40 40" xmlns="http://www.w3.org/2000/svg" role="icon">
    <path fill-rule="evenodd" clip-rule="evenodd" d="M5 20c0-8.284 6.716-15 15-15 8.284 0 15 6.716 15 15 0 2.556-.639 4.96-1.764 7.064a1 1 0 001.763.944A16.93 16.93 0 0037 20c0-9.389-7.611-17-17-17S3 10.611 3 20s7.611 17 17 17c2.893 0 5.62-.724 8.008-2a1 1 0 10-.944-1.764A14.93 14.93 0 0120 35c-8.284 0-15-6.716-15-15zm23.707-5.707a1 1 0 010 1.414l-11 11a1 1 0 01-1.414 0l-5-5a1 1 0 011.414-1.414L17 24.586l10.293-10.293a1 1 0 011.414 0zM32 31a1 1 0 10-2 0 1 1 0 002 0z"/>
</svg>
