<svg xmlns="http://www.w3.org/2000/svg" viewBox="0 0 40 40" role="icon">
    <path fill-rule="evenodd" d="M20 0c1.485 0 2.805.775 3.495 2H27a1 1 0 01.993.883L28 3v1h5a1 1 0 01.993.883L34 5v2a1 1 0 01-2 0V6h-4v1a1 1 0 01-.883.993L27 8H13a1 1 0 01-.993-.883L12 7V6H8v32h24V15a1 1 0 011.993-.117L34 15v24a1 1 0 01-.883.993L33 40H7a1 1 0 01-.993-.883L6 39V5a1 1 0 01.883-.993L7 4h5V3a1 1 0 01.883-.993L13 2h3.518C17.213.78 18.527 0 20 0zm-5.644 28.428a1 1 0 011.638 1.147L13.7 32.85a1 1 0 01-1.393.246l-1.826-1.279a1 1 0 011.147-1.638l1.007.705zM26 30a1 1 0 010 2h-6a1 1 0 010-2h6zm-10.251-9.818a1 1 0 01.31 1.285l-.065.108L13.7 24.85a1 1 0 01-1.285.311l-.108-.065-1.826-1.279a1 1 0 011.04-1.704l.107.066 1.007.705 1.721-2.457a1 1 0 011.393-.246zM28 22a1 1 0 010 2h-8a1 1 0 010-2h8zm-12.251-9.818a1 1 0 01.31 1.285l-.065.108L13.7 16.85a1 1 0 01-1.285.311l-.108-.065-1.826-1.279a1 1 0 011.04-1.704l.107.066 1.007.705 1.721-2.457a1 1 0 011.393-.246zM27 14a1 1 0 010 2h-7a1 1 0 010-2h7zm6-4a1 1 0 110 2 1 1 0 010-2zM20 2c-.822 0-1.53.468-1.838 1.177l-.056.145-.044.109a1 1 0 01-1.061.556L17 4h-3v2h12V4h-3v-.011a1 1 0 01-1.058-.566l-.043-.109-.054-.144C21.545 2.463 20.837 2 20 2z"/>
</svg>
