<svg viewBox="0 0 40 40" xmlns="http://www.w3.org/2000/svg" role="icon">
    <path fill-rule="evenodd" clip-rule="evenodd" d="M25 9a5 5 0 10-10 0 5 5 0 0010 0zm-8 0a3 3 0 116 0 3 3 0 01-6 0zM8 6a5 5 0 110 10A5 5 0 018 6zm0 2a3 3 0 100 6 3 3 0 000-6zm6 16a6 6 0 0112 0v11a1 1 0 102 0v-7a4 4 0 018 0v2a1 1 0 102 0v-2a6 6 0 00-10.013-4.46 8 8 0 00-15.155-3.097A6 6 0 002 24v9a1 1 0 102 0v-9a4 4 0 018 0v11a1 1 0 102 0V24zm18-12a4 4 0 110 8 4 4 0 010-8zm0 2a2 2 0 100 4 2 2 0 000-4zm6 19a1 1 0 11-2 0 1 1 0 012 0z"/>
</svg>
