<svg viewBox="0 0 40 40" xmlns="http://www.w3.org/2000/svg" role="icon">
    <title>
        Illustrative Icon/Editorial/ticket
    </title>
    <path d="M27.62 3.215l.087.078 2 2A.997.997 0 0130 6h.049a.997.997 0 01-.285.75 2.5 2.5 0 003.535 3.536 1 1 0 011.407.008l4 3.999a1 1 0 01.001 1.414l-23 23a1 1 0 01-1.414 0l-4-4a1 1 0 01.007-1.421 2.5 2.5 0 10-3.535-3.536 1 1 0 01-1.421.007l-4.051-4.05a1 1 0 010-1.414L15.41 10.176 17.285 8.3l.008-.007.004-.004 2.01-2.01-.014.014 2-2a1 1 0 011.492 1.327l-.078.087-.939.94-2.354 2.352 1.293 1.294a1 1 0 01.083 1.32l-.083.094a1 1 0 01-1.32.083l-.094-.083-1.294-1.293L3.414 25l2.71 2.71a4.5 4.5 0 016.216 6.218L15 36.585 29.585 22l-1.292-1.293a1 1 0 01-.083-1.32l.083-.094a1 1 0 011.414 0L31 20.585 36.586 15l-2.672-2.67a4.5 4.5 0 01-6.193-6.194l-1.428-1.429a1 1 0 011.327-1.492zM15.237 19.052a.5.5 0 01.305.099l1.85 1.38 2.184-.741a.5.5 0 01.634.634l-.74 2.185 1.38 1.849a.5.5 0 01-.408.799l-2.307-.03-1.332 1.884a.5.5 0 01-.886-.14l-.685-2.203-2.203-.685a.5.5 0 01-.14-.886l1.883-1.332-.029-2.307a.5.5 0 01.494-.506zm8.876-5.342l.094.083 2 2a1 1 0 01-1.32 1.497l-.094-.083-2-2a1 1 0 011.32-1.497zM25 1a1 1 0 110 2 1 1 0 010-2z" fill-rule="evenodd"/>
</svg>
