<svg viewBox="0 0 40 40" xmlns="http://www.w3.org/2000/svg" role="icon">
    <path fill-rule="evenodd" clip-rule="evenodd" d="M19 12.8a1 1 0 011-1c3.446 0 6.48 2.124 6.985 5.029a1 1 0 01-1.97.342C24.72 15.476 22.754 13.8 20 13.8a1 1 0 01-1-1zM14.7 34a1 1 0 011-1h3.9a1 1 0 010 2h-2.898c.05 1.217 1 2.1 2.098 2.1h2.4c1.187 0 2.1-.99 2.1-2.2V34a1 1 0 112 0v.9c0 2.19-1.687 4.2-4.1 4.2h-2.4c-2.273 0-4.1-1.869-4.1-4.2V34zM20 1a1 1 0 011 1v4.2a1 1 0 11-2 0V2a1 1 0 011-1zM10.496 3.536a1 1 0 011.368.36l2.1 3.6a1 1 0 01-1.728 1.008l-2.1-3.6a1 1 0 01.36-1.368zM3.636 10.396a1 1 0 011.368-.36l3.6 2.1a1 1 0 11-1.008 1.728l-3.6-2.1a1 1 0 01-.36-1.368zM36.364 10.396a1 1 0 01-.36 1.368l-3.6 2.1a1 1 0 11-1.008-1.728l3.6-2.1a1 1 0 011.368.36zM29.504 3.536a1 1 0 01.36 1.368l-2.1 3.6a1 1 0 01-1.728-1.008l2.1-3.6a1 1 0 011.368-.36z"/>
    <path d="M26 21a1 1 0 100-2 1 1 0 000 2z"/>
    <path fill-rule="evenodd" clip-rule="evenodd" d="M20.1 10c-4.841 0-8.7 3.946-8.7 8.7 0 2.948 1.507 5.875 4.727 7.396A1 1 0 0116.7 27v4a1 1 0 11-2 0v-3.386c-3.59-1.951-5.3-5.442-5.3-8.914C9.4 12.854 14.14 8 20.1 8c5.952 0 10.7 4.748 10.7 10.7 0 3.79-1.92 7.098-5.5 8.93V31a1 1 0 11-2 0v-4a1 1 0 01.594-.914c3.238-1.439 4.906-4.18 4.906-7.386 0-4.848-3.852-8.7-8.7-8.7z"/>
</svg>
