<svg viewBox="0 0 40 40" xmlns="http://www.w3.org/2000/svg" role="icon">
    <path fill-rule="evenodd" clip-rule="evenodd" d="M7 7a3 3 0 00-3 3v1H2a1 1 0 00-1 1v6a1 1 0 102 0v-5h1v17a1 1 0 001 1h1v2a1 1 0 001 1h3a1 1 0 001-1v-2h7v2a1 1 0 001 1h3a1 1 0 001-1v-2h11v2a1 1 0 001 1h3a1 1 0 001-1V23a1 1 0 100-2h-.34l-2.74-6.394A1 1 0 0035 14h-8v-2a1 1 0 00-1-1h-2v-1a3 3 0 00-3-3H7zm18 7v-1h-1v1h1zm-7 15v-6H6v6h12zm0-8h.34l2.74-6.394A1 1 0 0122 14v-1H6v8h12zm4-10v-1a1 1 0 00-1-1H7a1 1 0 00-1 1v1h16zM9 31H8v1h1v-1zm4-6a1 1 0 100 2h2a1 1 0 100-2h-2zm-3 1a1 1 0 11-2 0 1 1 0 012 0zm26.483-5l-2.142-5H22.659l-2.142 5h15.966zM37 23H20v6h17v-6zm-1 9v-1h1v1h-1zm-15-1h-1v1h1v-1zm2-4a1 1 0 100-2 1 1 0 000 2zm12-1a1 1 0 11-2 0 1 1 0 012 0zm-9 0a1 1 0 011-1h3a1 1 0 110 2h-3a1 1 0 01-1-1z"/>
</svg>
