<svg viewBox="0 0 40 40" xmlns="http://www.w3.org/2000/svg" role="icon">
    <path fill-rule="evenodd" clip-rule="evenodd" d="M17 1a1 1 0 00-1 1v.832A10.018 10.018 0 0010.2 10H9a1 1 0 100 2h1c0 5.523 4.477 10 10 10s10-4.477 10-10h1a1 1 0 100-2h-1.2A10.018 10.018 0 0024 2.832V2a1 1 0 00-1-1h-6zm3 19a8 8 0 01-8-8h16a8 8 0 01-8 8zm-7.748-10h15.496A8.016 8.016 0 0024 5.07V7a1 1 0 11-2 0V3h-4v4a1 1 0 11-2 0V5.07A8.016 8.016 0 0012.252 10zM7 34a9 9 0 019-9h8a9 9 0 019 9 1 1 0 11-2 0 7 7 0 00-7-7h-8a7 7 0 00-7 7v4a1 1 0 11-2 0v-4zm25 5a1 1 0 100-2 1 1 0 000 2z"/>
</svg>
